999
dxfrw 0.6.3
  0
SECTION
  2
HEADER
  9
$ACADVER
  1
AC1021
  9
$DWGCODEPAGE
  3
ANSI_1252
  9
$INSBASE
 10
0
 20
0
 30
0
  9
$EXTMIN
 10
-267.2191995794933
 20
-79.03722645422832
 30
0
  9
$EXTMAX
 10
89.24513301336897
 20
26.31579291252738
 30
0
  9
$LIMMIN
 10
0
 20
0
  9
$LIMMAX
 10
420
 20
297
  9
$ORTHOMODE
 70
    0
  9
$REGENMODE
 70
    1
  9
$FILLMODE
 70
    1
  9
$QTEXTMODE
 70
    0
  9
$MIRRTEXT
 70
    0
  9
$LTSCALE
 40
1
  9
$ATTMODE
 70
    0
  9
$TEXTSIZE
 40
2.5
  9
$TRACEWID
 40
15.68
  9
$TEXTSTYLE
  7
STANDARD
  9
$CLAYER
  8
0
  9
$CELTYPE
  6
BYLAYER
  9
$CECOLOR
 62
  256
  9
$CELTSCALE
 40
1
  9
$DISPSILH
 70
    0
  9
$DIMSCALE
 40
1
  9
$DIMASZ
 40
2.5
  9
$DIMEXO
 40
0.625
  9
$DIMDLI
 40
3.75
  9
$DIMRND
 40
0
  9
$DIMDLE
 40
0
  9
$DIMEXE
 40
1.25
  9
$DIMTP
 40
0
  9
$DIMTM
 40
0
  9
$DIMTXT
 40
2.5
  9
$DIMCEN
 40
2.5
  9
$DIMTSZ
 40
0
  9
$DIMTOL
 70
    0
  9
$DIMLIM
 70
    0
  9
$DIMTIH
 70
    0
  9
$DIMTOH
 70
    0
  9
$DIMSE1
 70
    0
  9
$DIMSE2
 70
    0
  9
$DIMTAD
 70
    1
  9
$DIMZIN
 70
    1
  9
$DIMBLK
  1

  9
$DIMASO
 70
    1
  9
$DIMSHO
 70
    1
  9
$DIMPOST
  1

  9
$DIMAPOST
  1

  9
$DIMALT
 70
    0
  9
$DIMALTD
 70
    3
  9
$DIMALTF
 40
0.03937
  9
$DIMLFAC
 40
1
  9
$DIMTOFL
 70
    1
  9
$DIMTVP
 40
0
  9
$DIMTIX
 70
    0
  9
$DIMSOXD
 70
    0
  9
$DIMSAH
 70
    0
  9
$DIMBLK1
  1

  9
$DIMBLK2
  1

  9
$DIMSTYLE
  2
Standard
  9
$DIMCLRD
 70
    0
  9
$DIMCLRE
 70
    0
  9
$DIMCLRT
 70
    0
  9
$DIMTFAC
 40
1
  9
$DIMGAP
 40
0.625
  9
$DIMJUST
 70
    0
  9
$DIMSD1
 70
    0
  9
$DIMSD2
 70
    0
  9
$DIMTOLJ
 70
    0
  9
$DIMTZIN
 70
    8
  9
$DIMALTZ
 70
    0
  9
$DIMALTTZ
 70
    0
  9
$DIMUPT
 70
    0
  9
$DIMDEC
 70
    4
  9
$DIMTDEC
 70
    2
  9
$DIMALTU
 70
    2
  9
$DIMALTTD
 70
    3
  9
$DIMTXSTY
  7
standard
  9
$DIMAUNIT
 70
    0
  9
$DIMADEC
 70
    2
  9
$DIMALTRND
 40
0
  9
$DIMAZIN
 70
    0
  9
$DIMDSEP
 70
    0
  9
$DIMATFIT
 70
    3
  9
$DIMFRAC
 70
    0
  9
$DIMLDRBLK
  1
STANDARD
  9
$DIMLUNIT
 70
    2
  9
$DIMLWD
 70
   -2
  9
$DIMLWE
 70
   -2
  9
$DIMTMOVE
 70
    0
  9
$DIMFXL
 40
1
  9
$DIMFXLON
 70
    0
  9
$DIMJOGANG
 40
0.7854
  9
$DIMTFILL
 70
    0
  9
$DIMTFILLCLR
 70
    0
  9
$DIMARCSYM
 70
    0
  9
$DIMLTYPE
  6

  9
$DIMLTEX1
  6

  9
$DIMLTEX2
  6

  9
$LUNITS
 70
    2
  9
$LUPREC
 70
    4
  9
$SKETCHINC
 40
1
  9
$FILLETRAD
 40
0
  9
$AUNITS
 70
    0
  9
$AUPREC
 70
    2
  9
$MENU
  1
.
  9
$ELEVATION
 40
0
  9
$PELEVATION
 40
0
  9
$THICKNESS
 40
0
  9
$LIMCHECK
 70
    0
  9
$CHAMFERA
 40
0
  9
$CHAMFERB
 40
0
  9
$CHAMFERC
 40
0
  9
$CHAMFERD
 40
0
  9
$SKPOLY
 70
    0
  9
$USRTIMER
 70
    1
  9
$ANGBASE
 50
0
  9
$ANGDIR
 70
    0
  9
$PDMODE
 70
   34
  9
$PDSIZE
 40
0
  9
$PLINEWID
 40
0
  9
$SPLFRAME
 70
    0
  9
$SPLINETYPE
 70
    2
  9
$SPLINESEGS
 70
    8
  9
$HANDSEED
  5
20000
  9
$SURFTAB1
 70
    6
  9
$SURFTAB2
 70
    6
  9
$SURFTYPE
 70
    6
  9
$SURFU
 70
    6
  9
$SURFV
 70
    6
  9
$UCSBASE
  2

  9
$UCSNAME
  2

  9
$UCSORG
 10
0
 20
0
 30
0
  9
$UCSXDIR
 10
1
 20
0
 30
0
  9
$UCSYDIR
 10
0
 20
1
 30
0
  9
$UCSORTHOREF
  2

  9
$UCSORTHOVIEW
 70
    0
  9
$UCSORGTOP
 10
0
 20
0
 30
0
  9
$UCSORGBOTTOM
 10
0
 20
0
 30
0
  9
$UCSORGLEFT
 10
0
 20
0
 30
0
  9
$UCSORGRIGHT
 10
0
 20
0
 30
0
  9
$UCSORGFRONT
 10
0
 20
0
 30
0
  9
$UCSORGBACK
 10
0
 20
0
 30
0
  9
$PUCSBASE
  2

  9
$PUCSNAME
  2

  9
$PUCSORG
 10
0
 20
0
 30
0
  9
$PUCSXDIR
 10
1
 20
0
 30
0
  9
$PUCSYDIR
 10
0
 20
1
 30
0
  9
$PUCSORTHOREF
  2

  9
$PUCSORTHOVIEW
 70
    0
  9
$PUCSORGTOP
 10
0
 20
0
 30
0
  9
$PUCSORGBOTTOM
 10
0
 20
0
 30
0
  9
$PUCSORGLEFT
 10
0
 20
0
 30
0
  9
$PUCSORGRIGHT
 10
0
 20
0
 30
0
  9
$PUCSORGFRONT
 10
0
 20
0
 30
0
  9
$PUCSORGBACK
 10
0
 20
0
 30
0
  9
$USERI1
 70
    0
  9
$USERI2
 70
    0
  9
$USERI3
 70
    0
  9
$USERI4
 70
    0
  9
$USERI5
 70
    0
  9
$USERR1
 40
0
  9
$USERR2
 40
0
  9
$USERR3
 40
0
  9
$USERR4
 40
0
  9
$USERR5
 40
0
  9
$WORLDVIEW
 70
    1
  9
$SHADEDGE
 70
    3
  9
$SHADEDIF
 70
   70
  9
$TILEMODE
 70
    1
  9
$MAXACTVP
 70
   64
  9
$PINSBASE
 10
199.2557976831887
 20
121.4406829648444
 30
0
  9
$PLIMCHECK
 70
    0
  9
$PEXTMIN
 10
0
 20
0
 30
0
  9
$PEXTMAX
 10
0
 20
0
 30
0
  9
$GRIDMODE
 70
    1
  9
$SNAPSTYLE
 70
    0
  9
$GRIDUNIT
 10
0
 20
0
  9
$PLIMMIN
 10
0
 20
0
  9
$PLIMMAX
 10
210
 20
297
  9
$UNITMODE
 70
    0
  9
$VISRETAIN
 70
    1
  9
$PLINEGEN
 70
    0
  9
$PSLTSCALE
 70
    1
  9
$TREEDEPTH
 70
 3020
  9
$CMLSTYLE
  2
Standard
  9
$CMLJUST
 70
    0
  9
$CMLSCALE
 40
20
  9
$PROXYGRAPHICS
 70
    1
  9
$MEASUREMENT
 70
    1
  9
$CELWEIGHT
370
   -1
  9
$ENDCAPS
280
    0
  9
$JOINSTYLE
280
    0
  9
$LWDISPLAY
290
    0
  9
$INSUNITS
 70
    4
  9
$HYPERLINKBASE
  1

  9
$STYLESHEET
  1

  9
$XEDIT
290
    1
  9
$CEPSNTYPE
380
    0
  9
$PSTYLEMODE
290
    1
  9
$EXTNAMES
290
    1
  9
$PSVPSCALE
 40
1
  9
$OLESTARTUP
290
    0
  9
$SORTENTS
280
  127
  9
$INDEXCTL
280
    0
  9
$HIDETEXT
280
    1
  9
$XCLIPFRAME
290
    0
  9
$HALOGAP
280
    0
  9
$OBSCOLOR
 70
  257
  9
$OBSLTYPE
280
    0
  9
$INTERSECTIONDISPLAY
280
    0
  9
$INTERSECTIONCOLOR
 70
  257
  9
$DIMASSOC
280
    1
  9
$PROJECTNAME
  1

  9
$CAMERADISPLAY
290
    0
  9
$LENSLENGTH
 40
50
  9
$CAMERAHEIGHT
 40
0
  9
$STEPSPERSEC
 40
2
  9
$STEPSIZE
 40
50
  9
$3DDWFPREC
 40
2
  9
$PSOLWIDTH
 40
5
  9
$PSOLHEIGHT
 40
80
  9
$LOFTANG1
 40
1.570796326794897
  9
$LOFTANG2
 40
1.570796326794897
  9
$LOFTMAG1
 40
0
  9
$LOFTMAG2
 40
0
  9
$LOFTPARAM
 70
    7
  9
$LOFTNORMALS
280
    1
  9
$LATITUDE
 40
1
  9
$LONGITUDE
 40
1
  9
$NORTHDIRECTION
 40
0
  9
$TIMEZONE
 70
-8000
  9
$LIGHTGLYPHDISPLAY
280
    1
  9
$TILEMODELIGHTSYNCH
280
    1
  9
$SOLIDHIST
280
    1
  9
$SHOWHIST
280
    1
  9
$DWFFRAME
280
    2
  9
$DGNFRAME
280
    0
  9
$REALWORLDSCALE
290
    1
  9
$INTERFERECOLOR
 62
    1
  9
$CSHADOW
280
    0
  9
$SHADOWPLANELOCATION
 40
0
  0
ENDSEC
  0
SECTION
  2
CLASSES
  0
ENDSEC
  0
SECTION
  2
TABLES
  0
TABLE
  2
VPORT
  5
8
330
0
100
AcDbSymbolTable
 70
    1
  0
VPORT
  5
31
330
2
100
AcDbSymbolTableRecord
100
AcDbViewportTableRecord
  2
*ACTIVE
 70
    0
 10
0
 20
0
 11
1
 21
1
 12
164.4245292632008
 22
105.2703300422255
 13
0
 23
0
 14
10
 24
10
 15
10
 25
10
 16
0
 26
0
 36
1
 17
0
 27
0
 37
0
 40
460.1955253680775
 41
1.633788037775446
 42
50
 43
0
 44
0
 50
0
 51
0
 71
    0
 72
  100
 73
    1
 74
    3
 75
    0
 76
    1
 77
    0
 78
    0
281
    0
 65
    1
110
0
120
0
130
0
111
1
121
0
131
0
112
0
122
1
132
0
 79
    0
146
0
348
10020
 60
    7
 61
    5
292
1
282
    1
141
0
142
0
 63
  250
421
3358443
  0
ENDTAB
  0
TABLE
  2
LTYPE
  5
5
330
0
100
AcDbSymbolTable
 70
    4
  0
LTYPE
  5
14
330
5
100
AcDbSymbolTableRecord
100
AcDbLinetypeTableRecord
  2
ByBlock
 70
    0
  3

 72
   65
 73
    0
 40
0
  0
LTYPE
  5
15
330
5
100
AcDbSymbolTableRecord
100
AcDbLinetypeTableRecord
  2
ByLayer
 70
    0
  3

 72
   65
 73
    0
 40
0
  0
LTYPE
  5
16
330
5
100
AcDbSymbolTableRecord
100
AcDbLinetypeTableRecord
  2
Continuous
 70
    0
  3
Solid line
 72
   65
 73
    0
 40
0
  0
LTYPE
  5
32
330
5
100
AcDbSymbolTableRecord
100
AcDbLinetypeTableRecord
  2
DOT
 70
    0
  3
Dot . . . . . . . . . . . . . . . . . . . . . .
 72
   65
 73
    2
 40
6.35
 49
0
 74
    0
 49
-6.35
 74
    0
  0
LTYPE
  5
33
330
5
100
AcDbSymbolTableRecord
100
AcDbLinetypeTableRecord
  2
DOTTINY
 70
    0
  3
Dot (.15x) .....................................
 72
   65
 73
    2
 40
0.9525
 49
0
 74
    0
 49
-0.9525
 74
    0
  0
LTYPE
  5
34
330
5
100
AcDbSymbolTableRecord
100
AcDbLinetypeTableRecord
  2
DOT2
 70
    0
  3
Dot (.5x) .....................................
 72
   65
 73
    2
 40
3.175
 49
0
 74
    0
 49
-3.175
 74
    0
  0
LTYPE
  5
35
330
5
100
AcDbSymbolTableRecord
100
AcDbLinetypeTableRecord
  2
DOTX2
 70
    0
  3
Dot (2x) .  .  .  .  .  .  .  .  .  .  .  .  .
 72
   65
 73
    2
 40
12.7
 49
0
 74
    0
 49
-12.7
 74
    0
  0
LTYPE
  5
36
330
5
100
AcDbSymbolTableRecord
100
AcDbLinetypeTableRecord
  2
DASHED
 70
    0
  3
Dashed _ _ _ _ _ _ _ _ _ _ _ _ _ _ _ _ _
 72
   65
 73
    2
 40
19.05
 49
12.7
 74
    0
 49
-6.35
 74
    0
  0
LTYPE
  5
37
330
5
100
AcDbSymbolTableRecord
100
AcDbLinetypeTableRecord
  2
DASHEDTINY
 70
    0
  3
Dashed (.15x) _ _ _ _ _ _ _ _ _ _ _ _ _ _ _ _ _
 72
   65
 73
    2
 40
2.8575
 49
1.905
 74
    0
 49
-0.9525
 74
    0
  0
LTYPE
  5
38
330
5
100
AcDbSymbolTableRecord
100
AcDbLinetypeTableRecord
  2
DASHED2
 70
    0
  3
Dashed (.5x) _ _ _ _ _ _ _ _ _ _ _ _ _ _ _ _ _
 72
   65
 73
    2
 40
9.524999999999999
 49
6.35
 74
    0
 49
-3.175
 74
    0
  0
LTYPE
  5
39
330
5
100
AcDbSymbolTableRecord
100
AcDbLinetypeTableRecord
  2
DASHEDX2
 70
    0
  3
Dashed (2x) ____  ____  ____  ____  ____  ___
 72
   65
 73
    2
 40
38.09999999999999
 49
25.4
 74
    0
 49
-12.7
 74
    0
  0
LTYPE
  5
3A
330
5
100
AcDbSymbolTableRecord
100
AcDbLinetypeTableRecord
  2
DASHDOT
 70
    0
  3
Dash dot __ . __ . __ . __ . __ . __ . __ . __
 72
   65
 73
    4
 40
25.4
 49
12.7
 74
    0
 49
-6.35
 74
    0
 49
0
 74
    0
 49
-6.35
 74
    0
  0
LTYPE
  5
3B
330
5
100
AcDbSymbolTableRecord
100
AcDbLinetypeTableRecord
  2
DASHDOTTINY
 70
    0
  3
Dash dot (.15x) _._._._._._._._._._._._._._._.
 72
   65
 73
    4
 40
3.81
 49
1.905
 74
    0
 49
-0.9525
 74
    0
 49
0
 74
    0
 49
-0.9525
 74
    0
  0
LTYPE
  5
3C
330
5
100
AcDbSymbolTableRecord
100
AcDbLinetypeTableRecord
  2
DASHDOT2
 70
    0
  3
Dash dot (.5x) _._._._._._._._._._._._._._._.
 72
   65
 73
    4
 40
12.7
 49
6.35
 74
    0
 49
-3.175
 74
    0
 49
0
 74
    0
 49
-3.175
 74
    0
  0
LTYPE
  5
3D
330
5
100
AcDbSymbolTableRecord
100
AcDbLinetypeTableRecord
  2
DASHDOTX2
 70
    0
  3
Dash dot (2x) ____  .  ____  .  ____  .  ___
 72
   65
 73
    4
 40
50.8
 49
25.4
 74
    0
 49
-12.7
 74
    0
 49
0
 74
    0
 49
-12.7
 74
    0
  0
LTYPE
  5
3E
330
5
100
AcDbSymbolTableRecord
100
AcDbLinetypeTableRecord
  2
DIVIDE
 70
    0
  3
Divide ____ . . ____ . . ____ . . ____ . . ____
 72
   65
 73
    6
 40
31.75
 49
12.7
 74
    0
 49
-6.35
 74
    0
 49
0
 74
    0
 49
-6.35
 74
    0
 49
0
 74
    0
 49
-6.35
 74
    0
  0
LTYPE
  5
3F
330
5
100
AcDbSymbolTableRecord
100
AcDbLinetypeTableRecord
  2
DIVIDETINY
 70
    0
  3
Divide (.15x) __..__..__..__..__..__..__..__.._
 72
   65
 73
    6
 40
4.7625
 49
1.905
 74
    0
 49
-0.9525
 74
    0
 49
0
 74
    0
 49
-0.9525
 74
    0
 49
0
 74
    0
 49
-0.9525
 74
    0
  0
LTYPE
  5
40
330
5
100
AcDbSymbolTableRecord
100
AcDbLinetypeTableRecord
  2
DIVIDE2
 70
    0
  3
Divide (.5x) __..__..__..__..__..__..__..__.._
 72
   65
 73
    6
 40
15.875
 49
6.35
 74
    0
 49
-3.175
 74
    0
 49
0
 74
    0
 49
-3.175
 74
    0
 49
0
 74
    0
 49
-3.175
 74
    0
  0
LTYPE
  5
41
330
5
100
AcDbSymbolTableRecord
100
AcDbLinetypeTableRecord
  2
DIVIDEX2
 70
    0
  3
Divide (2x) ________  .  .  ________  .  .  _
 72
   65
 73
    6
 40
63.5
 49
25.4
 74
    0
 49
-12.7
 74
    0
 49
0
 74
    0
 49
-12.7
 74
    0
 49
0
 74
    0
 49
-12.7
 74
    0
  0
LTYPE
  5
42
330
5
100
AcDbSymbolTableRecord
100
AcDbLinetypeTableRecord
  2
BORDER
 70
    0
  3
Border __ __ . __ __ . __ __ . __ __ . __ __ .
 72
   65
 73
    6
 40
44.45
 49
12.7
 74
    0
 49
-6.35
 74
    0
 49
12.7
 74
    0
 49
-6.35
 74
    0
 49
0
 74
    0
 49
-6.35
 74
    0
  0
LTYPE
  5
43
330
5
100
AcDbSymbolTableRecord
100
AcDbLinetypeTableRecord
  2
BORDERTINY
 70
    0
  3
Border (.15x) __.__.__.__.__.__.__.__.__.__.__.
 72
   65
 73
    6
 40
6.6675
 49
1.905
 74
    0
 49
-0.9525
 74
    0
 49
1.905
 74
    0
 49
-0.9525
 74
    0
 49
0
 74
    0
 49
-0.9525
 74
    0
  0
LTYPE
  5
44
330
5
100
AcDbSymbolTableRecord
100
AcDbLinetypeTableRecord
  2
BORDER2
 70
    0
  3
Border (.5x) __.__.__.__.__.__.__.__.__.__.__.
 72
   65
 73
    6
 40
22.225
 49
6.35
 74
    0
 49
-3.175
 74
    0
 49
6.35
 74
    0
 49
-3.175
 74
    0
 49
0
 74
    0
 49
-3.175
 74
    0
  0
LTYPE
  5
45
330
5
100
AcDbSymbolTableRecord
100
AcDbLinetypeTableRecord
  2
BORDERX2
 70
    0
  3
Border (2x) ____  ____  .  ____  ____  .  ___
 72
   65
 73
    6
 40
88.89999999999999
 49
25.4
 74
    0
 49
-12.7
 74
    0
 49
25.4
 74
    0
 49
-12.7
 74
    0
 49
0
 74
    0
 49
-12.7
 74
    0
  0
LTYPE
  5
46
330
5
100
AcDbSymbolTableRecord
100
AcDbLinetypeTableRecord
  2
CENTER
 70
    0
  3
Center ____ _ ____ _ ____ _ ____ _ ____ _ ____
 72
   65
 73
    4
 40
50.8
 49
31.75
 74
    0
 49
-6.35
 74
    0
 49
6.35
 74
    0
 49
-6.35
 74
    0
  0
LTYPE
  5
47
330
5
100
AcDbSymbolTableRecord
100
AcDbLinetypeTableRecord
  2
CENTERTINY
 70
    0
  3
Center (.15x) ___ _ ___ _ ___ _ ___ _ ___ _ ___
 72
   65
 73
    4
 40
7.619999999999999
 49
4.7625
 74
    0
 49
-0.9525
 74
    0
 49
0.9525
 74
    0
 49
-0.9525
 74
    0
  0
LTYPE
  5
48
330
5
100
AcDbSymbolTableRecord
100
AcDbLinetypeTableRecord
  2
CENTER2
 70
    0
  3
Center (.5x) ___ _ ___ _ ___ _ ___ _ ___ _ ___
 72
   65
 73
    4
 40
28.575
 49
19.05
 74
    0
 49
-3.175
 74
    0
 49
3.175
 74
    0
 49
-3.175
 74
    0
  0
LTYPE
  5
49
330
5
100
AcDbSymbolTableRecord
100
AcDbLinetypeTableRecord
  2
CENTERX2
 70
    0
  3
Center (2x) ________  __  ________  __  _____
 72
   65
 73
    4
 40
101.6
 49
63.5
 74
    0
 49
-12.7
 74
    0
 49
12.7
 74
    0
 49
-12.7
 74
    0
  0
ENDTAB
  0
TABLE
  2
LAYER
  5
2
330
0
100
AcDbSymbolTable
 70
    1
  0
LAYER
  5
10
330
2
100
AcDbSymbolTableRecord
100
AcDbLayerTableRecord
  2
0
 70
    0
 62
    7
  6
CONTINUOUS
370
   -3
390
F
  0
ENDTAB
  0
TABLE
  2
STYLE
  5
3
330
0
100
AcDbSymbolTable
 70
    3
  0
STYLE
  5
4A
330
2
100
AcDbSymbolTableRecord
100
AcDbTextStyleTableRecord
  2
Standard
 70
    0
 40
0
 41
1
 50
0
 71
    0
 42
1
  3
txt
  4

  0
ENDTAB
  0
TABLE
  2
VIEW
  5
6
330
0
100
AcDbSymbolTable
 70
    0
  0
ENDTAB
  0
TABLE
  2
UCS
  5
7
330
0
100
AcDbSymbolTable
 70
    0
  0
ENDTAB
  0
TABLE
  2
APPID
  5
9
330
0
100
AcDbSymbolTable
 70
    1
  0
APPID
  5
12
330
9
100
AcDbSymbolTableRecord
100
AcDbRegAppTableRecord
  2
ACAD
 70
    0
  0
APPID
  5
4B
330
9
100
AcDbSymbolTableRecord
100
AcDbRegAppTableRecord
  2
LibreCad
 70
    0
  0
ENDTAB
  0
TABLE
  2
DIMSTYLE
  5
A
330
0
100
AcDbSymbolTable
 70
    1
100
AcDbDimStyleTable
 71
    1
  0
DIMSTYLE
105
4C
330
A
100
AcDbSymbolTableRecord
100
AcDbDimStyleTableRecord
  2
Standard
 70
    0
 40
1
 41
2.5
 42
0.625
 43
0.38
 44
1.25
 45
0
 46
0
 47
0
 48
0
 49
1
140
2.5
141
0.09
142
0
143
25.4
144
1
145
0
146
1
147
0.625
148
0
 71
    0
 72
    0
 73
    0
 74
    1
 75
    0
 76
    0
 77
    0
 78
    1
 79
    0
170
    0
171
    2
172
    0
173
    0
174
    0
175
    0
176
    0
177
    0
178
    0
179
    2
271
    4
272
    4
273
    2
274
    2
275
    0
276
    0
277
    2
278
    0
279
    0
280
    0
281
    0
282
    0
283
    1
284
    0
285
    0
286
    0
288
    0
289
    3
340
standard
341

371
   -2
372
   -2
  0
ENDTAB
  0
TABLE
  2
BLOCK_RECORD
  5
1
330
0
100
AcDbSymbolTable
 70
    2
  0
BLOCK_RECORD
  5
1F
330
1
100
AcDbSymbolTableRecord
100
AcDbBlockTableRecord
  2
*Model_Space
 70
    0
280
    1
281
    0
  0
BLOCK_RECORD
  5
1E
330
1
100
AcDbSymbolTableRecord
100
AcDbBlockTableRecord
  2
*Paper_Space
 70
    0
280
    1
281
    0
  0
ENDTAB
  0
ENDSEC
  0
SECTION
  2
BLOCKS
  0
BLOCK
  5
20
330
1F
100
AcDbEntity
  8
0
100
AcDbBlockBegin
  2
*Model_Space
 70
    0
 10
0
 20
0
 30
0
  3
*Model_Space
  1

  0
ENDBLK
  5
21
330
1F
100
AcDbEntity
  8
0
100
AcDbBlockEnd
  0
BLOCK
  5
1C
330
1B
100
AcDbEntity
  8
0
100
AcDbBlockBegin
  2
*Paper_Space
 70
    0
 10
0
 20
0
 30
0
  3
*Paper_Space
  1

  0
ENDBLK
  5
1D
330
1F
100
AcDbEntity
  8
0
100
AcDbBlockEnd
  0
ENDSEC
  0
SECTION
  2
ENTITIES
  0
CIRCLE
  5
4D
100
AcDbEntity
  8
0
  6
ByLayer
 62
  256
370
   -1
100
AcDbCircle
 10
66.19971912100715
 20
-22.58696819910805
 40
1.2
  0
CIRCLE
  5
4E
100
AcDbEntity
  8
0
  6
ByLayer
 62
  256
370
   -1
100
AcDbCircle
 10
42.28395526788532
 20
13.84403914109344
 40
1.2
  0
CIRCLE
  5
4F
100
AcDbEntity
  8
0
  6
ByLayer
 62
  256
370
   -1
100
AcDbCircle
 10
45.69766861475611
 20
-36.02075027301299
 40
1.2
  0
CIRCLE
  5
50
100
AcDbEntity
  8
0
  6
ByLayer
 62
  256
370
   -1
100
AcDbCircle
 10
58.92989639716079
 20
14.81302749024792
 40
1.2
  0
LWPOLYLINE
  5
51
100
AcDbEntity
  8
0
  6
ByLayer
 62
  256
370
   -1
100
AcDbPolyline
 90
    8
 70
    1
 43
0
 10
9.682805812249455
 20
-18.1137072464617
 10
12.23964635029516
 20
-31.26751150466039
 42
0.4142135623730966
 10
12.59137720394243
 20
-31.50475696108174
 10
25.74518146214114
 20
-28.94791642303603
 42
0.4142135623730917
 10
25.98242691856248
 20
-28.59618556938876
 10
23.42558638051676
 20
-15.44238131119006
 42
0.4142135623730981
 10
23.07385552686949
 20
-15.20513585476872
 10
9.9200512686708
 20
-17.76197639281443
 42
0.414213562373097
  0
LWPOLYLINE
  5
52
100
AcDbEntity
  8
0
  6
ByLayer
 62
  256
370
   -1
100
AcDbPolyline
 90
    8
 70
    1
 43
0
 10
18.71260419471612
 20
8.803810119967235
 10
16.15576365667042
 20
21.95761437816592
 42
0.4142135623731004
 10
15.80403280302313
 20
22.19485983458727
 10
2.65022854482444
 20
19.63801929654157
 42
0.4142135623731
 10
2.412983088403095
 20
19.28628844289429
 10
4.969823626448813
 20
6.132484184695598
 42
0.414213562373088
 10
5.321554480096069
 20
5.895238728274276
 10
18.47535873829477
 20
8.45207926631995
 42
0.4142135623731041
  0
LWPOLYLINE
  5
53
100
AcDbEntity
  8
0
  6
ByLayer
 62
  256
370
   -1
100
AcDbPolyline
 90
    8
 70
    1
 43
0
 10
-25.99990891871762
 20
-34.218174621337
 10
-23.44306838067193
 20
-47.37197887953571
 42
0.4142135623730986
 10
-23.09133752702466
 20
-47.60922433595707
 10
-9.937533268825977
 20
-45.05238379791135
 42
0.4142135623730828
 10
-9.700287812404653
 20
-44.70065294426409
 10
-12.25712835045034
 20
-31.54684868606537
 42
0.4142135623730893
 10
-12.60885920409761
 20
-31.30960322964404
 10
-25.7626634622963
 20
-33.86644376768974
 42
0.4142135623730978
  0
LWPOLYLINE
  5
54
100
AcDbEntity
  8
0
  6
ByLayer
 62
  256
370
   -1
100
AcDbPolyline
 90
    8
 70
    1
 43
0
 10
7.409729982492195
 20
-44.60395891608923
 10
9.966570520537948
 20
-57.75776317428798
 42
0.4142135623730953
 10
10.31830137418521
 20
-57.99500863070932
 10
23.47210563238391
 20
-55.43816809266363
 42
0.4142135623731023
 10
23.70935108880525
 20
-55.08643723901638
 10
21.15251055075953
 20
-41.93263298081753
 42
0.4142135623730951
 10
20.80077969711226
 20
-41.69538752439621
 10
7.646975438913531
 20
-44.25222806244195
 42
0.4142135623730978
  0
LWPOLYLINE
  5
55
100
AcDbEntity
  8
0
  6
ByLayer
 62
  256
370
   -1
100
AcDbPolyline
 90
    8
 70
    1
 43
0
 10
25.16640629703343
 20
3.640386989511395
 10
38.32021055523213
 20
6.197227527557075
 42
0.4142135623730977
 10
38.55745601165347
 20
6.548958381204354
 10
36.00061547360777
 20
19.70276263940304
 42
0.4142135623730978
 10
35.64888461996051
 20
19.94000809582439
 10
22.4950803617618
 20
17.38316755777868
 42
0.4142135623731056
 10
22.25783490534047
 20
17.03143670413143
 10
24.81467544338617
 20
3.877632445932718
 42
0.4142135623730986
  0
LWPOLYLINE
  5
56
100
AcDbEntity
  8
0
  6
ByLayer
 62
  256
370
   -1
100
AcDbPolyline
 90
    8
 70
    1
 43
0
 10
60.27350177108022
 20
-6.904604588302281
 10
47.11969751288139
 20
-9.461445126347986
 42
0.4142135623730949
 10
46.88245205646005
 20
-9.813175979995268
 10
49.43929259450576
 20
-22.96698023819395
 42
0.4142135623731026
 10
49.79102344815301
 20
-23.20422569461529
 10
62.94482770635172
 20
-20.64738515656958
 42
0.4142135623731054
 10
63.18207316277308
 20
-20.29565430292233
 10
60.62523262472749
 20
-7.141850044723608
 42
0.4142135623731029
  0
LWPOLYLINE
  5
57
100
AcDbEntity
  8
0
  6
ByLayer
 62
  256
370
   -1
100
AcDbPolyline
 90
    8
 70
    1
 43
0
 10
50.51736341838323
 20
-28.51317382467326
 10
53.07420395642893
 20
-41.66697808287194
 42
0.4142135623730951
 10
53.4259348100762
 20
-41.90422353929328
 10
66.5797390682749
 20
-39.3473830012476
 42
0.4142135623731034
 10
66.81698452469624
 20
-38.99565214760032
 10
64.26014398665065
 20
-25.8418478894016
 42
0.4142135623730944
 10
63.90841313300341
 20
-25.60460243298026
 10
50.75460887480457
 20
-28.16144297102599
 42
0.414213562373095
  0
LWPOLYLINE
  5
58
100
AcDbEntity
  8
0
  6
ByLayer
 62
  256
370
   -1
100
AcDbPolyline
 90
    8
 70
    1
 43
0
 10
56.63859040915705
 20
11.79539325637574
 10
43.48478615095821
 20
9.238552718330007
 42
0.4142135623730915
 10
43.24754069453689
 20
8.886821864682728
 10
45.80438123258257
 20
-4.266982393515964
 42
0.414213562373094
 10
46.15611208622984
 20
-4.504227849937283
 10
59.30991634442854
 20
-1.947387311891607
 42
0.4142135623730906
 10
59.54716180084989
 20
-1.595656458244324
 10
56.99032126280431
 20
11.55814779995438
 42
0.4142135623731117
  0
LWPOLYLINE
  5
59
100
AcDbEntity
  8
0
  6
ByLayer
 62
  256
370
   -1
100
AcDbPolyline
 90
    8
 70
    1
 43
0
 10
-12.13818489463439
 20
-4.120249326058715
 10
1.015619363564309
 20
-1.563408788013009
 42
0.414213562373094
 10
1.252864819985646
 20
-1.211677934365756
 10
-1.303975718060046
 20
11.94212632383296
 42
0.4142135623731028
 10
-1.655706571707313
 20
12.17937178025428
 10
-14.80951082990602
 20
9.62253124220857
 42
0.4142135623730878
 10
-15.04675628632735
 20
9.270800388561323
 10
-12.48991574828166
 20
-3.883003869637392
 42
0.4142135623730968
  0
LWPOLYLINE
  5
5A
100
AcDbEntity
  8
0
  6
ByLayer
 62
  256
370
   -1
100
AcDbPolyline
 90
    8
 70
    1
 43
0
 10
-8.503273532711219
 20
-22.8202471707367
 10
4.650530725487481
 20
-20.26340663269101
 42
0.4142135623730924
 10
4.88777618190882
 20
-19.91167577904374
 10
2.330935643863127
 20
-6.757871520845036
 42
0.4142135623731013
 10
1.97920479021586
 20
-6.520626064423713
 10
-11.17459946798283
 20
-9.077466602469421
 42
0.4142135623730877
 10
-11.41184492440418
 20
-9.429197456116672
 10
-8.855004386358484
 20
-22.58300171431539
 42
0.4142135623730883
  0
LWPOLYLINE
  5
5B
100
AcDbEntity
  8
0
  6
ByLayer
 62
  256
370
   -1
100
AcDbPolyline
 90
    8
 70
    1
 43
0
 10
22.34751555663931
 20
-9.89618772471076
 10
19.79067501859359
 20
3.257616533487934
 42
0.414213562373089
 10
19.43894416494632
 20
3.49486198990925
 10
6.285139906747619
 20
0.9380214518635468
 42
0.4142135623730875
 10
6.047894450326283
 20
0.586290598216291
 10
8.604734988371987
 20
-12.5675136599824
 42
0.4142135623730862
 10
8.956465842019256
 20
-12.80475911640372
 10
22.11027010021796
 20
-10.24791857835801
 42
0.4142135623730971
  0
LWPOLYLINE
  5
5C
100
AcDbEntity
  8
0
  6
ByLayer
 62
  256
370
   -1
100
AcDbPolyline
 90
    8
 70
    1
 43
0
 10
-29.63482028064081
 20
-15.518176776659
 10
-27.0779797425951
 20
-28.67198103485772
 42
0.4142135623730877
 10
-26.72624888894784
 20
-28.90922649127905
 10
-13.57244463074915
 20
-26.35238595323336
 42
0.414213562373076
 10
-13.33519917432783
 20
-26.00065509958611
 10
-15.89203971237351
 20
-12.84685084138736
 42
0.4142135623730883
 10
-16.24377056602079
 20
-12.60960538496605
 10
-29.39757482421947
 20
-15.16644592301174
 42
0.414213562373095
  0
LWPOLYLINE
  5
5D
100
AcDbEntity
  8
0
  6
ByLayer
 62
  256
370
   -1
100
AcDbPolyline
 90
    8
 70
    1
 43
0
 10
4.519143837686798
 20
-59.58044664570065
 10
-1.3550295292868
 20
-47.53660642529204
 42
0.4142135623730921
 10
-1.756179087213255
 20
-47.398479555439
 10
-13.80001930762188
 20
-53.27265292241246
 42
0.4142135623730934
 10
-13.93814617747491
 20
-53.67380248033892
 10
-8.063972810501641
 20
-65.71764270074749
 42
0.4142135623730964
 10
-7.662823252575166
 20
-65.85576957060051
 10
4.381016967833779
 20
-59.98159620362712
 42
0.4142135623731114
  0
LWPOLYLINE
  5
5E
100
AcDbEntity
  8
0
  6
ByLayer
 62
  256
370
   -1
100
AcDbPolyline
 90
    8
 70
    1
 43
0
 10
28.80131765895661
 20
-15.05961085516659
 10
41.9551219171553
 20
-12.50277031712089
 42
0.4142135623730898
 10
42.19236737357664
 20
-12.15103946347364
 10
39.63552683553095
 20
1.002764794725046
 42
0.4142135623730942
 10
39.28379598188369
 20
1.2400102511464
 10
26.12999172368498
 20
-1.316830286899314
 42
0.4142135623730948
 10
25.89274626726366
 20
-1.668561140546561
 10
28.44958680530937
 20
-14.82236539874527
 42
0.4142135623730951
  0
LWPOLYLINE
  5
5F
100
AcDbEntity
  8
0
  6
ByLayer
 62
  256
370
   -1
100
AcDbPolyline
 90
    8
 70
    1
 43
0
 10
65.58245180922805
 20
-6.178274434343937
 10
68.13929234727375
 20
-19.33207869254263
 42
0.4142135623731018
 10
68.49102320092102
 20
-19.56932414896397
 10
81.6448274591197
 20
-17.01248361091826
 42
0.4142135623730781
 10
81.88207291554103
 20
-16.66075275727101
 10
79.32523237749535
 20
-3.506948499072303
 42
0.4142135623730869
 10
78.97350152384809
 20
-3.269703042650977
 10
65.81969726564937
 20
-5.826543580696679
 42
0.4142135623731198
  0
LWPOLYLINE
  5
60
100
AcDbEntity
  8
0
  6
ByLayer
 62
  256
370
   -1
100
AcDbPolyline
 90
    8
 70
    1
 43
0
 10
29.52765762918683
 20
-20.36855898522456
 10
32.08449816723255
 20
-33.52236324342326
 42
0.4142135623730951
 10
32.43622902087979
 20
-33.75960869984459
 10
45.5900332790785
 20
-31.20276816179889
 42
0.4142135623730909
 10
45.82727873549983
 20
-30.85103730815163
 10
43.27043819745414
 20
-17.69723304995295
 42
0.4142135623731094
 10
42.91870734380687
 20
-17.45998759353159
 10
29.76490308560816
 20
-20.0168281315773
 42
0.4142135623731023
  0
LWPOLYLINE
  5
61
100
AcDbEntity
  8
0
  6
ByLayer
 62
  256
370
   -1
100
AcDbPolyline
 90
    8
 70
    1
 43
0
 10
-33.26973164256398
 20
3.181821068018987
 10
-30.7128911045183
 20
-9.971983190179728
 42
0.4142135623730911
 10
-30.36116025087102
 20
-10.20922864660105
 10
-17.20735599267234
 20
-7.652388108555368
 42
0.4142135623730873
 10
-16.97011053625101
 20
-7.300657254908091
 10
-19.5269510742967
 20
5.853147003290625
 42
0.4142135623730923
 10
-19.87868192794396
 20
6.090392459711978
 10
-33.03248618614266
 20
3.533551921666268
 42
0.4142135623731052
  0
LWPOLYLINE
  5
62
100
AcDbEntity
  8
0
  6
ByLayer
 62
  256
370
   -1
100
AcDbPolyline
 90
    8
 70
    1
 43
0
 10
-7.776933562480991
 20
-28.12919530079467
 10
-5.220093024435299
 20
-41.28299955899338
 42
0.414213562373088
 10
-4.868362170788047
 20
-41.52024501541472
 10
8.285442087410669
 20
-38.96340447736901
 42
0.4142135623730948
 10
8.522687543832003
 20
-38.61167362372174
 10
5.965847005786303
 20
-25.45786936552305
 42
0.4142135623730961
 10
5.614116152139047
 20
-25.2206239091017
 10
-7.539688106059661
 20
-27.77746444714741
 42
0.4142135623730889
  0
LWPOLYLINE
  5
63
100
AcDbEntity
  8
0
  6
ByLayer
 62
  256
370
   -1
100
AcDbPolyline
 90
    8
 70
    1
 43
0
 10
-17.15059815166725
 20
-65.74635550710811
 10
-25.87697314341823
 20
-55.57726609343208
 42
0.4142135623730927
 10
-26.30000592861431
 20
-55.54496651682181
 10
-36.46909534229038
 20
-64.27134150857265
 42
0.4142135623730798
 10
-36.50139491890068
 20
-64.69437429376877
 10
-27.77501992715004
 20
-74.86346370744482
 42
0.4142135623731046
 10
-27.3519871419539
 20
-74.89576328405509
 10
-17.18289772827753
 20
-66.16938829230423
 42
0.4142135623731112
  0
CIRCLE
  5
64
100
AcDbEntity
  8
0
  6
ByLayer
 62
  256
370
   -1
100
AcDbCircle
 10
-244.1737878635025
 20
-22.58696819910804
 40
1.2
  0
CIRCLE
  5
65
100
AcDbEntity
  8
0
  6
ByLayer
 62
  256
370
   -1
100
AcDbCircle
 10
-220.2580240103807
 20
13.84403914109344
 40
1.2
  0
CIRCLE
  5
66
100
AcDbEntity
  8
0
  6
ByLayer
 62
  256
370
   -1
100
AcDbCircle
 10
-223.6717373572515
 20
-36.02075027301299
 40
1.2
  0
CIRCLE
  5
67
100
AcDbEntity
  8
0
  6
ByLayer
 62
  256
370
   -1
100
AcDbCircle
 10
-236.9039651396562
 20
14.81302749024792
 40
1.2
  0
LWPOLYLINE
  5
68
100
AcDbEntity
  8
0
  6
ByLayer
 62
  256
370
   -1
100
AcDbPolyline
 90
    8
 70
    1
 43
0
 10
-187.6568745547448
 20
-18.1137072464617
 10
-190.2137150927905
 20
-31.26751150466039
 42
-0.4142135623731319
 10
-190.5654459464378
 20
-31.50475696108171
 10
-203.7192502046365
 20
-28.94791642303599
 42
-0.4142135623730487
 10
-203.9564956610579
 20
-28.59618556938875
 10
-201.3996551230121
 20
-15.44238131119006
 42
-0.4142135623730872
 10
-201.0479242693649
 20
-15.20513585476871
 10
-187.8941200111661
 20
-17.76197639281441
 42
-0.4142135623731127
  0
LWPOLYLINE
  5
69
100
AcDbEntity
  8
0
  6
ByLayer
 62
  256
370
   -1
100
AcDbPolyline
 90
    8
 70
    1
 43
0
 10
-196.6866729372115
 20
8.803810119967263
 10
-194.1298323991657
 20
21.95761437816592
 42
-0.414213562373108
 10
-193.7781015455185
 20
22.1948598345873
 10
-180.6242972873198
 20
19.6380192965416
 42
-0.4142135623731372
 10
-180.3870518308985
 20
19.28628844289431
 10
-182.9438923689441
 20
6.13248418469562
 42
-0.4142135623731229
 10
-183.2956232225914
 20
5.895238728274313
 10
-196.4494274807901
 20
8.452079266319979
 42
-0.4142135623731077
  0
LWPOLYLINE
  5
6A
100
AcDbEntity
  8
0
  6
ByLayer
 62
  256
370
   -1
100
AcDbPolyline
 90
    8
 70
    1
 43
0
 10
-151.9741598237777
 20
-34.21817462133698
 10
-154.5310003618235
 20
-47.37197887953571
 42
-0.4142135623730898
 10
-154.8827312154707
 20
-47.60922433595707
 10
-168.0365354736694
 20
-45.05238379791133
 42
-0.4142135623730732
 10
-168.2737809300907
 20
-44.70065294426409
 10
-165.716940392045
 20
-31.54684868606535
 42
-0.4142135623731257
 10
-165.3652095383977
 20
-31.30960322964404
 10
-152.2114052801991
 20
-33.86644376768972
 42
-0.4142135623730612
  0
LWPOLYLINE
  5
6B
100
AcDbEntity
  8
0
  6
ByLayer
 62
  256
370
   -1
100
AcDbPolyline
 90
    8
 70
    1
 43
0
 10
-185.3837987249875
 20
-44.60395891608921
 10
-187.9406392630333
 20
-57.75776317428798
 42
-0.4142135623731288
 10
-188.2923701166806
 20
-57.99500863070929
 10
-201.4461743748793
 20
-55.43816809266363
 42
-0.4142135623730868
 10
-201.6834198313006
 20
-55.08643723901638
 10
-199.1265792932549
 20
-41.93263298081752
 42
-0.4142135623731359
 10
-198.7748484396076
 20
-41.6953875243962
 10
-185.6210441814089
 20
-44.25222806244198
 42
-0.4142135623730446
  0
LWPOLYLINE
  5
6C
100
AcDbEntity
  8
0
  6
ByLayer
 62
  256
370
   -1
100
AcDbPolyline
 90
    8
 70
    1
 43
0
 10
-203.1404750395288
 20
3.640386989511423
 10
-216.2942792977275
 20
6.197227527557106
 42
-0.4142135623730771
 10
-216.5315247541488
 20
6.54895838120438
 10
-213.9746842161031
 20
19.70276263940307
 42
-0.4142135623731086
 10
-213.6229533624559
 20
19.94000809582439
 10
-200.4691491042572
 20
17.38316755777868
 42
-0.4142135623731052
 10
-200.2319036478358
 20
17.03143670413146
 10
-202.7887441858815
 20
3.877632445932738
 42
-0.4142135623731297
  0
LWPOLYLINE
  5
6D
100
AcDbEntity
  8
0
  6
ByLayer
 62
  256
370
   -1
100
AcDbPolyline
 90
    8
 70
    1
 43
0
 10
-238.2475705135755
 20
-6.904604588302252
 10
-225.0937662553767
 20
-9.461445126347988
 42
-0.4142135623730809
 10
-224.8565207989554
 20
-9.813175979995238
 10
-227.4133613370011
 20
-22.96698023819395
 42
-0.4142135623731317
 10
-227.7650921906483
 20
-23.20422569461527
 10
-240.9188964488471
 20
-20.64738515656957
 42
-0.414213562373091
 10
-241.1561419052684
 20
-20.29565430292231
 10
-238.5993013672228
 20
-7.141850044723581
 42
-0.4142135623730919
  0
LWPOLYLINE
  5
6E
100
AcDbEntity
  8
0
  6
ByLayer
 62
  256
370
   -1
100
AcDbPolyline
 90
    8
 70
    1
 43
0
 10
-228.4914321608786
 20
-28.51317382467324
 10
-231.0482726989243
 20
-41.66697808287194
 42
-0.4142135623730544
 10
-231.4000035525715
 20
-41.90422353929329
 10
-244.5538078107703
 20
-39.34738300124758
 42
-0.4142135623730951
 10
-244.7910532671916
 20
-38.99565214760034
 10
-242.234212729146
 20
-25.8418478894016
 42
-0.4142135623730999
 10
-241.8824818754988
 20
-25.60460243298024
 10
-228.7286776172999
 20
-28.16144297102597
 42
-0.4142135623730951
  0
LWPOLYLINE
  5
6F
100
AcDbEntity
  8
0
  6
ByLayer
 62
  256
370
   -1
100
AcDbPolyline
 90
    8
 70
    1
 43
0
 10
-234.6126591516524
 20
11.79539325637577
 10
-221.4588548934536
 20
9.238552718330034
 42
-0.4142135623730789
 10
-221.2216094370322
 20
8.886821864682759
 10
-223.7784499750779
 20
-4.266982393515928
 42
-0.4142135623730652
 10
-224.1301808287252
 20
-4.50422784993729
 10
-237.2839850869238
 20
-1.947387311891576
 42
-0.4142135623730813
 10
-237.5212305433452
 20
-1.595656458244325
 10
-234.9643900052997
 20
11.55814779995441
 42
-0.4142135623730704
  0
LWPOLYLINE
  5
70
100
AcDbEntity
  8
0
  6
ByLayer
 62
  256
370
   -1
100
AcDbPolyline
 90
    8
 70
    1
 43
0
 10
-165.835883847861
 20
-4.120249326058687
 10
-178.9896881060596
 20
-1.563408788013011
 42
-0.414213562373108
 10
-179.226933562481
 20
-1.211677934365726
 10
-176.6700930244353
 20
11.94212632383299
 42
-0.4142135623731318
 10
-176.318362170788
 20
12.17937178025431
 10
-163.1645579125893
 20
9.622531242208591
 42
-0.4142135623730469
 10
-162.927312456168
 20
9.270800388561357
 10
-165.4841529942137
 20
-3.883003869637363
 42
-0.4142135623730867
  0
LWPOLYLINE
  5
71
100
AcDbEntity
  8
0
  6
ByLayer
 62
  256
370
   -1
100
AcDbPolyline
 90
    8
 70
    1
 43
0
 10
-169.4707952097841
 20
-22.8202471707367
 10
-182.6245994679828
 20
-20.263406632691
 42
-0.414213562373091
 10
-182.8618449244042
 20
-19.91167577904374
 10
-180.3050043863585
 20
-6.757871520845043
 42
-0.4142135623730714
 10
-179.9532735327112
 20
-6.520626064423677
 10
-166.7994692745125
 20
-9.077466602469418
 42
-0.414213562373108
 10
-166.5622238180912
 20
-9.429197456116675
 10
-169.1190643561369
 20
-22.58300171431537
 42
-0.4142135623730875
  0
LWPOLYLINE
  5
72
100
AcDbEntity
  8
0
  6
ByLayer
 62
  256
370
   -1
100
AcDbPolyline
 90
    8
 70
    1
 43
0
 10
-200.3215842991347
 20
-9.89618772471076
 10
-197.7647437610889
 20
3.257616533487933
 42
-0.4142135623730791
 10
-197.4130129074417
 20
3.494861989909281
 10
-184.259208649243
 20
0.9380214518635703
 42
-0.4142135623730563
 10
-184.0219631928216
 20
0.5862905982163238
 10
-186.5788037308673
 20
-12.5675136599824
 42
-0.4142135623730815
 10
-186.9305345845146
 20
-12.80475911640372
 10
-200.0843388427133
 20
-10.24791857835801
 42
-0.4142135623730807
  0
LWPOLYLINE
  5
73
100
AcDbEntity
  8
0
  6
ByLayer
 62
  256
370
   -1
100
AcDbPolyline
 90
    8
 70
    1
 43
0
 10
-148.3392484618546
 20
-15.51817677665899
 10
-150.8960889999003
 20
-28.67198103485773
 42
-0.4142135623730943
 10
-151.2478198535475
 20
-28.90922649127904
 10
-164.4016241117462
 20
-26.35238595323336
 42
-0.4142135623730949
 10
-164.6388695681675
 20
-26.00065509958609
 10
-162.0820290301219
 20
-12.84685084138736
 42
-0.4142135623730497
 10
-161.7302981764746
 20
-12.60960538496602
 10
-148.5764939182759
 20
-15.16644592301172
 42
-0.4142135623730955
  0
LWPOLYLINE
  5
74
100
AcDbEntity
  8
0
  6
ByLayer
 62
  256
370
   -1
100
AcDbPolyline
 90
    8
 70
    1
 43
0
 10
-206.775386401452
 20
-15.05961085516659
 10
-219.9291906596507
 20
-12.50277031712089
 42
-0.414213562373104
 10
-220.166436116072
 20
-12.15103946347361
 10
-217.6095955780263
 20
1.002764794725072
 42
-0.4142135623730887
 10
-217.2578647243791
 20
1.240010251146428
 10
-204.1040604661803
 20
-1.31683028689929
 42
-0.4142135623730734
 10
-203.866815009759
 20
-1.668561140546529
 10
-206.4236555478047
 20
-14.82236539874527
 42
-0.4142135623730836
  0
LWPOLYLINE
  5
75
100
AcDbEntity
  8
0
  6
ByLayer
 62
  256
370
   -1
100
AcDbPolyline
 90
    8
 70
    1
 43
0
 10
-243.5565205517234
 20
-6.178274434343908
 10
-246.1133610897691
 20
-19.33207869254262
 42
-0.4142135623731121
 10
-246.4650919434164
 20
-19.56932414896397
 10
-259.618896201615
 20
-17.01248361091826
 42
-0.4142135623730949
 10
-259.8561416580363
 20
-16.66075275727099
 10
-257.2993011199907
 20
-3.50694849907227
 42
-0.414213562373107
 10
-256.9475702663434
 20
-3.269703042650952
 10
-243.7937660081447
 20
-5.826543580696657
 42
-0.4142135623730815
  0
LWPOLYLINE
  5
76
100
AcDbEntity
  8
0
  6
ByLayer
 62
  256
370
   -1
100
AcDbPolyline
 90
    8
 70
    1
 43
0
 10
-207.5017263716822
 20
-20.36855898522455
 10
-210.0585669097279
 20
-33.52236324342324
 42
-0.4142135623730964
 10
-210.4102977633752
 20
-33.75960869984461
 10
-223.5641020215738
 20
-31.20276816179886
 42
-0.4142135623730487
 10
-223.8013474779952
 20
-30.85103730815163
 10
-221.2445069399494
 20
-17.69723304995293
 42
-0.414213562373072
 10
-220.8927760863022
 20
-17.45998759353157
 10
-207.7389718281035
 20
-20.0168281315773
 42
-0.4142135623730779
  0
LWPOLYLINE
  5
77
100
AcDbEntity
  8
0
  6
ByLayer
 62
  256
370
   -1
100
AcDbPolyline
 90
    8
 70
    1
 43
0
 10
-144.7043370999314
 20
3.181821068019016
 10
-147.2611776379771
 20
-9.971983190179721
 42
-0.4142135623730612
 10
-147.6129084916243
 20
-10.20922864660102
 10
-160.766712749823
 20
-7.652388108555343
 42
-0.4142135623731043
 10
-161.0039582062443
 20
-7.30065725490806
 10
-158.4471176681986
 20
5.853147003290656
 42
-0.4142135623731045
 10
-158.0953868145514
 20
6.090392459711999
 10
-144.9415825563527
 20
3.533551921666298
 42
-0.414213562373106
  0
LWPOLYLINE
  5
78
100
AcDbEntity
  8
0
  6
ByLayer
 62
  256
370
   -1
100
AcDbPolyline
 90
    8
 70
    1
 43
0
 10
-170.1971351800144
 20
-28.12919530079466
 10
-172.75397571806
 20
-41.28299955899335
 42
-0.4142135623730966
 10
-173.1057065717073
 20
-41.52024501541474
 10
-186.259510829906
 20
-38.96340447736902
 42
-0.4142135623730962
 10
-186.4967562863274
 20
-38.61167362372174
 10
-183.9399157482817
 20
-25.45786936552304
 42
-0.4142135623730978
 10
-183.5881848946344
 20
-25.2206239091017
 10
-170.4343806364357
 20
-27.77746444714741
 42
-0.414213562373056
  0
LWPOLYLINE
  5
79
100
AcDbEntity
  8
0
  6
ByLayer
 62
  256
370
   -1
100
AcDbPolyline
 90
    8
 70
    1
 43
0
 10
-160.8234705908281
 20
-65.74635550710811
 10
-152.0970955990771
 20
-55.57726609343207
 42
-0.4142135623730905
 10
-151.674062813881
 20
-55.54496651682181
 10
-141.504973400205
 20
-64.2713415085726
 42
-0.4142135623731146
 10
-141.4726738235947
 20
-64.69437429376877
 10
-150.1990488153453
 20
-74.86346370744481
 42
-0.4142135623730951
 10
-150.6220816005415
 20
-74.89576328405509
 10
-160.7911710142178
 20
-66.16938829230422
 42
-0.4142135623731147
  0
LINE
  5
7A
100
AcDbEntity
  8
0
  6
ByLayer
 62
  256
370
   -1
100
AcDbLine
 10
-182.4932125801821
 20
-59.58044664570065
 11
-176.6190392132086
 21
-47.53660642529202
  0
ARC
  5
7B
100
AcDbEntity
  8
0
  6
ByLayer
 62
  256
370
   -1
100
AcDbCircle
 10
-176.3494009993188
 20
-47.66811776932874
 40
0.3000000000000159
100
AcDbArc
 50
64.00000000000398
 51
154.0000000000034
  0
LINE
  5
7C
100
AcDbEntity
  8
0
  6
ByLayer
 62
  256
370
   -1
100
AcDbLine
 10
-176.2178896552821
 20
-47.39847955543897
 11
-164.1740494348735
 21
-53.27265292241246
  0
ARC
  5
7D
100
AcDbEntity
  8
0
  6
ByLayer
 62
  256
370
   -1
100
AcDbCircle
 10
-164.3055607789103
 20
-53.54229113630218
 40
0.2999999999999817
100
AcDbArc
 50
333.9999999999973
 51
63.99999999999007
  0
LINE
  5
7E
100
AcDbEntity
  8
0
  6
ByLayer
 62
  256
370
   -1
100
AcDbLine
 10
-164.0359225650205
 20
-53.67380248033891
 11
-169.9100959319937
 21
-65.71764270074749
  0
ARC
  5
7F
100
AcDbEntity
  8
0
  6
ByLayer
 62
  256
370
   -1
100
AcDbCircle
 10
-170.1797341458834
 20
-65.58613135671074
 40
0.2999999999999962
100
AcDbArc
 50
243.9999999999912
 51
333.9999999999925
  0
LINE
  5
80
100
AcDbEntity
  8
0
  6
ByLayer
 62
  256
370
   -1
100
AcDbLine
 10
-170.3112454899202
 20
-65.85576957060046
 11
-182.3550857103291
 21
-59.98159620362712
  0
ARC
  5
81
100
AcDbEntity
  8
0
  6
ByLayer
 62
  256
370
   -1
100
AcDbCircle
 10
-182.2235743662924
 20
-59.71195798973738
 40
0.2999999999999896
100
AcDbArc
 50
153.9999999999962
 51
244.0000000000016
  0
ARC
  5
82
100
AcDbEntity
  8
0
  6
ByLayer
 62
  256
370
   -1
100
AcDbCircle
 10
-223.1280003961667
 20
-53.91031326545973
 40
1
100
AcDbArc
 50
168.9999999999998
 51
252.1908150196354
  0
LWPOLYLINE
  5
83
100
AcDbEntity
  8
0
  6
ByLayer
 62
  256
370
   -1
100
AcDbPolyline
 90
    8
 70
    1
 43
0
 10
-204.0848170072626
 20
-40.9659640995542
 10
-206.6416575453084
 20
-54.11976835775297
 42
-0.4142135623731288
 10
-206.9933883989557
 20
-54.35701381417428
 10
-220.1471926571544
 20
-51.80017327612862
 42
-0.4142135623730868
 10
-220.3844381135757
 20
-51.44844242248136
 10
-217.82759757553
 20
-38.29463816428251
 42
-0.4142135623731359
 10
-217.4758667218827
 20
-38.05739270786119
 10
-204.322062463684
 20
-40.61423324590697
 42
-0.4142135623730446
  0
LWPOLYLINE
  5
84
100
AcDbEntity
  8
0
  6
ByLayer
 62
  256
370
   -1
100
AcDbPolyline
 90
    8
 70
    1
 43
0
 10
-247.1914319136465
 20
-24.87827227902198
 10
-249.7482724516923
 20
-38.03207653722075
 42
-0.4142135623731288
 10
-250.1000033053396
 20
-38.26932199364206
 10
-263.2538075635383
 20
-35.7124814555964
 42
-0.4142135623730868
 10
-263.4910530199596
 20
-35.36075060194914
 10
-260.9342124819139
 20
-22.20694634375029
 42
-0.4142135623731359
 10
-260.5824816282666
 20
-21.96970088732897
 10
-247.4286773700679
 20
-24.52654142537475
 42
-0.4142135623730446
  0
LWPOLYLINE
  5
85
100
AcDbEntity
  8
0
  6
ByLayer
 62
  256
370
   -1
100
AcDbPolyline
 90
    8
 70
    1
 43
0
 10
-239.9216091898003
 20
12.52172341033404
 10
-242.478449727846
 20
-0.6320808478647296
 42
-0.4142135623731288
 10
-242.8301805814933
 20
-0.8693263042860409
 10
-255.983984839692
 20
1.687514233759619
 42
-0.4142135623730868
 10
-256.2212302961133
 20
2.039245087406876
 10
-253.6643897580676
 20
15.19304934560573
 42
-0.4142135623731359
 10
-253.3126589044203
 20
15.43029480202705
 10
-240.1588546462216
 20
12.87345426398127
 42
-0.4142135623730446
  0
LWPOLYLINE
  5
86
100
AcDbEntity
  8
0
  6
ByLayer
 62
  256
370
   -1
100
AcDbPolyline
 90
    8
 70
    1
 43
0
 10
26.10972782717018
 20
-40.96904755416607
 10
28.66656836521593
 20
-54.12285181236482
 42
0.4142135623730953
 10
29.01829921886319
 20
-54.36009726878616
 10
42.1721034770619
 20
-51.80325673074047
 42
0.4142135623731023
 10
42.40934893348323
 20
-51.45152587709322
 10
39.85250839543751
 20
-38.29772161889437
 42
0.4142135623730951
 10
39.50077754179024
 20
-38.06047616247305
 10
26.34697328359151
 20
-40.61731670051879
 42
0.4142135623730978
  0
LWPOLYLINE
  5
87
100
AcDbEntity
  8
0
  6
ByLayer
 62
  256
370
   -1
100
AcDbPolyline
 90
    8
 70
    1
 43
0
 10
69.21736317115121
 20
-24.87827227902199
 10
71.77420370919695
 20
-38.03207653722074
 42
0.4142135623730953
 10
72.12593456284422
 20
-38.26932199364208
 10
85.27973882104293
 20
-35.71248145559639
 42
0.4142135623731023
 10
85.51698427746426
 20
-35.36075060194914
 10
82.96014373941853
 20
-22.20694634375029
 42
0.4142135623730951
 10
82.60841288577127
 20
-21.96970088732897
 10
69.45460862757254
 20
-24.52654142537471
 42
0.4142135623730978
  0
LWPOLYLINE
  5
88
100
AcDbEntity
  8
0
  6
ByLayer
 62
  256
370
   -1
100
AcDbPolyline
 90
    8
 70
    1
 43
0
 10
61.94754044730485
 20
12.52172341033399
 10
64.50438098535061
 20
-0.6320808478647598
 42
0.4142135623730953
 10
64.85611183899786
 20
-0.8693263042861012
 10
78.00991609719657
 20
1.687514233759591
 42
0.4142135623731023
 10
78.2471615536179
 20
2.039245087406844
 10
75.69032101557218
 20
15.19304934560569
 42
0.4142135623730951
 10
75.33859016192491
 20
15.43029480202701
 10
62.18478590372618
 20
12.87345426398127
 42
0.4142135623730978
  0
CIRCLE
  5
89
100
AcDbEntity
  8
0
  6
ByLayer
 62
  256
370
   -1
100
AcDbCircle
 10
-18.47588823783927
 20
-50.37938665765103
 40
1.2
  0
CIRCLE
  5
8A
100
AcDbEntity
  8
0
  6
ByLayer
 62
  256
370
   -1
100
AcDbCircle
 10
-12.373522049366
 20
-17.71492627785139
 40
1.2
  0
CIRCLE
  5
8B
100
AcDbEntity
  8
0
  6
ByLayer
 62
  256
370
   -1
100
AcDbCircle
 10
2.691564433388265
 20
4.619982928749348
 40
1.2
  0
CIRCLE
  5
8C
100
AcDbEntity
  8
0
  6
ByLayer
 62
  256
370
   -1
100
AcDbCircle
 10
9.96138715723589
 20
-32.78001276060638
 40
1.2
  0
CIRCLE
  5
8D
100
AcDbEntity
  8
0
  6
ByLayer
 62
  256
370
   -1
100
AcDbCircle
 10
-187.9354558997312
 20
-32.78001276060638
 40
1.2
  0
CIRCLE
  5
8E
100
AcDbEntity
  8
0
  6
ByLayer
 62
  256
370
   -1
100
AcDbCircle
 10
-165.6005466931294
 20
-17.7149262778514
 40
1.2
  0
CIRCLE
  5
8F
100
AcDbEntity
  8
0
  6
ByLayer
 62
  256
370
   -1
100
AcDbCircle
 10
-180.6656331758836
 20
4.619982928749376
 40
1.2
  0
CIRCLE
  5
90
100
AcDbEntity
  8
0
  6
ByLayer
 62
  256
370
   -1
100
AcDbCircle
 10
-159.498178328285
 20
-50.37938665765105
 40
1.2
  0
LWPOLYLINE
  5
91
100
AcDbEntity
  8
0
  6
ByLayer
 62
  256
370
   -1
100
AcDbPolyline
 90
   32
 70
    0
 43
0
 10
45.45978176517745
 20
-54.86239135340643
 42
0.3798185061573868
 10
46.13555349045421
 20
-53.71946328030624
 42
-0.3772907205559094
 10
45.46818217339698
 20
-54.85961059811542
 10
-27.41105391969842
 20
-78.98454787192375
 42
-0.08008875627891611
 10
-27.72530978608886
 20
-79.03520954949113
 10
-150.2487567800354
 20
-79.03520954949113
 42
-0.08008875627892148
 10
-150.5630126464259
 20
-78.98454787192375
 10
-223.4422483218281
 20
-54.85961073638279
 42
-0.3772907205559173
 10
-224.1096196388853
 20
-53.7194634185736
 10
-222.8346168592866
 20
-47.1601427484159
 10
-266.4100083263565
 20
-38.68995613281366
 42
-0.4127213612984436
 10
-267.2017866787345
 20
-37.5225263380939
 10
-256.589031145206
 20
18.60133174103693
 42
-0.3288300868582077
 10
-255.7193418823486
 20
19.4091357795686
 10
-216.7623157081366
 20
23.83559989563362
 10
-196.7232297240999
 20
26.30826367072793
 42
-0.07885227006008232
 10
-196.4099573314011
 20
26.29741778556321
 10
-176.6058239777605
 20
22.44788171250809
 42
-0.05805712950513316
 10
-176.3852650589353
 20
22.37772388291859
 10
-140.8087433268387
 20
6.32118384026476
 10
-37.16532323928558
 20
6.321186127377687
 10
-1.588801507189108
 20
22.37772617003151
 42
-0.05805712950513505
 10
-1.368242588363881
 20
22.44788399962101
 10
18.43589076527676
 20
26.29742007267613
 42
-0.07885227006008109
 10
18.74916315797557
 20
26.30826595784085
 10
38.78824914201224
 20
23.83560218274654
 10
77.74527531622437
 20
19.40913806668151
 42
-0.3288300868582104
 10
78.61496457908177
 20
18.60133402814983
 10
89.22772011261017
 20
-37.52252405098098
 42
-0.4127213612984457
 10
88.43594176023231
 20
-38.68995384570075
 10
44.86055029316228
 20
-47.16014046130298
 10
46.13555349045421
 20
-53.71946328030624
  0
ENDSEC
  0
SECTION
  2
OBJECTS
  0
DICTIONARY
  5
C
330
0
100
AcDbDictionary
281
    1
  3
ACAD_GROUP
350
D
  0
DICTIONARY
  5
D
330
C
100
AcDbDictionary
281
    1
  0
ENDSEC
  0
EOF
