G04 #@! TF.GenerationSoftware,KiCad,Pcbnew,(5.1.4-0-10_14)*
G04 #@! TF.CreationDate,2021-05-16T21:06:51-06:00*
G04 #@! TF.ProjectId,avlo44,61766c6f-3434-42e6-9b69-6361645f7063,0.1*
G04 #@! TF.SameCoordinates,Original*
G04 #@! TF.FileFunction,Legend,Top*
G04 #@! TF.FilePolarity,Positive*
%FSLAX46Y46*%
G04 Gerber Fmt 4.6, Leading zero omitted, Abs format (unit mm)*
G04 Created by KiCad (PCBNEW (5.1.4-0-10_14)) date 2021-05-16 21:06:51*
%MOMM*%
%LPD*%
G04 APERTURE LIST*
%ADD10C,0.150000*%
%ADD11C,0.010000*%
%ADD12C,0.381000*%
%ADD13C,0.200000*%
G04 APERTURE END LIST*
D10*
X250928857Y-207417966D02*
X251405047Y-207417966D01*
X250833619Y-207703680D02*
X251166952Y-206703680D01*
X251500285Y-207703680D01*
X251738380Y-207037014D02*
X251976476Y-207703680D01*
X252214571Y-207037014D01*
X252738380Y-207703680D02*
X252643142Y-207656061D01*
X252595523Y-207560823D01*
X252595523Y-206703680D01*
X253262190Y-207703680D02*
X253166952Y-207656061D01*
X253119333Y-207608442D01*
X253071714Y-207513204D01*
X253071714Y-207227490D01*
X253119333Y-207132252D01*
X253166952Y-207084633D01*
X253262190Y-207037014D01*
X253405047Y-207037014D01*
X253500285Y-207084633D01*
X253547904Y-207132252D01*
X253595523Y-207227490D01*
X253595523Y-207513204D01*
X253547904Y-207608442D01*
X253500285Y-207656061D01*
X253405047Y-207703680D01*
X253262190Y-207703680D01*
X254452666Y-207037014D02*
X254452666Y-207703680D01*
X254214571Y-206656061D02*
X253976476Y-207370347D01*
X254595523Y-207370347D01*
X255405047Y-207037014D02*
X255405047Y-207703680D01*
X255166952Y-206656061D02*
X254928857Y-207370347D01*
X255547904Y-207370347D01*
X256690761Y-207703680D02*
X256690761Y-207037014D01*
X256690761Y-207227490D02*
X256738380Y-207132252D01*
X256786000Y-207084633D01*
X256881238Y-207037014D01*
X256976476Y-207037014D01*
X257690761Y-207656061D02*
X257595523Y-207703680D01*
X257405047Y-207703680D01*
X257309809Y-207656061D01*
X257262190Y-207560823D01*
X257262190Y-207179871D01*
X257309809Y-207084633D01*
X257405047Y-207037014D01*
X257595523Y-207037014D01*
X257690761Y-207084633D01*
X257738380Y-207179871D01*
X257738380Y-207275109D01*
X257262190Y-207370347D01*
X258071714Y-207037014D02*
X258309809Y-207703680D01*
X258547904Y-207037014D01*
X259881238Y-206703680D02*
X259976476Y-206703680D01*
X260071714Y-206751300D01*
X260119333Y-206798919D01*
X260166952Y-206894157D01*
X260214571Y-207084633D01*
X260214571Y-207322728D01*
X260166952Y-207513204D01*
X260119333Y-207608442D01*
X260071714Y-207656061D01*
X259976476Y-207703680D01*
X259881238Y-207703680D01*
X259786000Y-207656061D01*
X259738380Y-207608442D01*
X259690761Y-207513204D01*
X259643142Y-207322728D01*
X259643142Y-207084633D01*
X259690761Y-206894157D01*
X259738380Y-206798919D01*
X259786000Y-206751300D01*
X259881238Y-206703680D01*
X260643142Y-207608442D02*
X260690761Y-207656061D01*
X260643142Y-207703680D01*
X260595523Y-207656061D01*
X260643142Y-207608442D01*
X260643142Y-207703680D01*
X261643142Y-207703680D02*
X261071714Y-207703680D01*
X261357428Y-207703680D02*
X261357428Y-206703680D01*
X261262190Y-206846538D01*
X261166952Y-206941776D01*
X261071714Y-206989395D01*
D11*
G36*
X236095968Y-191586797D02*
G01*
X236253258Y-191646640D01*
X236476118Y-191804230D01*
X236634079Y-192005306D01*
X236724701Y-192236190D01*
X236745540Y-192483205D01*
X236694155Y-192732673D01*
X236568104Y-192970918D01*
X236504028Y-193051247D01*
X236414677Y-193162135D01*
X236354587Y-193254666D01*
X236338533Y-193298118D01*
X236372421Y-193333618D01*
X236465224Y-193404675D01*
X236603652Y-193502633D01*
X236774414Y-193618836D01*
X236964221Y-193744628D01*
X237159782Y-193871352D01*
X237347807Y-193990353D01*
X237515006Y-194092974D01*
X237648087Y-194170560D01*
X237733761Y-194214454D01*
X237755651Y-194221100D01*
X237801031Y-194200902D01*
X237906937Y-194144921D01*
X238060784Y-194060076D01*
X238249991Y-193953286D01*
X238418378Y-193856693D01*
X238652911Y-193722514D01*
X238827595Y-193626662D01*
X238955035Y-193563663D01*
X239047840Y-193528046D01*
X239118616Y-193514337D01*
X239179971Y-193517064D01*
X239194930Y-193519600D01*
X239349836Y-193587883D01*
X239462499Y-193713632D01*
X239513323Y-193873592D01*
X239514399Y-193898726D01*
X239539146Y-194007166D01*
X239615551Y-194154078D01*
X239747233Y-194347246D01*
X239849150Y-194491837D01*
X239928261Y-194614480D01*
X239973152Y-194696969D01*
X239979200Y-194717336D01*
X239949891Y-194777944D01*
X239877302Y-194860760D01*
X239855901Y-194880641D01*
X239732601Y-194990501D01*
X240067567Y-195446115D01*
X240191200Y-195616566D01*
X240294246Y-195762992D01*
X240367379Y-195871810D01*
X240401269Y-195929435D01*
X240402533Y-195933956D01*
X240427772Y-195981016D01*
X240493435Y-196071114D01*
X240570988Y-196167384D01*
X240739442Y-196368584D01*
X240962571Y-196257925D01*
X241069019Y-196209061D01*
X241167551Y-196177057D01*
X241280572Y-196158423D01*
X241430491Y-196149664D01*
X241639713Y-196147289D01*
X241672533Y-196147267D01*
X241887840Y-196148729D01*
X242041427Y-196155746D01*
X242156225Y-196172263D01*
X242255167Y-196202225D01*
X242361183Y-196249578D01*
X242410697Y-196274267D01*
X242728005Y-196480120D01*
X242993897Y-196746729D01*
X243195856Y-197061331D01*
X243208840Y-197088114D01*
X243272439Y-197229546D01*
X243312374Y-197346622D01*
X243334034Y-197467621D01*
X243342808Y-197620827D01*
X243344159Y-197798267D01*
X243341671Y-198000615D01*
X243331178Y-198146264D01*
X243307219Y-198263143D01*
X243264334Y-198379183D01*
X243206264Y-198503472D01*
X243002850Y-198826232D01*
X242735556Y-199095848D01*
X242411662Y-199305049D01*
X242395228Y-199313243D01*
X242263612Y-199375079D01*
X242154283Y-199414694D01*
X242041222Y-199436992D01*
X241898412Y-199446877D01*
X241699835Y-199449253D01*
X241673536Y-199449267D01*
X241465393Y-199447218D01*
X241315538Y-199437893D01*
X241197628Y-199416524D01*
X241085321Y-199378342D01*
X240952745Y-199318803D01*
X240635829Y-199122590D01*
X240410060Y-198901864D01*
X241008098Y-198901864D01*
X241009245Y-198905923D01*
X241080495Y-198946116D01*
X241206642Y-198992617D01*
X241359172Y-199037204D01*
X241509572Y-199071652D01*
X241629326Y-199087740D01*
X241640783Y-199088051D01*
X241746792Y-199081211D01*
X241791897Y-199049913D01*
X241799533Y-199002079D01*
X241792930Y-198908196D01*
X241775358Y-198763578D01*
X241750173Y-198588732D01*
X241720729Y-198404163D01*
X241690383Y-198230380D01*
X241662489Y-198087887D01*
X241640404Y-197997192D01*
X241638120Y-197991760D01*
X241763259Y-197991760D01*
X241763293Y-198049268D01*
X241774561Y-198172314D01*
X241795104Y-198342804D01*
X241822878Y-198542090D01*
X241859495Y-198774754D01*
X241894993Y-198931529D01*
X241939163Y-199020489D01*
X242001798Y-199049707D01*
X242092690Y-199027256D01*
X242221630Y-198961208D01*
X242286367Y-198924210D01*
X242426164Y-198834105D01*
X242551387Y-198737675D01*
X242603600Y-198688647D01*
X242668600Y-198609781D01*
X242675979Y-198564699D01*
X242645933Y-198539045D01*
X242587105Y-198501383D01*
X242475479Y-198426617D01*
X242327743Y-198326021D01*
X242180533Y-198224675D01*
X242021763Y-198119316D01*
X241889865Y-198040259D01*
X241798935Y-197995373D01*
X241763259Y-197991760D01*
X241638120Y-197991760D01*
X241631732Y-197976568D01*
X241598815Y-197997295D01*
X241529778Y-198077461D01*
X241433982Y-198205087D01*
X241320784Y-198368198D01*
X241292095Y-198411251D01*
X241179738Y-198585929D01*
X241089699Y-198735113D01*
X241029858Y-198845019D01*
X241008098Y-198901864D01*
X240410060Y-198901864D01*
X240367799Y-198860548D01*
X240157360Y-198541373D01*
X240139934Y-198506882D01*
X240074991Y-198368515D01*
X240034036Y-198254885D01*
X240031230Y-198240298D01*
X240455620Y-198240298D01*
X240510761Y-198374398D01*
X240563672Y-198457949D01*
X240644215Y-198565813D01*
X240735140Y-198677254D01*
X240819197Y-198771535D01*
X240879136Y-198827919D01*
X240894273Y-198835434D01*
X240922264Y-198802161D01*
X240987147Y-198711229D01*
X241079671Y-198575969D01*
X241190588Y-198409709D01*
X241207307Y-198384338D01*
X241317505Y-198213583D01*
X241406338Y-198069621D01*
X241465578Y-197966271D01*
X241486994Y-197917349D01*
X241486467Y-197915590D01*
X241441995Y-197917476D01*
X241334645Y-197933419D01*
X241184304Y-197959627D01*
X241010860Y-197992309D01*
X240834199Y-198027677D01*
X240674208Y-198061938D01*
X240550774Y-198091304D01*
X240518950Y-198099995D01*
X240456413Y-198147498D01*
X240455620Y-198240298D01*
X240031230Y-198240298D01*
X240011596Y-198138241D01*
X240002198Y-197990833D01*
X240000367Y-197799157D01*
X240000459Y-197790826D01*
X240375987Y-197790826D01*
X240383755Y-197914684D01*
X240405004Y-197998639D01*
X240418501Y-198031100D01*
X240460966Y-198022860D01*
X240569950Y-198000400D01*
X240729160Y-197967108D01*
X240922301Y-197926372D01*
X240930911Y-197924549D01*
X241125655Y-197882519D01*
X241287536Y-197846081D01*
X241321405Y-197837946D01*
X241809243Y-197837946D01*
X241835885Y-197866377D01*
X241921091Y-197932242D01*
X242052605Y-198026572D01*
X242218173Y-198140400D01*
X242271884Y-198176496D01*
X242476932Y-198312010D01*
X242623997Y-198400445D01*
X242725195Y-198442203D01*
X242792643Y-198437687D01*
X242838457Y-198387299D01*
X242874755Y-198291440D01*
X242901024Y-198197375D01*
X242954248Y-197965024D01*
X242975583Y-197786329D01*
X242964584Y-197669867D01*
X242930711Y-197626662D01*
X242871723Y-197627097D01*
X242750345Y-197642181D01*
X242586376Y-197668184D01*
X242399617Y-197701376D01*
X242209866Y-197738026D01*
X242036925Y-197774404D01*
X241900593Y-197806779D01*
X241820668Y-197831422D01*
X241809243Y-197837946D01*
X241321405Y-197837946D01*
X241400073Y-197819051D01*
X241446787Y-197805247D01*
X241447035Y-197805042D01*
X241436316Y-197761421D01*
X241368439Y-197695051D01*
X241799533Y-197695051D01*
X241833722Y-197725744D01*
X241894783Y-197720468D01*
X241974930Y-197702425D01*
X242115889Y-197672301D01*
X242295486Y-197634792D01*
X242434533Y-197606202D01*
X242619356Y-197566517D01*
X242772497Y-197530004D01*
X242875391Y-197501312D01*
X242908715Y-197487458D01*
X242915022Y-197428311D01*
X242876728Y-197324496D01*
X242806065Y-197194101D01*
X242715262Y-197055219D01*
X242616550Y-196925939D01*
X242522160Y-196824352D01*
X242444321Y-196768548D01*
X242419024Y-196763132D01*
X242379954Y-196797422D01*
X242308092Y-196887672D01*
X242214415Y-197017367D01*
X242109902Y-197169992D01*
X242005530Y-197329032D01*
X241912279Y-197477973D01*
X241841125Y-197600300D01*
X241803048Y-197679498D01*
X241799533Y-197695051D01*
X241368439Y-197695051D01*
X241353363Y-197680310D01*
X241197326Y-197560996D01*
X240967352Y-197402769D01*
X240959884Y-197397800D01*
X240801399Y-197294276D01*
X240671019Y-197212573D01*
X240583288Y-197161574D01*
X240552868Y-197149194D01*
X240490199Y-197262265D01*
X240435136Y-197428136D01*
X240394719Y-197614944D01*
X240375987Y-197790826D01*
X240000459Y-197790826D01*
X240002627Y-197596208D01*
X240012935Y-197450213D01*
X240036580Y-197333505D01*
X240078852Y-197218417D01*
X240134074Y-197099767D01*
X240153928Y-197061959D01*
X240615906Y-197061959D01*
X240618751Y-197073360D01*
X240693735Y-197128673D01*
X240801169Y-197199754D01*
X240918861Y-197273030D01*
X241024618Y-197334926D01*
X241096247Y-197371867D01*
X241113876Y-197376202D01*
X241097776Y-197337747D01*
X241038693Y-197253911D01*
X240950835Y-197144561D01*
X240854680Y-197035599D01*
X240778471Y-196958489D01*
X240739757Y-196930434D01*
X240693914Y-196956479D01*
X240642952Y-197011753D01*
X240615906Y-197061959D01*
X240153928Y-197061959D01*
X240217686Y-196940550D01*
X240305123Y-196794190D01*
X240366615Y-196707224D01*
X241038958Y-196707224D01*
X241060015Y-196761147D01*
X241119411Y-196848381D01*
X241223607Y-196983264D01*
X241261460Y-197031230D01*
X241371781Y-197165897D01*
X241461571Y-197266209D01*
X241519341Y-197319874D01*
X241534483Y-197323417D01*
X241533948Y-197266919D01*
X241521694Y-197148794D01*
X241500151Y-196990889D01*
X241490551Y-196928265D01*
X241435900Y-196581867D01*
X241517759Y-196581867D01*
X241521659Y-196602350D01*
X241537542Y-196690234D01*
X241560586Y-196832550D01*
X241586048Y-196999904D01*
X241588283Y-197015100D01*
X241622610Y-197243083D01*
X241648906Y-197399580D01*
X241669973Y-197497079D01*
X241688612Y-197548066D01*
X241707624Y-197565026D01*
X241711774Y-197565434D01*
X241746392Y-197532199D01*
X241816984Y-197441595D01*
X241913433Y-197307272D01*
X242025619Y-197142880D01*
X242031061Y-197134715D01*
X242150501Y-196953515D01*
X242227688Y-196829074D01*
X242268243Y-196748318D01*
X242277787Y-196698173D01*
X242261941Y-196665568D01*
X242240556Y-196647490D01*
X242095708Y-196576184D01*
X241900615Y-196526684D01*
X241688628Y-196507362D01*
X241682310Y-196507336D01*
X241570006Y-196511481D01*
X241521926Y-196532320D01*
X241517759Y-196581867D01*
X241435900Y-196581867D01*
X241434122Y-196570600D01*
X241302608Y-196576485D01*
X241178370Y-196600112D01*
X241086013Y-196641964D01*
X241049778Y-196672275D01*
X241038958Y-196707224D01*
X240366615Y-196707224D01*
X240372974Y-196698232D01*
X240478167Y-196571863D01*
X240347968Y-196390564D01*
X240270420Y-196295344D01*
X240209761Y-196243702D01*
X240187101Y-196241766D01*
X240148740Y-196293360D01*
X240073048Y-196404244D01*
X239966543Y-196564288D01*
X239835741Y-196763358D01*
X239687158Y-196991326D01*
X239527311Y-197238058D01*
X239362716Y-197493425D01*
X239199889Y-197747295D01*
X239045348Y-197989538D01*
X238905609Y-198210021D01*
X238787187Y-198398614D01*
X238696600Y-198545186D01*
X238640363Y-198639605D01*
X238624438Y-198671242D01*
X238663099Y-198677277D01*
X238764996Y-198678166D01*
X238908847Y-198673773D01*
X238922738Y-198673133D01*
X239121663Y-198672796D01*
X239250242Y-198697843D01*
X239320368Y-198753529D01*
X239343935Y-198845110D01*
X239344200Y-198859383D01*
X239321572Y-198956716D01*
X239247734Y-199024689D01*
X239113756Y-199066842D01*
X238910706Y-199086716D01*
X238763903Y-199089434D01*
X238575043Y-199091556D01*
X238436994Y-199102889D01*
X238318431Y-199130881D01*
X238188034Y-199182980D01*
X238014481Y-199266635D01*
X238010558Y-199268580D01*
X237832240Y-199361602D01*
X237723801Y-199430515D01*
X237676202Y-199481871D01*
X237674659Y-199511996D01*
X237695579Y-199587049D01*
X237723290Y-199714101D01*
X237744340Y-199824758D01*
X237765399Y-200174237D01*
X237709009Y-200518629D01*
X237582005Y-200844791D01*
X237391219Y-201139578D01*
X237143485Y-201389846D01*
X236845638Y-201582450D01*
X236825367Y-201592344D01*
X236710373Y-201644550D01*
X236609960Y-201679263D01*
X236501918Y-201700019D01*
X236364036Y-201710357D01*
X236174105Y-201713814D01*
X236061095Y-201714067D01*
X235836903Y-201712415D01*
X235676230Y-201705363D01*
X235557959Y-201689821D01*
X235460973Y-201662697D01*
X235364155Y-201620901D01*
X235338495Y-201608292D01*
X235011385Y-201401804D01*
X234997479Y-201388054D01*
X235948034Y-201388054D01*
X236199265Y-201365273D01*
X236373567Y-201336382D01*
X236544338Y-201287428D01*
X236624476Y-201253735D01*
X236733279Y-201193433D01*
X236806273Y-201144084D01*
X236819910Y-201130263D01*
X236801167Y-201089398D01*
X236738827Y-201000115D01*
X236645258Y-200877522D01*
X236532834Y-200736728D01*
X236413924Y-200592844D01*
X236300899Y-200460977D01*
X236206132Y-200356239D01*
X236141991Y-200293737D01*
X236126599Y-200283486D01*
X236108913Y-200317327D01*
X236086278Y-200418558D01*
X236061964Y-200570300D01*
X236044624Y-200706819D01*
X236021161Y-200903990D01*
X235998414Y-201081772D01*
X235979624Y-201215443D01*
X235971383Y-201265327D01*
X235948034Y-201388054D01*
X234997479Y-201388054D01*
X234750096Y-201143452D01*
X234644335Y-200975657D01*
X235110867Y-200975657D01*
X235146244Y-201018768D01*
X235238877Y-201084881D01*
X235368517Y-201162920D01*
X235514912Y-201241807D01*
X235657814Y-201310464D01*
X235776972Y-201357817D01*
X235836246Y-201372451D01*
X235854199Y-201335249D01*
X235877808Y-201233882D01*
X235902651Y-201088248D01*
X235908523Y-201047350D01*
X235949001Y-200745441D01*
X235976052Y-200520084D01*
X235990271Y-200364335D01*
X235992256Y-200271250D01*
X235982601Y-200233883D01*
X235978498Y-200232434D01*
X235938694Y-200258327D01*
X235850654Y-200327654D01*
X235729009Y-200427880D01*
X235588390Y-200546474D01*
X235443427Y-200670902D01*
X235308750Y-200788633D01*
X235198990Y-200887132D01*
X235128777Y-200953869D01*
X235110867Y-200975657D01*
X234644335Y-200975657D01*
X234557708Y-200838221D01*
X234437300Y-200491097D01*
X234391951Y-200107066D01*
X234391658Y-200075272D01*
X234392684Y-200065711D01*
X234762978Y-200065711D01*
X234792177Y-200260422D01*
X234825907Y-200413732D01*
X234877862Y-200572183D01*
X234938825Y-200714610D01*
X234999580Y-200819847D01*
X235050912Y-200866729D01*
X235056479Y-200867434D01*
X235094539Y-200841403D01*
X235183578Y-200770346D01*
X235310703Y-200664814D01*
X235463023Y-200535358D01*
X235478641Y-200521936D01*
X235660666Y-200360289D01*
X235776292Y-200245277D01*
X235812265Y-200195822D01*
X236229164Y-200195822D01*
X236239667Y-200247825D01*
X236295351Y-200324421D01*
X236297899Y-200327135D01*
X236365501Y-200402000D01*
X236469523Y-200521119D01*
X236592016Y-200663847D01*
X236648022Y-200729850D01*
X236762539Y-200862334D01*
X236857024Y-200966074D01*
X236918248Y-201026828D01*
X236933116Y-201036767D01*
X236976994Y-201008896D01*
X237046594Y-200941847D01*
X237046900Y-200941517D01*
X237155497Y-200793185D01*
X237255784Y-200604960D01*
X237325504Y-200420460D01*
X237336991Y-200373062D01*
X237363670Y-200239667D01*
X237136851Y-200216257D01*
X236898356Y-200195004D01*
X236674435Y-200181147D01*
X236480576Y-200175035D01*
X236332269Y-200177016D01*
X236245003Y-200187439D01*
X236229164Y-200195822D01*
X235812265Y-200195822D01*
X235827960Y-200174245D01*
X235823647Y-200146583D01*
X235760877Y-200132801D01*
X235632506Y-200117641D01*
X235457539Y-200102984D01*
X235265006Y-200091219D01*
X234883388Y-200071829D01*
X236508149Y-200071829D01*
X236546817Y-200088182D01*
X236649111Y-200103681D01*
X236794017Y-200115277D01*
X236814783Y-200116334D01*
X236986664Y-200124877D01*
X237140999Y-200133171D01*
X237243359Y-200139355D01*
X237365017Y-200147767D01*
X237345713Y-199914982D01*
X237331877Y-199783366D01*
X237316660Y-199690615D01*
X237307343Y-199663132D01*
X237263916Y-199672511D01*
X237165934Y-199713562D01*
X237032634Y-199776447D01*
X236883254Y-199851330D01*
X236737030Y-199928371D01*
X236613202Y-199997733D01*
X236531004Y-200049579D01*
X236508149Y-200071829D01*
X234883388Y-200071829D01*
X234762978Y-200065711D01*
X234392684Y-200065711D01*
X234402740Y-199972058D01*
X234775592Y-199972058D01*
X235038479Y-199997006D01*
X235230114Y-200013512D01*
X235432212Y-200028397D01*
X235534200Y-200034696D01*
X235678809Y-200043275D01*
X235796658Y-200051429D01*
X235841117Y-200055269D01*
X235903792Y-200050717D01*
X235915200Y-200039242D01*
X235889009Y-200000151D01*
X235817322Y-199910002D01*
X235710465Y-199781396D01*
X235578765Y-199626931D01*
X235549709Y-199593301D01*
X235401103Y-199422700D01*
X235296783Y-199308036D01*
X235225936Y-199240965D01*
X235177747Y-199213141D01*
X235141402Y-199216218D01*
X235106087Y-199241850D01*
X235100634Y-199246742D01*
X235015810Y-199351990D01*
X234926740Y-199506399D01*
X234850084Y-199677085D01*
X234802504Y-199831164D01*
X234801222Y-199837662D01*
X234775592Y-199972058D01*
X234402740Y-199972058D01*
X234431305Y-199706041D01*
X234548307Y-199364728D01*
X234717304Y-199091595D01*
X235280200Y-199091595D01*
X235306576Y-199140788D01*
X235378536Y-199239256D01*
X235485326Y-199373068D01*
X235616194Y-199528297D01*
X235626668Y-199540400D01*
X235782836Y-199718418D01*
X235894034Y-199830574D01*
X235970219Y-199873697D01*
X236021353Y-199844619D01*
X236057393Y-199740169D01*
X236087327Y-199562936D01*
X236740700Y-199562936D01*
X236939695Y-199466931D01*
X237047239Y-199407248D01*
X237109928Y-199356976D01*
X237117113Y-199336012D01*
X237055478Y-199302342D01*
X236961355Y-199344696D01*
X236865037Y-199432018D01*
X236740700Y-199562936D01*
X236087327Y-199562936D01*
X236088300Y-199557178D01*
X236094608Y-199510636D01*
X236177070Y-199510636D01*
X236182121Y-199554584D01*
X236183624Y-199555100D01*
X236212139Y-199521372D01*
X236227380Y-199498463D01*
X236626838Y-199498463D01*
X236661388Y-199494850D01*
X236746079Y-199423031D01*
X236797299Y-199371720D01*
X236890707Y-199252174D01*
X236908580Y-199165029D01*
X236906908Y-199160053D01*
X236876268Y-199104439D01*
X236839920Y-199104316D01*
X236787974Y-199166761D01*
X236710539Y-199298853D01*
X236708962Y-199301710D01*
X236642629Y-199434031D01*
X236626838Y-199498463D01*
X236227380Y-199498463D01*
X236271775Y-199431737D01*
X236351160Y-199303521D01*
X236376042Y-199261949D01*
X236457530Y-199119944D01*
X236518618Y-199004271D01*
X236548743Y-198935221D01*
X236550200Y-198927424D01*
X236515730Y-198887504D01*
X236436353Y-198847608D01*
X236348116Y-198821089D01*
X236287064Y-198821297D01*
X236280091Y-198827379D01*
X236264717Y-198883245D01*
X236245457Y-198993304D01*
X236234960Y-199068267D01*
X236214071Y-199225344D01*
X236193371Y-199372186D01*
X236186586Y-199417517D01*
X236177070Y-199510636D01*
X236094608Y-199510636D01*
X236111488Y-199386104D01*
X236143025Y-199149018D01*
X236161776Y-198983718D01*
X236164678Y-198877882D01*
X236148665Y-198819189D01*
X236110671Y-198795317D01*
X236047630Y-198793944D01*
X235966133Y-198801840D01*
X235830275Y-198827115D01*
X235674848Y-198874089D01*
X235521090Y-198933792D01*
X235390238Y-198997254D01*
X235303528Y-199055502D01*
X235280200Y-199091595D01*
X234717304Y-199091595D01*
X234738043Y-199058077D01*
X234995893Y-198792834D01*
X235317235Y-198575744D01*
X235470700Y-198500246D01*
X235613357Y-198460108D01*
X235811754Y-198433920D01*
X236037995Y-198422442D01*
X236264187Y-198426434D01*
X236462436Y-198446654D01*
X236568010Y-198470360D01*
X236692152Y-198503812D01*
X236781829Y-198518490D01*
X236807386Y-198515964D01*
X236846995Y-198467579D01*
X236909207Y-198368684D01*
X236941739Y-198311659D01*
X237872604Y-198311659D01*
X237875249Y-198397676D01*
X237930835Y-198502417D01*
X237997910Y-198592011D01*
X238053186Y-198663942D01*
X238094647Y-198709547D01*
X238132332Y-198721755D01*
X238176280Y-198693497D01*
X238236529Y-198617703D01*
X238323118Y-198487302D01*
X238446087Y-198295225D01*
X238468193Y-198260808D01*
X238554528Y-198128017D01*
X238678365Y-197939517D01*
X238830044Y-197709913D01*
X238999902Y-197453809D01*
X239178279Y-197185810D01*
X239291698Y-197015917D01*
X239454040Y-196771281D01*
X239598404Y-196550335D01*
X239718755Y-196362591D01*
X239809064Y-196217562D01*
X239863299Y-196124760D01*
X239876380Y-196093836D01*
X239838015Y-196111774D01*
X239741094Y-196172545D01*
X239595684Y-196269388D01*
X239411851Y-196395543D01*
X239199661Y-196544249D01*
X239094328Y-196619060D01*
X238843172Y-196799053D01*
X238652164Y-196938946D01*
X238511952Y-197046986D01*
X238413181Y-197131422D01*
X238346497Y-197200503D01*
X238302545Y-197262477D01*
X238271971Y-197325592D01*
X238261111Y-197353767D01*
X238209572Y-197493772D01*
X238143645Y-197672917D01*
X238081951Y-197840600D01*
X238020764Y-197998160D01*
X237962664Y-198133035D01*
X237919655Y-198217460D01*
X237917736Y-198220436D01*
X237872604Y-198311659D01*
X236941739Y-198311659D01*
X236979771Y-198244996D01*
X237044434Y-198122228D01*
X237088947Y-198026095D01*
X237100533Y-197987022D01*
X237076014Y-197938781D01*
X237008627Y-197837051D01*
X236907626Y-197695065D01*
X236782268Y-197526054D01*
X236730117Y-197457427D01*
X236577961Y-197260604D01*
X236464139Y-197123516D01*
X236376244Y-197038123D01*
X236301867Y-196996383D01*
X236228600Y-196990257D01*
X236144036Y-197011702D01*
X236079408Y-197035737D01*
X236002151Y-197027889D01*
X235921015Y-196974385D01*
X235874593Y-196902808D01*
X235873928Y-196897139D01*
X236718856Y-196897139D01*
X236835611Y-197052355D01*
X236926515Y-197172915D01*
X237039667Y-197322596D01*
X237121414Y-197430525D01*
X237290461Y-197653478D01*
X237366930Y-197473426D01*
X237415661Y-197345379D01*
X237447159Y-197237800D01*
X237451882Y-197210614D01*
X237443430Y-197166759D01*
X237398769Y-197127123D01*
X237303862Y-197084030D01*
X237144673Y-197029805D01*
X237089611Y-197012496D01*
X236718856Y-196897139D01*
X235873928Y-196897139D01*
X235872867Y-196888100D01*
X235899756Y-196832066D01*
X235939084Y-196785597D01*
X235975973Y-196736159D01*
X235961966Y-196689366D01*
X235888786Y-196618770D01*
X235886167Y-196616506D01*
X235767033Y-196513632D01*
X235779349Y-195018500D01*
X235780338Y-194929801D01*
X236515400Y-194929801D01*
X236517193Y-195179368D01*
X236517536Y-195204635D01*
X236529033Y-196018837D01*
X237375700Y-196285321D01*
X237660477Y-196377713D01*
X237906812Y-196463080D01*
X238103868Y-196537345D01*
X238240810Y-196596431D01*
X238305857Y-196635286D01*
X238372302Y-196696156D01*
X238406888Y-196718767D01*
X238445471Y-196695482D01*
X238541183Y-196631018D01*
X238682296Y-196533465D01*
X238857083Y-196410909D01*
X239000731Y-196309218D01*
X239200368Y-196167052D01*
X239381838Y-196037278D01*
X239531229Y-195929889D01*
X239634626Y-195854874D01*
X239670894Y-195827967D01*
X239764755Y-195756267D01*
X239533311Y-195446910D01*
X239430366Y-195301199D01*
X239350962Y-195173370D01*
X239306959Y-195083232D01*
X239301867Y-195060327D01*
X239342564Y-194953664D01*
X239463086Y-194829427D01*
X239554439Y-194760265D01*
X239653703Y-194690737D01*
X239474408Y-194453263D01*
X239378900Y-194330275D01*
X239316072Y-194265056D01*
X239269184Y-194246625D01*
X239221497Y-194264002D01*
X239203240Y-194275394D01*
X239081996Y-194350462D01*
X238917161Y-194447581D01*
X238723698Y-194558476D01*
X238516571Y-194674873D01*
X238310744Y-194788495D01*
X238121179Y-194891070D01*
X237962840Y-194974321D01*
X237850692Y-195029973D01*
X237804122Y-195049106D01*
X237755653Y-195058339D01*
X237706123Y-195056240D01*
X237643729Y-195037172D01*
X237556668Y-194995498D01*
X237433137Y-194925580D01*
X237261332Y-194821781D01*
X237033959Y-194681260D01*
X236856799Y-194572677D01*
X236705604Y-194482520D01*
X236594774Y-194419193D01*
X236538711Y-194391101D01*
X236535628Y-194390434D01*
X236527035Y-194430603D01*
X236520608Y-194542500D01*
X236516634Y-194713206D01*
X236515400Y-194929801D01*
X235780338Y-194929801D01*
X235783630Y-194634813D01*
X235789670Y-194293334D01*
X235797206Y-194001695D01*
X235805977Y-193767528D01*
X235815717Y-193598465D01*
X235826166Y-193502135D01*
X235832266Y-193482768D01*
X235871989Y-193409896D01*
X235829366Y-193354173D01*
X235705142Y-193316501D01*
X235692950Y-193314490D01*
X235451339Y-193238809D01*
X235256139Y-193104296D01*
X235110056Y-192924634D01*
X235015796Y-192713505D01*
X234976064Y-192484592D01*
X234993568Y-192251576D01*
X235071013Y-192028142D01*
X235211106Y-191827972D01*
X235372141Y-191692428D01*
X235594822Y-191592360D01*
X235845624Y-191556655D01*
X236095968Y-191586797D01*
X236095968Y-191586797D01*
G37*
X236095968Y-191586797D02*
X236253258Y-191646640D01*
X236476118Y-191804230D01*
X236634079Y-192005306D01*
X236724701Y-192236190D01*
X236745540Y-192483205D01*
X236694155Y-192732673D01*
X236568104Y-192970918D01*
X236504028Y-193051247D01*
X236414677Y-193162135D01*
X236354587Y-193254666D01*
X236338533Y-193298118D01*
X236372421Y-193333618D01*
X236465224Y-193404675D01*
X236603652Y-193502633D01*
X236774414Y-193618836D01*
X236964221Y-193744628D01*
X237159782Y-193871352D01*
X237347807Y-193990353D01*
X237515006Y-194092974D01*
X237648087Y-194170560D01*
X237733761Y-194214454D01*
X237755651Y-194221100D01*
X237801031Y-194200902D01*
X237906937Y-194144921D01*
X238060784Y-194060076D01*
X238249991Y-193953286D01*
X238418378Y-193856693D01*
X238652911Y-193722514D01*
X238827595Y-193626662D01*
X238955035Y-193563663D01*
X239047840Y-193528046D01*
X239118616Y-193514337D01*
X239179971Y-193517064D01*
X239194930Y-193519600D01*
X239349836Y-193587883D01*
X239462499Y-193713632D01*
X239513323Y-193873592D01*
X239514399Y-193898726D01*
X239539146Y-194007166D01*
X239615551Y-194154078D01*
X239747233Y-194347246D01*
X239849150Y-194491837D01*
X239928261Y-194614480D01*
X239973152Y-194696969D01*
X239979200Y-194717336D01*
X239949891Y-194777944D01*
X239877302Y-194860760D01*
X239855901Y-194880641D01*
X239732601Y-194990501D01*
X240067567Y-195446115D01*
X240191200Y-195616566D01*
X240294246Y-195762992D01*
X240367379Y-195871810D01*
X240401269Y-195929435D01*
X240402533Y-195933956D01*
X240427772Y-195981016D01*
X240493435Y-196071114D01*
X240570988Y-196167384D01*
X240739442Y-196368584D01*
X240962571Y-196257925D01*
X241069019Y-196209061D01*
X241167551Y-196177057D01*
X241280572Y-196158423D01*
X241430491Y-196149664D01*
X241639713Y-196147289D01*
X241672533Y-196147267D01*
X241887840Y-196148729D01*
X242041427Y-196155746D01*
X242156225Y-196172263D01*
X242255167Y-196202225D01*
X242361183Y-196249578D01*
X242410697Y-196274267D01*
X242728005Y-196480120D01*
X242993897Y-196746729D01*
X243195856Y-197061331D01*
X243208840Y-197088114D01*
X243272439Y-197229546D01*
X243312374Y-197346622D01*
X243334034Y-197467621D01*
X243342808Y-197620827D01*
X243344159Y-197798267D01*
X243341671Y-198000615D01*
X243331178Y-198146264D01*
X243307219Y-198263143D01*
X243264334Y-198379183D01*
X243206264Y-198503472D01*
X243002850Y-198826232D01*
X242735556Y-199095848D01*
X242411662Y-199305049D01*
X242395228Y-199313243D01*
X242263612Y-199375079D01*
X242154283Y-199414694D01*
X242041222Y-199436992D01*
X241898412Y-199446877D01*
X241699835Y-199449253D01*
X241673536Y-199449267D01*
X241465393Y-199447218D01*
X241315538Y-199437893D01*
X241197628Y-199416524D01*
X241085321Y-199378342D01*
X240952745Y-199318803D01*
X240635829Y-199122590D01*
X240410060Y-198901864D01*
X241008098Y-198901864D01*
X241009245Y-198905923D01*
X241080495Y-198946116D01*
X241206642Y-198992617D01*
X241359172Y-199037204D01*
X241509572Y-199071652D01*
X241629326Y-199087740D01*
X241640783Y-199088051D01*
X241746792Y-199081211D01*
X241791897Y-199049913D01*
X241799533Y-199002079D01*
X241792930Y-198908196D01*
X241775358Y-198763578D01*
X241750173Y-198588732D01*
X241720729Y-198404163D01*
X241690383Y-198230380D01*
X241662489Y-198087887D01*
X241640404Y-197997192D01*
X241638120Y-197991760D01*
X241763259Y-197991760D01*
X241763293Y-198049268D01*
X241774561Y-198172314D01*
X241795104Y-198342804D01*
X241822878Y-198542090D01*
X241859495Y-198774754D01*
X241894993Y-198931529D01*
X241939163Y-199020489D01*
X242001798Y-199049707D01*
X242092690Y-199027256D01*
X242221630Y-198961208D01*
X242286367Y-198924210D01*
X242426164Y-198834105D01*
X242551387Y-198737675D01*
X242603600Y-198688647D01*
X242668600Y-198609781D01*
X242675979Y-198564699D01*
X242645933Y-198539045D01*
X242587105Y-198501383D01*
X242475479Y-198426617D01*
X242327743Y-198326021D01*
X242180533Y-198224675D01*
X242021763Y-198119316D01*
X241889865Y-198040259D01*
X241798935Y-197995373D01*
X241763259Y-197991760D01*
X241638120Y-197991760D01*
X241631732Y-197976568D01*
X241598815Y-197997295D01*
X241529778Y-198077461D01*
X241433982Y-198205087D01*
X241320784Y-198368198D01*
X241292095Y-198411251D01*
X241179738Y-198585929D01*
X241089699Y-198735113D01*
X241029858Y-198845019D01*
X241008098Y-198901864D01*
X240410060Y-198901864D01*
X240367799Y-198860548D01*
X240157360Y-198541373D01*
X240139934Y-198506882D01*
X240074991Y-198368515D01*
X240034036Y-198254885D01*
X240031230Y-198240298D01*
X240455620Y-198240298D01*
X240510761Y-198374398D01*
X240563672Y-198457949D01*
X240644215Y-198565813D01*
X240735140Y-198677254D01*
X240819197Y-198771535D01*
X240879136Y-198827919D01*
X240894273Y-198835434D01*
X240922264Y-198802161D01*
X240987147Y-198711229D01*
X241079671Y-198575969D01*
X241190588Y-198409709D01*
X241207307Y-198384338D01*
X241317505Y-198213583D01*
X241406338Y-198069621D01*
X241465578Y-197966271D01*
X241486994Y-197917349D01*
X241486467Y-197915590D01*
X241441995Y-197917476D01*
X241334645Y-197933419D01*
X241184304Y-197959627D01*
X241010860Y-197992309D01*
X240834199Y-198027677D01*
X240674208Y-198061938D01*
X240550774Y-198091304D01*
X240518950Y-198099995D01*
X240456413Y-198147498D01*
X240455620Y-198240298D01*
X240031230Y-198240298D01*
X240011596Y-198138241D01*
X240002198Y-197990833D01*
X240000367Y-197799157D01*
X240000459Y-197790826D01*
X240375987Y-197790826D01*
X240383755Y-197914684D01*
X240405004Y-197998639D01*
X240418501Y-198031100D01*
X240460966Y-198022860D01*
X240569950Y-198000400D01*
X240729160Y-197967108D01*
X240922301Y-197926372D01*
X240930911Y-197924549D01*
X241125655Y-197882519D01*
X241287536Y-197846081D01*
X241321405Y-197837946D01*
X241809243Y-197837946D01*
X241835885Y-197866377D01*
X241921091Y-197932242D01*
X242052605Y-198026572D01*
X242218173Y-198140400D01*
X242271884Y-198176496D01*
X242476932Y-198312010D01*
X242623997Y-198400445D01*
X242725195Y-198442203D01*
X242792643Y-198437687D01*
X242838457Y-198387299D01*
X242874755Y-198291440D01*
X242901024Y-198197375D01*
X242954248Y-197965024D01*
X242975583Y-197786329D01*
X242964584Y-197669867D01*
X242930711Y-197626662D01*
X242871723Y-197627097D01*
X242750345Y-197642181D01*
X242586376Y-197668184D01*
X242399617Y-197701376D01*
X242209866Y-197738026D01*
X242036925Y-197774404D01*
X241900593Y-197806779D01*
X241820668Y-197831422D01*
X241809243Y-197837946D01*
X241321405Y-197837946D01*
X241400073Y-197819051D01*
X241446787Y-197805247D01*
X241447035Y-197805042D01*
X241436316Y-197761421D01*
X241368439Y-197695051D01*
X241799533Y-197695051D01*
X241833722Y-197725744D01*
X241894783Y-197720468D01*
X241974930Y-197702425D01*
X242115889Y-197672301D01*
X242295486Y-197634792D01*
X242434533Y-197606202D01*
X242619356Y-197566517D01*
X242772497Y-197530004D01*
X242875391Y-197501312D01*
X242908715Y-197487458D01*
X242915022Y-197428311D01*
X242876728Y-197324496D01*
X242806065Y-197194101D01*
X242715262Y-197055219D01*
X242616550Y-196925939D01*
X242522160Y-196824352D01*
X242444321Y-196768548D01*
X242419024Y-196763132D01*
X242379954Y-196797422D01*
X242308092Y-196887672D01*
X242214415Y-197017367D01*
X242109902Y-197169992D01*
X242005530Y-197329032D01*
X241912279Y-197477973D01*
X241841125Y-197600300D01*
X241803048Y-197679498D01*
X241799533Y-197695051D01*
X241368439Y-197695051D01*
X241353363Y-197680310D01*
X241197326Y-197560996D01*
X240967352Y-197402769D01*
X240959884Y-197397800D01*
X240801399Y-197294276D01*
X240671019Y-197212573D01*
X240583288Y-197161574D01*
X240552868Y-197149194D01*
X240490199Y-197262265D01*
X240435136Y-197428136D01*
X240394719Y-197614944D01*
X240375987Y-197790826D01*
X240000459Y-197790826D01*
X240002627Y-197596208D01*
X240012935Y-197450213D01*
X240036580Y-197333505D01*
X240078852Y-197218417D01*
X240134074Y-197099767D01*
X240153928Y-197061959D01*
X240615906Y-197061959D01*
X240618751Y-197073360D01*
X240693735Y-197128673D01*
X240801169Y-197199754D01*
X240918861Y-197273030D01*
X241024618Y-197334926D01*
X241096247Y-197371867D01*
X241113876Y-197376202D01*
X241097776Y-197337747D01*
X241038693Y-197253911D01*
X240950835Y-197144561D01*
X240854680Y-197035599D01*
X240778471Y-196958489D01*
X240739757Y-196930434D01*
X240693914Y-196956479D01*
X240642952Y-197011753D01*
X240615906Y-197061959D01*
X240153928Y-197061959D01*
X240217686Y-196940550D01*
X240305123Y-196794190D01*
X240366615Y-196707224D01*
X241038958Y-196707224D01*
X241060015Y-196761147D01*
X241119411Y-196848381D01*
X241223607Y-196983264D01*
X241261460Y-197031230D01*
X241371781Y-197165897D01*
X241461571Y-197266209D01*
X241519341Y-197319874D01*
X241534483Y-197323417D01*
X241533948Y-197266919D01*
X241521694Y-197148794D01*
X241500151Y-196990889D01*
X241490551Y-196928265D01*
X241435900Y-196581867D01*
X241517759Y-196581867D01*
X241521659Y-196602350D01*
X241537542Y-196690234D01*
X241560586Y-196832550D01*
X241586048Y-196999904D01*
X241588283Y-197015100D01*
X241622610Y-197243083D01*
X241648906Y-197399580D01*
X241669973Y-197497079D01*
X241688612Y-197548066D01*
X241707624Y-197565026D01*
X241711774Y-197565434D01*
X241746392Y-197532199D01*
X241816984Y-197441595D01*
X241913433Y-197307272D01*
X242025619Y-197142880D01*
X242031061Y-197134715D01*
X242150501Y-196953515D01*
X242227688Y-196829074D01*
X242268243Y-196748318D01*
X242277787Y-196698173D01*
X242261941Y-196665568D01*
X242240556Y-196647490D01*
X242095708Y-196576184D01*
X241900615Y-196526684D01*
X241688628Y-196507362D01*
X241682310Y-196507336D01*
X241570006Y-196511481D01*
X241521926Y-196532320D01*
X241517759Y-196581867D01*
X241435900Y-196581867D01*
X241434122Y-196570600D01*
X241302608Y-196576485D01*
X241178370Y-196600112D01*
X241086013Y-196641964D01*
X241049778Y-196672275D01*
X241038958Y-196707224D01*
X240366615Y-196707224D01*
X240372974Y-196698232D01*
X240478167Y-196571863D01*
X240347968Y-196390564D01*
X240270420Y-196295344D01*
X240209761Y-196243702D01*
X240187101Y-196241766D01*
X240148740Y-196293360D01*
X240073048Y-196404244D01*
X239966543Y-196564288D01*
X239835741Y-196763358D01*
X239687158Y-196991326D01*
X239527311Y-197238058D01*
X239362716Y-197493425D01*
X239199889Y-197747295D01*
X239045348Y-197989538D01*
X238905609Y-198210021D01*
X238787187Y-198398614D01*
X238696600Y-198545186D01*
X238640363Y-198639605D01*
X238624438Y-198671242D01*
X238663099Y-198677277D01*
X238764996Y-198678166D01*
X238908847Y-198673773D01*
X238922738Y-198673133D01*
X239121663Y-198672796D01*
X239250242Y-198697843D01*
X239320368Y-198753529D01*
X239343935Y-198845110D01*
X239344200Y-198859383D01*
X239321572Y-198956716D01*
X239247734Y-199024689D01*
X239113756Y-199066842D01*
X238910706Y-199086716D01*
X238763903Y-199089434D01*
X238575043Y-199091556D01*
X238436994Y-199102889D01*
X238318431Y-199130881D01*
X238188034Y-199182980D01*
X238014481Y-199266635D01*
X238010558Y-199268580D01*
X237832240Y-199361602D01*
X237723801Y-199430515D01*
X237676202Y-199481871D01*
X237674659Y-199511996D01*
X237695579Y-199587049D01*
X237723290Y-199714101D01*
X237744340Y-199824758D01*
X237765399Y-200174237D01*
X237709009Y-200518629D01*
X237582005Y-200844791D01*
X237391219Y-201139578D01*
X237143485Y-201389846D01*
X236845638Y-201582450D01*
X236825367Y-201592344D01*
X236710373Y-201644550D01*
X236609960Y-201679263D01*
X236501918Y-201700019D01*
X236364036Y-201710357D01*
X236174105Y-201713814D01*
X236061095Y-201714067D01*
X235836903Y-201712415D01*
X235676230Y-201705363D01*
X235557959Y-201689821D01*
X235460973Y-201662697D01*
X235364155Y-201620901D01*
X235338495Y-201608292D01*
X235011385Y-201401804D01*
X234997479Y-201388054D01*
X235948034Y-201388054D01*
X236199265Y-201365273D01*
X236373567Y-201336382D01*
X236544338Y-201287428D01*
X236624476Y-201253735D01*
X236733279Y-201193433D01*
X236806273Y-201144084D01*
X236819910Y-201130263D01*
X236801167Y-201089398D01*
X236738827Y-201000115D01*
X236645258Y-200877522D01*
X236532834Y-200736728D01*
X236413924Y-200592844D01*
X236300899Y-200460977D01*
X236206132Y-200356239D01*
X236141991Y-200293737D01*
X236126599Y-200283486D01*
X236108913Y-200317327D01*
X236086278Y-200418558D01*
X236061964Y-200570300D01*
X236044624Y-200706819D01*
X236021161Y-200903990D01*
X235998414Y-201081772D01*
X235979624Y-201215443D01*
X235971383Y-201265327D01*
X235948034Y-201388054D01*
X234997479Y-201388054D01*
X234750096Y-201143452D01*
X234644335Y-200975657D01*
X235110867Y-200975657D01*
X235146244Y-201018768D01*
X235238877Y-201084881D01*
X235368517Y-201162920D01*
X235514912Y-201241807D01*
X235657814Y-201310464D01*
X235776972Y-201357817D01*
X235836246Y-201372451D01*
X235854199Y-201335249D01*
X235877808Y-201233882D01*
X235902651Y-201088248D01*
X235908523Y-201047350D01*
X235949001Y-200745441D01*
X235976052Y-200520084D01*
X235990271Y-200364335D01*
X235992256Y-200271250D01*
X235982601Y-200233883D01*
X235978498Y-200232434D01*
X235938694Y-200258327D01*
X235850654Y-200327654D01*
X235729009Y-200427880D01*
X235588390Y-200546474D01*
X235443427Y-200670902D01*
X235308750Y-200788633D01*
X235198990Y-200887132D01*
X235128777Y-200953869D01*
X235110867Y-200975657D01*
X234644335Y-200975657D01*
X234557708Y-200838221D01*
X234437300Y-200491097D01*
X234391951Y-200107066D01*
X234391658Y-200075272D01*
X234392684Y-200065711D01*
X234762978Y-200065711D01*
X234792177Y-200260422D01*
X234825907Y-200413732D01*
X234877862Y-200572183D01*
X234938825Y-200714610D01*
X234999580Y-200819847D01*
X235050912Y-200866729D01*
X235056479Y-200867434D01*
X235094539Y-200841403D01*
X235183578Y-200770346D01*
X235310703Y-200664814D01*
X235463023Y-200535358D01*
X235478641Y-200521936D01*
X235660666Y-200360289D01*
X235776292Y-200245277D01*
X235812265Y-200195822D01*
X236229164Y-200195822D01*
X236239667Y-200247825D01*
X236295351Y-200324421D01*
X236297899Y-200327135D01*
X236365501Y-200402000D01*
X236469523Y-200521119D01*
X236592016Y-200663847D01*
X236648022Y-200729850D01*
X236762539Y-200862334D01*
X236857024Y-200966074D01*
X236918248Y-201026828D01*
X236933116Y-201036767D01*
X236976994Y-201008896D01*
X237046594Y-200941847D01*
X237046900Y-200941517D01*
X237155497Y-200793185D01*
X237255784Y-200604960D01*
X237325504Y-200420460D01*
X237336991Y-200373062D01*
X237363670Y-200239667D01*
X237136851Y-200216257D01*
X236898356Y-200195004D01*
X236674435Y-200181147D01*
X236480576Y-200175035D01*
X236332269Y-200177016D01*
X236245003Y-200187439D01*
X236229164Y-200195822D01*
X235812265Y-200195822D01*
X235827960Y-200174245D01*
X235823647Y-200146583D01*
X235760877Y-200132801D01*
X235632506Y-200117641D01*
X235457539Y-200102984D01*
X235265006Y-200091219D01*
X234883388Y-200071829D01*
X236508149Y-200071829D01*
X236546817Y-200088182D01*
X236649111Y-200103681D01*
X236794017Y-200115277D01*
X236814783Y-200116334D01*
X236986664Y-200124877D01*
X237140999Y-200133171D01*
X237243359Y-200139355D01*
X237365017Y-200147767D01*
X237345713Y-199914982D01*
X237331877Y-199783366D01*
X237316660Y-199690615D01*
X237307343Y-199663132D01*
X237263916Y-199672511D01*
X237165934Y-199713562D01*
X237032634Y-199776447D01*
X236883254Y-199851330D01*
X236737030Y-199928371D01*
X236613202Y-199997733D01*
X236531004Y-200049579D01*
X236508149Y-200071829D01*
X234883388Y-200071829D01*
X234762978Y-200065711D01*
X234392684Y-200065711D01*
X234402740Y-199972058D01*
X234775592Y-199972058D01*
X235038479Y-199997006D01*
X235230114Y-200013512D01*
X235432212Y-200028397D01*
X235534200Y-200034696D01*
X235678809Y-200043275D01*
X235796658Y-200051429D01*
X235841117Y-200055269D01*
X235903792Y-200050717D01*
X235915200Y-200039242D01*
X235889009Y-200000151D01*
X235817322Y-199910002D01*
X235710465Y-199781396D01*
X235578765Y-199626931D01*
X235549709Y-199593301D01*
X235401103Y-199422700D01*
X235296783Y-199308036D01*
X235225936Y-199240965D01*
X235177747Y-199213141D01*
X235141402Y-199216218D01*
X235106087Y-199241850D01*
X235100634Y-199246742D01*
X235015810Y-199351990D01*
X234926740Y-199506399D01*
X234850084Y-199677085D01*
X234802504Y-199831164D01*
X234801222Y-199837662D01*
X234775592Y-199972058D01*
X234402740Y-199972058D01*
X234431305Y-199706041D01*
X234548307Y-199364728D01*
X234717304Y-199091595D01*
X235280200Y-199091595D01*
X235306576Y-199140788D01*
X235378536Y-199239256D01*
X235485326Y-199373068D01*
X235616194Y-199528297D01*
X235626668Y-199540400D01*
X235782836Y-199718418D01*
X235894034Y-199830574D01*
X235970219Y-199873697D01*
X236021353Y-199844619D01*
X236057393Y-199740169D01*
X236087327Y-199562936D01*
X236740700Y-199562936D01*
X236939695Y-199466931D01*
X237047239Y-199407248D01*
X237109928Y-199356976D01*
X237117113Y-199336012D01*
X237055478Y-199302342D01*
X236961355Y-199344696D01*
X236865037Y-199432018D01*
X236740700Y-199562936D01*
X236087327Y-199562936D01*
X236088300Y-199557178D01*
X236094608Y-199510636D01*
X236177070Y-199510636D01*
X236182121Y-199554584D01*
X236183624Y-199555100D01*
X236212139Y-199521372D01*
X236227380Y-199498463D01*
X236626838Y-199498463D01*
X236661388Y-199494850D01*
X236746079Y-199423031D01*
X236797299Y-199371720D01*
X236890707Y-199252174D01*
X236908580Y-199165029D01*
X236906908Y-199160053D01*
X236876268Y-199104439D01*
X236839920Y-199104316D01*
X236787974Y-199166761D01*
X236710539Y-199298853D01*
X236708962Y-199301710D01*
X236642629Y-199434031D01*
X236626838Y-199498463D01*
X236227380Y-199498463D01*
X236271775Y-199431737D01*
X236351160Y-199303521D01*
X236376042Y-199261949D01*
X236457530Y-199119944D01*
X236518618Y-199004271D01*
X236548743Y-198935221D01*
X236550200Y-198927424D01*
X236515730Y-198887504D01*
X236436353Y-198847608D01*
X236348116Y-198821089D01*
X236287064Y-198821297D01*
X236280091Y-198827379D01*
X236264717Y-198883245D01*
X236245457Y-198993304D01*
X236234960Y-199068267D01*
X236214071Y-199225344D01*
X236193371Y-199372186D01*
X236186586Y-199417517D01*
X236177070Y-199510636D01*
X236094608Y-199510636D01*
X236111488Y-199386104D01*
X236143025Y-199149018D01*
X236161776Y-198983718D01*
X236164678Y-198877882D01*
X236148665Y-198819189D01*
X236110671Y-198795317D01*
X236047630Y-198793944D01*
X235966133Y-198801840D01*
X235830275Y-198827115D01*
X235674848Y-198874089D01*
X235521090Y-198933792D01*
X235390238Y-198997254D01*
X235303528Y-199055502D01*
X235280200Y-199091595D01*
X234717304Y-199091595D01*
X234738043Y-199058077D01*
X234995893Y-198792834D01*
X235317235Y-198575744D01*
X235470700Y-198500246D01*
X235613357Y-198460108D01*
X235811754Y-198433920D01*
X236037995Y-198422442D01*
X236264187Y-198426434D01*
X236462436Y-198446654D01*
X236568010Y-198470360D01*
X236692152Y-198503812D01*
X236781829Y-198518490D01*
X236807386Y-198515964D01*
X236846995Y-198467579D01*
X236909207Y-198368684D01*
X236941739Y-198311659D01*
X237872604Y-198311659D01*
X237875249Y-198397676D01*
X237930835Y-198502417D01*
X237997910Y-198592011D01*
X238053186Y-198663942D01*
X238094647Y-198709547D01*
X238132332Y-198721755D01*
X238176280Y-198693497D01*
X238236529Y-198617703D01*
X238323118Y-198487302D01*
X238446087Y-198295225D01*
X238468193Y-198260808D01*
X238554528Y-198128017D01*
X238678365Y-197939517D01*
X238830044Y-197709913D01*
X238999902Y-197453809D01*
X239178279Y-197185810D01*
X239291698Y-197015917D01*
X239454040Y-196771281D01*
X239598404Y-196550335D01*
X239718755Y-196362591D01*
X239809064Y-196217562D01*
X239863299Y-196124760D01*
X239876380Y-196093836D01*
X239838015Y-196111774D01*
X239741094Y-196172545D01*
X239595684Y-196269388D01*
X239411851Y-196395543D01*
X239199661Y-196544249D01*
X239094328Y-196619060D01*
X238843172Y-196799053D01*
X238652164Y-196938946D01*
X238511952Y-197046986D01*
X238413181Y-197131422D01*
X238346497Y-197200503D01*
X238302545Y-197262477D01*
X238271971Y-197325592D01*
X238261111Y-197353767D01*
X238209572Y-197493772D01*
X238143645Y-197672917D01*
X238081951Y-197840600D01*
X238020764Y-197998160D01*
X237962664Y-198133035D01*
X237919655Y-198217460D01*
X237917736Y-198220436D01*
X237872604Y-198311659D01*
X236941739Y-198311659D01*
X236979771Y-198244996D01*
X237044434Y-198122228D01*
X237088947Y-198026095D01*
X237100533Y-197987022D01*
X237076014Y-197938781D01*
X237008627Y-197837051D01*
X236907626Y-197695065D01*
X236782268Y-197526054D01*
X236730117Y-197457427D01*
X236577961Y-197260604D01*
X236464139Y-197123516D01*
X236376244Y-197038123D01*
X236301867Y-196996383D01*
X236228600Y-196990257D01*
X236144036Y-197011702D01*
X236079408Y-197035737D01*
X236002151Y-197027889D01*
X235921015Y-196974385D01*
X235874593Y-196902808D01*
X235873928Y-196897139D01*
X236718856Y-196897139D01*
X236835611Y-197052355D01*
X236926515Y-197172915D01*
X237039667Y-197322596D01*
X237121414Y-197430525D01*
X237290461Y-197653478D01*
X237366930Y-197473426D01*
X237415661Y-197345379D01*
X237447159Y-197237800D01*
X237451882Y-197210614D01*
X237443430Y-197166759D01*
X237398769Y-197127123D01*
X237303862Y-197084030D01*
X237144673Y-197029805D01*
X237089611Y-197012496D01*
X236718856Y-196897139D01*
X235873928Y-196897139D01*
X235872867Y-196888100D01*
X235899756Y-196832066D01*
X235939084Y-196785597D01*
X235975973Y-196736159D01*
X235961966Y-196689366D01*
X235888786Y-196618770D01*
X235886167Y-196616506D01*
X235767033Y-196513632D01*
X235779349Y-195018500D01*
X235780338Y-194929801D01*
X236515400Y-194929801D01*
X236517193Y-195179368D01*
X236517536Y-195204635D01*
X236529033Y-196018837D01*
X237375700Y-196285321D01*
X237660477Y-196377713D01*
X237906812Y-196463080D01*
X238103868Y-196537345D01*
X238240810Y-196596431D01*
X238305857Y-196635286D01*
X238372302Y-196696156D01*
X238406888Y-196718767D01*
X238445471Y-196695482D01*
X238541183Y-196631018D01*
X238682296Y-196533465D01*
X238857083Y-196410909D01*
X239000731Y-196309218D01*
X239200368Y-196167052D01*
X239381838Y-196037278D01*
X239531229Y-195929889D01*
X239634626Y-195854874D01*
X239670894Y-195827967D01*
X239764755Y-195756267D01*
X239533311Y-195446910D01*
X239430366Y-195301199D01*
X239350962Y-195173370D01*
X239306959Y-195083232D01*
X239301867Y-195060327D01*
X239342564Y-194953664D01*
X239463086Y-194829427D01*
X239554439Y-194760265D01*
X239653703Y-194690737D01*
X239474408Y-194453263D01*
X239378900Y-194330275D01*
X239316072Y-194265056D01*
X239269184Y-194246625D01*
X239221497Y-194264002D01*
X239203240Y-194275394D01*
X239081996Y-194350462D01*
X238917161Y-194447581D01*
X238723698Y-194558476D01*
X238516571Y-194674873D01*
X238310744Y-194788495D01*
X238121179Y-194891070D01*
X237962840Y-194974321D01*
X237850692Y-195029973D01*
X237804122Y-195049106D01*
X237755653Y-195058339D01*
X237706123Y-195056240D01*
X237643729Y-195037172D01*
X237556668Y-194995498D01*
X237433137Y-194925580D01*
X237261332Y-194821781D01*
X237033959Y-194681260D01*
X236856799Y-194572677D01*
X236705604Y-194482520D01*
X236594774Y-194419193D01*
X236538711Y-194391101D01*
X236535628Y-194390434D01*
X236527035Y-194430603D01*
X236520608Y-194542500D01*
X236516634Y-194713206D01*
X236515400Y-194929801D01*
X235780338Y-194929801D01*
X235783630Y-194634813D01*
X235789670Y-194293334D01*
X235797206Y-194001695D01*
X235805977Y-193767528D01*
X235815717Y-193598465D01*
X235826166Y-193502135D01*
X235832266Y-193482768D01*
X235871989Y-193409896D01*
X235829366Y-193354173D01*
X235705142Y-193316501D01*
X235692950Y-193314490D01*
X235451339Y-193238809D01*
X235256139Y-193104296D01*
X235110056Y-192924634D01*
X235015796Y-192713505D01*
X234976064Y-192484592D01*
X234993568Y-192251576D01*
X235071013Y-192028142D01*
X235211106Y-191827972D01*
X235372141Y-191692428D01*
X235594822Y-191592360D01*
X235845624Y-191556655D01*
X236095968Y-191586797D01*
D12*
X217589100Y-129705100D02*
X220129100Y-129705100D01*
X217589100Y-127165100D02*
X217589100Y-129705100D01*
D10*
G36*
X205194465Y-133454130D02*
G01*
X205194465Y-133554130D01*
X205094465Y-133554130D01*
X205094465Y-133454130D01*
X205194465Y-133454130D01*
G37*
X205194465Y-133454130D02*
X205194465Y-133554130D01*
X205094465Y-133554130D01*
X205094465Y-133454130D01*
X205194465Y-133454130D01*
G36*
X204994465Y-133054130D02*
G01*
X204994465Y-133854130D01*
X204894465Y-133854130D01*
X204894465Y-133054130D01*
X204994465Y-133054130D01*
G37*
X204994465Y-133054130D02*
X204994465Y-133854130D01*
X204894465Y-133854130D01*
X204894465Y-133054130D01*
X204994465Y-133054130D01*
G36*
X205394465Y-133654130D02*
G01*
X205394465Y-133854130D01*
X205294465Y-133854130D01*
X205294465Y-133654130D01*
X205394465Y-133654130D01*
G37*
X205394465Y-133654130D02*
X205394465Y-133854130D01*
X205294465Y-133854130D01*
X205294465Y-133654130D01*
X205394465Y-133654130D01*
G36*
X205394465Y-133054130D02*
G01*
X205394465Y-133354130D01*
X205294465Y-133354130D01*
X205294465Y-133054130D01*
X205394465Y-133054130D01*
G37*
X205394465Y-133054130D02*
X205394465Y-133354130D01*
X205294465Y-133354130D01*
X205294465Y-133054130D01*
X205394465Y-133054130D01*
G36*
X205394465Y-133054130D02*
G01*
X205394465Y-133154130D01*
X204894465Y-133154130D01*
X204894465Y-133054130D01*
X205394465Y-133054130D01*
G37*
X205394465Y-133054130D02*
X205394465Y-133154130D01*
X204894465Y-133154130D01*
X204894465Y-133054130D01*
X205394465Y-133054130D01*
D12*
X202349100Y-157645100D02*
X202349100Y-124625100D01*
X220129100Y-157645100D02*
X202349100Y-157645100D01*
X220129100Y-124625100D02*
X220129100Y-157645100D01*
X202349100Y-124625100D02*
X220129100Y-124625100D01*
X217589100Y-127165100D02*
X220129100Y-127165100D01*
D10*
X206159100Y-162344100D02*
X206159100Y-159804100D01*
X216319100Y-159804100D02*
X216319100Y-162344100D01*
X206159100Y-159804100D02*
X216319100Y-159804100D01*
X206159100Y-162344100D02*
X216319100Y-162344100D01*
X258356100Y-168694100D02*
X258356100Y-173774100D01*
X258356100Y-173774100D02*
X259880100Y-173774100D01*
X259880100Y-173774100D02*
X259880100Y-168694100D01*
X259880100Y-168694100D02*
X258356100Y-168694100D01*
X258356100Y-168694100D02*
X258356100Y-169202100D01*
X258356100Y-173393100D02*
X259880100Y-173393100D01*
X259880100Y-173520100D02*
X258356100Y-173520100D01*
X258356100Y-173647100D02*
X259880100Y-173647100D01*
X259880100Y-173266100D02*
X258356100Y-173266100D01*
X258356100Y-173139100D02*
X259880100Y-173139100D01*
X258356100Y-173012100D02*
X259880100Y-173012100D01*
X253784100Y-168694100D02*
X253784100Y-173774100D01*
X253784100Y-173774100D02*
X255308100Y-173774100D01*
X255308100Y-173774100D02*
X255308100Y-168694100D01*
X255308100Y-168694100D02*
X253784100Y-168694100D01*
X253784100Y-168694100D02*
X253784100Y-169202100D01*
X253784100Y-173393100D02*
X255308100Y-173393100D01*
X255308100Y-173520100D02*
X253784100Y-173520100D01*
X253784100Y-173647100D02*
X255308100Y-173647100D01*
X255308100Y-173266100D02*
X253784100Y-173266100D01*
X253784100Y-173139100D02*
X255308100Y-173139100D01*
X253784100Y-173012100D02*
X255308100Y-173012100D01*
X249212100Y-168694100D02*
X249212100Y-173774100D01*
X249212100Y-173774100D02*
X250736100Y-173774100D01*
X250736100Y-173774100D02*
X250736100Y-168694100D01*
X250736100Y-168694100D02*
X249212100Y-168694100D01*
X249212100Y-168694100D02*
X249212100Y-169202100D01*
X249212100Y-173393100D02*
X250736100Y-173393100D01*
X250736100Y-173520100D02*
X249212100Y-173520100D01*
X249212100Y-173647100D02*
X250736100Y-173647100D01*
X250736100Y-173266100D02*
X249212100Y-173266100D01*
X249212100Y-173139100D02*
X250736100Y-173139100D01*
X249212100Y-173012100D02*
X250736100Y-173012100D01*
X244640100Y-168694100D02*
X244640100Y-173774100D01*
X244640100Y-173774100D02*
X246164100Y-173774100D01*
X246164100Y-173774100D02*
X246164100Y-168694100D01*
X246164100Y-168694100D02*
X244640100Y-168694100D01*
X244640100Y-168694100D02*
X244640100Y-169202100D01*
X244640100Y-173393100D02*
X246164100Y-173393100D01*
X246164100Y-173520100D02*
X244640100Y-173520100D01*
X244640100Y-173647100D02*
X246164100Y-173647100D01*
X246164100Y-173266100D02*
X244640100Y-173266100D01*
X244640100Y-173139100D02*
X246164100Y-173139100D01*
X244640100Y-173012100D02*
X246164100Y-173012100D01*
X258356100Y-155994100D02*
X258356100Y-161074100D01*
X258356100Y-161074100D02*
X259880100Y-161074100D01*
X259880100Y-161074100D02*
X259880100Y-155994100D01*
X259880100Y-155994100D02*
X258356100Y-155994100D01*
X258356100Y-155994100D02*
X258356100Y-156502100D01*
X258356100Y-160693100D02*
X259880100Y-160693100D01*
X259880100Y-160820100D02*
X258356100Y-160820100D01*
X258356100Y-160947100D02*
X259880100Y-160947100D01*
X259880100Y-160566100D02*
X258356100Y-160566100D01*
X258356100Y-160439100D02*
X259880100Y-160439100D01*
X258356100Y-160312100D02*
X259880100Y-160312100D01*
X253784100Y-155994100D02*
X253784100Y-161074100D01*
X253784100Y-161074100D02*
X255308100Y-161074100D01*
X255308100Y-161074100D02*
X255308100Y-155994100D01*
X255308100Y-155994100D02*
X253784100Y-155994100D01*
X253784100Y-155994100D02*
X253784100Y-156502100D01*
X253784100Y-160693100D02*
X255308100Y-160693100D01*
X255308100Y-160820100D02*
X253784100Y-160820100D01*
X253784100Y-160947100D02*
X255308100Y-160947100D01*
X255308100Y-160566100D02*
X253784100Y-160566100D01*
X253784100Y-160439100D02*
X255308100Y-160439100D01*
X253784100Y-160312100D02*
X255308100Y-160312100D01*
X162344100Y-130594100D02*
X162344100Y-135674100D01*
X162344100Y-135674100D02*
X163868100Y-135674100D01*
X163868100Y-135674100D02*
X163868100Y-130594100D01*
X163868100Y-130594100D02*
X162344100Y-130594100D01*
X162344100Y-130594100D02*
X162344100Y-131102100D01*
X162344100Y-135293100D02*
X163868100Y-135293100D01*
X163868100Y-135420100D02*
X162344100Y-135420100D01*
X162344100Y-135547100D02*
X163868100Y-135547100D01*
X163868100Y-135166100D02*
X162344100Y-135166100D01*
X162344100Y-135039100D02*
X163868100Y-135039100D01*
X162344100Y-134912100D02*
X163868100Y-134912100D01*
X166916100Y-130594100D02*
X166916100Y-135674100D01*
X166916100Y-135674100D02*
X168440100Y-135674100D01*
X168440100Y-135674100D02*
X168440100Y-130594100D01*
X168440100Y-130594100D02*
X166916100Y-130594100D01*
X166916100Y-130594100D02*
X166916100Y-131102100D01*
X166916100Y-135293100D02*
X168440100Y-135293100D01*
X168440100Y-135420100D02*
X166916100Y-135420100D01*
X166916100Y-135547100D02*
X168440100Y-135547100D01*
X168440100Y-135166100D02*
X166916100Y-135166100D01*
X166916100Y-135039100D02*
X168440100Y-135039100D01*
X166916100Y-134912100D02*
X168440100Y-134912100D01*
X171488100Y-130594100D02*
X171488100Y-135674100D01*
X171488100Y-135674100D02*
X173012100Y-135674100D01*
X173012100Y-135674100D02*
X173012100Y-130594100D01*
X173012100Y-130594100D02*
X171488100Y-130594100D01*
X171488100Y-130594100D02*
X171488100Y-131102100D01*
X171488100Y-135293100D02*
X173012100Y-135293100D01*
X173012100Y-135420100D02*
X171488100Y-135420100D01*
X171488100Y-135547100D02*
X173012100Y-135547100D01*
X173012100Y-135166100D02*
X171488100Y-135166100D01*
X171488100Y-135039100D02*
X173012100Y-135039100D01*
X171488100Y-134912100D02*
X173012100Y-134912100D01*
X176060100Y-130594100D02*
X176060100Y-135674100D01*
X176060100Y-135674100D02*
X177584100Y-135674100D01*
X177584100Y-135674100D02*
X177584100Y-130594100D01*
X177584100Y-130594100D02*
X176060100Y-130594100D01*
X176060100Y-130594100D02*
X176060100Y-131102100D01*
X176060100Y-135293100D02*
X177584100Y-135293100D01*
X177584100Y-135420100D02*
X176060100Y-135420100D01*
X176060100Y-135547100D02*
X177584100Y-135547100D01*
X177584100Y-135166100D02*
X176060100Y-135166100D01*
X176060100Y-135039100D02*
X177584100Y-135039100D01*
X176060100Y-134912100D02*
X177584100Y-134912100D01*
X180632100Y-134912100D02*
X182156100Y-134912100D01*
X180632100Y-135039100D02*
X182156100Y-135039100D01*
X182156100Y-135166100D02*
X180632100Y-135166100D01*
X180632100Y-135547100D02*
X182156100Y-135547100D01*
X182156100Y-135420100D02*
X180632100Y-135420100D01*
X180632100Y-135293100D02*
X182156100Y-135293100D01*
X180632100Y-130594100D02*
X180632100Y-131102100D01*
X182156100Y-130594100D02*
X180632100Y-130594100D01*
X182156100Y-135674100D02*
X182156100Y-130594100D01*
X180632100Y-135674100D02*
X182156100Y-135674100D01*
X180632100Y-130594100D02*
X180632100Y-135674100D01*
X185204100Y-134912100D02*
X186728100Y-134912100D01*
X185204100Y-135039100D02*
X186728100Y-135039100D01*
X186728100Y-135166100D02*
X185204100Y-135166100D01*
X185204100Y-135547100D02*
X186728100Y-135547100D01*
X186728100Y-135420100D02*
X185204100Y-135420100D01*
X185204100Y-135293100D02*
X186728100Y-135293100D01*
X185204100Y-130594100D02*
X185204100Y-131102100D01*
X186728100Y-130594100D02*
X185204100Y-130594100D01*
X186728100Y-135674100D02*
X186728100Y-130594100D01*
X185204100Y-135674100D02*
X186728100Y-135674100D01*
X185204100Y-130594100D02*
X185204100Y-135674100D01*
X162344100Y-147612100D02*
X163868100Y-147612100D01*
X162344100Y-147739100D02*
X163868100Y-147739100D01*
X163868100Y-147866100D02*
X162344100Y-147866100D01*
X162344100Y-148247100D02*
X163868100Y-148247100D01*
X163868100Y-148120100D02*
X162344100Y-148120100D01*
X162344100Y-147993100D02*
X163868100Y-147993100D01*
X162344100Y-143294100D02*
X162344100Y-143802100D01*
X163868100Y-143294100D02*
X162344100Y-143294100D01*
X163868100Y-148374100D02*
X163868100Y-143294100D01*
X162344100Y-148374100D02*
X163868100Y-148374100D01*
X162344100Y-143294100D02*
X162344100Y-148374100D01*
X166916100Y-147612100D02*
X168440100Y-147612100D01*
X166916100Y-147739100D02*
X168440100Y-147739100D01*
X168440100Y-147866100D02*
X166916100Y-147866100D01*
X166916100Y-148247100D02*
X168440100Y-148247100D01*
X168440100Y-148120100D02*
X166916100Y-148120100D01*
X166916100Y-147993100D02*
X168440100Y-147993100D01*
X166916100Y-143294100D02*
X166916100Y-143802100D01*
X168440100Y-143294100D02*
X166916100Y-143294100D01*
X168440100Y-148374100D02*
X168440100Y-143294100D01*
X166916100Y-148374100D02*
X168440100Y-148374100D01*
X166916100Y-143294100D02*
X166916100Y-148374100D01*
X171488100Y-147615100D02*
X173012100Y-147615100D01*
X171488100Y-147742100D02*
X173012100Y-147742100D01*
X173012100Y-147869100D02*
X171488100Y-147869100D01*
X171488100Y-148250100D02*
X173012100Y-148250100D01*
X173012100Y-148123100D02*
X171488100Y-148123100D01*
X171488100Y-147996100D02*
X173012100Y-147996100D01*
X171488100Y-143297100D02*
X171488100Y-143805100D01*
X173012100Y-143297100D02*
X171488100Y-143297100D01*
X173012100Y-148377100D02*
X173012100Y-143297100D01*
X171488100Y-148377100D02*
X173012100Y-148377100D01*
X171488100Y-143297100D02*
X171488100Y-148377100D01*
X176060100Y-147612100D02*
X177584100Y-147612100D01*
X176060100Y-147739100D02*
X177584100Y-147739100D01*
X177584100Y-147866100D02*
X176060100Y-147866100D01*
X176060100Y-148247100D02*
X177584100Y-148247100D01*
X177584100Y-148120100D02*
X176060100Y-148120100D01*
X176060100Y-147993100D02*
X177584100Y-147993100D01*
X176060100Y-143294100D02*
X176060100Y-143802100D01*
X177584100Y-143294100D02*
X176060100Y-143294100D01*
X177584100Y-148374100D02*
X177584100Y-143294100D01*
X176060100Y-148374100D02*
X177584100Y-148374100D01*
X176060100Y-143294100D02*
X176060100Y-148374100D01*
X180632100Y-147612100D02*
X182156100Y-147612100D01*
X180632100Y-147739100D02*
X182156100Y-147739100D01*
X182156100Y-147866100D02*
X180632100Y-147866100D01*
X180632100Y-148247100D02*
X182156100Y-148247100D01*
X182156100Y-148120100D02*
X180632100Y-148120100D01*
X180632100Y-147993100D02*
X182156100Y-147993100D01*
X180632100Y-143294100D02*
X180632100Y-143802100D01*
X182156100Y-143294100D02*
X180632100Y-143294100D01*
X182156100Y-148374100D02*
X182156100Y-143294100D01*
X180632100Y-148374100D02*
X182156100Y-148374100D01*
X180632100Y-143294100D02*
X180632100Y-148374100D01*
X185204100Y-143294100D02*
X185204100Y-148374100D01*
X185204100Y-148374100D02*
X186728100Y-148374100D01*
X186728100Y-148374100D02*
X186728100Y-143294100D01*
X186728100Y-143294100D02*
X185204100Y-143294100D01*
X185204100Y-143294100D02*
X185204100Y-143802100D01*
X185204100Y-147993100D02*
X186728100Y-147993100D01*
X186728100Y-148120100D02*
X185204100Y-148120100D01*
X185204100Y-148247100D02*
X186728100Y-148247100D01*
X186728100Y-147866100D02*
X185204100Y-147866100D01*
X185204100Y-147739100D02*
X186728100Y-147739100D01*
X185204100Y-147612100D02*
X186728100Y-147612100D01*
X162344100Y-160312100D02*
X163868100Y-160312100D01*
X162344100Y-160439100D02*
X163868100Y-160439100D01*
X163868100Y-160566100D02*
X162344100Y-160566100D01*
X162344100Y-160947100D02*
X163868100Y-160947100D01*
X163868100Y-160820100D02*
X162344100Y-160820100D01*
X162344100Y-160693100D02*
X163868100Y-160693100D01*
X162344100Y-155994100D02*
X162344100Y-156502100D01*
X163868100Y-155994100D02*
X162344100Y-155994100D01*
X163868100Y-161074100D02*
X163868100Y-155994100D01*
X162344100Y-161074100D02*
X163868100Y-161074100D01*
X162344100Y-155994100D02*
X162344100Y-161074100D01*
X166916100Y-160312100D02*
X168440100Y-160312100D01*
X166916100Y-160439100D02*
X168440100Y-160439100D01*
X168440100Y-160566100D02*
X166916100Y-160566100D01*
X166916100Y-160947100D02*
X168440100Y-160947100D01*
X168440100Y-160820100D02*
X166916100Y-160820100D01*
X166916100Y-160693100D02*
X168440100Y-160693100D01*
X166916100Y-155994100D02*
X166916100Y-156502100D01*
X168440100Y-155994100D02*
X166916100Y-155994100D01*
X168440100Y-161074100D02*
X168440100Y-155994100D01*
X166916100Y-161074100D02*
X168440100Y-161074100D01*
X166916100Y-155994100D02*
X166916100Y-161074100D01*
X171488100Y-155994100D02*
X171488100Y-161074100D01*
X171488100Y-161074100D02*
X173012100Y-161074100D01*
X173012100Y-161074100D02*
X173012100Y-155994100D01*
X173012100Y-155994100D02*
X171488100Y-155994100D01*
X171488100Y-155994100D02*
X171488100Y-156502100D01*
X171488100Y-160693100D02*
X173012100Y-160693100D01*
X173012100Y-160820100D02*
X171488100Y-160820100D01*
X171488100Y-160947100D02*
X173012100Y-160947100D01*
X173012100Y-160566100D02*
X171488100Y-160566100D01*
X171488100Y-160439100D02*
X173012100Y-160439100D01*
X171488100Y-160312100D02*
X173012100Y-160312100D01*
X176060100Y-155994100D02*
X176060100Y-161074100D01*
X176060100Y-161074100D02*
X177584100Y-161074100D01*
X177584100Y-161074100D02*
X177584100Y-155994100D01*
X177584100Y-155994100D02*
X176060100Y-155994100D01*
X176060100Y-155994100D02*
X176060100Y-156502100D01*
X176060100Y-160693100D02*
X177584100Y-160693100D01*
X177584100Y-160820100D02*
X176060100Y-160820100D01*
X176060100Y-160947100D02*
X177584100Y-160947100D01*
X177584100Y-160566100D02*
X176060100Y-160566100D01*
X176060100Y-160439100D02*
X177584100Y-160439100D01*
X176060100Y-160312100D02*
X177584100Y-160312100D01*
X180632100Y-160312100D02*
X182156100Y-160312100D01*
X180632100Y-160439100D02*
X182156100Y-160439100D01*
X182156100Y-160566100D02*
X180632100Y-160566100D01*
X180632100Y-160947100D02*
X182156100Y-160947100D01*
X182156100Y-160820100D02*
X180632100Y-160820100D01*
X180632100Y-160693100D02*
X182156100Y-160693100D01*
X180632100Y-155994100D02*
X180632100Y-156502100D01*
X182156100Y-155994100D02*
X180632100Y-155994100D01*
X182156100Y-161074100D02*
X182156100Y-155994100D01*
X180632100Y-161074100D02*
X182156100Y-161074100D01*
X180632100Y-155994100D02*
X180632100Y-161074100D01*
X185204100Y-160312100D02*
X186728100Y-160312100D01*
X185204100Y-160439100D02*
X186728100Y-160439100D01*
X186728100Y-160566100D02*
X185204100Y-160566100D01*
X185204100Y-160947100D02*
X186728100Y-160947100D01*
X186728100Y-160820100D02*
X185204100Y-160820100D01*
X185204100Y-160693100D02*
X186728100Y-160693100D01*
X185204100Y-155994100D02*
X185204100Y-156502100D01*
X186728100Y-155994100D02*
X185204100Y-155994100D01*
X186728100Y-161074100D02*
X186728100Y-155994100D01*
X185204100Y-161074100D02*
X186728100Y-161074100D01*
X185204100Y-155994100D02*
X185204100Y-161074100D01*
X162344100Y-173012100D02*
X163868100Y-173012100D01*
X162344100Y-173139100D02*
X163868100Y-173139100D01*
X163868100Y-173266100D02*
X162344100Y-173266100D01*
X162344100Y-173647100D02*
X163868100Y-173647100D01*
X163868100Y-173520100D02*
X162344100Y-173520100D01*
X162344100Y-173393100D02*
X163868100Y-173393100D01*
X162344100Y-168694100D02*
X162344100Y-169202100D01*
X163868100Y-168694100D02*
X162344100Y-168694100D01*
X163868100Y-173774100D02*
X163868100Y-168694100D01*
X162344100Y-173774100D02*
X163868100Y-173774100D01*
X162344100Y-168694100D02*
X162344100Y-173774100D01*
X166916100Y-173012100D02*
X168440100Y-173012100D01*
X166916100Y-173139100D02*
X168440100Y-173139100D01*
X168440100Y-173266100D02*
X166916100Y-173266100D01*
X166916100Y-173647100D02*
X168440100Y-173647100D01*
X168440100Y-173520100D02*
X166916100Y-173520100D01*
X166916100Y-173393100D02*
X168440100Y-173393100D01*
X166916100Y-168694100D02*
X166916100Y-169202100D01*
X168440100Y-168694100D02*
X166916100Y-168694100D01*
X168440100Y-173774100D02*
X168440100Y-168694100D01*
X166916100Y-173774100D02*
X168440100Y-173774100D01*
X166916100Y-168694100D02*
X166916100Y-173774100D01*
X171488100Y-168694100D02*
X171488100Y-173774100D01*
X171488100Y-173774100D02*
X173012100Y-173774100D01*
X173012100Y-173774100D02*
X173012100Y-168694100D01*
X173012100Y-168694100D02*
X171488100Y-168694100D01*
X171488100Y-168694100D02*
X171488100Y-169202100D01*
X171488100Y-173393100D02*
X173012100Y-173393100D01*
X173012100Y-173520100D02*
X171488100Y-173520100D01*
X171488100Y-173647100D02*
X173012100Y-173647100D01*
X173012100Y-173266100D02*
X171488100Y-173266100D01*
X171488100Y-173139100D02*
X173012100Y-173139100D01*
X171488100Y-173012100D02*
X173012100Y-173012100D01*
X176060100Y-168694100D02*
X176060100Y-173774100D01*
X176060100Y-173774100D02*
X177584100Y-173774100D01*
X177584100Y-173774100D02*
X177584100Y-168694100D01*
X177584100Y-168694100D02*
X176060100Y-168694100D01*
X176060100Y-168694100D02*
X176060100Y-169202100D01*
X176060100Y-173393100D02*
X177584100Y-173393100D01*
X177584100Y-173520100D02*
X176060100Y-173520100D01*
X176060100Y-173647100D02*
X177584100Y-173647100D01*
X177584100Y-173266100D02*
X176060100Y-173266100D01*
X176060100Y-173139100D02*
X177584100Y-173139100D01*
X176060100Y-173012100D02*
X177584100Y-173012100D01*
X235496100Y-130594100D02*
X235496100Y-135674100D01*
X235496100Y-135674100D02*
X237020100Y-135674100D01*
X237020100Y-135674100D02*
X237020100Y-130594100D01*
X237020100Y-130594100D02*
X235496100Y-130594100D01*
X235496100Y-130594100D02*
X235496100Y-131102100D01*
X235496100Y-135293100D02*
X237020100Y-135293100D01*
X237020100Y-135420100D02*
X235496100Y-135420100D01*
X235496100Y-135547100D02*
X237020100Y-135547100D01*
X237020100Y-135166100D02*
X235496100Y-135166100D01*
X235496100Y-135039100D02*
X237020100Y-135039100D01*
X235496100Y-134912100D02*
X237020100Y-134912100D01*
X240068100Y-134912100D02*
X241592100Y-134912100D01*
X240068100Y-135039100D02*
X241592100Y-135039100D01*
X241592100Y-135166100D02*
X240068100Y-135166100D01*
X240068100Y-135547100D02*
X241592100Y-135547100D01*
X241592100Y-135420100D02*
X240068100Y-135420100D01*
X240068100Y-135293100D02*
X241592100Y-135293100D01*
X240068100Y-130594100D02*
X240068100Y-131102100D01*
X241592100Y-130594100D02*
X240068100Y-130594100D01*
X241592100Y-135674100D02*
X241592100Y-130594100D01*
X240068100Y-135674100D02*
X241592100Y-135674100D01*
X240068100Y-130594100D02*
X240068100Y-135674100D01*
X244640100Y-134912100D02*
X246164100Y-134912100D01*
X244640100Y-135039100D02*
X246164100Y-135039100D01*
X246164100Y-135166100D02*
X244640100Y-135166100D01*
X244640100Y-135547100D02*
X246164100Y-135547100D01*
X246164100Y-135420100D02*
X244640100Y-135420100D01*
X244640100Y-135293100D02*
X246164100Y-135293100D01*
X244640100Y-130594100D02*
X244640100Y-131102100D01*
X246164100Y-130594100D02*
X244640100Y-130594100D01*
X246164100Y-135674100D02*
X246164100Y-130594100D01*
X244640100Y-135674100D02*
X246164100Y-135674100D01*
X244640100Y-130594100D02*
X244640100Y-135674100D01*
X249212100Y-130594100D02*
X249212100Y-135674100D01*
X249212100Y-135674100D02*
X250736100Y-135674100D01*
X250736100Y-135674100D02*
X250736100Y-130594100D01*
X250736100Y-130594100D02*
X249212100Y-130594100D01*
X249212100Y-130594100D02*
X249212100Y-131102100D01*
X249212100Y-135293100D02*
X250736100Y-135293100D01*
X250736100Y-135420100D02*
X249212100Y-135420100D01*
X249212100Y-135547100D02*
X250736100Y-135547100D01*
X250736100Y-135166100D02*
X249212100Y-135166100D01*
X249212100Y-135039100D02*
X250736100Y-135039100D01*
X249212100Y-134912100D02*
X250736100Y-134912100D01*
X253784100Y-134912100D02*
X255308100Y-134912100D01*
X253784100Y-135039100D02*
X255308100Y-135039100D01*
X255308100Y-135166100D02*
X253784100Y-135166100D01*
X253784100Y-135547100D02*
X255308100Y-135547100D01*
X255308100Y-135420100D02*
X253784100Y-135420100D01*
X253784100Y-135293100D02*
X255308100Y-135293100D01*
X253784100Y-130594100D02*
X253784100Y-131102100D01*
X255308100Y-130594100D02*
X253784100Y-130594100D01*
X255308100Y-135674100D02*
X255308100Y-130594100D01*
X253784100Y-135674100D02*
X255308100Y-135674100D01*
X253784100Y-130594100D02*
X253784100Y-135674100D01*
X258356100Y-134912100D02*
X259880100Y-134912100D01*
X258356100Y-135039100D02*
X259880100Y-135039100D01*
X259880100Y-135166100D02*
X258356100Y-135166100D01*
X258356100Y-135547100D02*
X259880100Y-135547100D01*
X259880100Y-135420100D02*
X258356100Y-135420100D01*
X258356100Y-135293100D02*
X259880100Y-135293100D01*
X258356100Y-130594100D02*
X258356100Y-131102100D01*
X259880100Y-130594100D02*
X258356100Y-130594100D01*
X259880100Y-135674100D02*
X259880100Y-130594100D01*
X258356100Y-135674100D02*
X259880100Y-135674100D01*
X258356100Y-130594100D02*
X258356100Y-135674100D01*
X235496100Y-143294100D02*
X235496100Y-148374100D01*
X235496100Y-148374100D02*
X237020100Y-148374100D01*
X237020100Y-148374100D02*
X237020100Y-143294100D01*
X237020100Y-143294100D02*
X235496100Y-143294100D01*
X235496100Y-143294100D02*
X235496100Y-143802100D01*
X235496100Y-147993100D02*
X237020100Y-147993100D01*
X237020100Y-148120100D02*
X235496100Y-148120100D01*
X235496100Y-148247100D02*
X237020100Y-148247100D01*
X237020100Y-147866100D02*
X235496100Y-147866100D01*
X235496100Y-147739100D02*
X237020100Y-147739100D01*
X235496100Y-147612100D02*
X237020100Y-147612100D01*
X240068100Y-143291100D02*
X240068100Y-148371100D01*
X240068100Y-148371100D02*
X241592100Y-148371100D01*
X241592100Y-148371100D02*
X241592100Y-143291100D01*
X241592100Y-143291100D02*
X240068100Y-143291100D01*
X240068100Y-143291100D02*
X240068100Y-143799100D01*
X240068100Y-147990100D02*
X241592100Y-147990100D01*
X241592100Y-148117100D02*
X240068100Y-148117100D01*
X240068100Y-148244100D02*
X241592100Y-148244100D01*
X241592100Y-147863100D02*
X240068100Y-147863100D01*
X240068100Y-147736100D02*
X241592100Y-147736100D01*
X240068100Y-147609100D02*
X241592100Y-147609100D01*
X244640100Y-143294100D02*
X244640100Y-148374100D01*
X244640100Y-148374100D02*
X246164100Y-148374100D01*
X246164100Y-148374100D02*
X246164100Y-143294100D01*
X246164100Y-143294100D02*
X244640100Y-143294100D01*
X244640100Y-143294100D02*
X244640100Y-143802100D01*
X244640100Y-147993100D02*
X246164100Y-147993100D01*
X246164100Y-148120100D02*
X244640100Y-148120100D01*
X244640100Y-148247100D02*
X246164100Y-148247100D01*
X246164100Y-147866100D02*
X244640100Y-147866100D01*
X244640100Y-147739100D02*
X246164100Y-147739100D01*
X244640100Y-147612100D02*
X246164100Y-147612100D01*
X249212100Y-143294100D02*
X249212100Y-148374100D01*
X249212100Y-148374100D02*
X250736100Y-148374100D01*
X250736100Y-148374100D02*
X250736100Y-143294100D01*
X250736100Y-143294100D02*
X249212100Y-143294100D01*
X249212100Y-143294100D02*
X249212100Y-143802100D01*
X249212100Y-147993100D02*
X250736100Y-147993100D01*
X250736100Y-148120100D02*
X249212100Y-148120100D01*
X249212100Y-148247100D02*
X250736100Y-148247100D01*
X250736100Y-147866100D02*
X249212100Y-147866100D01*
X249212100Y-147739100D02*
X250736100Y-147739100D01*
X249212100Y-147612100D02*
X250736100Y-147612100D01*
X253784100Y-147612100D02*
X255308100Y-147612100D01*
X253784100Y-147739100D02*
X255308100Y-147739100D01*
X255308100Y-147866100D02*
X253784100Y-147866100D01*
X253784100Y-148247100D02*
X255308100Y-148247100D01*
X255308100Y-148120100D02*
X253784100Y-148120100D01*
X253784100Y-147993100D02*
X255308100Y-147993100D01*
X253784100Y-143294100D02*
X253784100Y-143802100D01*
X255308100Y-143294100D02*
X253784100Y-143294100D01*
X255308100Y-148374100D02*
X255308100Y-143294100D01*
X253784100Y-148374100D02*
X255308100Y-148374100D01*
X253784100Y-143294100D02*
X253784100Y-148374100D01*
X258356100Y-147612100D02*
X259880100Y-147612100D01*
X258356100Y-147739100D02*
X259880100Y-147739100D01*
X259880100Y-147866100D02*
X258356100Y-147866100D01*
X258356100Y-148247100D02*
X259880100Y-148247100D01*
X259880100Y-148120100D02*
X258356100Y-148120100D01*
X258356100Y-147993100D02*
X259880100Y-147993100D01*
X258356100Y-143294100D02*
X258356100Y-143802100D01*
X259880100Y-143294100D02*
X258356100Y-143294100D01*
X259880100Y-148374100D02*
X259880100Y-143294100D01*
X258356100Y-148374100D02*
X259880100Y-148374100D01*
X258356100Y-143294100D02*
X258356100Y-148374100D01*
X235496100Y-155994100D02*
X235496100Y-161074100D01*
X235496100Y-161074100D02*
X237020100Y-161074100D01*
X237020100Y-161074100D02*
X237020100Y-155994100D01*
X237020100Y-155994100D02*
X235496100Y-155994100D01*
X235496100Y-155994100D02*
X235496100Y-156502100D01*
X235496100Y-160693100D02*
X237020100Y-160693100D01*
X237020100Y-160820100D02*
X235496100Y-160820100D01*
X235496100Y-160947100D02*
X237020100Y-160947100D01*
X237020100Y-160566100D02*
X235496100Y-160566100D01*
X235496100Y-160439100D02*
X237020100Y-160439100D01*
X235496100Y-160312100D02*
X237020100Y-160312100D01*
X240068100Y-155991100D02*
X240068100Y-161071100D01*
X240068100Y-161071100D02*
X241592100Y-161071100D01*
X241592100Y-161071100D02*
X241592100Y-155991100D01*
X241592100Y-155991100D02*
X240068100Y-155991100D01*
X240068100Y-155991100D02*
X240068100Y-156499100D01*
X240068100Y-160690100D02*
X241592100Y-160690100D01*
X241592100Y-160817100D02*
X240068100Y-160817100D01*
X240068100Y-160944100D02*
X241592100Y-160944100D01*
X241592100Y-160563100D02*
X240068100Y-160563100D01*
X240068100Y-160436100D02*
X241592100Y-160436100D01*
X240068100Y-160309100D02*
X241592100Y-160309100D01*
X244640100Y-155991100D02*
X244640100Y-161071100D01*
X244640100Y-161071100D02*
X246164100Y-161071100D01*
X246164100Y-161071100D02*
X246164100Y-155991100D01*
X246164100Y-155991100D02*
X244640100Y-155991100D01*
X244640100Y-155991100D02*
X244640100Y-156499100D01*
X244640100Y-160690100D02*
X246164100Y-160690100D01*
X246164100Y-160817100D02*
X244640100Y-160817100D01*
X244640100Y-160944100D02*
X246164100Y-160944100D01*
X246164100Y-160563100D02*
X244640100Y-160563100D01*
X244640100Y-160436100D02*
X246164100Y-160436100D01*
X244640100Y-160309100D02*
X246164100Y-160309100D01*
X249212100Y-155994100D02*
X249212100Y-161074100D01*
X249212100Y-161074100D02*
X250736100Y-161074100D01*
X250736100Y-161074100D02*
X250736100Y-155994100D01*
X250736100Y-155994100D02*
X249212100Y-155994100D01*
X249212100Y-155994100D02*
X249212100Y-156502100D01*
X249212100Y-160693100D02*
X250736100Y-160693100D01*
X250736100Y-160820100D02*
X249212100Y-160820100D01*
X249212100Y-160947100D02*
X250736100Y-160947100D01*
X250736100Y-160566100D02*
X249212100Y-160566100D01*
X249212100Y-160439100D02*
X250736100Y-160439100D01*
X249212100Y-160312100D02*
X250736100Y-160312100D01*
X118475100Y-137031100D02*
X120775100Y-134781100D01*
D13*
X120475100Y-137031100D02*
X115775100Y-137031100D01*
X120775100Y-136781100D02*
X120775100Y-132031100D01*
X120475100Y-137031100D02*
X120775100Y-136781100D01*
X115775100Y-132031100D02*
X120775100Y-132031100D01*
X115775740Y-137030460D02*
X115775740Y-132031740D01*
X78437740Y-129410460D02*
X78437740Y-124411740D01*
X78437100Y-124411100D02*
X83437100Y-124411100D01*
X83137100Y-129411100D02*
X83437100Y-129161100D01*
X83437100Y-129161100D02*
X83437100Y-124411100D01*
X83137100Y-129411100D02*
X78437100Y-129411100D01*
D10*
X81137100Y-129411100D02*
X83437100Y-127161100D01*
X59801100Y-137031100D02*
X62101100Y-134781100D01*
D13*
X61801100Y-137031100D02*
X57101100Y-137031100D01*
X62101100Y-136781100D02*
X62101100Y-132031100D01*
X61801100Y-137031100D02*
X62101100Y-136781100D01*
X57101100Y-132031100D02*
X62101100Y-132031100D01*
X57101740Y-137030460D02*
X57101740Y-132031740D01*
X71706740Y-159128460D02*
X71706740Y-154129740D01*
X71706100Y-154129100D02*
X76706100Y-154129100D01*
X76406100Y-159129100D02*
X76706100Y-158879100D01*
X76706100Y-158879100D02*
X76706100Y-154129100D01*
X76406100Y-159129100D02*
X71706100Y-159129100D01*
D10*
X74406100Y-159129100D02*
X76706100Y-156879100D01*
X118017900Y-181608100D02*
X120317900Y-179358100D01*
D13*
X120017900Y-181608100D02*
X115317900Y-181608100D01*
X120317900Y-181358100D02*
X120317900Y-176608100D01*
X120017900Y-181608100D02*
X120317900Y-181358100D01*
X115317900Y-176608100D02*
X120317900Y-176608100D01*
X115318540Y-181607460D02*
X115318540Y-176608740D01*
X301957740Y-181607460D02*
X301957740Y-176608740D01*
X301957100Y-176608100D02*
X306957100Y-176608100D01*
X306657100Y-181608100D02*
X306957100Y-181358100D01*
X306957100Y-181358100D02*
X306957100Y-176608100D01*
X306657100Y-181608100D02*
X301957100Y-181608100D01*
D10*
X304657100Y-181608100D02*
X306957100Y-179358100D01*
X348345100Y-159129100D02*
X350645100Y-156879100D01*
D13*
X350345100Y-159129100D02*
X345645100Y-159129100D01*
X350645100Y-158879100D02*
X350645100Y-154129100D01*
X350345100Y-159129100D02*
X350645100Y-158879100D01*
X345645100Y-154129100D02*
X350645100Y-154129100D01*
X345645740Y-159128460D02*
X345645740Y-154129740D01*
X360199940Y-137030460D02*
X360199940Y-132031740D01*
X360199300Y-132031100D02*
X365199300Y-132031100D01*
X364899300Y-137031100D02*
X365199300Y-136781100D01*
X365199300Y-136781100D02*
X365199300Y-132031100D01*
X364899300Y-137031100D02*
X360199300Y-137031100D01*
D10*
X362899300Y-137031100D02*
X365199300Y-134781100D01*
X341487100Y-129411100D02*
X343787100Y-127161100D01*
D13*
X343487100Y-129411100D02*
X338787100Y-129411100D01*
X343787100Y-129161100D02*
X343787100Y-124411100D01*
X343487100Y-129411100D02*
X343787100Y-129161100D01*
X338787100Y-124411100D02*
X343787100Y-124411100D01*
X338787740Y-129410460D02*
X338787740Y-124411740D01*
X301449740Y-137030460D02*
X301449740Y-132031740D01*
X301449100Y-132031100D02*
X306449100Y-132031100D01*
X306149100Y-137031100D02*
X306449100Y-136781100D01*
X306449100Y-136781100D02*
X306449100Y-132031100D01*
X306149100Y-137031100D02*
X301449100Y-137031100D01*
D10*
X304149100Y-137031100D02*
X306449100Y-134781100D01*
X197856100Y-126254100D02*
X191856100Y-126254100D01*
X191856100Y-129754100D02*
X197856100Y-129754100D01*
X197856100Y-126254100D02*
X197856100Y-126954100D01*
X197856100Y-129754100D02*
X197856100Y-129154100D01*
X191856100Y-129754100D02*
X191856100Y-129154100D01*
X191856100Y-126254100D02*
X191856100Y-126954100D01*
X297804781Y-190208746D02*
X298489576Y-189874749D01*
X295521845Y-191322209D02*
X296206640Y-190988212D01*
X296031241Y-191497608D02*
X295697244Y-190812812D01*
X372936141Y-145997328D02*
X373684047Y-145851950D01*
X373382783Y-146298592D02*
X373237405Y-145550686D01*
X375429474Y-145512673D02*
X376177380Y-145367295D01*
X350584141Y-130960528D02*
X351332047Y-130815150D01*
X351030783Y-131261792D02*
X350885405Y-130513886D01*
X353077474Y-130475873D02*
X353825380Y-130330495D01*
X371771874Y-126818273D02*
X372519780Y-126672895D01*
X369278541Y-127302928D02*
X370026447Y-127157550D01*
X369725183Y-127604192D02*
X369579805Y-126856286D01*
X106807752Y-184307550D02*
X107555658Y-184452928D01*
X104314419Y-183822895D02*
X105062325Y-183968273D01*
X104615683Y-184269537D02*
X104761061Y-183521631D01*
X277686141Y-155344528D02*
X278434047Y-155199150D01*
X278132783Y-155645792D02*
X277987405Y-154897886D01*
X280179474Y-154859873D02*
X280927380Y-154714495D01*
X274079341Y-136650128D02*
X274827247Y-136504750D01*
X274525983Y-136951392D02*
X274380605Y-136203486D01*
X276572674Y-136165473D02*
X277320580Y-136020095D01*
X126119159Y-190988212D02*
X126803954Y-191322209D01*
X123836223Y-189874749D02*
X124521018Y-190208746D01*
X124011622Y-190384145D02*
X124345619Y-189699349D01*
X295923341Y-149248528D02*
X296671247Y-149103150D01*
X296369983Y-149549792D02*
X296224605Y-148801886D01*
X298416674Y-148763873D02*
X299164580Y-148618495D01*
X315891874Y-138756273D02*
X316639780Y-138610895D01*
X313398541Y-139240928D02*
X314146447Y-139095550D01*
X313845183Y-139542192D02*
X313699805Y-138794286D01*
X333210541Y-141476128D02*
X333958447Y-141330750D01*
X333657183Y-141777392D02*
X333511805Y-141029486D01*
X335703874Y-140991473D02*
X336451780Y-140846095D01*
X354241741Y-149654928D02*
X354989647Y-149509550D01*
X354688383Y-149956192D02*
X354543005Y-149208286D01*
X356735074Y-149170273D02*
X357482980Y-149024895D01*
X281343741Y-174038928D02*
X282091647Y-173893550D01*
X281790383Y-174340192D02*
X281645005Y-173592286D01*
X283837074Y-173554273D02*
X284584980Y-173408895D01*
X299530141Y-167942928D02*
X300278047Y-167797550D01*
X299976783Y-168244192D02*
X299831405Y-167496286D01*
X302023474Y-167458273D02*
X302771380Y-167312895D01*
X319498674Y-157450673D02*
X320246580Y-157305295D01*
X317005341Y-157935328D02*
X317753247Y-157789950D01*
X317451983Y-158236592D02*
X317306605Y-157488686D01*
X339361474Y-159685873D02*
X340109380Y-159540495D01*
X336868141Y-160170528D02*
X337616047Y-160025150D01*
X337314783Y-160471792D02*
X337169405Y-159723886D01*
X137690019Y-173408895D02*
X138437925Y-173554273D01*
X137991283Y-173855537D02*
X138136661Y-173107631D01*
X140183352Y-173893550D02*
X140931258Y-174038928D01*
X292316541Y-130554128D02*
X293064447Y-130408750D01*
X292763183Y-130855392D02*
X292617805Y-130107486D01*
X294809874Y-130069473D02*
X295557780Y-129924095D01*
X312234274Y-120061873D02*
X312982180Y-119916495D01*
X309740941Y-120546528D02*
X310488847Y-120401150D01*
X310187583Y-120847792D02*
X310042205Y-120099886D01*
X332097074Y-122297073D02*
X332844980Y-122151695D01*
X329603741Y-122781728D02*
X330351647Y-122636350D01*
X330050383Y-123082992D02*
X329905005Y-122335086D01*
X141347619Y-154714495D02*
X142095525Y-154859873D01*
X141648883Y-155161137D02*
X141794261Y-154413231D01*
X143840952Y-155199150D02*
X144588858Y-155344528D01*
X109292819Y-119916495D02*
X110040725Y-120061873D01*
X109594083Y-120363137D02*
X109739461Y-119615231D01*
X111786152Y-120401150D02*
X112534058Y-120546528D01*
X129261352Y-130408750D02*
X130009258Y-130554128D01*
X126768019Y-129924095D02*
X127515925Y-130069473D01*
X127069283Y-130370737D02*
X127214661Y-129622831D01*
X144958564Y-135989210D02*
X145706470Y-136134588D01*
X145259828Y-136435852D02*
X145405206Y-135687946D01*
X147451897Y-136473865D02*
X148199803Y-136619243D01*
X104521752Y-157789950D02*
X105269658Y-157935328D01*
X102028419Y-157305295D02*
X102776325Y-157450673D01*
X102329683Y-157751937D02*
X102475061Y-157004031D01*
X119503619Y-167312895D02*
X120251525Y-167458273D01*
X119804883Y-167759537D02*
X119950261Y-167011631D01*
X121996952Y-167797550D02*
X122744858Y-167942928D01*
X63678552Y-168203950D02*
X64426458Y-168349328D01*
X61185219Y-167719295D02*
X61933125Y-167864673D01*
X61486483Y-168165937D02*
X61631861Y-167418031D01*
X48595097Y-145871865D02*
X49343003Y-146017243D01*
X46101764Y-145387210D02*
X46849670Y-145532588D01*
X46403028Y-145833852D02*
X46548406Y-145085946D01*
X67336152Y-149509550D02*
X68084058Y-149654928D01*
X64842819Y-149024895D02*
X65590725Y-149170273D01*
X65144083Y-149471537D02*
X65289461Y-148723631D01*
X88316552Y-141330750D02*
X89064458Y-141476128D01*
X85823219Y-140846095D02*
X86571125Y-140991473D01*
X86124483Y-141292737D02*
X86269861Y-140544831D01*
X108128552Y-139095550D02*
X108876458Y-139240928D01*
X105635219Y-138610895D02*
X106383125Y-138756273D01*
X105936483Y-139057537D02*
X106081861Y-138309631D01*
X44984152Y-164546350D02*
X45732058Y-164691728D01*
X42490819Y-164061695D02*
X43238725Y-164207073D01*
X42792083Y-164508337D02*
X42937461Y-163760431D01*
X123110419Y-148618495D02*
X123858325Y-148763873D01*
X123411683Y-149065137D02*
X123557061Y-148317231D01*
X125603752Y-149103150D02*
X126351658Y-149248528D01*
X84658952Y-160025150D02*
X85406858Y-160170528D01*
X82165619Y-159540495D02*
X82913525Y-159685873D01*
X82466883Y-159987137D02*
X82612261Y-159239231D01*
X52248552Y-127157550D02*
X52996458Y-127302928D01*
X49755219Y-126672895D02*
X50503125Y-126818273D01*
X50056483Y-127119537D02*
X50201861Y-126371631D01*
X68449619Y-130279695D02*
X69197525Y-130425073D01*
X68750883Y-130726337D02*
X68896261Y-129978431D01*
X70942952Y-130764350D02*
X71690858Y-130909728D01*
X89430019Y-122151695D02*
X90177925Y-122297073D01*
X89731283Y-122598337D02*
X89876661Y-121850431D01*
X91923352Y-122636350D02*
X92671258Y-122781728D01*
X88113352Y-180649950D02*
X88861258Y-180795328D01*
X85620019Y-180165295D02*
X86367925Y-180310673D01*
X85921283Y-180611937D02*
X86066661Y-179864031D01*
X379036274Y-164207073D02*
X379784180Y-164061695D01*
X376542941Y-164691728D02*
X377290847Y-164546350D01*
X376989583Y-164992992D02*
X376844205Y-164245086D01*
X360341874Y-167864673D02*
X361089780Y-167719295D01*
X357848541Y-168349328D02*
X358596447Y-168203950D01*
X358295183Y-168650592D02*
X358149805Y-167902686D01*
X276305340Y-198035024D02*
X276880357Y-197535169D01*
X274388377Y-199701413D02*
X274963394Y-199201558D01*
X274925813Y-199738994D02*
X274425959Y-199163977D01*
X317212674Y-183917473D02*
X317960580Y-183772095D01*
X314719341Y-184402128D02*
X315467247Y-184256750D01*
X315165983Y-184703392D02*
X315020605Y-183955486D01*
X216109623Y-131337004D02*
X216109623Y-130537004D01*
X216300100Y-130537004D01*
X216414385Y-130575100D01*
X216490576Y-130651290D01*
X216528671Y-130727480D01*
X216566766Y-130879861D01*
X216566766Y-130994147D01*
X216528671Y-131146528D01*
X216490576Y-131222719D01*
X216414385Y-131298909D01*
X216300100Y-131337004D01*
X216109623Y-131337004D01*
X216871528Y-130613195D02*
X216909623Y-130575100D01*
X216985814Y-130537004D01*
X217176290Y-130537004D01*
X217252480Y-130575100D01*
X217290576Y-130613195D01*
X217328671Y-130689385D01*
X217328671Y-130765576D01*
X217290576Y-130879861D01*
X216833433Y-131337004D01*
X217328671Y-131337004D01*
X216109623Y-141497004D02*
X216109623Y-140697004D01*
X216300100Y-140697004D01*
X216414385Y-140735100D01*
X216490576Y-140811290D01*
X216528671Y-140887480D01*
X216566766Y-141039861D01*
X216566766Y-141154147D01*
X216528671Y-141306528D01*
X216490576Y-141382719D01*
X216414385Y-141458909D01*
X216300100Y-141497004D01*
X216109623Y-141497004D01*
X217062004Y-140697004D02*
X217138195Y-140697004D01*
X217214385Y-140735100D01*
X217252480Y-140773195D01*
X217290576Y-140849385D01*
X217328671Y-141001766D01*
X217328671Y-141192242D01*
X217290576Y-141344623D01*
X217252480Y-141420814D01*
X217214385Y-141458909D01*
X217138195Y-141497004D01*
X217062004Y-141497004D01*
X216985814Y-141458909D01*
X216947719Y-141420814D01*
X216909623Y-141344623D01*
X216871528Y-141192242D01*
X216871528Y-141001766D01*
X216909623Y-140849385D01*
X216947719Y-140773195D01*
X216985814Y-140735100D01*
X217062004Y-140697004D01*
X216109623Y-138957004D02*
X216109623Y-138157004D01*
X216300100Y-138157004D01*
X216414385Y-138195100D01*
X216490576Y-138271290D01*
X216528671Y-138347480D01*
X216566766Y-138499861D01*
X216566766Y-138614147D01*
X216528671Y-138766528D01*
X216490576Y-138842719D01*
X216414385Y-138918909D01*
X216300100Y-138957004D01*
X216109623Y-138957004D01*
X217328671Y-138957004D02*
X216871528Y-138957004D01*
X217100100Y-138957004D02*
X217100100Y-138157004D01*
X217023909Y-138271290D01*
X216947719Y-138347480D01*
X216871528Y-138385576D01*
X216090576Y-135655100D02*
X216014385Y-135617004D01*
X215900100Y-135617004D01*
X215785814Y-135655100D01*
X215709623Y-135731290D01*
X215671528Y-135807480D01*
X215633433Y-135959861D01*
X215633433Y-136074147D01*
X215671528Y-136226528D01*
X215709623Y-136302719D01*
X215785814Y-136378909D01*
X215900100Y-136417004D01*
X215976290Y-136417004D01*
X216090576Y-136378909D01*
X216128671Y-136340814D01*
X216128671Y-136074147D01*
X215976290Y-136074147D01*
X216471528Y-136417004D02*
X216471528Y-135617004D01*
X216928671Y-136417004D01*
X216928671Y-135617004D01*
X217309623Y-136417004D02*
X217309623Y-135617004D01*
X217500100Y-135617004D01*
X217614385Y-135655100D01*
X217690576Y-135731290D01*
X217728671Y-135807480D01*
X217766766Y-135959861D01*
X217766766Y-136074147D01*
X217728671Y-136226528D01*
X217690576Y-136302719D01*
X217614385Y-136378909D01*
X217500100Y-136417004D01*
X217309623Y-136417004D01*
X216090576Y-133115100D02*
X216014385Y-133077004D01*
X215900100Y-133077004D01*
X215785814Y-133115100D01*
X215709623Y-133191290D01*
X215671528Y-133267480D01*
X215633433Y-133419861D01*
X215633433Y-133534147D01*
X215671528Y-133686528D01*
X215709623Y-133762719D01*
X215785814Y-133838909D01*
X215900100Y-133877004D01*
X215976290Y-133877004D01*
X216090576Y-133838909D01*
X216128671Y-133800814D01*
X216128671Y-133534147D01*
X215976290Y-133534147D01*
X216471528Y-133877004D02*
X216471528Y-133077004D01*
X216928671Y-133877004D01*
X216928671Y-133077004D01*
X217309623Y-133877004D02*
X217309623Y-133077004D01*
X217500100Y-133077004D01*
X217614385Y-133115100D01*
X217690576Y-133191290D01*
X217728671Y-133267480D01*
X217766766Y-133419861D01*
X217766766Y-133534147D01*
X217728671Y-133686528D01*
X217690576Y-133762719D01*
X217614385Y-133838909D01*
X217500100Y-133877004D01*
X217309623Y-133877004D01*
X216109623Y-144037004D02*
X216109623Y-143237004D01*
X216300100Y-143237004D01*
X216414385Y-143275100D01*
X216490576Y-143351290D01*
X216528671Y-143427480D01*
X216566766Y-143579861D01*
X216566766Y-143694147D01*
X216528671Y-143846528D01*
X216490576Y-143922719D01*
X216414385Y-143998909D01*
X216300100Y-144037004D01*
X216109623Y-144037004D01*
X217252480Y-143503671D02*
X217252480Y-144037004D01*
X217062004Y-143198909D02*
X216871528Y-143770338D01*
X217366766Y-143770338D01*
X216566766Y-146500814D02*
X216528671Y-146538909D01*
X216414385Y-146577004D01*
X216338195Y-146577004D01*
X216223909Y-146538909D01*
X216147719Y-146462719D01*
X216109623Y-146386528D01*
X216071528Y-146234147D01*
X216071528Y-146119861D01*
X216109623Y-145967480D01*
X216147719Y-145891290D01*
X216223909Y-145815100D01*
X216338195Y-145777004D01*
X216414385Y-145777004D01*
X216528671Y-145815100D01*
X216566766Y-145853195D01*
X217252480Y-145777004D02*
X217100100Y-145777004D01*
X217023909Y-145815100D01*
X216985814Y-145853195D01*
X216909623Y-145967480D01*
X216871528Y-146119861D01*
X216871528Y-146424623D01*
X216909623Y-146500814D01*
X216947719Y-146538909D01*
X217023909Y-146577004D01*
X217176290Y-146577004D01*
X217252480Y-146538909D01*
X217290576Y-146500814D01*
X217328671Y-146424623D01*
X217328671Y-146234147D01*
X217290576Y-146157957D01*
X217252480Y-146119861D01*
X217176290Y-146081766D01*
X217023909Y-146081766D01*
X216947719Y-146119861D01*
X216909623Y-146157957D01*
X216871528Y-146234147D01*
X216109623Y-149117004D02*
X216109623Y-148317004D01*
X216300100Y-148317004D01*
X216414385Y-148355100D01*
X216490576Y-148431290D01*
X216528671Y-148507480D01*
X216566766Y-148659861D01*
X216566766Y-148774147D01*
X216528671Y-148926528D01*
X216490576Y-149002719D01*
X216414385Y-149078909D01*
X216300100Y-149117004D01*
X216109623Y-149117004D01*
X216833433Y-148317004D02*
X217366766Y-148317004D01*
X217023909Y-149117004D01*
X216147719Y-151237957D02*
X216414385Y-151237957D01*
X216528671Y-151657004D02*
X216147719Y-151657004D01*
X216147719Y-150857004D01*
X216528671Y-150857004D01*
X217214385Y-150857004D02*
X217062004Y-150857004D01*
X216985814Y-150895100D01*
X216947719Y-150933195D01*
X216871528Y-151047480D01*
X216833433Y-151199861D01*
X216833433Y-151504623D01*
X216871528Y-151580814D01*
X216909623Y-151618909D01*
X216985814Y-151657004D01*
X217138195Y-151657004D01*
X217214385Y-151618909D01*
X217252480Y-151580814D01*
X217290576Y-151504623D01*
X217290576Y-151314147D01*
X217252480Y-151237957D01*
X217214385Y-151199861D01*
X217138195Y-151161766D01*
X216985814Y-151161766D01*
X216909623Y-151199861D01*
X216871528Y-151237957D01*
X216833433Y-151314147D01*
X216376290Y-153777957D02*
X216490576Y-153816052D01*
X216528671Y-153854147D01*
X216566766Y-153930338D01*
X216566766Y-154044623D01*
X216528671Y-154120814D01*
X216490576Y-154158909D01*
X216414385Y-154197004D01*
X216109623Y-154197004D01*
X216109623Y-153397004D01*
X216376290Y-153397004D01*
X216452480Y-153435100D01*
X216490576Y-153473195D01*
X216528671Y-153549385D01*
X216528671Y-153625576D01*
X216490576Y-153701766D01*
X216452480Y-153739861D01*
X216376290Y-153777957D01*
X216109623Y-153777957D01*
X217252480Y-153663671D02*
X217252480Y-154197004D01*
X217062004Y-153358909D02*
X216871528Y-153930338D01*
X217366766Y-153930338D01*
X216376290Y-156317957D02*
X216490576Y-156356052D01*
X216528671Y-156394147D01*
X216566766Y-156470338D01*
X216566766Y-156584623D01*
X216528671Y-156660814D01*
X216490576Y-156698909D01*
X216414385Y-156737004D01*
X216109623Y-156737004D01*
X216109623Y-155937004D01*
X216376290Y-155937004D01*
X216452480Y-155975100D01*
X216490576Y-156013195D01*
X216528671Y-156089385D01*
X216528671Y-156165576D01*
X216490576Y-156241766D01*
X216452480Y-156279861D01*
X216376290Y-156317957D01*
X216109623Y-156317957D01*
X217290576Y-155937004D02*
X216909623Y-155937004D01*
X216871528Y-156317957D01*
X216909623Y-156279861D01*
X216985814Y-156241766D01*
X217176290Y-156241766D01*
X217252480Y-156279861D01*
X217290576Y-156317957D01*
X217328671Y-156394147D01*
X217328671Y-156584623D01*
X217290576Y-156660814D01*
X217252480Y-156698909D01*
X217176290Y-156737004D01*
X216985814Y-156737004D01*
X216909623Y-156698909D01*
X216871528Y-156660814D01*
X205454290Y-156317957D02*
X205568576Y-156356052D01*
X205606671Y-156394147D01*
X205644766Y-156470338D01*
X205644766Y-156584623D01*
X205606671Y-156660814D01*
X205568576Y-156698909D01*
X205492385Y-156737004D01*
X205187623Y-156737004D01*
X205187623Y-155937004D01*
X205454290Y-155937004D01*
X205530480Y-155975100D01*
X205568576Y-156013195D01*
X205606671Y-156089385D01*
X205606671Y-156165576D01*
X205568576Y-156241766D01*
X205530480Y-156279861D01*
X205454290Y-156317957D01*
X205187623Y-156317957D01*
X206330480Y-155937004D02*
X206178100Y-155937004D01*
X206101909Y-155975100D01*
X206063814Y-156013195D01*
X205987623Y-156127480D01*
X205949528Y-156279861D01*
X205949528Y-156584623D01*
X205987623Y-156660814D01*
X206025719Y-156698909D01*
X206101909Y-156737004D01*
X206254290Y-156737004D01*
X206330480Y-156698909D01*
X206368576Y-156660814D01*
X206406671Y-156584623D01*
X206406671Y-156394147D01*
X206368576Y-156317957D01*
X206330480Y-156279861D01*
X206254290Y-156241766D01*
X206101909Y-156241766D01*
X206025719Y-156279861D01*
X205987623Y-156317957D01*
X205949528Y-156394147D01*
X205454290Y-151237957D02*
X205568576Y-151276052D01*
X205606671Y-151314147D01*
X205644766Y-151390338D01*
X205644766Y-151504623D01*
X205606671Y-151580814D01*
X205568576Y-151618909D01*
X205492385Y-151657004D01*
X205187623Y-151657004D01*
X205187623Y-150857004D01*
X205454290Y-150857004D01*
X205530480Y-150895100D01*
X205568576Y-150933195D01*
X205606671Y-151009385D01*
X205606671Y-151085576D01*
X205568576Y-151161766D01*
X205530480Y-151199861D01*
X205454290Y-151237957D01*
X205187623Y-151237957D01*
X205911433Y-150857004D02*
X206406671Y-150857004D01*
X206140004Y-151161766D01*
X206254290Y-151161766D01*
X206330480Y-151199861D01*
X206368576Y-151237957D01*
X206406671Y-151314147D01*
X206406671Y-151504623D01*
X206368576Y-151580814D01*
X206330480Y-151618909D01*
X206254290Y-151657004D01*
X206025719Y-151657004D01*
X205949528Y-151618909D01*
X205911433Y-151580814D01*
X205454290Y-148697957D02*
X205568576Y-148736052D01*
X205606671Y-148774147D01*
X205644766Y-148850338D01*
X205644766Y-148964623D01*
X205606671Y-149040814D01*
X205568576Y-149078909D01*
X205492385Y-149117004D01*
X205187623Y-149117004D01*
X205187623Y-148317004D01*
X205454290Y-148317004D01*
X205530480Y-148355100D01*
X205568576Y-148393195D01*
X205606671Y-148469385D01*
X205606671Y-148545576D01*
X205568576Y-148621766D01*
X205530480Y-148659861D01*
X205454290Y-148697957D01*
X205187623Y-148697957D01*
X206406671Y-149117004D02*
X205949528Y-149117004D01*
X206178100Y-149117004D02*
X206178100Y-148317004D01*
X206101909Y-148431290D01*
X206025719Y-148507480D01*
X205949528Y-148545576D01*
X205511433Y-138537957D02*
X205244766Y-138537957D01*
X205244766Y-138957004D02*
X205244766Y-138157004D01*
X205625719Y-138157004D01*
X206273338Y-138423671D02*
X206273338Y-138957004D01*
X206082861Y-138118909D02*
X205892385Y-138690338D01*
X206387623Y-138690338D01*
X204711433Y-135617004D02*
X204978100Y-136417004D01*
X205244766Y-135617004D01*
X205968576Y-136340814D02*
X205930480Y-136378909D01*
X205816195Y-136417004D01*
X205740004Y-136417004D01*
X205625719Y-136378909D01*
X205549528Y-136302719D01*
X205511433Y-136226528D01*
X205473338Y-136074147D01*
X205473338Y-135959861D01*
X205511433Y-135807480D01*
X205549528Y-135731290D01*
X205625719Y-135655100D01*
X205740004Y-135617004D01*
X205816195Y-135617004D01*
X205930480Y-135655100D01*
X205968576Y-135693195D01*
X206768576Y-136340814D02*
X206730480Y-136378909D01*
X206616195Y-136417004D01*
X206540004Y-136417004D01*
X206425719Y-136378909D01*
X206349528Y-136302719D01*
X206311433Y-136226528D01*
X206273338Y-136074147D01*
X206273338Y-135959861D01*
X206311433Y-135807480D01*
X206349528Y-135731290D01*
X206425719Y-135655100D01*
X206540004Y-135617004D01*
X206616195Y-135617004D01*
X206730480Y-135655100D01*
X206768576Y-135693195D01*
X205168576Y-130575100D02*
X205092385Y-130537004D01*
X204978100Y-130537004D01*
X204863814Y-130575100D01*
X204787623Y-130651290D01*
X204749528Y-130727480D01*
X204711433Y-130879861D01*
X204711433Y-130994147D01*
X204749528Y-131146528D01*
X204787623Y-131222719D01*
X204863814Y-131298909D01*
X204978100Y-131337004D01*
X205054290Y-131337004D01*
X205168576Y-131298909D01*
X205206671Y-131260814D01*
X205206671Y-130994147D01*
X205054290Y-130994147D01*
X205549528Y-131337004D02*
X205549528Y-130537004D01*
X206006671Y-131337004D01*
X206006671Y-130537004D01*
X206387623Y-131337004D02*
X206387623Y-130537004D01*
X206578100Y-130537004D01*
X206692385Y-130575100D01*
X206768576Y-130651290D01*
X206806671Y-130727480D01*
X206844766Y-130879861D01*
X206844766Y-130994147D01*
X206806671Y-131146528D01*
X206768576Y-131222719D01*
X206692385Y-131298909D01*
X206578100Y-131337004D01*
X206387623Y-131337004D01*
X205225719Y-128797004D02*
X204959052Y-128416052D01*
X204768576Y-128797004D02*
X204768576Y-127997004D01*
X205073338Y-127997004D01*
X205149528Y-128035100D01*
X205187623Y-128073195D01*
X205225719Y-128149385D01*
X205225719Y-128263671D01*
X205187623Y-128339861D01*
X205149528Y-128377957D01*
X205073338Y-128416052D01*
X204768576Y-128416052D01*
X205530480Y-128568433D02*
X205911433Y-128568433D01*
X205454290Y-128797004D02*
X205720957Y-127997004D01*
X205987623Y-128797004D01*
X206178100Y-127997004D02*
X206368576Y-128797004D01*
X206520957Y-128225576D01*
X206673338Y-128797004D01*
X206863814Y-127997004D01*
X205511433Y-141077957D02*
X205244766Y-141077957D01*
X205244766Y-141497004D02*
X205244766Y-140697004D01*
X205625719Y-140697004D01*
X206311433Y-140697004D02*
X205930480Y-140697004D01*
X205892385Y-141077957D01*
X205930480Y-141039861D01*
X206006671Y-141001766D01*
X206197147Y-141001766D01*
X206273338Y-141039861D01*
X206311433Y-141077957D01*
X206349528Y-141154147D01*
X206349528Y-141344623D01*
X206311433Y-141420814D01*
X206273338Y-141458909D01*
X206197147Y-141497004D01*
X206006671Y-141497004D01*
X205930480Y-141458909D01*
X205892385Y-141420814D01*
X205511433Y-143617957D02*
X205244766Y-143617957D01*
X205244766Y-144037004D02*
X205244766Y-143237004D01*
X205625719Y-143237004D01*
X206273338Y-143237004D02*
X206120957Y-143237004D01*
X206044766Y-143275100D01*
X206006671Y-143313195D01*
X205930480Y-143427480D01*
X205892385Y-143579861D01*
X205892385Y-143884623D01*
X205930480Y-143960814D01*
X205968576Y-143998909D01*
X206044766Y-144037004D01*
X206197147Y-144037004D01*
X206273338Y-143998909D01*
X206311433Y-143960814D01*
X206349528Y-143884623D01*
X206349528Y-143694147D01*
X206311433Y-143617957D01*
X206273338Y-143579861D01*
X206197147Y-143541766D01*
X206044766Y-143541766D01*
X205968576Y-143579861D01*
X205930480Y-143617957D01*
X205892385Y-143694147D01*
X205511433Y-146157957D02*
X205244766Y-146157957D01*
X205244766Y-146577004D02*
X205244766Y-145777004D01*
X205625719Y-145777004D01*
X205854290Y-145777004D02*
X206387623Y-145777004D01*
X206044766Y-146577004D01*
X205454290Y-153777957D02*
X205568576Y-153816052D01*
X205606671Y-153854147D01*
X205644766Y-153930338D01*
X205644766Y-154044623D01*
X205606671Y-154120814D01*
X205568576Y-154158909D01*
X205492385Y-154197004D01*
X205187623Y-154197004D01*
X205187623Y-153397004D01*
X205454290Y-153397004D01*
X205530480Y-153435100D01*
X205568576Y-153473195D01*
X205606671Y-153549385D01*
X205606671Y-153625576D01*
X205568576Y-153701766D01*
X205530480Y-153739861D01*
X205454290Y-153777957D01*
X205187623Y-153777957D01*
X205949528Y-153473195D02*
X205987623Y-153435100D01*
X206063814Y-153397004D01*
X206254290Y-153397004D01*
X206330480Y-153435100D01*
X206368576Y-153473195D01*
X206406671Y-153549385D01*
X206406671Y-153625576D01*
X206368576Y-153739861D01*
X205911433Y-154197004D01*
X206406671Y-154197004D01*
X212620495Y-127997004D02*
X213077638Y-127997004D01*
X212849067Y-128797004D02*
X212849067Y-127997004D01*
X213268114Y-127997004D02*
X213801448Y-128797004D01*
X213801448Y-127997004D02*
X213268114Y-128797004D01*
X214258591Y-127997004D02*
X214334781Y-127997004D01*
X214410972Y-128035100D01*
X214449067Y-128073195D01*
X214487162Y-128149385D01*
X214525257Y-128301766D01*
X214525257Y-128492242D01*
X214487162Y-128644623D01*
X214449067Y-128720814D01*
X214410972Y-128758909D01*
X214334781Y-128797004D01*
X214258591Y-128797004D01*
X214182400Y-128758909D01*
X214144305Y-128720814D01*
X214106210Y-128644623D01*
X214068114Y-128492242D01*
X214068114Y-128301766D01*
X214106210Y-128149385D01*
X214144305Y-128073195D01*
X214182400Y-128035100D01*
X214258591Y-127997004D01*
X215439543Y-127958909D02*
X214753829Y-128987480D01*
X215706210Y-128797004D02*
X215706210Y-127997004D01*
X215896686Y-127997004D01*
X216010972Y-128035100D01*
X216087162Y-128111290D01*
X216125257Y-128187480D01*
X216163352Y-128339861D01*
X216163352Y-128454147D01*
X216125257Y-128606528D01*
X216087162Y-128682719D01*
X216010972Y-128758909D01*
X215896686Y-128797004D01*
X215706210Y-128797004D01*
X216430019Y-127997004D02*
X216925257Y-127997004D01*
X216658591Y-128301766D01*
X216772876Y-128301766D01*
X216849067Y-128339861D01*
X216887162Y-128377957D01*
X216925257Y-128454147D01*
X216925257Y-128644623D01*
X216887162Y-128720814D01*
X216849067Y-128758909D01*
X216772876Y-128797004D01*
X216544305Y-128797004D01*
X216468114Y-128758909D01*
X216430019Y-128720814D01*
X205665766Y-133818909D02*
X205780052Y-133857004D01*
X205970528Y-133857004D01*
X206046719Y-133818909D01*
X206084814Y-133780814D01*
X206122909Y-133704623D01*
X206122909Y-133628433D01*
X206084814Y-133552242D01*
X206046719Y-133514147D01*
X205970528Y-133476052D01*
X205818147Y-133437957D01*
X205741957Y-133399861D01*
X205703861Y-133361766D01*
X205665766Y-133285576D01*
X205665766Y-133209385D01*
X205703861Y-133133195D01*
X205741957Y-133095100D01*
X205818147Y-133057004D01*
X206008623Y-133057004D01*
X206122909Y-133095100D01*
X206351480Y-133057004D02*
X206808623Y-133057004D01*
X206580052Y-133857004D02*
X206580052Y-133057004D01*
X147260805Y-199252358D02*
X147835822Y-199752213D01*
X145343842Y-197585969D02*
X145918859Y-198085824D01*
X145381423Y-198123405D02*
X145881277Y-197548388D01*
X335957874Y-180310673D02*
X336705780Y-180165295D01*
X333464541Y-180795328D02*
X334212447Y-180649950D01*
X333911183Y-181096592D02*
X333765805Y-180348686D01*
X205881795Y-163604023D02*
X205068995Y-163604023D01*
X205068995Y-163294385D01*
X205107700Y-163216976D01*
X205146404Y-163178271D01*
X205223814Y-163139566D01*
X205339928Y-163139566D01*
X205417338Y-163178271D01*
X205456042Y-163216976D01*
X205494747Y-163294385D01*
X205494747Y-163604023D01*
X205881795Y-162365471D02*
X205881795Y-162829928D01*
X205881795Y-162597700D02*
X205068995Y-162597700D01*
X205185109Y-162675109D01*
X205262519Y-162752519D01*
X205301223Y-162829928D01*
X258080004Y-172180128D02*
X257280004Y-172180128D01*
X257280004Y-171989652D01*
X257318100Y-171875366D01*
X257394290Y-171799176D01*
X257470480Y-171761080D01*
X257622861Y-171722985D01*
X257737147Y-171722985D01*
X257889528Y-171761080D01*
X257965719Y-171799176D01*
X258041909Y-171875366D01*
X258080004Y-171989652D01*
X258080004Y-172180128D01*
X257546671Y-171037271D02*
X258080004Y-171037271D01*
X257241909Y-171227747D02*
X257813338Y-171418223D01*
X257813338Y-170922985D01*
X257280004Y-170275366D02*
X257280004Y-170427747D01*
X257318100Y-170503938D01*
X257356195Y-170542033D01*
X257470480Y-170618223D01*
X257622861Y-170656319D01*
X257927623Y-170656319D01*
X258003814Y-170618223D01*
X258041909Y-170580128D01*
X258080004Y-170503938D01*
X258080004Y-170351557D01*
X258041909Y-170275366D01*
X258003814Y-170237271D01*
X257927623Y-170199176D01*
X257737147Y-170199176D01*
X257660957Y-170237271D01*
X257622861Y-170275366D01*
X257584766Y-170351557D01*
X257584766Y-170503938D01*
X257622861Y-170580128D01*
X257660957Y-170618223D01*
X257737147Y-170656319D01*
X253508004Y-172180128D02*
X252708004Y-172180128D01*
X252708004Y-171989652D01*
X252746100Y-171875366D01*
X252822290Y-171799176D01*
X252898480Y-171761080D01*
X253050861Y-171722985D01*
X253165147Y-171722985D01*
X253317528Y-171761080D01*
X253393719Y-171799176D01*
X253469909Y-171875366D01*
X253508004Y-171989652D01*
X253508004Y-172180128D01*
X252974671Y-171037271D02*
X253508004Y-171037271D01*
X252669909Y-171227747D02*
X253241338Y-171418223D01*
X253241338Y-170922985D01*
X252708004Y-170237271D02*
X252708004Y-170618223D01*
X253088957Y-170656319D01*
X253050861Y-170618223D01*
X253012766Y-170542033D01*
X253012766Y-170351557D01*
X253050861Y-170275366D01*
X253088957Y-170237271D01*
X253165147Y-170199176D01*
X253355623Y-170199176D01*
X253431814Y-170237271D01*
X253469909Y-170275366D01*
X253508004Y-170351557D01*
X253508004Y-170542033D01*
X253469909Y-170618223D01*
X253431814Y-170656319D01*
X248936004Y-172180128D02*
X248136004Y-172180128D01*
X248136004Y-171989652D01*
X248174100Y-171875366D01*
X248250290Y-171799176D01*
X248326480Y-171761080D01*
X248478861Y-171722985D01*
X248593147Y-171722985D01*
X248745528Y-171761080D01*
X248821719Y-171799176D01*
X248897909Y-171875366D01*
X248936004Y-171989652D01*
X248936004Y-172180128D01*
X248402671Y-171037271D02*
X248936004Y-171037271D01*
X248097909Y-171227747D02*
X248669338Y-171418223D01*
X248669338Y-170922985D01*
X248402671Y-170275366D02*
X248936004Y-170275366D01*
X248097909Y-170465842D02*
X248669338Y-170656319D01*
X248669338Y-170161080D01*
X244364004Y-172180128D02*
X243564004Y-172180128D01*
X243564004Y-171989652D01*
X243602100Y-171875366D01*
X243678290Y-171799176D01*
X243754480Y-171761080D01*
X243906861Y-171722985D01*
X244021147Y-171722985D01*
X244173528Y-171761080D01*
X244249719Y-171799176D01*
X244325909Y-171875366D01*
X244364004Y-171989652D01*
X244364004Y-172180128D01*
X243830671Y-171037271D02*
X244364004Y-171037271D01*
X243525909Y-171227747D02*
X244097338Y-171418223D01*
X244097338Y-170922985D01*
X243564004Y-170694414D02*
X243564004Y-170199176D01*
X243868766Y-170465842D01*
X243868766Y-170351557D01*
X243906861Y-170275366D01*
X243944957Y-170237271D01*
X244021147Y-170199176D01*
X244211623Y-170199176D01*
X244287814Y-170237271D01*
X244325909Y-170275366D01*
X244364004Y-170351557D01*
X244364004Y-170580128D01*
X244325909Y-170656319D01*
X244287814Y-170694414D01*
X258080004Y-159480128D02*
X257280004Y-159480128D01*
X257280004Y-159289652D01*
X257318100Y-159175366D01*
X257394290Y-159099176D01*
X257470480Y-159061080D01*
X257622861Y-159022985D01*
X257737147Y-159022985D01*
X257889528Y-159061080D01*
X257965719Y-159099176D01*
X258041909Y-159175366D01*
X258080004Y-159289652D01*
X258080004Y-159480128D01*
X257546671Y-158337271D02*
X258080004Y-158337271D01*
X257241909Y-158527747D02*
X257813338Y-158718223D01*
X257813338Y-158222985D01*
X257356195Y-157956319D02*
X257318100Y-157918223D01*
X257280004Y-157842033D01*
X257280004Y-157651557D01*
X257318100Y-157575366D01*
X257356195Y-157537271D01*
X257432385Y-157499176D01*
X257508576Y-157499176D01*
X257622861Y-157537271D01*
X258080004Y-157994414D01*
X258080004Y-157499176D01*
X253508004Y-159480128D02*
X252708004Y-159480128D01*
X252708004Y-159289652D01*
X252746100Y-159175366D01*
X252822290Y-159099176D01*
X252898480Y-159061080D01*
X253050861Y-159022985D01*
X253165147Y-159022985D01*
X253317528Y-159061080D01*
X253393719Y-159099176D01*
X253469909Y-159175366D01*
X253508004Y-159289652D01*
X253508004Y-159480128D01*
X252974671Y-158337271D02*
X253508004Y-158337271D01*
X252669909Y-158527747D02*
X253241338Y-158718223D01*
X253241338Y-158222985D01*
X253508004Y-157499176D02*
X253508004Y-157956319D01*
X253508004Y-157727747D02*
X252708004Y-157727747D01*
X252822290Y-157803938D01*
X252898480Y-157880128D01*
X252936576Y-157956319D01*
X162068004Y-133699176D02*
X161268004Y-133699176D01*
X161268004Y-133508700D01*
X161306100Y-133394414D01*
X161382290Y-133318223D01*
X161458480Y-133280128D01*
X161610861Y-133242033D01*
X161725147Y-133242033D01*
X161877528Y-133280128D01*
X161953719Y-133318223D01*
X162029909Y-133394414D01*
X162068004Y-133508700D01*
X162068004Y-133699176D01*
X162068004Y-132480128D02*
X162068004Y-132937271D01*
X162068004Y-132708700D02*
X161268004Y-132708700D01*
X161382290Y-132784890D01*
X161458480Y-132861080D01*
X161496576Y-132937271D01*
X166640004Y-133699176D02*
X165840004Y-133699176D01*
X165840004Y-133508700D01*
X165878100Y-133394414D01*
X165954290Y-133318223D01*
X166030480Y-133280128D01*
X166182861Y-133242033D01*
X166297147Y-133242033D01*
X166449528Y-133280128D01*
X166525719Y-133318223D01*
X166601909Y-133394414D01*
X166640004Y-133508700D01*
X166640004Y-133699176D01*
X165916195Y-132937271D02*
X165878100Y-132899176D01*
X165840004Y-132822985D01*
X165840004Y-132632509D01*
X165878100Y-132556319D01*
X165916195Y-132518223D01*
X165992385Y-132480128D01*
X166068576Y-132480128D01*
X166182861Y-132518223D01*
X166640004Y-132975366D01*
X166640004Y-132480128D01*
X171212004Y-133699176D02*
X170412004Y-133699176D01*
X170412004Y-133508700D01*
X170450100Y-133394414D01*
X170526290Y-133318223D01*
X170602480Y-133280128D01*
X170754861Y-133242033D01*
X170869147Y-133242033D01*
X171021528Y-133280128D01*
X171097719Y-133318223D01*
X171173909Y-133394414D01*
X171212004Y-133508700D01*
X171212004Y-133699176D01*
X170412004Y-132975366D02*
X170412004Y-132480128D01*
X170716766Y-132746795D01*
X170716766Y-132632509D01*
X170754861Y-132556319D01*
X170792957Y-132518223D01*
X170869147Y-132480128D01*
X171059623Y-132480128D01*
X171135814Y-132518223D01*
X171173909Y-132556319D01*
X171212004Y-132632509D01*
X171212004Y-132861080D01*
X171173909Y-132937271D01*
X171135814Y-132975366D01*
X175784004Y-133699176D02*
X174984004Y-133699176D01*
X174984004Y-133508700D01*
X175022100Y-133394414D01*
X175098290Y-133318223D01*
X175174480Y-133280128D01*
X175326861Y-133242033D01*
X175441147Y-133242033D01*
X175593528Y-133280128D01*
X175669719Y-133318223D01*
X175745909Y-133394414D01*
X175784004Y-133508700D01*
X175784004Y-133699176D01*
X175250671Y-132556319D02*
X175784004Y-132556319D01*
X174945909Y-132746795D02*
X175517338Y-132937271D01*
X175517338Y-132442033D01*
X180356004Y-133699176D02*
X179556004Y-133699176D01*
X179556004Y-133508700D01*
X179594100Y-133394414D01*
X179670290Y-133318223D01*
X179746480Y-133280128D01*
X179898861Y-133242033D01*
X180013147Y-133242033D01*
X180165528Y-133280128D01*
X180241719Y-133318223D01*
X180317909Y-133394414D01*
X180356004Y-133508700D01*
X180356004Y-133699176D01*
X179556004Y-132518223D02*
X179556004Y-132899176D01*
X179936957Y-132937271D01*
X179898861Y-132899176D01*
X179860766Y-132822985D01*
X179860766Y-132632509D01*
X179898861Y-132556319D01*
X179936957Y-132518223D01*
X180013147Y-132480128D01*
X180203623Y-132480128D01*
X180279814Y-132518223D01*
X180317909Y-132556319D01*
X180356004Y-132632509D01*
X180356004Y-132822985D01*
X180317909Y-132899176D01*
X180279814Y-132937271D01*
X184928004Y-133699176D02*
X184128004Y-133699176D01*
X184128004Y-133508700D01*
X184166100Y-133394414D01*
X184242290Y-133318223D01*
X184318480Y-133280128D01*
X184470861Y-133242033D01*
X184585147Y-133242033D01*
X184737528Y-133280128D01*
X184813719Y-133318223D01*
X184889909Y-133394414D01*
X184928004Y-133508700D01*
X184928004Y-133699176D01*
X184128004Y-132556319D02*
X184128004Y-132708700D01*
X184166100Y-132784890D01*
X184204195Y-132822985D01*
X184318480Y-132899176D01*
X184470861Y-132937271D01*
X184775623Y-132937271D01*
X184851814Y-132899176D01*
X184889909Y-132861080D01*
X184928004Y-132784890D01*
X184928004Y-132632509D01*
X184889909Y-132556319D01*
X184851814Y-132518223D01*
X184775623Y-132480128D01*
X184585147Y-132480128D01*
X184508957Y-132518223D01*
X184470861Y-132556319D01*
X184432766Y-132632509D01*
X184432766Y-132784890D01*
X184470861Y-132861080D01*
X184508957Y-132899176D01*
X184585147Y-132937271D01*
X162068004Y-146399176D02*
X161268004Y-146399176D01*
X161268004Y-146208700D01*
X161306100Y-146094414D01*
X161382290Y-146018223D01*
X161458480Y-145980128D01*
X161610861Y-145942033D01*
X161725147Y-145942033D01*
X161877528Y-145980128D01*
X161953719Y-146018223D01*
X162029909Y-146094414D01*
X162068004Y-146208700D01*
X162068004Y-146399176D01*
X161268004Y-145675366D02*
X161268004Y-145142033D01*
X162068004Y-145484890D01*
X166640004Y-146399176D02*
X165840004Y-146399176D01*
X165840004Y-146208700D01*
X165878100Y-146094414D01*
X165954290Y-146018223D01*
X166030480Y-145980128D01*
X166182861Y-145942033D01*
X166297147Y-145942033D01*
X166449528Y-145980128D01*
X166525719Y-146018223D01*
X166601909Y-146094414D01*
X166640004Y-146208700D01*
X166640004Y-146399176D01*
X166182861Y-145484890D02*
X166144766Y-145561080D01*
X166106671Y-145599176D01*
X166030480Y-145637271D01*
X165992385Y-145637271D01*
X165916195Y-145599176D01*
X165878100Y-145561080D01*
X165840004Y-145484890D01*
X165840004Y-145332509D01*
X165878100Y-145256319D01*
X165916195Y-145218223D01*
X165992385Y-145180128D01*
X166030480Y-145180128D01*
X166106671Y-145218223D01*
X166144766Y-145256319D01*
X166182861Y-145332509D01*
X166182861Y-145484890D01*
X166220957Y-145561080D01*
X166259052Y-145599176D01*
X166335242Y-145637271D01*
X166487623Y-145637271D01*
X166563814Y-145599176D01*
X166601909Y-145561080D01*
X166640004Y-145484890D01*
X166640004Y-145332509D01*
X166601909Y-145256319D01*
X166563814Y-145218223D01*
X166487623Y-145180128D01*
X166335242Y-145180128D01*
X166259052Y-145218223D01*
X166220957Y-145256319D01*
X166182861Y-145332509D01*
X171212004Y-146402176D02*
X170412004Y-146402176D01*
X170412004Y-146211700D01*
X170450100Y-146097414D01*
X170526290Y-146021223D01*
X170602480Y-145983128D01*
X170754861Y-145945033D01*
X170869147Y-145945033D01*
X171021528Y-145983128D01*
X171097719Y-146021223D01*
X171173909Y-146097414D01*
X171212004Y-146211700D01*
X171212004Y-146402176D01*
X171212004Y-145564080D02*
X171212004Y-145411700D01*
X171173909Y-145335509D01*
X171135814Y-145297414D01*
X171021528Y-145221223D01*
X170869147Y-145183128D01*
X170564385Y-145183128D01*
X170488195Y-145221223D01*
X170450100Y-145259319D01*
X170412004Y-145335509D01*
X170412004Y-145487890D01*
X170450100Y-145564080D01*
X170488195Y-145602176D01*
X170564385Y-145640271D01*
X170754861Y-145640271D01*
X170831052Y-145602176D01*
X170869147Y-145564080D01*
X170907242Y-145487890D01*
X170907242Y-145335509D01*
X170869147Y-145259319D01*
X170831052Y-145221223D01*
X170754861Y-145183128D01*
X175784004Y-146780128D02*
X174984004Y-146780128D01*
X174984004Y-146589652D01*
X175022100Y-146475366D01*
X175098290Y-146399176D01*
X175174480Y-146361080D01*
X175326861Y-146322985D01*
X175441147Y-146322985D01*
X175593528Y-146361080D01*
X175669719Y-146399176D01*
X175745909Y-146475366D01*
X175784004Y-146589652D01*
X175784004Y-146780128D01*
X175784004Y-145561080D02*
X175784004Y-146018223D01*
X175784004Y-145789652D02*
X174984004Y-145789652D01*
X175098290Y-145865842D01*
X175174480Y-145942033D01*
X175212576Y-146018223D01*
X174984004Y-145065842D02*
X174984004Y-144989652D01*
X175022100Y-144913461D01*
X175060195Y-144875366D01*
X175136385Y-144837271D01*
X175288766Y-144799176D01*
X175479242Y-144799176D01*
X175631623Y-144837271D01*
X175707814Y-144875366D01*
X175745909Y-144913461D01*
X175784004Y-144989652D01*
X175784004Y-145065842D01*
X175745909Y-145142033D01*
X175707814Y-145180128D01*
X175631623Y-145218223D01*
X175479242Y-145256319D01*
X175288766Y-145256319D01*
X175136385Y-145218223D01*
X175060195Y-145180128D01*
X175022100Y-145142033D01*
X174984004Y-145065842D01*
X180356004Y-146780128D02*
X179556004Y-146780128D01*
X179556004Y-146589652D01*
X179594100Y-146475366D01*
X179670290Y-146399176D01*
X179746480Y-146361080D01*
X179898861Y-146322985D01*
X180013147Y-146322985D01*
X180165528Y-146361080D01*
X180241719Y-146399176D01*
X180317909Y-146475366D01*
X180356004Y-146589652D01*
X180356004Y-146780128D01*
X180356004Y-145561080D02*
X180356004Y-146018223D01*
X180356004Y-145789652D02*
X179556004Y-145789652D01*
X179670290Y-145865842D01*
X179746480Y-145942033D01*
X179784576Y-146018223D01*
X180356004Y-144799176D02*
X180356004Y-145256319D01*
X180356004Y-145027747D02*
X179556004Y-145027747D01*
X179670290Y-145103938D01*
X179746480Y-145180128D01*
X179784576Y-145256319D01*
X184928004Y-146780128D02*
X184128004Y-146780128D01*
X184128004Y-146589652D01*
X184166100Y-146475366D01*
X184242290Y-146399176D01*
X184318480Y-146361080D01*
X184470861Y-146322985D01*
X184585147Y-146322985D01*
X184737528Y-146361080D01*
X184813719Y-146399176D01*
X184889909Y-146475366D01*
X184928004Y-146589652D01*
X184928004Y-146780128D01*
X184928004Y-145561080D02*
X184928004Y-146018223D01*
X184928004Y-145789652D02*
X184128004Y-145789652D01*
X184242290Y-145865842D01*
X184318480Y-145942033D01*
X184356576Y-146018223D01*
X184204195Y-145256319D02*
X184166100Y-145218223D01*
X184128004Y-145142033D01*
X184128004Y-144951557D01*
X184166100Y-144875366D01*
X184204195Y-144837271D01*
X184280385Y-144799176D01*
X184356576Y-144799176D01*
X184470861Y-144837271D01*
X184928004Y-145294414D01*
X184928004Y-144799176D01*
X162068004Y-159480128D02*
X161268004Y-159480128D01*
X161268004Y-159289652D01*
X161306100Y-159175366D01*
X161382290Y-159099176D01*
X161458480Y-159061080D01*
X161610861Y-159022985D01*
X161725147Y-159022985D01*
X161877528Y-159061080D01*
X161953719Y-159099176D01*
X162029909Y-159175366D01*
X162068004Y-159289652D01*
X162068004Y-159480128D01*
X162068004Y-158261080D02*
X162068004Y-158718223D01*
X162068004Y-158489652D02*
X161268004Y-158489652D01*
X161382290Y-158565842D01*
X161458480Y-158642033D01*
X161496576Y-158718223D01*
X161268004Y-157994414D02*
X161268004Y-157499176D01*
X161572766Y-157765842D01*
X161572766Y-157651557D01*
X161610861Y-157575366D01*
X161648957Y-157537271D01*
X161725147Y-157499176D01*
X161915623Y-157499176D01*
X161991814Y-157537271D01*
X162029909Y-157575366D01*
X162068004Y-157651557D01*
X162068004Y-157880128D01*
X162029909Y-157956319D01*
X161991814Y-157994414D01*
X166640004Y-159480128D02*
X165840004Y-159480128D01*
X165840004Y-159289652D01*
X165878100Y-159175366D01*
X165954290Y-159099176D01*
X166030480Y-159061080D01*
X166182861Y-159022985D01*
X166297147Y-159022985D01*
X166449528Y-159061080D01*
X166525719Y-159099176D01*
X166601909Y-159175366D01*
X166640004Y-159289652D01*
X166640004Y-159480128D01*
X166640004Y-158261080D02*
X166640004Y-158718223D01*
X166640004Y-158489652D02*
X165840004Y-158489652D01*
X165954290Y-158565842D01*
X166030480Y-158642033D01*
X166068576Y-158718223D01*
X166106671Y-157575366D02*
X166640004Y-157575366D01*
X165801909Y-157765842D02*
X166373338Y-157956319D01*
X166373338Y-157461080D01*
X171212004Y-159480128D02*
X170412004Y-159480128D01*
X170412004Y-159289652D01*
X170450100Y-159175366D01*
X170526290Y-159099176D01*
X170602480Y-159061080D01*
X170754861Y-159022985D01*
X170869147Y-159022985D01*
X171021528Y-159061080D01*
X171097719Y-159099176D01*
X171173909Y-159175366D01*
X171212004Y-159289652D01*
X171212004Y-159480128D01*
X171212004Y-158261080D02*
X171212004Y-158718223D01*
X171212004Y-158489652D02*
X170412004Y-158489652D01*
X170526290Y-158565842D01*
X170602480Y-158642033D01*
X170640576Y-158718223D01*
X170412004Y-157537271D02*
X170412004Y-157918223D01*
X170792957Y-157956319D01*
X170754861Y-157918223D01*
X170716766Y-157842033D01*
X170716766Y-157651557D01*
X170754861Y-157575366D01*
X170792957Y-157537271D01*
X170869147Y-157499176D01*
X171059623Y-157499176D01*
X171135814Y-157537271D01*
X171173909Y-157575366D01*
X171212004Y-157651557D01*
X171212004Y-157842033D01*
X171173909Y-157918223D01*
X171135814Y-157956319D01*
X175784004Y-159480128D02*
X174984004Y-159480128D01*
X174984004Y-159289652D01*
X175022100Y-159175366D01*
X175098290Y-159099176D01*
X175174480Y-159061080D01*
X175326861Y-159022985D01*
X175441147Y-159022985D01*
X175593528Y-159061080D01*
X175669719Y-159099176D01*
X175745909Y-159175366D01*
X175784004Y-159289652D01*
X175784004Y-159480128D01*
X175784004Y-158261080D02*
X175784004Y-158718223D01*
X175784004Y-158489652D02*
X174984004Y-158489652D01*
X175098290Y-158565842D01*
X175174480Y-158642033D01*
X175212576Y-158718223D01*
X174984004Y-157575366D02*
X174984004Y-157727747D01*
X175022100Y-157803938D01*
X175060195Y-157842033D01*
X175174480Y-157918223D01*
X175326861Y-157956319D01*
X175631623Y-157956319D01*
X175707814Y-157918223D01*
X175745909Y-157880128D01*
X175784004Y-157803938D01*
X175784004Y-157651557D01*
X175745909Y-157575366D01*
X175707814Y-157537271D01*
X175631623Y-157499176D01*
X175441147Y-157499176D01*
X175364957Y-157537271D01*
X175326861Y-157575366D01*
X175288766Y-157651557D01*
X175288766Y-157803938D01*
X175326861Y-157880128D01*
X175364957Y-157918223D01*
X175441147Y-157956319D01*
X180356004Y-159480128D02*
X179556004Y-159480128D01*
X179556004Y-159289652D01*
X179594100Y-159175366D01*
X179670290Y-159099176D01*
X179746480Y-159061080D01*
X179898861Y-159022985D01*
X180013147Y-159022985D01*
X180165528Y-159061080D01*
X180241719Y-159099176D01*
X180317909Y-159175366D01*
X180356004Y-159289652D01*
X180356004Y-159480128D01*
X180356004Y-158261080D02*
X180356004Y-158718223D01*
X180356004Y-158489652D02*
X179556004Y-158489652D01*
X179670290Y-158565842D01*
X179746480Y-158642033D01*
X179784576Y-158718223D01*
X179556004Y-157994414D02*
X179556004Y-157461080D01*
X180356004Y-157803938D01*
X184928004Y-159480128D02*
X184128004Y-159480128D01*
X184128004Y-159289652D01*
X184166100Y-159175366D01*
X184242290Y-159099176D01*
X184318480Y-159061080D01*
X184470861Y-159022985D01*
X184585147Y-159022985D01*
X184737528Y-159061080D01*
X184813719Y-159099176D01*
X184889909Y-159175366D01*
X184928004Y-159289652D01*
X184928004Y-159480128D01*
X184928004Y-158261080D02*
X184928004Y-158718223D01*
X184928004Y-158489652D02*
X184128004Y-158489652D01*
X184242290Y-158565842D01*
X184318480Y-158642033D01*
X184356576Y-158718223D01*
X184470861Y-157803938D02*
X184432766Y-157880128D01*
X184394671Y-157918223D01*
X184318480Y-157956319D01*
X184280385Y-157956319D01*
X184204195Y-157918223D01*
X184166100Y-157880128D01*
X184128004Y-157803938D01*
X184128004Y-157651557D01*
X184166100Y-157575366D01*
X184204195Y-157537271D01*
X184280385Y-157499176D01*
X184318480Y-157499176D01*
X184394671Y-157537271D01*
X184432766Y-157575366D01*
X184470861Y-157651557D01*
X184470861Y-157803938D01*
X184508957Y-157880128D01*
X184547052Y-157918223D01*
X184623242Y-157956319D01*
X184775623Y-157956319D01*
X184851814Y-157918223D01*
X184889909Y-157880128D01*
X184928004Y-157803938D01*
X184928004Y-157651557D01*
X184889909Y-157575366D01*
X184851814Y-157537271D01*
X184775623Y-157499176D01*
X184623242Y-157499176D01*
X184547052Y-157537271D01*
X184508957Y-157575366D01*
X184470861Y-157651557D01*
X162068004Y-172180128D02*
X161268004Y-172180128D01*
X161268004Y-171989652D01*
X161306100Y-171875366D01*
X161382290Y-171799176D01*
X161458480Y-171761080D01*
X161610861Y-171722985D01*
X161725147Y-171722985D01*
X161877528Y-171761080D01*
X161953719Y-171799176D01*
X162029909Y-171875366D01*
X162068004Y-171989652D01*
X162068004Y-172180128D01*
X162068004Y-170961080D02*
X162068004Y-171418223D01*
X162068004Y-171189652D02*
X161268004Y-171189652D01*
X161382290Y-171265842D01*
X161458480Y-171342033D01*
X161496576Y-171418223D01*
X162068004Y-170580128D02*
X162068004Y-170427747D01*
X162029909Y-170351557D01*
X161991814Y-170313461D01*
X161877528Y-170237271D01*
X161725147Y-170199176D01*
X161420385Y-170199176D01*
X161344195Y-170237271D01*
X161306100Y-170275366D01*
X161268004Y-170351557D01*
X161268004Y-170503938D01*
X161306100Y-170580128D01*
X161344195Y-170618223D01*
X161420385Y-170656319D01*
X161610861Y-170656319D01*
X161687052Y-170618223D01*
X161725147Y-170580128D01*
X161763242Y-170503938D01*
X161763242Y-170351557D01*
X161725147Y-170275366D01*
X161687052Y-170237271D01*
X161610861Y-170199176D01*
X166640004Y-172180128D02*
X165840004Y-172180128D01*
X165840004Y-171989652D01*
X165878100Y-171875366D01*
X165954290Y-171799176D01*
X166030480Y-171761080D01*
X166182861Y-171722985D01*
X166297147Y-171722985D01*
X166449528Y-171761080D01*
X166525719Y-171799176D01*
X166601909Y-171875366D01*
X166640004Y-171989652D01*
X166640004Y-172180128D01*
X165916195Y-171418223D02*
X165878100Y-171380128D01*
X165840004Y-171303938D01*
X165840004Y-171113461D01*
X165878100Y-171037271D01*
X165916195Y-170999176D01*
X165992385Y-170961080D01*
X166068576Y-170961080D01*
X166182861Y-170999176D01*
X166640004Y-171456319D01*
X166640004Y-170961080D01*
X165840004Y-170465842D02*
X165840004Y-170389652D01*
X165878100Y-170313461D01*
X165916195Y-170275366D01*
X165992385Y-170237271D01*
X166144766Y-170199176D01*
X166335242Y-170199176D01*
X166487623Y-170237271D01*
X166563814Y-170275366D01*
X166601909Y-170313461D01*
X166640004Y-170389652D01*
X166640004Y-170465842D01*
X166601909Y-170542033D01*
X166563814Y-170580128D01*
X166487623Y-170618223D01*
X166335242Y-170656319D01*
X166144766Y-170656319D01*
X165992385Y-170618223D01*
X165916195Y-170580128D01*
X165878100Y-170542033D01*
X165840004Y-170465842D01*
X171212004Y-172180128D02*
X170412004Y-172180128D01*
X170412004Y-171989652D01*
X170450100Y-171875366D01*
X170526290Y-171799176D01*
X170602480Y-171761080D01*
X170754861Y-171722985D01*
X170869147Y-171722985D01*
X171021528Y-171761080D01*
X171097719Y-171799176D01*
X171173909Y-171875366D01*
X171212004Y-171989652D01*
X171212004Y-172180128D01*
X170488195Y-171418223D02*
X170450100Y-171380128D01*
X170412004Y-171303938D01*
X170412004Y-171113461D01*
X170450100Y-171037271D01*
X170488195Y-170999176D01*
X170564385Y-170961080D01*
X170640576Y-170961080D01*
X170754861Y-170999176D01*
X171212004Y-171456319D01*
X171212004Y-170961080D01*
X171212004Y-170199176D02*
X171212004Y-170656319D01*
X171212004Y-170427747D02*
X170412004Y-170427747D01*
X170526290Y-170503938D01*
X170602480Y-170580128D01*
X170640576Y-170656319D01*
X175784004Y-172180128D02*
X174984004Y-172180128D01*
X174984004Y-171989652D01*
X175022100Y-171875366D01*
X175098290Y-171799176D01*
X175174480Y-171761080D01*
X175326861Y-171722985D01*
X175441147Y-171722985D01*
X175593528Y-171761080D01*
X175669719Y-171799176D01*
X175745909Y-171875366D01*
X175784004Y-171989652D01*
X175784004Y-172180128D01*
X175060195Y-171418223D02*
X175022100Y-171380128D01*
X174984004Y-171303938D01*
X174984004Y-171113461D01*
X175022100Y-171037271D01*
X175060195Y-170999176D01*
X175136385Y-170961080D01*
X175212576Y-170961080D01*
X175326861Y-170999176D01*
X175784004Y-171456319D01*
X175784004Y-170961080D01*
X175060195Y-170656319D02*
X175022100Y-170618223D01*
X174984004Y-170542033D01*
X174984004Y-170351557D01*
X175022100Y-170275366D01*
X175060195Y-170237271D01*
X175136385Y-170199176D01*
X175212576Y-170199176D01*
X175326861Y-170237271D01*
X175784004Y-170694414D01*
X175784004Y-170199176D01*
X235220004Y-134080128D02*
X234420004Y-134080128D01*
X234420004Y-133889652D01*
X234458100Y-133775366D01*
X234534290Y-133699176D01*
X234610480Y-133661080D01*
X234762861Y-133622985D01*
X234877147Y-133622985D01*
X235029528Y-133661080D01*
X235105719Y-133699176D01*
X235181909Y-133775366D01*
X235220004Y-133889652D01*
X235220004Y-134080128D01*
X234496195Y-133318223D02*
X234458100Y-133280128D01*
X234420004Y-133203938D01*
X234420004Y-133013461D01*
X234458100Y-132937271D01*
X234496195Y-132899176D01*
X234572385Y-132861080D01*
X234648576Y-132861080D01*
X234762861Y-132899176D01*
X235220004Y-133356319D01*
X235220004Y-132861080D01*
X234420004Y-132137271D02*
X234420004Y-132518223D01*
X234800957Y-132556319D01*
X234762861Y-132518223D01*
X234724766Y-132442033D01*
X234724766Y-132251557D01*
X234762861Y-132175366D01*
X234800957Y-132137271D01*
X234877147Y-132099176D01*
X235067623Y-132099176D01*
X235143814Y-132137271D01*
X235181909Y-132175366D01*
X235220004Y-132251557D01*
X235220004Y-132442033D01*
X235181909Y-132518223D01*
X235143814Y-132556319D01*
X239792004Y-134080128D02*
X238992004Y-134080128D01*
X238992004Y-133889652D01*
X239030100Y-133775366D01*
X239106290Y-133699176D01*
X239182480Y-133661080D01*
X239334861Y-133622985D01*
X239449147Y-133622985D01*
X239601528Y-133661080D01*
X239677719Y-133699176D01*
X239753909Y-133775366D01*
X239792004Y-133889652D01*
X239792004Y-134080128D01*
X239068195Y-133318223D02*
X239030100Y-133280128D01*
X238992004Y-133203938D01*
X238992004Y-133013461D01*
X239030100Y-132937271D01*
X239068195Y-132899176D01*
X239144385Y-132861080D01*
X239220576Y-132861080D01*
X239334861Y-132899176D01*
X239792004Y-133356319D01*
X239792004Y-132861080D01*
X238992004Y-132175366D02*
X238992004Y-132327747D01*
X239030100Y-132403938D01*
X239068195Y-132442033D01*
X239182480Y-132518223D01*
X239334861Y-132556319D01*
X239639623Y-132556319D01*
X239715814Y-132518223D01*
X239753909Y-132480128D01*
X239792004Y-132403938D01*
X239792004Y-132251557D01*
X239753909Y-132175366D01*
X239715814Y-132137271D01*
X239639623Y-132099176D01*
X239449147Y-132099176D01*
X239372957Y-132137271D01*
X239334861Y-132175366D01*
X239296766Y-132251557D01*
X239296766Y-132403938D01*
X239334861Y-132480128D01*
X239372957Y-132518223D01*
X239449147Y-132556319D01*
X244364004Y-134080128D02*
X243564004Y-134080128D01*
X243564004Y-133889652D01*
X243602100Y-133775366D01*
X243678290Y-133699176D01*
X243754480Y-133661080D01*
X243906861Y-133622985D01*
X244021147Y-133622985D01*
X244173528Y-133661080D01*
X244249719Y-133699176D01*
X244325909Y-133775366D01*
X244364004Y-133889652D01*
X244364004Y-134080128D01*
X243640195Y-133318223D02*
X243602100Y-133280128D01*
X243564004Y-133203938D01*
X243564004Y-133013461D01*
X243602100Y-132937271D01*
X243640195Y-132899176D01*
X243716385Y-132861080D01*
X243792576Y-132861080D01*
X243906861Y-132899176D01*
X244364004Y-133356319D01*
X244364004Y-132861080D01*
X243564004Y-132594414D02*
X243564004Y-132061080D01*
X244364004Y-132403938D01*
X248936004Y-134080128D02*
X248136004Y-134080128D01*
X248136004Y-133889652D01*
X248174100Y-133775366D01*
X248250290Y-133699176D01*
X248326480Y-133661080D01*
X248478861Y-133622985D01*
X248593147Y-133622985D01*
X248745528Y-133661080D01*
X248821719Y-133699176D01*
X248897909Y-133775366D01*
X248936004Y-133889652D01*
X248936004Y-134080128D01*
X248212195Y-133318223D02*
X248174100Y-133280128D01*
X248136004Y-133203938D01*
X248136004Y-133013461D01*
X248174100Y-132937271D01*
X248212195Y-132899176D01*
X248288385Y-132861080D01*
X248364576Y-132861080D01*
X248478861Y-132899176D01*
X248936004Y-133356319D01*
X248936004Y-132861080D01*
X248478861Y-132403938D02*
X248440766Y-132480128D01*
X248402671Y-132518223D01*
X248326480Y-132556319D01*
X248288385Y-132556319D01*
X248212195Y-132518223D01*
X248174100Y-132480128D01*
X248136004Y-132403938D01*
X248136004Y-132251557D01*
X248174100Y-132175366D01*
X248212195Y-132137271D01*
X248288385Y-132099176D01*
X248326480Y-132099176D01*
X248402671Y-132137271D01*
X248440766Y-132175366D01*
X248478861Y-132251557D01*
X248478861Y-132403938D01*
X248516957Y-132480128D01*
X248555052Y-132518223D01*
X248631242Y-132556319D01*
X248783623Y-132556319D01*
X248859814Y-132518223D01*
X248897909Y-132480128D01*
X248936004Y-132403938D01*
X248936004Y-132251557D01*
X248897909Y-132175366D01*
X248859814Y-132137271D01*
X248783623Y-132099176D01*
X248631242Y-132099176D01*
X248555052Y-132137271D01*
X248516957Y-132175366D01*
X248478861Y-132251557D01*
X253508004Y-134080128D02*
X252708004Y-134080128D01*
X252708004Y-133889652D01*
X252746100Y-133775366D01*
X252822290Y-133699176D01*
X252898480Y-133661080D01*
X253050861Y-133622985D01*
X253165147Y-133622985D01*
X253317528Y-133661080D01*
X253393719Y-133699176D01*
X253469909Y-133775366D01*
X253508004Y-133889652D01*
X253508004Y-134080128D01*
X252784195Y-133318223D02*
X252746100Y-133280128D01*
X252708004Y-133203938D01*
X252708004Y-133013461D01*
X252746100Y-132937271D01*
X252784195Y-132899176D01*
X252860385Y-132861080D01*
X252936576Y-132861080D01*
X253050861Y-132899176D01*
X253508004Y-133356319D01*
X253508004Y-132861080D01*
X253508004Y-132480128D02*
X253508004Y-132327747D01*
X253469909Y-132251557D01*
X253431814Y-132213461D01*
X253317528Y-132137271D01*
X253165147Y-132099176D01*
X252860385Y-132099176D01*
X252784195Y-132137271D01*
X252746100Y-132175366D01*
X252708004Y-132251557D01*
X252708004Y-132403938D01*
X252746100Y-132480128D01*
X252784195Y-132518223D01*
X252860385Y-132556319D01*
X253050861Y-132556319D01*
X253127052Y-132518223D01*
X253165147Y-132480128D01*
X253203242Y-132403938D01*
X253203242Y-132251557D01*
X253165147Y-132175366D01*
X253127052Y-132137271D01*
X253050861Y-132099176D01*
X258080004Y-134080128D02*
X257280004Y-134080128D01*
X257280004Y-133889652D01*
X257318100Y-133775366D01*
X257394290Y-133699176D01*
X257470480Y-133661080D01*
X257622861Y-133622985D01*
X257737147Y-133622985D01*
X257889528Y-133661080D01*
X257965719Y-133699176D01*
X258041909Y-133775366D01*
X258080004Y-133889652D01*
X258080004Y-134080128D01*
X257280004Y-133356319D02*
X257280004Y-132861080D01*
X257584766Y-133127747D01*
X257584766Y-133013461D01*
X257622861Y-132937271D01*
X257660957Y-132899176D01*
X257737147Y-132861080D01*
X257927623Y-132861080D01*
X258003814Y-132899176D01*
X258041909Y-132937271D01*
X258080004Y-133013461D01*
X258080004Y-133242033D01*
X258041909Y-133318223D01*
X258003814Y-133356319D01*
X257280004Y-132365842D02*
X257280004Y-132289652D01*
X257318100Y-132213461D01*
X257356195Y-132175366D01*
X257432385Y-132137271D01*
X257584766Y-132099176D01*
X257775242Y-132099176D01*
X257927623Y-132137271D01*
X258003814Y-132175366D01*
X258041909Y-132213461D01*
X258080004Y-132289652D01*
X258080004Y-132365842D01*
X258041909Y-132442033D01*
X258003814Y-132480128D01*
X257927623Y-132518223D01*
X257775242Y-132556319D01*
X257584766Y-132556319D01*
X257432385Y-132518223D01*
X257356195Y-132480128D01*
X257318100Y-132442033D01*
X257280004Y-132365842D01*
X235220004Y-146780128D02*
X234420004Y-146780128D01*
X234420004Y-146589652D01*
X234458100Y-146475366D01*
X234534290Y-146399176D01*
X234610480Y-146361080D01*
X234762861Y-146322985D01*
X234877147Y-146322985D01*
X235029528Y-146361080D01*
X235105719Y-146399176D01*
X235181909Y-146475366D01*
X235220004Y-146589652D01*
X235220004Y-146780128D01*
X234420004Y-146056319D02*
X234420004Y-145561080D01*
X234724766Y-145827747D01*
X234724766Y-145713461D01*
X234762861Y-145637271D01*
X234800957Y-145599176D01*
X234877147Y-145561080D01*
X235067623Y-145561080D01*
X235143814Y-145599176D01*
X235181909Y-145637271D01*
X235220004Y-145713461D01*
X235220004Y-145942033D01*
X235181909Y-146018223D01*
X235143814Y-146056319D01*
X235220004Y-144799176D02*
X235220004Y-145256319D01*
X235220004Y-145027747D02*
X234420004Y-145027747D01*
X234534290Y-145103938D01*
X234610480Y-145180128D01*
X234648576Y-145256319D01*
X239792004Y-146777128D02*
X238992004Y-146777128D01*
X238992004Y-146586652D01*
X239030100Y-146472366D01*
X239106290Y-146396176D01*
X239182480Y-146358080D01*
X239334861Y-146319985D01*
X239449147Y-146319985D01*
X239601528Y-146358080D01*
X239677719Y-146396176D01*
X239753909Y-146472366D01*
X239792004Y-146586652D01*
X239792004Y-146777128D01*
X238992004Y-146053319D02*
X238992004Y-145558080D01*
X239296766Y-145824747D01*
X239296766Y-145710461D01*
X239334861Y-145634271D01*
X239372957Y-145596176D01*
X239449147Y-145558080D01*
X239639623Y-145558080D01*
X239715814Y-145596176D01*
X239753909Y-145634271D01*
X239792004Y-145710461D01*
X239792004Y-145939033D01*
X239753909Y-146015223D01*
X239715814Y-146053319D01*
X239068195Y-145253319D02*
X239030100Y-145215223D01*
X238992004Y-145139033D01*
X238992004Y-144948557D01*
X239030100Y-144872366D01*
X239068195Y-144834271D01*
X239144385Y-144796176D01*
X239220576Y-144796176D01*
X239334861Y-144834271D01*
X239792004Y-145291414D01*
X239792004Y-144796176D01*
X244364004Y-146780128D02*
X243564004Y-146780128D01*
X243564004Y-146589652D01*
X243602100Y-146475366D01*
X243678290Y-146399176D01*
X243754480Y-146361080D01*
X243906861Y-146322985D01*
X244021147Y-146322985D01*
X244173528Y-146361080D01*
X244249719Y-146399176D01*
X244325909Y-146475366D01*
X244364004Y-146589652D01*
X244364004Y-146780128D01*
X243564004Y-146056319D02*
X243564004Y-145561080D01*
X243868766Y-145827747D01*
X243868766Y-145713461D01*
X243906861Y-145637271D01*
X243944957Y-145599176D01*
X244021147Y-145561080D01*
X244211623Y-145561080D01*
X244287814Y-145599176D01*
X244325909Y-145637271D01*
X244364004Y-145713461D01*
X244364004Y-145942033D01*
X244325909Y-146018223D01*
X244287814Y-146056319D01*
X243564004Y-145294414D02*
X243564004Y-144799176D01*
X243868766Y-145065842D01*
X243868766Y-144951557D01*
X243906861Y-144875366D01*
X243944957Y-144837271D01*
X244021147Y-144799176D01*
X244211623Y-144799176D01*
X244287814Y-144837271D01*
X244325909Y-144875366D01*
X244364004Y-144951557D01*
X244364004Y-145180128D01*
X244325909Y-145256319D01*
X244287814Y-145294414D01*
X248936004Y-146780128D02*
X248136004Y-146780128D01*
X248136004Y-146589652D01*
X248174100Y-146475366D01*
X248250290Y-146399176D01*
X248326480Y-146361080D01*
X248478861Y-146322985D01*
X248593147Y-146322985D01*
X248745528Y-146361080D01*
X248821719Y-146399176D01*
X248897909Y-146475366D01*
X248936004Y-146589652D01*
X248936004Y-146780128D01*
X248136004Y-146056319D02*
X248136004Y-145561080D01*
X248440766Y-145827747D01*
X248440766Y-145713461D01*
X248478861Y-145637271D01*
X248516957Y-145599176D01*
X248593147Y-145561080D01*
X248783623Y-145561080D01*
X248859814Y-145599176D01*
X248897909Y-145637271D01*
X248936004Y-145713461D01*
X248936004Y-145942033D01*
X248897909Y-146018223D01*
X248859814Y-146056319D01*
X248402671Y-144875366D02*
X248936004Y-144875366D01*
X248097909Y-145065842D02*
X248669338Y-145256319D01*
X248669338Y-144761080D01*
X253508004Y-146780128D02*
X252708004Y-146780128D01*
X252708004Y-146589652D01*
X252746100Y-146475366D01*
X252822290Y-146399176D01*
X252898480Y-146361080D01*
X253050861Y-146322985D01*
X253165147Y-146322985D01*
X253317528Y-146361080D01*
X253393719Y-146399176D01*
X253469909Y-146475366D01*
X253508004Y-146589652D01*
X253508004Y-146780128D01*
X252708004Y-146056319D02*
X252708004Y-145561080D01*
X253012766Y-145827747D01*
X253012766Y-145713461D01*
X253050861Y-145637271D01*
X253088957Y-145599176D01*
X253165147Y-145561080D01*
X253355623Y-145561080D01*
X253431814Y-145599176D01*
X253469909Y-145637271D01*
X253508004Y-145713461D01*
X253508004Y-145942033D01*
X253469909Y-146018223D01*
X253431814Y-146056319D01*
X252708004Y-144837271D02*
X252708004Y-145218223D01*
X253088957Y-145256319D01*
X253050861Y-145218223D01*
X253012766Y-145142033D01*
X253012766Y-144951557D01*
X253050861Y-144875366D01*
X253088957Y-144837271D01*
X253165147Y-144799176D01*
X253355623Y-144799176D01*
X253431814Y-144837271D01*
X253469909Y-144875366D01*
X253508004Y-144951557D01*
X253508004Y-145142033D01*
X253469909Y-145218223D01*
X253431814Y-145256319D01*
X258080004Y-146780128D02*
X257280004Y-146780128D01*
X257280004Y-146589652D01*
X257318100Y-146475366D01*
X257394290Y-146399176D01*
X257470480Y-146361080D01*
X257622861Y-146322985D01*
X257737147Y-146322985D01*
X257889528Y-146361080D01*
X257965719Y-146399176D01*
X258041909Y-146475366D01*
X258080004Y-146589652D01*
X258080004Y-146780128D01*
X257280004Y-146056319D02*
X257280004Y-145561080D01*
X257584766Y-145827747D01*
X257584766Y-145713461D01*
X257622861Y-145637271D01*
X257660957Y-145599176D01*
X257737147Y-145561080D01*
X257927623Y-145561080D01*
X258003814Y-145599176D01*
X258041909Y-145637271D01*
X258080004Y-145713461D01*
X258080004Y-145942033D01*
X258041909Y-146018223D01*
X258003814Y-146056319D01*
X257280004Y-144875366D02*
X257280004Y-145027747D01*
X257318100Y-145103938D01*
X257356195Y-145142033D01*
X257470480Y-145218223D01*
X257622861Y-145256319D01*
X257927623Y-145256319D01*
X258003814Y-145218223D01*
X258041909Y-145180128D01*
X258080004Y-145103938D01*
X258080004Y-144951557D01*
X258041909Y-144875366D01*
X258003814Y-144837271D01*
X257927623Y-144799176D01*
X257737147Y-144799176D01*
X257660957Y-144837271D01*
X257622861Y-144875366D01*
X257584766Y-144951557D01*
X257584766Y-145103938D01*
X257622861Y-145180128D01*
X257660957Y-145218223D01*
X257737147Y-145256319D01*
X235220004Y-159480128D02*
X234420004Y-159480128D01*
X234420004Y-159289652D01*
X234458100Y-159175366D01*
X234534290Y-159099176D01*
X234610480Y-159061080D01*
X234762861Y-159022985D01*
X234877147Y-159022985D01*
X235029528Y-159061080D01*
X235105719Y-159099176D01*
X235181909Y-159175366D01*
X235220004Y-159289652D01*
X235220004Y-159480128D01*
X234420004Y-158756319D02*
X234420004Y-158261080D01*
X234724766Y-158527747D01*
X234724766Y-158413461D01*
X234762861Y-158337271D01*
X234800957Y-158299176D01*
X234877147Y-158261080D01*
X235067623Y-158261080D01*
X235143814Y-158299176D01*
X235181909Y-158337271D01*
X235220004Y-158413461D01*
X235220004Y-158642033D01*
X235181909Y-158718223D01*
X235143814Y-158756319D01*
X234420004Y-157994414D02*
X234420004Y-157461080D01*
X235220004Y-157803938D01*
X239792004Y-159477128D02*
X238992004Y-159477128D01*
X238992004Y-159286652D01*
X239030100Y-159172366D01*
X239106290Y-159096176D01*
X239182480Y-159058080D01*
X239334861Y-159019985D01*
X239449147Y-159019985D01*
X239601528Y-159058080D01*
X239677719Y-159096176D01*
X239753909Y-159172366D01*
X239792004Y-159286652D01*
X239792004Y-159477128D01*
X238992004Y-158753319D02*
X238992004Y-158258080D01*
X239296766Y-158524747D01*
X239296766Y-158410461D01*
X239334861Y-158334271D01*
X239372957Y-158296176D01*
X239449147Y-158258080D01*
X239639623Y-158258080D01*
X239715814Y-158296176D01*
X239753909Y-158334271D01*
X239792004Y-158410461D01*
X239792004Y-158639033D01*
X239753909Y-158715223D01*
X239715814Y-158753319D01*
X239334861Y-157800938D02*
X239296766Y-157877128D01*
X239258671Y-157915223D01*
X239182480Y-157953319D01*
X239144385Y-157953319D01*
X239068195Y-157915223D01*
X239030100Y-157877128D01*
X238992004Y-157800938D01*
X238992004Y-157648557D01*
X239030100Y-157572366D01*
X239068195Y-157534271D01*
X239144385Y-157496176D01*
X239182480Y-157496176D01*
X239258671Y-157534271D01*
X239296766Y-157572366D01*
X239334861Y-157648557D01*
X239334861Y-157800938D01*
X239372957Y-157877128D01*
X239411052Y-157915223D01*
X239487242Y-157953319D01*
X239639623Y-157953319D01*
X239715814Y-157915223D01*
X239753909Y-157877128D01*
X239792004Y-157800938D01*
X239792004Y-157648557D01*
X239753909Y-157572366D01*
X239715814Y-157534271D01*
X239639623Y-157496176D01*
X239487242Y-157496176D01*
X239411052Y-157534271D01*
X239372957Y-157572366D01*
X239334861Y-157648557D01*
X244364004Y-159477128D02*
X243564004Y-159477128D01*
X243564004Y-159286652D01*
X243602100Y-159172366D01*
X243678290Y-159096176D01*
X243754480Y-159058080D01*
X243906861Y-159019985D01*
X244021147Y-159019985D01*
X244173528Y-159058080D01*
X244249719Y-159096176D01*
X244325909Y-159172366D01*
X244364004Y-159286652D01*
X244364004Y-159477128D01*
X243564004Y-158753319D02*
X243564004Y-158258080D01*
X243868766Y-158524747D01*
X243868766Y-158410461D01*
X243906861Y-158334271D01*
X243944957Y-158296176D01*
X244021147Y-158258080D01*
X244211623Y-158258080D01*
X244287814Y-158296176D01*
X244325909Y-158334271D01*
X244364004Y-158410461D01*
X244364004Y-158639033D01*
X244325909Y-158715223D01*
X244287814Y-158753319D01*
X244364004Y-157877128D02*
X244364004Y-157724747D01*
X244325909Y-157648557D01*
X244287814Y-157610461D01*
X244173528Y-157534271D01*
X244021147Y-157496176D01*
X243716385Y-157496176D01*
X243640195Y-157534271D01*
X243602100Y-157572366D01*
X243564004Y-157648557D01*
X243564004Y-157800938D01*
X243602100Y-157877128D01*
X243640195Y-157915223D01*
X243716385Y-157953319D01*
X243906861Y-157953319D01*
X243983052Y-157915223D01*
X244021147Y-157877128D01*
X244059242Y-157800938D01*
X244059242Y-157648557D01*
X244021147Y-157572366D01*
X243983052Y-157534271D01*
X243906861Y-157496176D01*
X248936004Y-159480128D02*
X248136004Y-159480128D01*
X248136004Y-159289652D01*
X248174100Y-159175366D01*
X248250290Y-159099176D01*
X248326480Y-159061080D01*
X248478861Y-159022985D01*
X248593147Y-159022985D01*
X248745528Y-159061080D01*
X248821719Y-159099176D01*
X248897909Y-159175366D01*
X248936004Y-159289652D01*
X248936004Y-159480128D01*
X248402671Y-158337271D02*
X248936004Y-158337271D01*
X248097909Y-158527747D02*
X248669338Y-158718223D01*
X248669338Y-158222985D01*
X248136004Y-157765842D02*
X248136004Y-157689652D01*
X248174100Y-157613461D01*
X248212195Y-157575366D01*
X248288385Y-157537271D01*
X248440766Y-157499176D01*
X248631242Y-157499176D01*
X248783623Y-157537271D01*
X248859814Y-157575366D01*
X248897909Y-157613461D01*
X248936004Y-157689652D01*
X248936004Y-157765842D01*
X248897909Y-157842033D01*
X248859814Y-157880128D01*
X248783623Y-157918223D01*
X248631242Y-157956319D01*
X248440766Y-157956319D01*
X248288385Y-157918223D01*
X248212195Y-157880128D01*
X248174100Y-157842033D01*
X248136004Y-157765842D01*
D13*
X118048433Y-131573480D02*
X117572242Y-131573480D01*
X117572242Y-130573480D01*
X118905576Y-131573480D02*
X118334147Y-131573480D01*
X118619861Y-131573480D02*
X118619861Y-130573480D01*
X118524623Y-130716338D01*
X118429385Y-130811576D01*
X118334147Y-130859195D01*
X80710433Y-123953480D02*
X80234242Y-123953480D01*
X80234242Y-122953480D01*
X80996147Y-123048719D02*
X81043766Y-123001100D01*
X81139004Y-122953480D01*
X81377100Y-122953480D01*
X81472338Y-123001100D01*
X81519957Y-123048719D01*
X81567576Y-123143957D01*
X81567576Y-123239195D01*
X81519957Y-123382052D01*
X80948528Y-123953480D01*
X81567576Y-123953480D01*
X59374433Y-131573480D02*
X58898242Y-131573480D01*
X58898242Y-130573480D01*
X59612528Y-130573480D02*
X60231576Y-130573480D01*
X59898242Y-130954433D01*
X60041100Y-130954433D01*
X60136338Y-131002052D01*
X60183957Y-131049671D01*
X60231576Y-131144909D01*
X60231576Y-131383004D01*
X60183957Y-131478242D01*
X60136338Y-131525861D01*
X60041100Y-131573480D01*
X59755385Y-131573480D01*
X59660147Y-131525861D01*
X59612528Y-131478242D01*
X73979433Y-153671480D02*
X73503242Y-153671480D01*
X73503242Y-152671480D01*
X74741338Y-153004814D02*
X74741338Y-153671480D01*
X74503242Y-152623861D02*
X74265147Y-153338147D01*
X74884195Y-153338147D01*
X117591233Y-176150480D02*
X117115042Y-176150480D01*
X117115042Y-175150480D01*
X118400757Y-175150480D02*
X117924566Y-175150480D01*
X117876947Y-175626671D01*
X117924566Y-175579052D01*
X118019804Y-175531433D01*
X118257900Y-175531433D01*
X118353138Y-175579052D01*
X118400757Y-175626671D01*
X118448376Y-175721909D01*
X118448376Y-175960004D01*
X118400757Y-176055242D01*
X118353138Y-176102861D01*
X118257900Y-176150480D01*
X118019804Y-176150480D01*
X117924566Y-176102861D01*
X117876947Y-176055242D01*
X304230433Y-176150480D02*
X303754242Y-176150480D01*
X303754242Y-175150480D01*
X304992338Y-175150480D02*
X304801861Y-175150480D01*
X304706623Y-175198100D01*
X304659004Y-175245719D01*
X304563766Y-175388576D01*
X304516147Y-175579052D01*
X304516147Y-175960004D01*
X304563766Y-176055242D01*
X304611385Y-176102861D01*
X304706623Y-176150480D01*
X304897100Y-176150480D01*
X304992338Y-176102861D01*
X305039957Y-176055242D01*
X305087576Y-175960004D01*
X305087576Y-175721909D01*
X305039957Y-175626671D01*
X304992338Y-175579052D01*
X304897100Y-175531433D01*
X304706623Y-175531433D01*
X304611385Y-175579052D01*
X304563766Y-175626671D01*
X304516147Y-175721909D01*
X347918433Y-153671480D02*
X347442242Y-153671480D01*
X347442242Y-152671480D01*
X348156528Y-152671480D02*
X348823195Y-152671480D01*
X348394623Y-153671480D01*
X362472633Y-131573480D02*
X361996442Y-131573480D01*
X361996442Y-130573480D01*
X362948823Y-131002052D02*
X362853585Y-130954433D01*
X362805966Y-130906814D01*
X362758347Y-130811576D01*
X362758347Y-130763957D01*
X362805966Y-130668719D01*
X362853585Y-130621100D01*
X362948823Y-130573480D01*
X363139300Y-130573480D01*
X363234538Y-130621100D01*
X363282157Y-130668719D01*
X363329776Y-130763957D01*
X363329776Y-130811576D01*
X363282157Y-130906814D01*
X363234538Y-130954433D01*
X363139300Y-131002052D01*
X362948823Y-131002052D01*
X362853585Y-131049671D01*
X362805966Y-131097290D01*
X362758347Y-131192528D01*
X362758347Y-131383004D01*
X362805966Y-131478242D01*
X362853585Y-131525861D01*
X362948823Y-131573480D01*
X363139300Y-131573480D01*
X363234538Y-131525861D01*
X363282157Y-131478242D01*
X363329776Y-131383004D01*
X363329776Y-131192528D01*
X363282157Y-131097290D01*
X363234538Y-131049671D01*
X363139300Y-131002052D01*
X341060433Y-123953480D02*
X340584242Y-123953480D01*
X340584242Y-122953480D01*
X341441385Y-123953480D02*
X341631861Y-123953480D01*
X341727100Y-123905861D01*
X341774719Y-123858242D01*
X341869957Y-123715385D01*
X341917576Y-123524909D01*
X341917576Y-123143957D01*
X341869957Y-123048719D01*
X341822338Y-123001100D01*
X341727100Y-122953480D01*
X341536623Y-122953480D01*
X341441385Y-123001100D01*
X341393766Y-123048719D01*
X341346147Y-123143957D01*
X341346147Y-123382052D01*
X341393766Y-123477290D01*
X341441385Y-123524909D01*
X341536623Y-123572528D01*
X341727100Y-123572528D01*
X341822338Y-123524909D01*
X341869957Y-123477290D01*
X341917576Y-123382052D01*
X303246242Y-131573480D02*
X302770052Y-131573480D01*
X302770052Y-130573480D01*
X304103385Y-131573480D02*
X303531957Y-131573480D01*
X303817671Y-131573480D02*
X303817671Y-130573480D01*
X303722433Y-130716338D01*
X303627195Y-130811576D01*
X303531957Y-130859195D01*
X304722433Y-130573480D02*
X304817671Y-130573480D01*
X304912909Y-130621100D01*
X304960528Y-130668719D01*
X305008147Y-130763957D01*
X305055766Y-130954433D01*
X305055766Y-131192528D01*
X305008147Y-131383004D01*
X304960528Y-131478242D01*
X304912909Y-131525861D01*
X304817671Y-131573480D01*
X304722433Y-131573480D01*
X304627195Y-131525861D01*
X304579576Y-131478242D01*
X304531957Y-131383004D01*
X304484338Y-131192528D01*
X304484338Y-130954433D01*
X304531957Y-130763957D01*
X304579576Y-130668719D01*
X304627195Y-130621100D01*
X304722433Y-130573480D01*
D10*
X193694195Y-128416004D02*
X193427528Y-128035052D01*
X193237052Y-128416004D02*
X193237052Y-127616004D01*
X193541814Y-127616004D01*
X193618004Y-127654100D01*
X193656100Y-127692195D01*
X193694195Y-127768385D01*
X193694195Y-127882671D01*
X193656100Y-127958861D01*
X193618004Y-127996957D01*
X193541814Y-128035052D01*
X193237052Y-128035052D01*
X194037052Y-127996957D02*
X194303719Y-127996957D01*
X194418004Y-128416004D02*
X194037052Y-128416004D01*
X194037052Y-127616004D01*
X194418004Y-127616004D01*
X194722766Y-128377909D02*
X194837052Y-128416004D01*
X195027528Y-128416004D01*
X195103719Y-128377909D01*
X195141814Y-128339814D01*
X195179909Y-128263623D01*
X195179909Y-128187433D01*
X195141814Y-128111242D01*
X195103719Y-128073147D01*
X195027528Y-128035052D01*
X194875147Y-127996957D01*
X194798957Y-127958861D01*
X194760861Y-127920766D01*
X194722766Y-127844576D01*
X194722766Y-127768385D01*
X194760861Y-127692195D01*
X194798957Y-127654100D01*
X194875147Y-127616004D01*
X195065623Y-127616004D01*
X195179909Y-127654100D01*
X195522766Y-127996957D02*
X195789433Y-127996957D01*
X195903719Y-128416004D02*
X195522766Y-128416004D01*
X195522766Y-127616004D01*
X195903719Y-127616004D01*
X196132290Y-127616004D02*
X196589433Y-127616004D01*
X196360861Y-128416004D02*
X196360861Y-127616004D01*
M02*
