G04 #@! TF.GenerationSoftware,KiCad,Pcbnew,(5.1.4-0-10_14)*
G04 #@! TF.CreationDate,2021-05-16T21:06:51-06:00*
G04 #@! TF.ProjectId,avlo44,61766c6f-3434-42e6-9b69-6361645f7063,0.1*
G04 #@! TF.SameCoordinates,Original*
G04 #@! TF.FileFunction,Copper,L1,Top*
G04 #@! TF.FilePolarity,Positive*
%FSLAX46Y46*%
G04 Gerber Fmt 4.6, Leading zero omitted, Abs format (unit mm)*
G04 Created by KiCad (PCBNEW (5.1.4-0-10_14)) date 2021-05-16 21:06:51*
%MOMM*%
%LPD*%
G04 APERTURE LIST*
%ADD10C,4.700000*%
%ADD11C,1.905000*%
%ADD12C,0.020000*%
%ADD13C,2.000000*%
%ADD14C,2.250000*%
%ADD15C,2.250000*%
%ADD16R,1.752600X1.752600*%
%ADD17C,1.752600*%
%ADD18C,1.397000*%
%ADD19R,0.500000X2.900000*%
%ADD20R,1.600000X1.600000*%
%ADD21C,1.600000*%
%ADD22R,1.200000X1.600000*%
%ADD23R,1.501140X0.899160*%
%ADD24C,0.800000*%
%ADD25C,0.254000*%
%ADD26C,0.381000*%
G04 APERTURE END LIST*
D10*
X211239100Y-168897300D03*
X283921200Y-190500000D03*
X138468100Y-190500000D03*
X286042100Y-137325100D03*
X293217600Y-174548800D03*
X367436400Y-158927800D03*
X358724200Y-116052600D03*
X136232900Y-137325100D03*
X129057400Y-174548800D03*
X54838600Y-158927800D03*
X63563500Y-116052600D03*
D11*
X298808494Y-191397642D03*
D12*
G36*
X298369941Y-192671292D02*
G01*
X297534844Y-190959089D01*
X299247047Y-190123992D01*
X300082144Y-191836195D01*
X298369941Y-192671292D01*
X298369941Y-192671292D01*
G37*
D11*
X296525557Y-192511105D03*
D13*
X292853710Y-182085615D03*
X298268260Y-181781227D03*
D14*
X291439630Y-184889252D03*
X291170925Y-185832502D03*
D15*
X290902232Y-186775757D02*
X291439618Y-184889247D01*
D14*
X295496111Y-181709164D03*
X295605051Y-181978667D03*
D15*
X295714415Y-182247999D02*
X295495687Y-181709335D01*
D14*
X375434797Y-136993695D03*
D15*
X375470727Y-137282155D02*
X375398867Y-136705235D01*
D14*
X375399323Y-136705179D03*
X370154316Y-139568578D03*
D15*
X369650646Y-140410149D02*
X370657986Y-138727007D01*
D14*
X370657996Y-138727014D03*
D13*
X378058362Y-137492272D03*
X372749527Y-136384900D03*
D11*
X373597943Y-147405494D03*
X376091276Y-146920839D03*
D12*
G36*
X375338022Y-148037584D02*
G01*
X374974531Y-146167585D01*
X376844530Y-145804094D01*
X377208021Y-147674093D01*
X375338022Y-148037584D01*
X375338022Y-148037584D01*
G37*
D14*
X353082797Y-121956895D03*
D15*
X353118727Y-122245355D02*
X353046867Y-121668435D01*
D14*
X353047323Y-121668379D03*
X347802316Y-124531778D03*
D15*
X347298646Y-125373349D02*
X348305986Y-123690207D01*
D14*
X348305996Y-123690214D03*
D13*
X355706362Y-122455472D03*
X350397527Y-121348100D03*
D11*
X351245943Y-132368694D03*
X353739276Y-131884039D03*
D12*
G36*
X352986022Y-133000784D02*
G01*
X352622531Y-131130785D01*
X354492530Y-130767294D01*
X354856021Y-132637293D01*
X352986022Y-133000784D01*
X352986022Y-133000784D01*
G37*
D11*
X372433676Y-128226439D03*
D12*
G36*
X371680422Y-129343184D02*
G01*
X371316931Y-127473185D01*
X373186930Y-127109694D01*
X373550421Y-128979693D01*
X371680422Y-129343184D01*
X371680422Y-129343184D01*
G37*
D11*
X369940343Y-128711094D03*
D13*
X369091927Y-117690500D03*
X374400762Y-118797872D03*
D14*
X367000396Y-120032614D03*
X366496716Y-120874178D03*
D15*
X365993046Y-121715749D02*
X367000386Y-120032607D01*
D14*
X371741723Y-118010779D03*
X371777197Y-118299295D03*
D15*
X371813127Y-118587755D02*
X371741267Y-118010835D01*
D11*
X106893857Y-185861094D03*
D12*
G36*
X105777112Y-186614348D02*
G01*
X106140603Y-184744349D01*
X108010602Y-185107840D01*
X107647111Y-186977839D01*
X105777112Y-186614348D01*
X105777112Y-186614348D01*
G37*
D11*
X104400524Y-185376439D03*
D13*
X107742273Y-174840500D03*
X112249710Y-177855962D03*
D14*
X104925668Y-176228569D03*
X104143408Y-176820172D03*
D15*
X103361155Y-177411785D02*
X104925661Y-176228559D01*
D14*
X110079143Y-176130089D03*
X110003954Y-176410885D03*
D15*
X109929208Y-176691800D02*
X110078700Y-176129970D01*
D14*
X280184797Y-146340895D03*
D15*
X280220727Y-146629355D02*
X280148867Y-146052435D01*
D14*
X280149323Y-146052379D03*
X274904316Y-148915778D03*
D15*
X274400646Y-149757349D02*
X275407986Y-148074207D01*
D14*
X275407996Y-148074214D03*
D13*
X282808362Y-146839472D03*
X277499527Y-145732100D03*
D11*
X278347943Y-156752694D03*
X280841276Y-156268039D03*
D12*
G36*
X280088022Y-157384784D02*
G01*
X279724531Y-155514785D01*
X281594530Y-155151294D01*
X281958021Y-157021293D01*
X280088022Y-157384784D01*
X280088022Y-157384784D01*
G37*
D14*
X276577997Y-127646495D03*
D15*
X276613927Y-127934955D02*
X276542067Y-127358035D01*
D14*
X276542523Y-127357979D03*
X271297516Y-130221378D03*
D15*
X270793846Y-131062949D02*
X271801186Y-129379807D01*
D14*
X271801196Y-129379814D03*
D13*
X279201562Y-128145072D03*
X273892727Y-127037700D03*
D11*
X274741143Y-138058294D03*
X277234476Y-137573639D03*
D12*
G36*
X276481222Y-138690384D02*
G01*
X276117731Y-136820385D01*
X277987730Y-136456894D01*
X278351221Y-138326893D01*
X276481222Y-138690384D01*
X276481222Y-138690384D01*
G37*
D11*
X125800243Y-192511105D03*
D12*
G36*
X124526593Y-192949658D02*
G01*
X125361690Y-191237455D01*
X127073893Y-192072552D01*
X126238796Y-193784755D01*
X124526593Y-192949658D01*
X124526593Y-192949658D01*
G37*
D11*
X123517306Y-191397642D03*
D13*
X129472090Y-182085615D03*
X133045481Y-186164938D03*
D14*
X126392199Y-182697396D03*
X125483476Y-183066377D03*
D15*
X124574757Y-183435369D02*
X126392195Y-182697385D01*
D14*
X131395562Y-183936089D03*
X131250260Y-184187858D03*
D15*
X131105355Y-184439855D02*
X131395165Y-183935861D01*
D14*
X298421997Y-140244895D03*
D15*
X298457927Y-140533355D02*
X298386067Y-139956435D01*
D14*
X298386523Y-139956379D03*
X293141516Y-142819778D03*
D15*
X292637846Y-143661349D02*
X293645186Y-141978207D01*
D14*
X293645196Y-141978214D03*
D13*
X301045562Y-140743472D03*
X295736727Y-139636100D03*
D11*
X296585143Y-150656694D03*
X299078476Y-150172039D03*
D12*
G36*
X298325222Y-151288784D02*
G01*
X297961731Y-149418785D01*
X299831730Y-149055294D01*
X300195221Y-150925293D01*
X298325222Y-151288784D01*
X298325222Y-151288784D01*
G37*
D11*
X316553676Y-140164439D03*
D12*
G36*
X315800422Y-141281184D02*
G01*
X315436931Y-139411185D01*
X317306930Y-139047694D01*
X317670421Y-140917693D01*
X315800422Y-141281184D01*
X315800422Y-141281184D01*
G37*
D11*
X314060343Y-140649094D03*
D13*
X313211927Y-129628500D03*
X318520762Y-130735872D03*
D14*
X311120396Y-131970614D03*
X310616716Y-132812178D03*
D15*
X310113046Y-133653749D02*
X311120386Y-131970607D01*
D14*
X315861723Y-129948779D03*
X315897197Y-130237295D03*
D15*
X315933127Y-130525755D02*
X315861267Y-129948835D01*
D14*
X335709197Y-132472495D03*
D15*
X335745127Y-132760955D02*
X335673267Y-132184035D01*
D14*
X335673723Y-132183979D03*
X330428716Y-135047378D03*
D15*
X329925046Y-135888949D02*
X330932386Y-134205807D01*
D14*
X330932396Y-134205814D03*
D13*
X338332762Y-132971072D03*
X333023927Y-131863700D03*
D11*
X333872343Y-142884294D03*
X336365676Y-142399639D03*
D12*
G36*
X335612422Y-143516384D02*
G01*
X335248931Y-141646385D01*
X337118930Y-141282894D01*
X337482421Y-143152893D01*
X335612422Y-143516384D01*
X335612422Y-143516384D01*
G37*
D14*
X356740397Y-140651295D03*
D15*
X356776327Y-140939755D02*
X356704467Y-140362835D01*
D14*
X356704923Y-140362779D03*
X351459916Y-143226178D03*
D15*
X350956246Y-144067749D02*
X351963586Y-142384607D01*
D14*
X351963596Y-142384614D03*
D13*
X359363962Y-141149872D03*
X354055127Y-140042500D03*
D11*
X354903543Y-151063094D03*
X357396876Y-150578439D03*
D12*
G36*
X356643622Y-151695184D02*
G01*
X356280131Y-149825185D01*
X358150130Y-149461694D01*
X358513621Y-151331693D01*
X356643622Y-151695184D01*
X356643622Y-151695184D01*
G37*
D14*
X283842397Y-165035295D03*
D15*
X283878327Y-165323755D02*
X283806467Y-164746835D01*
D14*
X283806923Y-164746779D03*
X278561916Y-167610178D03*
D15*
X278058246Y-168451749D02*
X279065586Y-166768607D01*
D14*
X279065596Y-166768614D03*
D13*
X286465962Y-165533872D03*
X281157127Y-164426500D03*
D11*
X282005543Y-175447094D03*
X284498876Y-174962439D03*
D12*
G36*
X283745622Y-176079184D02*
G01*
X283382131Y-174209185D01*
X285252130Y-173845694D01*
X285615621Y-175715693D01*
X283745622Y-176079184D01*
X283745622Y-176079184D01*
G37*
D14*
X302028797Y-158939295D03*
D15*
X302064727Y-159227755D02*
X301992867Y-158650835D01*
D14*
X301993323Y-158650779D03*
X296748316Y-161514178D03*
D15*
X296244646Y-162355749D02*
X297251986Y-160672607D01*
D14*
X297251996Y-160672614D03*
D13*
X304652362Y-159437872D03*
X299343527Y-158330500D03*
D11*
X300191943Y-169351094D03*
X302685276Y-168866439D03*
D12*
G36*
X301932022Y-169983184D02*
G01*
X301568531Y-168113185D01*
X303438530Y-167749694D01*
X303802021Y-169619693D01*
X301932022Y-169983184D01*
X301932022Y-169983184D01*
G37*
D11*
X320160476Y-158858839D03*
D12*
G36*
X319407222Y-159975584D02*
G01*
X319043731Y-158105585D01*
X320913730Y-157742094D01*
X321277221Y-159612093D01*
X319407222Y-159975584D01*
X319407222Y-159975584D01*
G37*
D11*
X317667143Y-159343494D03*
D13*
X316818727Y-148322900D03*
X322127562Y-149430272D03*
D14*
X314727196Y-150665014D03*
X314223516Y-151506578D03*
D15*
X313719846Y-152348149D02*
X314727186Y-150665007D01*
D14*
X319468523Y-148643179D03*
X319503997Y-148931695D03*
D15*
X319539927Y-149220155D02*
X319468067Y-148643235D01*
D11*
X340023276Y-161094039D03*
D12*
G36*
X339270022Y-162210784D02*
G01*
X338906531Y-160340785D01*
X340776530Y-159977294D01*
X341140021Y-161847293D01*
X339270022Y-162210784D01*
X339270022Y-162210784D01*
G37*
D11*
X337529943Y-161578694D03*
D13*
X336681527Y-150558100D03*
X341990362Y-151665472D03*
D14*
X334589996Y-152900214D03*
X334086316Y-153741778D03*
D15*
X333582646Y-154583349D02*
X334589986Y-152900207D01*
D14*
X339331323Y-150878379D03*
X339366797Y-151166895D03*
D15*
X339402727Y-151455355D02*
X339330867Y-150878435D01*
D14*
X143379554Y-165996885D03*
D15*
X143304808Y-166277800D02*
X143454300Y-165715970D01*
D14*
X143454743Y-165716089D03*
X137519008Y-166406172D03*
D15*
X136736755Y-166997785D02*
X138301261Y-165814559D01*
D14*
X138301268Y-165814569D03*
D13*
X145625310Y-167441962D03*
X141117873Y-164426500D03*
D11*
X137776124Y-174962439D03*
X140269457Y-175447094D03*
D12*
G36*
X139152712Y-176200348D02*
G01*
X139516203Y-174330349D01*
X141386202Y-174693840D01*
X141022711Y-176563839D01*
X139152712Y-176200348D01*
X139152712Y-176200348D01*
G37*
D14*
X294815197Y-121550495D03*
D15*
X294851127Y-121838955D02*
X294779267Y-121262035D01*
D14*
X294779723Y-121261979D03*
X289534716Y-124125378D03*
D15*
X289031046Y-124966949D02*
X290038386Y-123283807D01*
D14*
X290038396Y-123283814D03*
D13*
X297438762Y-122049072D03*
X292129927Y-120941700D03*
D11*
X292978343Y-131962294D03*
X295471676Y-131477639D03*
D12*
G36*
X294718422Y-132594384D02*
G01*
X294354931Y-130724385D01*
X296224930Y-130360894D01*
X296588421Y-132230893D01*
X294718422Y-132594384D01*
X294718422Y-132594384D01*
G37*
D11*
X312896076Y-121470039D03*
D12*
G36*
X312142822Y-122586784D02*
G01*
X311779331Y-120716785D01*
X313649330Y-120353294D01*
X314012821Y-122223293D01*
X312142822Y-122586784D01*
X312142822Y-122586784D01*
G37*
D11*
X310402743Y-121954694D03*
D13*
X309554327Y-110934100D03*
X314863162Y-112041472D03*
D14*
X307462796Y-113276214D03*
X306959116Y-114117778D03*
D15*
X306455446Y-114959349D02*
X307462786Y-113276207D01*
D14*
X312204123Y-111254379D03*
X312239597Y-111542895D03*
D15*
X312275527Y-111831355D02*
X312203667Y-111254435D01*
D11*
X332758876Y-123705239D03*
D12*
G36*
X332005622Y-124821984D02*
G01*
X331642131Y-122951985D01*
X333512130Y-122588494D01*
X333875621Y-124458493D01*
X332005622Y-124821984D01*
X332005622Y-124821984D01*
G37*
D11*
X330265543Y-124189894D03*
D13*
X329417127Y-113169300D03*
X334725962Y-114276672D03*
D14*
X327325596Y-115511414D03*
X326821916Y-116352978D03*
D15*
X326318246Y-117194549D02*
X327325586Y-115511407D01*
D14*
X332066923Y-113489579D03*
X332102397Y-113778095D03*
D15*
X332138327Y-114066555D02*
X332066467Y-113489635D01*
D14*
X147037154Y-147302485D03*
D15*
X146962408Y-147583400D02*
X147111900Y-147021570D01*
D14*
X147112343Y-147021689D03*
X141176608Y-147711772D03*
D15*
X140394355Y-148303385D02*
X141958861Y-147120159D01*
D14*
X141958868Y-147120169D03*
D13*
X149282910Y-148747562D03*
X144775473Y-145732100D03*
D11*
X141433724Y-156268039D03*
X143927057Y-156752694D03*
D12*
G36*
X142810312Y-157505948D02*
G01*
X143173803Y-155635949D01*
X145043802Y-155999440D01*
X144680311Y-157869439D01*
X142810312Y-157505948D01*
X142810312Y-157505948D01*
G37*
D14*
X114982354Y-112504485D03*
D15*
X114907608Y-112785400D02*
X115057100Y-112223570D01*
D14*
X115057543Y-112223689D03*
X109121808Y-112913772D03*
D15*
X108339555Y-113505385D02*
X109904061Y-112322159D01*
D14*
X109904068Y-112322169D03*
D13*
X117228110Y-113949562D03*
X112720673Y-110934100D03*
D11*
X109378924Y-121470039D03*
X111872257Y-121954694D03*
D12*
G36*
X110755512Y-122707948D02*
G01*
X111119003Y-120837949D01*
X112989002Y-121201440D01*
X112625511Y-123071439D01*
X110755512Y-122707948D01*
X110755512Y-122707948D01*
G37*
D11*
X129347457Y-131962294D03*
D12*
G36*
X128230712Y-132715548D02*
G01*
X128594203Y-130845549D01*
X130464202Y-131209040D01*
X130100711Y-133079039D01*
X128230712Y-132715548D01*
X128230712Y-132715548D01*
G37*
D11*
X126854124Y-131477639D03*
D13*
X130195873Y-120941700D03*
X134703310Y-123957162D03*
D14*
X127379268Y-122329769D03*
X126597008Y-122921372D03*
D15*
X125814755Y-123512985D02*
X127379261Y-122329759D01*
D14*
X132532743Y-122231289D03*
X132457554Y-122512085D03*
D15*
X132382808Y-122793000D02*
X132532300Y-122231170D01*
D14*
X150648099Y-128577200D03*
D15*
X150573353Y-128858115D02*
X150722845Y-128296285D01*
D14*
X150723288Y-128296404D03*
X144787553Y-128986487D03*
D15*
X144005300Y-129578100D02*
X145569806Y-128394874D01*
D14*
X145569813Y-128394884D03*
D13*
X152893855Y-130022277D03*
X148386418Y-127006815D03*
D11*
X145044669Y-137542754D03*
X147538002Y-138027409D03*
D12*
G36*
X146421257Y-138780663D02*
G01*
X146784748Y-136910664D01*
X148654747Y-137274155D01*
X148291256Y-139144154D01*
X146421257Y-138780663D01*
X146421257Y-138780663D01*
G37*
D11*
X104607857Y-159343494D03*
D12*
G36*
X103491112Y-160096748D02*
G01*
X103854603Y-158226749D01*
X105724602Y-158590240D01*
X105361111Y-160460239D01*
X103491112Y-160096748D01*
X103491112Y-160096748D01*
G37*
D11*
X102114524Y-158858839D03*
D13*
X105456273Y-148322900D03*
X109963710Y-151338362D03*
D14*
X102639668Y-149710969D03*
X101857408Y-150302572D03*
D15*
X101075155Y-150894185D02*
X102639661Y-149710959D01*
D14*
X107793143Y-149612489D03*
X107717954Y-149893285D03*
D15*
X107643208Y-150174200D02*
X107792700Y-149612370D01*
D14*
X125193154Y-159900885D03*
D15*
X125118408Y-160181800D02*
X125267900Y-159619970D01*
D14*
X125268343Y-159620089D03*
X119332608Y-160310172D03*
D15*
X118550355Y-160901785D02*
X120114861Y-159718559D01*
D14*
X120114868Y-159718569D03*
D13*
X127438910Y-161345962D03*
X122931473Y-158330500D03*
D11*
X119589724Y-168866439D03*
X122083057Y-169351094D03*
D12*
G36*
X120966312Y-170104348D02*
G01*
X121329803Y-168234349D01*
X123199802Y-168597840D01*
X122836311Y-170467839D01*
X120966312Y-170104348D01*
X120966312Y-170104348D01*
G37*
D11*
X63764657Y-169757494D03*
D12*
G36*
X62647912Y-170510748D02*
G01*
X63011403Y-168640749D01*
X64881402Y-169004240D01*
X64517911Y-170874239D01*
X62647912Y-170510748D01*
X62647912Y-170510748D01*
G37*
D11*
X61271324Y-169272839D03*
D13*
X64613073Y-158736900D03*
X69120510Y-161752362D03*
D14*
X61796468Y-160124969D03*
X61014208Y-160716572D03*
D15*
X60231955Y-161308185D02*
X61796461Y-160124959D01*
D14*
X66949943Y-160026489D03*
X66874754Y-160307285D03*
D15*
X66800008Y-160588200D02*
X66949500Y-160026370D01*
D11*
X48681202Y-147425409D03*
D12*
G36*
X47564457Y-148178663D02*
G01*
X47927948Y-146308664D01*
X49797947Y-146672155D01*
X49434456Y-148542154D01*
X47564457Y-148178663D01*
X47564457Y-148178663D01*
G37*
D11*
X46187869Y-146940754D03*
D13*
X49529618Y-136404815D03*
X54037055Y-139420277D03*
D14*
X46713013Y-137792884D03*
X45930753Y-138384487D03*
D15*
X45148500Y-138976100D02*
X46713006Y-137792874D01*
D14*
X51866488Y-137694404D03*
X51791299Y-137975200D03*
D15*
X51716553Y-138256115D02*
X51866045Y-137694285D01*
D11*
X67422257Y-151063094D03*
D12*
G36*
X66305512Y-151816348D02*
G01*
X66669003Y-149946349D01*
X68539002Y-150309840D01*
X68175511Y-152179839D01*
X66305512Y-151816348D01*
X66305512Y-151816348D01*
G37*
D11*
X64928924Y-150578439D03*
D13*
X68270673Y-140042500D03*
X72778110Y-143057962D03*
D14*
X65454068Y-141430569D03*
X64671808Y-142022172D03*
D15*
X63889555Y-142613785D02*
X65454061Y-141430559D01*
D14*
X70607543Y-141332089D03*
X70532354Y-141612885D03*
D15*
X70457608Y-141893800D02*
X70607100Y-141331970D01*
D11*
X88402657Y-142884294D03*
D12*
G36*
X87285912Y-143637548D02*
G01*
X87649403Y-141767549D01*
X89519402Y-142131040D01*
X89155911Y-144001039D01*
X87285912Y-143637548D01*
X87285912Y-143637548D01*
G37*
D11*
X85909324Y-142399639D03*
D13*
X89251073Y-131863700D03*
X93758510Y-134879162D03*
D14*
X86434468Y-133251769D03*
X85652208Y-133843372D03*
D15*
X84869955Y-134434985D02*
X86434461Y-133251759D01*
D14*
X91587943Y-133153289D03*
X91512754Y-133434085D03*
D15*
X91438008Y-133715000D02*
X91587500Y-133153170D01*
D11*
X108214657Y-140649094D03*
D12*
G36*
X107097912Y-141402348D02*
G01*
X107461403Y-139532349D01*
X109331402Y-139895840D01*
X108967911Y-141765839D01*
X107097912Y-141402348D01*
X107097912Y-141402348D01*
G37*
D11*
X105721324Y-140164439D03*
D13*
X109063073Y-129628500D03*
X113570510Y-132643962D03*
D14*
X106246468Y-131016569D03*
X105464208Y-131608172D03*
D15*
X104681955Y-132199785D02*
X106246461Y-131016559D01*
D14*
X111399943Y-130918089D03*
X111324754Y-131198885D03*
D15*
X111250008Y-131479800D02*
X111399500Y-130917970D01*
D11*
X45070257Y-166099894D03*
D12*
G36*
X43953512Y-166853148D02*
G01*
X44317003Y-164983149D01*
X46187002Y-165346640D01*
X45823511Y-167216639D01*
X43953512Y-166853148D01*
X43953512Y-166853148D01*
G37*
D11*
X42576924Y-165615239D03*
D13*
X45918673Y-155079300D03*
X50426110Y-158094762D03*
D14*
X43102068Y-156467369D03*
X42319808Y-157058972D03*
D15*
X41537555Y-157650585D02*
X43102061Y-156467359D01*
D14*
X48255543Y-156368889D03*
X48180354Y-156649685D03*
D15*
X48105608Y-156930600D02*
X48255100Y-156368770D01*
D14*
X128799954Y-141206485D03*
D15*
X128725208Y-141487400D02*
X128874700Y-140925570D01*
D14*
X128875143Y-140925689D03*
X122939408Y-141615772D03*
D15*
X122157155Y-142207385D02*
X123721661Y-141024159D01*
D14*
X123721668Y-141024169D03*
D13*
X131045710Y-142651562D03*
X126538273Y-139636100D03*
D11*
X123196524Y-150172039D03*
X125689857Y-150656694D03*
D12*
G36*
X124573112Y-151409948D02*
G01*
X124936603Y-149539949D01*
X126806602Y-149903440D01*
X126443111Y-151773439D01*
X124573112Y-151409948D01*
X124573112Y-151409948D01*
G37*
D11*
X84745057Y-161578694D03*
D12*
G36*
X83628312Y-162331948D02*
G01*
X83991803Y-160461949D01*
X85861802Y-160825440D01*
X85498311Y-162695439D01*
X83628312Y-162331948D01*
X83628312Y-162331948D01*
G37*
D11*
X82251724Y-161094039D03*
D13*
X85593473Y-150558100D03*
X90100910Y-153573562D03*
D14*
X82776868Y-151946169D03*
X81994608Y-152537772D03*
D15*
X81212355Y-153129385D02*
X82776861Y-151946159D01*
D14*
X87930343Y-151847689D03*
X87855154Y-152128485D03*
D15*
X87780408Y-152409400D02*
X87929900Y-151847570D01*
D11*
X52334657Y-128711094D03*
D12*
G36*
X51217912Y-129464348D02*
G01*
X51581403Y-127594349D01*
X53451402Y-127957840D01*
X53087911Y-129827839D01*
X51217912Y-129464348D01*
X51217912Y-129464348D01*
G37*
D11*
X49841324Y-128226439D03*
D13*
X53183073Y-117690500D03*
X57690510Y-120705962D03*
D14*
X50366468Y-119078569D03*
X49584208Y-119670172D03*
D15*
X48801955Y-120261785D02*
X50366461Y-119078559D01*
D14*
X55519943Y-118980089D03*
X55444754Y-119260885D03*
D15*
X55370008Y-119541800D02*
X55519500Y-118979970D01*
D14*
X74139154Y-122867685D03*
D15*
X74064408Y-123148600D02*
X74213900Y-122586770D01*
D14*
X74214343Y-122586889D03*
X68278608Y-123276972D03*
D15*
X67496355Y-123868585D02*
X69060861Y-122685359D01*
D14*
X69060868Y-122685369D03*
D13*
X76384910Y-124312762D03*
X71877473Y-121297300D03*
D11*
X68535724Y-131833239D03*
X71029057Y-132317894D03*
D12*
G36*
X69912312Y-133071148D02*
G01*
X70275803Y-131201149D01*
X72145802Y-131564640D01*
X71782311Y-133434639D01*
X69912312Y-133071148D01*
X69912312Y-133071148D01*
G37*
D14*
X95119554Y-114739685D03*
D15*
X95044808Y-115020600D02*
X95194300Y-114458770D01*
D14*
X95194743Y-114458889D03*
X89259008Y-115148972D03*
D15*
X88476755Y-115740585D02*
X90041261Y-114557359D01*
D14*
X90041268Y-114557369D03*
D13*
X97365310Y-116184762D03*
X92857873Y-113169300D03*
D11*
X89516124Y-123705239D03*
X92009457Y-124189894D03*
D12*
G36*
X90892712Y-124943148D02*
G01*
X91256203Y-123073149D01*
X93126202Y-123436640D01*
X92762711Y-125306639D01*
X90892712Y-124943148D01*
X90892712Y-124943148D01*
G37*
D11*
X88199457Y-182203494D03*
D12*
G36*
X87082712Y-182956748D02*
G01*
X87446203Y-181086749D01*
X89316202Y-181450240D01*
X88952711Y-183320239D01*
X87082712Y-182956748D01*
X87082712Y-182956748D01*
G37*
D11*
X85706124Y-181718839D03*
D13*
X89047873Y-171182900D03*
X93555310Y-174198362D03*
D14*
X86231268Y-172570969D03*
X85449008Y-173162572D03*
D15*
X84666755Y-173754185D02*
X86231261Y-172570959D01*
D14*
X91384743Y-172472489D03*
X91309554Y-172753285D03*
D15*
X91234808Y-173034200D02*
X91384300Y-172472370D01*
D11*
X379698076Y-165615239D03*
D12*
G36*
X378944822Y-166731984D02*
G01*
X378581331Y-164861985D01*
X380451330Y-164498494D01*
X380814821Y-166368493D01*
X378944822Y-166731984D01*
X378944822Y-166731984D01*
G37*
D11*
X377204743Y-166099894D03*
D13*
X376356327Y-155079300D03*
X381665162Y-156186672D03*
D14*
X374264796Y-157421414D03*
X373761116Y-158262978D03*
D15*
X373257446Y-159104549D02*
X374264786Y-157421407D01*
D14*
X379006123Y-155399579D03*
X379041597Y-155688095D03*
D15*
X379077527Y-155976555D02*
X379005667Y-155399635D01*
D11*
X361003676Y-169272839D03*
D12*
G36*
X360250422Y-170389584D02*
G01*
X359886931Y-168519585D01*
X361756930Y-168156094D01*
X362120421Y-170026093D01*
X360250422Y-170389584D01*
X360250422Y-170389584D01*
G37*
D11*
X358510343Y-169757494D03*
D13*
X357661927Y-158736900D03*
X362970762Y-159844272D03*
D14*
X355570396Y-161079014D03*
X355066716Y-161920578D03*
D15*
X354563046Y-162762149D02*
X355570386Y-161079007D01*
D14*
X360311723Y-159057179D03*
X360347197Y-159345695D03*
D15*
X360383127Y-159634155D02*
X360311267Y-159057235D01*
D11*
X277582561Y-198923630D03*
D12*
G36*
X277488596Y-200267387D02*
G01*
X276238804Y-198829665D01*
X277676526Y-197579873D01*
X278926318Y-199017595D01*
X277488596Y-200267387D01*
X277488596Y-200267387D01*
G37*
D11*
X275665599Y-200590020D03*
D13*
X269420552Y-191470113D03*
X274571824Y-189774708D03*
D14*
X268780290Y-194544209D03*
X268764872Y-195524866D03*
D15*
X268749467Y-196505523D02*
X268780277Y-194544209D01*
D14*
X271875482Y-190422585D03*
X272050462Y-190654710D03*
D15*
X272225808Y-190886559D02*
X271875116Y-190422861D01*
D11*
X317874476Y-185325639D03*
D12*
G36*
X317121222Y-186442384D02*
G01*
X316757731Y-184572385D01*
X318627730Y-184208894D01*
X318991221Y-186078893D01*
X317121222Y-186442384D01*
X317121222Y-186442384D01*
G37*
D11*
X315381143Y-185810294D03*
D13*
X314532727Y-174789700D03*
X319841562Y-175897072D03*
D14*
X312441196Y-177131814D03*
X311937516Y-177973378D03*
D15*
X311433846Y-178814949D02*
X312441186Y-177131807D01*
D14*
X317182523Y-175109979D03*
X317217997Y-175398495D03*
D15*
X317253927Y-175686955D02*
X317182067Y-175110035D01*
D16*
X218859100Y-128435100D03*
D17*
X218859100Y-130975100D03*
X218859100Y-133515100D03*
X218859100Y-136055100D03*
X218859100Y-138595100D03*
X218859100Y-141135100D03*
X218859100Y-143675100D03*
X218859100Y-146215100D03*
X218859100Y-148755100D03*
X218859100Y-151295100D03*
X218859100Y-153835100D03*
X203619100Y-156375100D03*
X203619100Y-153835100D03*
X203619100Y-151295100D03*
X203619100Y-148755100D03*
X203619100Y-146215100D03*
X203619100Y-143675100D03*
X203619100Y-141135100D03*
X203619100Y-138595100D03*
X203619100Y-136055100D03*
X203619100Y-133515100D03*
X203619100Y-130975100D03*
X218859100Y-156375100D03*
X203619100Y-128435100D03*
D11*
X146558601Y-200640820D03*
D12*
G36*
X145214844Y-200734785D02*
G01*
X146464636Y-199297063D01*
X147902358Y-200546855D01*
X146652566Y-201984577D01*
X145214844Y-200734785D01*
X145214844Y-200734785D01*
G37*
D11*
X144641639Y-198974430D03*
D13*
X152803648Y-191520913D03*
X155199472Y-196386099D03*
D14*
X149670362Y-191314714D03*
X148697103Y-191435927D03*
D15*
X147723846Y-191557153D02*
X149670360Y-191314701D01*
D14*
X154182642Y-193806165D03*
X153977129Y-194011747D03*
D15*
X153771940Y-194217654D02*
X154182318Y-193805840D01*
D11*
X336619676Y-181718839D03*
D12*
G36*
X335866422Y-182835584D02*
G01*
X335502931Y-180965585D01*
X337372930Y-180602094D01*
X337736421Y-182472093D01*
X335866422Y-182835584D01*
X335866422Y-182835584D01*
G37*
D11*
X334126343Y-182203494D03*
D13*
X333277927Y-171182900D03*
X338586762Y-172290272D03*
D14*
X331186396Y-173525014D03*
X330682716Y-174366578D03*
D15*
X330179046Y-175208149D02*
X331186386Y-173525007D01*
D14*
X335927723Y-171503179D03*
X335963197Y-171791695D03*
D15*
X335999127Y-172080155D02*
X335927267Y-171503235D01*
D18*
X215049100Y-161074100D03*
X212509100Y-161074100D03*
X209969100Y-161074100D03*
X207429100Y-161074100D03*
D19*
X259118100Y-173734100D03*
X259118100Y-168734100D03*
D20*
X259118100Y-175134100D03*
D21*
X259118100Y-167334100D03*
D22*
X259118100Y-169834100D03*
X259118100Y-172634100D03*
D19*
X254546100Y-173734100D03*
X254546100Y-168734100D03*
D20*
X254546100Y-175134100D03*
D21*
X254546100Y-167334100D03*
D22*
X254546100Y-169834100D03*
X254546100Y-172634100D03*
D19*
X249974100Y-173734100D03*
X249974100Y-168734100D03*
D20*
X249974100Y-175134100D03*
D21*
X249974100Y-167334100D03*
D22*
X249974100Y-169834100D03*
X249974100Y-172634100D03*
D19*
X245402100Y-173734100D03*
X245402100Y-168734100D03*
D20*
X245402100Y-175134100D03*
D21*
X245402100Y-167334100D03*
D22*
X245402100Y-169834100D03*
X245402100Y-172634100D03*
D19*
X259118100Y-161034100D03*
X259118100Y-156034100D03*
D20*
X259118100Y-162434100D03*
D21*
X259118100Y-154634100D03*
D22*
X259118100Y-157134100D03*
X259118100Y-159934100D03*
D19*
X254546100Y-161034100D03*
X254546100Y-156034100D03*
D20*
X254546100Y-162434100D03*
D21*
X254546100Y-154634100D03*
D22*
X254546100Y-157134100D03*
X254546100Y-159934100D03*
D19*
X163106100Y-135634100D03*
X163106100Y-130634100D03*
D20*
X163106100Y-137034100D03*
D21*
X163106100Y-129234100D03*
D22*
X163106100Y-131734100D03*
X163106100Y-134534100D03*
D19*
X167678100Y-135634100D03*
X167678100Y-130634100D03*
D20*
X167678100Y-137034100D03*
D21*
X167678100Y-129234100D03*
D22*
X167678100Y-131734100D03*
X167678100Y-134534100D03*
D19*
X172250100Y-135634100D03*
X172250100Y-130634100D03*
D20*
X172250100Y-137034100D03*
D21*
X172250100Y-129234100D03*
D22*
X172250100Y-131734100D03*
X172250100Y-134534100D03*
D19*
X176822100Y-135634100D03*
X176822100Y-130634100D03*
D20*
X176822100Y-137034100D03*
D21*
X176822100Y-129234100D03*
D22*
X176822100Y-131734100D03*
X176822100Y-134534100D03*
X181394100Y-134534100D03*
X181394100Y-131734100D03*
D21*
X181394100Y-129234100D03*
D20*
X181394100Y-137034100D03*
D19*
X181394100Y-130634100D03*
X181394100Y-135634100D03*
D22*
X185966100Y-134534100D03*
X185966100Y-131734100D03*
D21*
X185966100Y-129234100D03*
D20*
X185966100Y-137034100D03*
D19*
X185966100Y-130634100D03*
X185966100Y-135634100D03*
D22*
X163106100Y-147234100D03*
X163106100Y-144434100D03*
D21*
X163106100Y-141934100D03*
D20*
X163106100Y-149734100D03*
D19*
X163106100Y-143334100D03*
X163106100Y-148334100D03*
D22*
X167678100Y-147234100D03*
X167678100Y-144434100D03*
D21*
X167678100Y-141934100D03*
D20*
X167678100Y-149734100D03*
D19*
X167678100Y-143334100D03*
X167678100Y-148334100D03*
D22*
X172250100Y-147237100D03*
X172250100Y-144437100D03*
D21*
X172250100Y-141937100D03*
D20*
X172250100Y-149737100D03*
D19*
X172250100Y-143337100D03*
X172250100Y-148337100D03*
D22*
X176822100Y-147234100D03*
X176822100Y-144434100D03*
D21*
X176822100Y-141934100D03*
D20*
X176822100Y-149734100D03*
D19*
X176822100Y-143334100D03*
X176822100Y-148334100D03*
D22*
X181394100Y-147234100D03*
X181394100Y-144434100D03*
D21*
X181394100Y-141934100D03*
D20*
X181394100Y-149734100D03*
D19*
X181394100Y-143334100D03*
X181394100Y-148334100D03*
X185966100Y-148334100D03*
X185966100Y-143334100D03*
D20*
X185966100Y-149734100D03*
D21*
X185966100Y-141934100D03*
D22*
X185966100Y-144434100D03*
X185966100Y-147234100D03*
X163106100Y-159934100D03*
X163106100Y-157134100D03*
D21*
X163106100Y-154634100D03*
D20*
X163106100Y-162434100D03*
D19*
X163106100Y-156034100D03*
X163106100Y-161034100D03*
D22*
X167678100Y-159934100D03*
X167678100Y-157134100D03*
D21*
X167678100Y-154634100D03*
D20*
X167678100Y-162434100D03*
D19*
X167678100Y-156034100D03*
X167678100Y-161034100D03*
X172250100Y-161034100D03*
X172250100Y-156034100D03*
D20*
X172250100Y-162434100D03*
D21*
X172250100Y-154634100D03*
D22*
X172250100Y-157134100D03*
X172250100Y-159934100D03*
D19*
X176822100Y-161034100D03*
X176822100Y-156034100D03*
D20*
X176822100Y-162434100D03*
D21*
X176822100Y-154634100D03*
D22*
X176822100Y-157134100D03*
X176822100Y-159934100D03*
X181394100Y-159934100D03*
X181394100Y-157134100D03*
D21*
X181394100Y-154634100D03*
D20*
X181394100Y-162434100D03*
D19*
X181394100Y-156034100D03*
X181394100Y-161034100D03*
D22*
X185966100Y-159934100D03*
X185966100Y-157134100D03*
D21*
X185966100Y-154634100D03*
D20*
X185966100Y-162434100D03*
D19*
X185966100Y-156034100D03*
X185966100Y-161034100D03*
D22*
X163106100Y-172634100D03*
X163106100Y-169834100D03*
D21*
X163106100Y-167334100D03*
D20*
X163106100Y-175134100D03*
D19*
X163106100Y-168734100D03*
X163106100Y-173734100D03*
D22*
X167678100Y-172634100D03*
X167678100Y-169834100D03*
D21*
X167678100Y-167334100D03*
D20*
X167678100Y-175134100D03*
D19*
X167678100Y-168734100D03*
X167678100Y-173734100D03*
X172250100Y-173734100D03*
X172250100Y-168734100D03*
D20*
X172250100Y-175134100D03*
D21*
X172250100Y-167334100D03*
D22*
X172250100Y-169834100D03*
X172250100Y-172634100D03*
D19*
X176822100Y-173734100D03*
X176822100Y-168734100D03*
D20*
X176822100Y-175134100D03*
D21*
X176822100Y-167334100D03*
D22*
X176822100Y-169834100D03*
X176822100Y-172634100D03*
D19*
X236258100Y-135634100D03*
X236258100Y-130634100D03*
D20*
X236258100Y-137034100D03*
D21*
X236258100Y-129234100D03*
D22*
X236258100Y-131734100D03*
X236258100Y-134534100D03*
X240830100Y-134534100D03*
X240830100Y-131734100D03*
D21*
X240830100Y-129234100D03*
D20*
X240830100Y-137034100D03*
D19*
X240830100Y-130634100D03*
X240830100Y-135634100D03*
D22*
X245402100Y-134534100D03*
X245402100Y-131734100D03*
D21*
X245402100Y-129234100D03*
D20*
X245402100Y-137034100D03*
D19*
X245402100Y-130634100D03*
X245402100Y-135634100D03*
X249974100Y-135634100D03*
X249974100Y-130634100D03*
D20*
X249974100Y-137034100D03*
D21*
X249974100Y-129234100D03*
D22*
X249974100Y-131734100D03*
X249974100Y-134534100D03*
X254546100Y-134534100D03*
X254546100Y-131734100D03*
D21*
X254546100Y-129234100D03*
D20*
X254546100Y-137034100D03*
D19*
X254546100Y-130634100D03*
X254546100Y-135634100D03*
D22*
X259118100Y-134534100D03*
X259118100Y-131734100D03*
D21*
X259118100Y-129234100D03*
D20*
X259118100Y-137034100D03*
D19*
X259118100Y-130634100D03*
X259118100Y-135634100D03*
X236258100Y-148334100D03*
X236258100Y-143334100D03*
D20*
X236258100Y-149734100D03*
D21*
X236258100Y-141934100D03*
D22*
X236258100Y-144434100D03*
X236258100Y-147234100D03*
D19*
X240830100Y-148331100D03*
X240830100Y-143331100D03*
D20*
X240830100Y-149731100D03*
D21*
X240830100Y-141931100D03*
D22*
X240830100Y-144431100D03*
X240830100Y-147231100D03*
D19*
X245402100Y-148334100D03*
X245402100Y-143334100D03*
D20*
X245402100Y-149734100D03*
D21*
X245402100Y-141934100D03*
D22*
X245402100Y-144434100D03*
X245402100Y-147234100D03*
D19*
X249974100Y-148334100D03*
X249974100Y-143334100D03*
D20*
X249974100Y-149734100D03*
D21*
X249974100Y-141934100D03*
D22*
X249974100Y-144434100D03*
X249974100Y-147234100D03*
X254546100Y-147234100D03*
X254546100Y-144434100D03*
D21*
X254546100Y-141934100D03*
D20*
X254546100Y-149734100D03*
D19*
X254546100Y-143334100D03*
X254546100Y-148334100D03*
D22*
X259118100Y-147234100D03*
X259118100Y-144434100D03*
D21*
X259118100Y-141934100D03*
D20*
X259118100Y-149734100D03*
D19*
X259118100Y-143334100D03*
X259118100Y-148334100D03*
X236258100Y-161034100D03*
X236258100Y-156034100D03*
D20*
X236258100Y-162434100D03*
D21*
X236258100Y-154634100D03*
D22*
X236258100Y-157134100D03*
X236258100Y-159934100D03*
D19*
X240830100Y-161031100D03*
X240830100Y-156031100D03*
D20*
X240830100Y-162431100D03*
D21*
X240830100Y-154631100D03*
D22*
X240830100Y-157131100D03*
X240830100Y-159931100D03*
D19*
X245402100Y-161031100D03*
X245402100Y-156031100D03*
D20*
X245402100Y-162431100D03*
D21*
X245402100Y-154631100D03*
D22*
X245402100Y-157131100D03*
X245402100Y-159931100D03*
D19*
X249974100Y-161034100D03*
X249974100Y-156034100D03*
D20*
X249974100Y-162434100D03*
D21*
X249974100Y-154634100D03*
D22*
X249974100Y-157134100D03*
X249974100Y-159934100D03*
D23*
X120774460Y-132930900D03*
X120774460Y-136131300D03*
X115775740Y-136131300D03*
X115775740Y-132930900D03*
X78437740Y-125310900D03*
X78437740Y-128511300D03*
X83436460Y-128511300D03*
X83436460Y-125310900D03*
X62100460Y-132930900D03*
X62100460Y-136131300D03*
X57101740Y-136131300D03*
X57101740Y-132930900D03*
X71706740Y-155028900D03*
X71706740Y-158229300D03*
X76705460Y-158229300D03*
X76705460Y-155028900D03*
X120317260Y-177507900D03*
X120317260Y-180708300D03*
X115318540Y-180708300D03*
X115318540Y-177507900D03*
X301957740Y-177507900D03*
X301957740Y-180708300D03*
X306956460Y-180708300D03*
X306956460Y-177507900D03*
X350644460Y-155028900D03*
X350644460Y-158229300D03*
X345645740Y-158229300D03*
X345645740Y-155028900D03*
X360199940Y-132930900D03*
X360199940Y-136131300D03*
X365198660Y-136131300D03*
X365198660Y-132930900D03*
X343786460Y-125310900D03*
X343786460Y-128511300D03*
X338787740Y-128511300D03*
X338787740Y-125310900D03*
X301449740Y-132930900D03*
X301449740Y-136131300D03*
X306448460Y-136131300D03*
X306448460Y-132930900D03*
D13*
X191606100Y-128054100D03*
X198106100Y-128054100D03*
D24*
X55791100Y-150025100D03*
X165646100Y-138341100D03*
X74587100Y-148501100D03*
X99987100Y-144945100D03*
X174282100Y-138595100D03*
X115481100Y-141770100D03*
X175044100Y-139319090D03*
X132372100Y-140627100D03*
X183461100Y-139773100D03*
X150406100Y-146723100D03*
X184188100Y-140500100D03*
X51473100Y-150787100D03*
X155740100Y-160820100D03*
X158534100Y-151422100D03*
X165900100Y-151041100D03*
X156375100Y-161709100D03*
X70015100Y-149771100D03*
X90843100Y-151168100D03*
X157137100Y-162471100D03*
X159280431Y-152293069D03*
X174155100Y-151168100D03*
X112306100Y-151676100D03*
X157766914Y-163353877D03*
X159936375Y-153047881D03*
X174917100Y-151930100D03*
X128181100Y-159169100D03*
X158407100Y-164122100D03*
X160560914Y-153828877D03*
X183426100Y-152438100D03*
X147358100Y-165011100D03*
X159042100Y-165011100D03*
X161201100Y-154597100D03*
X184188100Y-153200100D03*
X187998100Y-149136100D03*
X187998100Y-161074100D03*
X137432049Y-195688386D03*
X79032100Y-173520100D03*
X79032100Y-179489100D03*
X144183100Y-186982100D03*
X159423100Y-187109100D03*
X52050667Y-167735533D03*
X70650100Y-168729100D03*
X160312100Y-187871100D03*
X88430100Y-167297100D03*
X169564110Y-186855100D03*
X170345100Y-187617100D03*
X112278648Y-171642552D03*
X183426100Y-185331100D03*
X125098100Y-177286986D03*
X184188100Y-186093100D03*
X143386100Y-185074089D03*
X189014100Y-173774100D03*
X189023413Y-149145987D03*
X138468100Y-195745100D03*
X165138100Y-188379100D03*
X144557877Y-188500914D03*
X95040167Y-187611033D03*
X139484100Y-195745100D03*
X165900100Y-189141100D03*
X145326100Y-189141100D03*
X113576100Y-192278090D03*
X142423780Y-202581380D03*
X174028100Y-201333100D03*
X158153100Y-202095100D03*
X174917100Y-201968100D03*
X199936100Y-173520100D03*
X233083100Y-173266100D03*
X279438100Y-143802100D03*
X238417100Y-140500100D03*
X294170100Y-138214100D03*
X239144100Y-139719230D03*
X298615100Y-128562100D03*
X296075100Y-137452100D03*
X315252100Y-122593100D03*
X247942100Y-139319090D03*
X299250100Y-129451100D03*
X297218100Y-137452100D03*
X332651100Y-121323100D03*
X248704100Y-138595100D03*
X299885100Y-130340100D03*
X353098100Y-116878100D03*
X298361100Y-137452100D03*
X256959100Y-138411070D03*
X300520100Y-131229100D03*
X299504100Y-137452100D03*
X233972100Y-173901100D03*
X200606100Y-174390230D03*
X283121100Y-162344100D03*
X262239200Y-166589000D03*
X261277100Y-154597100D03*
X238417100Y-153200100D03*
X301409100Y-156248100D03*
X263055100Y-165773100D03*
X262039100Y-153835100D03*
X239179100Y-152438100D03*
X318554100Y-146088100D03*
X263817100Y-165011100D03*
X262801100Y-153073100D03*
X247561100Y-151930100D03*
X338493100Y-148501100D03*
X264579100Y-164249100D03*
X263563100Y-152311100D03*
X248450100Y-151295100D03*
X265341100Y-163487100D03*
X264325100Y-151549100D03*
X256959100Y-151041100D03*
X266103100Y-162725100D03*
X201333100Y-175171100D03*
X236258100Y-174407100D03*
X238420111Y-186725089D03*
X286931100Y-185712100D03*
X308775100Y-175933100D03*
X239179100Y-185966100D03*
X322872100Y-170091100D03*
X252133100Y-185458100D03*
X341483667Y-169640533D03*
X253022100Y-184823100D03*
X261277100Y-185544079D03*
X363254692Y-171726307D03*
X223939100Y-184315100D03*
X110147100Y-168694100D03*
X119037100Y-132880100D03*
X212480599Y-185175599D03*
X340779100Y-125387100D03*
X358178100Y-132880100D03*
X356019100Y-137198100D03*
X347383100Y-140881100D03*
X347383100Y-161074100D03*
X347383100Y-154978100D03*
X298361100Y-174917100D03*
X300393100Y-177457100D03*
X73444100Y-163995100D03*
X73444100Y-154978100D03*
X117132100Y-173520100D03*
X117132100Y-176568100D03*
X79540100Y-134658100D03*
X80048100Y-125260100D03*
X58712100Y-154851100D03*
X58712100Y-132880100D03*
X218224100Y-199682100D03*
X306489100Y-137579100D03*
X306489100Y-145707100D03*
X347383100Y-139738100D03*
X343827100Y-130213100D03*
X367068100Y-136182100D03*
X365163100Y-150406100D03*
X305346100Y-173266100D03*
X305346100Y-191427100D03*
X305346100Y-180632100D03*
X76746100Y-163449090D03*
X117259100Y-172377100D03*
X82080100Y-146850100D03*
X117767100Y-189141100D03*
X118529100Y-180759100D03*
X76746100Y-159804100D03*
X80429100Y-135293100D03*
X81826100Y-128562100D03*
X59728100Y-156502100D03*
X59601100Y-136182100D03*
X266357100Y-205143100D03*
X94780100Y-189268100D03*
X91224100Y-176187100D03*
X223177100Y-205143100D03*
X294874667Y-200663100D03*
X109893100Y-192732100D03*
X109639100Y-179362100D03*
X222288100Y-204254100D03*
X134150100Y-189014100D03*
X313093100Y-194094100D03*
X85438385Y-153129385D03*
X87668100Y-168729100D03*
X221526100Y-203492100D03*
X136015103Y-198501090D03*
X116624100Y-182537100D03*
X111290100Y-172758100D03*
X331508100Y-188379100D03*
X142786100Y-197650100D03*
X220764100Y-202730100D03*
X156756100Y-203492100D03*
X117008421Y-192281397D03*
X355638100Y-175044100D03*
X137084234Y-198525966D03*
X124879100Y-180505100D03*
X220002100Y-201841100D03*
X135674100Y-185077100D03*
X374307100Y-170345100D03*
X138214100Y-198539100D03*
X219240100Y-200952100D03*
X57950100Y-155613100D03*
X57061100Y-137706100D03*
X71666100Y-164757100D03*
X71666100Y-159804100D03*
X123482100Y-175552100D03*
X122085100Y-177838100D03*
X308648100Y-177584100D03*
X307477832Y-191907832D03*
X115354100Y-190157100D03*
X115354100Y-182537100D03*
X348907100Y-162090100D03*
X348907100Y-154978100D03*
X304076100Y-173647100D03*
X304076100Y-179870100D03*
X365163100Y-134531100D03*
X364020100Y-150406100D03*
X342176100Y-134277100D03*
X342176100Y-126403100D03*
X304838100Y-138976100D03*
X304838100Y-132880100D03*
X262058120Y-187452090D03*
X277914100Y-186474100D03*
X288582100Y-197015100D03*
X382181100Y-168821100D03*
X203619100Y-175171100D03*
X270929100Y-204632060D03*
X247561100Y-202095100D03*
X301138432Y-195347432D03*
X248450100Y-201460100D03*
X320205100Y-189268100D03*
X287058100Y-198555080D03*
X276136100Y-187744100D03*
X256578100Y-188633100D03*
X338493100Y-184315100D03*
X287820100Y-197777100D03*
X277025100Y-187109100D03*
X257340100Y-187871100D03*
D25*
X65793156Y-148590089D02*
X70552118Y-148590089D01*
X116190194Y-140119100D02*
X116479164Y-140408070D01*
X131183259Y-136436100D02*
X131396679Y-136649520D01*
X147421337Y-141678070D02*
X149888324Y-144145057D01*
X89629271Y-147393070D02*
X89895224Y-147659023D01*
X56099090Y-150333090D02*
X61699043Y-150333090D01*
X65631157Y-148428090D02*
X65793156Y-148590089D01*
X63604043Y-148428090D02*
X65631157Y-148428090D01*
X134461131Y-140147867D02*
X135991334Y-141678070D01*
X70552118Y-148590089D02*
X70825108Y-148863080D01*
X70825108Y-148863080D02*
X73082120Y-148863080D01*
X55791100Y-150025100D02*
X56099090Y-150333090D01*
X73082120Y-148863080D02*
X74171101Y-147774099D01*
X89895224Y-147659026D02*
X91315269Y-149079071D01*
X74171101Y-147774099D02*
X74936061Y-147774099D01*
X159058050Y-140575815D02*
X161419765Y-138214100D01*
X75571032Y-148409070D02*
X81769931Y-148409070D01*
X81769931Y-148409070D02*
X82785929Y-147393070D01*
X91315269Y-149079071D02*
X91756234Y-149079071D01*
X89895224Y-147659023D02*
X89895224Y-147659026D01*
X95424876Y-149352060D02*
X98771090Y-146005846D01*
X74936061Y-147774099D02*
X75571032Y-148409070D01*
X149888324Y-144145060D02*
X158790810Y-144145060D01*
X91756234Y-149079071D02*
X92029220Y-149352060D01*
X98771090Y-144443081D02*
X99450082Y-143764089D01*
X82785929Y-147393070D02*
X89629271Y-147393070D01*
X92029220Y-149352060D02*
X95424876Y-149352060D01*
X61699043Y-150333090D02*
X63604043Y-148428090D01*
X98771090Y-146005846D02*
X98771090Y-144443081D01*
X123079900Y-136436100D02*
X131183259Y-136436100D01*
X158790810Y-144145060D02*
X159058050Y-143877820D01*
X99450082Y-143764089D02*
X100524118Y-143764089D01*
X161419765Y-138214100D02*
X161419765Y-133620435D01*
X100524118Y-143764089D02*
X100778089Y-144018060D01*
X100778089Y-144018060D02*
X110873046Y-144018060D01*
X110873046Y-144018060D02*
X114772006Y-140119100D01*
X161419765Y-133620435D02*
X163106100Y-131934100D01*
X114772006Y-140119100D02*
X116190194Y-140119100D01*
X116479164Y-140408070D02*
X119107932Y-140408070D01*
X119107932Y-140408070D02*
X123079900Y-136436100D01*
X135991334Y-141678070D02*
X147421337Y-141678070D01*
X131396679Y-136649520D02*
X134461131Y-139713968D01*
X134461131Y-139713968D02*
X134461131Y-140147867D01*
X159058050Y-143877820D02*
X159058050Y-140575815D01*
X149888324Y-144145057D02*
X149888324Y-144145060D01*
X163106100Y-131934100D02*
X163106100Y-131734100D01*
X55370008Y-119541800D02*
X56526348Y-119541800D01*
X56526348Y-119541800D02*
X57690510Y-120705962D01*
X203619100Y-138595100D02*
X191173100Y-138595100D01*
X191173100Y-138595100D02*
X188212100Y-135634100D01*
X188212100Y-135634100D02*
X185966100Y-135634100D01*
X181394100Y-135634100D02*
X181898100Y-135634100D01*
X181898100Y-135634100D02*
X185966100Y-135634100D01*
X176822100Y-135634100D02*
X181048100Y-135634100D01*
X181048100Y-135634100D02*
X181394100Y-135634100D01*
X172250100Y-135634100D02*
X176822100Y-135634100D01*
X167678100Y-135634100D02*
X168182100Y-135634100D01*
X168182100Y-135634100D02*
X172250100Y-135634100D01*
X163106100Y-135634100D02*
X167678100Y-135634100D01*
X89441214Y-147847080D02*
X91127211Y-149533079D01*
X91568175Y-149533079D02*
X91841164Y-149806070D01*
X134007121Y-140335923D02*
X135803278Y-142132080D01*
X81957987Y-148863080D02*
X82973986Y-147847080D01*
X158978866Y-144599070D02*
X159512060Y-144065876D01*
X123609101Y-136925082D02*
X131030175Y-136925082D01*
X82973986Y-147847080D02*
X89441214Y-147847080D01*
X99225100Y-144631138D02*
X99638139Y-144218099D01*
X135803278Y-142132080D02*
X147233280Y-142132080D01*
X147233280Y-142132080D02*
X149700268Y-144599070D01*
X91841164Y-149806070D02*
X95612932Y-149806070D01*
X91127211Y-149533079D02*
X91568175Y-149533079D01*
X74949080Y-148863080D02*
X81957987Y-148863080D01*
X99225100Y-146193902D02*
X99225100Y-144631138D01*
X95612932Y-149806070D02*
X99225100Y-146193902D01*
X74587100Y-148501100D02*
X74949080Y-148863080D01*
X100336061Y-144218099D02*
X100590032Y-144472070D01*
X123609099Y-136925080D02*
X123609101Y-136925082D01*
X116018118Y-140589090D02*
X116291108Y-140862080D01*
X100590032Y-144472070D02*
X111061102Y-144472070D01*
X114944082Y-140589090D02*
X116018118Y-140589090D01*
X161591872Y-138684060D02*
X165303140Y-138684060D01*
X116291108Y-140862080D02*
X119295988Y-140862080D01*
X99638139Y-144218099D02*
X100336061Y-144218099D01*
X119295988Y-140862080D02*
X123232985Y-136925082D01*
X123232985Y-136925082D02*
X123609099Y-136925080D01*
X111061102Y-144472070D02*
X114944082Y-140589090D01*
X131030175Y-136925082D02*
X134007121Y-139902025D01*
X134007121Y-139902025D02*
X134007121Y-140335923D01*
X149700268Y-144599070D02*
X158978866Y-144599070D01*
X159512060Y-144065876D02*
X159512060Y-140763872D01*
X159512060Y-140763872D02*
X161591872Y-138684060D01*
X165303140Y-138684060D02*
X165646100Y-138341100D01*
X165646100Y-138341100D02*
X165519100Y-138341100D01*
X74064408Y-123148600D02*
X75220748Y-123148600D01*
X75220748Y-123148600D02*
X76384910Y-124312762D01*
X99987100Y-144945100D02*
X100006120Y-144926080D01*
X147045223Y-142586090D02*
X149512212Y-145053080D01*
X119484044Y-141316090D02*
X123421043Y-137379090D01*
X135615222Y-142586090D02*
X147045223Y-142586090D01*
X133553111Y-140090082D02*
X133553111Y-140523979D01*
X115132139Y-141043099D02*
X115830061Y-141043099D01*
X111249158Y-144926080D02*
X115132139Y-141043099D01*
X115830061Y-141043099D02*
X116103052Y-141316090D01*
X100006120Y-144926080D02*
X111249158Y-144926080D01*
X116103052Y-141316090D02*
X119484044Y-141316090D01*
X133553111Y-140523979D02*
X135615222Y-142586090D01*
X123421043Y-137379090D02*
X130842119Y-137379091D01*
X130842119Y-137379091D02*
X133553111Y-140090082D01*
X159966070Y-140951929D02*
X161779929Y-139138070D01*
X149512212Y-145053080D02*
X159166922Y-145053080D01*
X159166922Y-145053080D02*
X159966070Y-144253932D01*
X159966070Y-144253932D02*
X159966070Y-140951929D01*
X161779929Y-139138070D02*
X173739130Y-139138070D01*
X173739130Y-139138070D02*
X173882101Y-138995099D01*
X173882101Y-138995099D02*
X174282100Y-138595100D01*
X95044808Y-115020600D02*
X96201148Y-115020600D01*
X96201148Y-115020600D02*
X97365310Y-116184762D01*
X115481100Y-141770100D02*
X119672100Y-141770100D01*
X123609100Y-137833100D02*
X130654062Y-137833100D01*
X149324156Y-145507090D02*
X159354978Y-145507090D01*
X133099101Y-140278139D02*
X133099101Y-140712035D01*
X161967986Y-139592080D02*
X174682120Y-139592080D01*
X146857166Y-143040100D02*
X149324156Y-145507090D01*
X133099101Y-140712035D02*
X135427166Y-143040100D01*
X119672100Y-141770100D02*
X123609100Y-137833100D01*
X159354978Y-145507090D02*
X160420080Y-144441988D01*
X135427166Y-143040100D02*
X146857166Y-143040100D01*
X130654062Y-137833100D02*
X133099101Y-140278139D01*
X160420080Y-144441988D02*
X160420080Y-141139986D01*
X160420080Y-141139986D02*
X161455100Y-140104968D01*
X161455100Y-140104968D02*
X161967986Y-139592080D01*
X174682120Y-139592080D02*
X174955110Y-139319090D01*
X174955110Y-139319090D02*
X175044100Y-139319090D01*
X114907608Y-112785400D02*
X116063948Y-112785400D01*
X116063948Y-112785400D02*
X117228110Y-113949562D01*
X162156043Y-140046090D02*
X161890090Y-140312044D01*
X151028052Y-146269090D02*
X150720062Y-145961100D01*
X149136100Y-145961100D02*
X146723100Y-143548100D01*
X183461100Y-139773100D02*
X183188110Y-140046090D01*
X160874090Y-141328043D02*
X160874090Y-144630044D01*
X161890090Y-140312044D02*
X160874090Y-141328043D01*
X135293100Y-143548100D02*
X132372100Y-140627100D01*
X159235044Y-146269090D02*
X151028052Y-146269090D01*
X150720062Y-145961100D02*
X149136100Y-145961100D01*
X183188110Y-140046090D02*
X162156043Y-140046090D01*
X160874090Y-144630044D02*
X159235044Y-146269090D01*
X146723100Y-143548100D02*
X135293100Y-143548100D01*
X132382808Y-122793000D02*
X133539148Y-122793000D01*
X133539148Y-122793000D02*
X134703310Y-123957162D01*
X184188100Y-140500100D02*
X162344100Y-140500100D01*
X161328100Y-141516100D02*
X161328100Y-144818100D01*
X161328100Y-144818100D02*
X159423100Y-146723100D01*
X162344100Y-140500100D02*
X161328100Y-141516100D01*
X159423100Y-146723100D02*
X158153100Y-146723100D01*
X158153100Y-146723100D02*
X150406100Y-146723100D01*
X150573353Y-128858115D02*
X151729693Y-128858115D01*
X151729693Y-128858115D02*
X152893855Y-130022277D01*
X203619100Y-141135100D02*
X195364100Y-141135100D01*
X195364100Y-141135100D02*
X188165100Y-148334100D01*
X188165100Y-148334100D02*
X185966100Y-148334100D01*
X181394100Y-148334100D02*
X181898100Y-148334100D01*
X181898100Y-148334100D02*
X185966100Y-148334100D01*
X176822100Y-148334100D02*
X177326100Y-148334100D01*
X177326100Y-148334100D02*
X181394100Y-148334100D01*
X172250100Y-148337100D02*
X176819100Y-148337100D01*
X176819100Y-148337100D02*
X176822100Y-148334100D01*
X167678100Y-148334100D02*
X171901100Y-148334100D01*
X171901100Y-148334100D02*
X171904100Y-148337100D01*
X171904100Y-148337100D02*
X172250100Y-148337100D01*
X163106100Y-148334100D02*
X166778100Y-148334100D01*
X166778100Y-148334100D02*
X167678100Y-148334100D01*
X155740100Y-160820100D02*
X153819150Y-162741050D01*
X65605099Y-149044099D02*
X65443100Y-148882100D01*
X117816202Y-154759070D02*
X108437223Y-145380090D01*
X89253157Y-148301090D02*
X83162043Y-148301090D01*
X148505126Y-162468059D02*
X146540755Y-162468059D01*
X125697271Y-154759070D02*
X117816202Y-154759070D01*
X153819150Y-162741050D02*
X148778116Y-162741050D01*
X129024261Y-157010100D02*
X127948299Y-157010100D01*
X148778116Y-162741050D02*
X148505126Y-162468059D01*
X108437223Y-145380090D02*
X100680977Y-145380090D01*
X70637052Y-149317090D02*
X70364061Y-149044099D01*
X130305130Y-158724866D02*
X130305130Y-158290967D01*
X65443100Y-148882100D02*
X63792100Y-148882100D01*
X83162043Y-148301090D02*
X82146043Y-149317090D01*
X127948299Y-157010100D02*
X125697271Y-154759070D01*
X132235324Y-160655060D02*
X130305130Y-158724866D01*
X146540755Y-162468059D02*
X144727757Y-160655060D01*
X82146043Y-149317090D02*
X70637052Y-149317090D01*
X144727757Y-160655060D02*
X132235324Y-160655060D01*
X130305130Y-158290967D02*
X129024261Y-157010100D01*
X100680977Y-145380090D02*
X95800988Y-150260080D01*
X95800988Y-150260080D02*
X91653108Y-150260080D01*
X61887100Y-150787100D02*
X57569100Y-150787100D01*
X90939155Y-149987089D02*
X89253157Y-148301090D01*
X91653108Y-150260080D02*
X91380118Y-149987089D01*
X91380118Y-149987089D02*
X90939155Y-149987089D01*
X70364061Y-149044099D02*
X65605099Y-149044099D01*
X63792100Y-148882100D02*
X61887100Y-150787100D01*
X57569100Y-150787100D02*
X51473100Y-150787100D01*
X51716553Y-138256115D02*
X52872893Y-138256115D01*
X52872893Y-138256115D02*
X54037055Y-139420277D01*
X165430140Y-151384060D02*
X158572140Y-151384060D01*
X158572140Y-151384060D02*
X158534100Y-151422100D01*
X165900100Y-151041100D02*
X165773100Y-151041100D01*
X165773100Y-151041100D02*
X165430140Y-151384060D01*
X148590060Y-163195060D02*
X154889140Y-163195060D01*
X154889140Y-163195060D02*
X156375100Y-161709100D01*
X144539700Y-161109070D02*
X146352699Y-162922069D01*
X146352699Y-162922069D02*
X148317069Y-162922069D01*
X148317069Y-162922069D02*
X148590060Y-163195060D01*
X132047268Y-161109070D02*
X144539700Y-161109070D01*
X129851120Y-158912922D02*
X132047268Y-161109070D01*
X129137129Y-157765034D02*
X129851120Y-158479024D01*
X129851120Y-158479024D02*
X129851120Y-158912922D01*
X127795213Y-157499080D02*
X128871176Y-157499080D01*
X128871176Y-157499080D02*
X129137129Y-157765034D01*
X125775167Y-155479034D02*
X127795213Y-157499080D01*
X117628146Y-155213080D02*
X125509214Y-155213080D01*
X125509214Y-155213080D02*
X125775167Y-155479034D01*
X111357133Y-148942067D02*
X117628146Y-155213080D01*
X110154166Y-147739100D02*
X111357133Y-148942067D01*
X100869034Y-145834100D02*
X108249166Y-145834100D01*
X108249166Y-145834100D02*
X110154166Y-147739100D01*
X95989044Y-150714090D02*
X100869034Y-145834100D01*
X91465052Y-150714090D02*
X95989044Y-150714090D01*
X91192061Y-150441099D02*
X91465052Y-150714090D01*
X83350100Y-148755100D02*
X89065100Y-148755100D01*
X89065100Y-148755100D02*
X90751099Y-150441099D01*
X90751099Y-150441099D02*
X91192061Y-150441099D01*
X82334100Y-149771100D02*
X83350100Y-148755100D01*
X70015100Y-149771100D02*
X82334100Y-149771100D01*
X70457608Y-141893800D02*
X71613948Y-141893800D01*
X71613948Y-141893800D02*
X72778110Y-143057962D01*
X96177100Y-151168100D02*
X101003100Y-146342100D01*
X131859212Y-161563080D02*
X144305214Y-161563080D01*
X108115100Y-146342100D02*
X117440090Y-155667090D01*
X127607156Y-157953090D02*
X128683119Y-157953090D01*
X148356164Y-163649070D02*
X155959130Y-163649070D01*
X117440090Y-155667090D02*
X125321157Y-155667090D01*
X101003100Y-146342100D02*
X108115100Y-146342100D01*
X90843100Y-151168100D02*
X96177100Y-151168100D01*
X128683119Y-157953090D02*
X129397110Y-158667081D01*
X125321157Y-155667090D02*
X127607156Y-157953090D01*
X129397110Y-159100978D02*
X131859212Y-161563080D01*
X129397110Y-158667081D02*
X129397110Y-159100978D01*
X148083175Y-163376079D02*
X148356164Y-163649070D01*
X144305214Y-161563080D02*
X146118211Y-163376079D01*
X146118211Y-163376079D02*
X148083175Y-163376079D01*
X155959130Y-163649070D02*
X157137100Y-162471100D01*
X160820100Y-151838070D02*
X159735430Y-151838070D01*
X159735430Y-151838070D02*
X159280431Y-152293069D01*
X173485130Y-151838070D02*
X160820100Y-151838070D01*
X173755101Y-151568099D02*
X173485130Y-151838070D01*
X174155100Y-151168100D02*
X173755101Y-151568099D01*
X91438008Y-133715000D02*
X92594348Y-133715000D01*
X92594348Y-133715000D02*
X93758510Y-134879162D01*
X116986080Y-155855146D02*
X112807034Y-151676100D01*
X112807034Y-151676100D02*
X112306100Y-151676100D01*
X125133100Y-156121100D02*
X117252033Y-156121100D01*
X117252033Y-156121100D02*
X116986080Y-155855146D01*
X111250008Y-131479800D02*
X112406348Y-131479800D01*
X112406348Y-131479800D02*
X113570510Y-132643962D01*
X127419100Y-158407100D02*
X125133100Y-156121100D01*
X128495062Y-158407100D02*
X127419100Y-158407100D01*
X128943100Y-159289034D02*
X128943100Y-158855138D01*
X128943100Y-158855138D02*
X128495062Y-158407100D01*
X131671156Y-162017090D02*
X128943100Y-159289034D01*
X132499100Y-162017090D02*
X131671156Y-162017090D01*
X144117157Y-162017090D02*
X132499100Y-162017090D01*
X145930155Y-163830089D02*
X144117157Y-162017090D01*
X147895118Y-163830089D02*
X145930155Y-163830089D01*
X157029120Y-164103080D02*
X148168108Y-164103080D01*
X148168108Y-164103080D02*
X147895118Y-163830089D01*
X157366915Y-163765285D02*
X157029120Y-164103080D01*
X157766914Y-163353877D02*
X157366915Y-163753876D01*
X157366915Y-163753876D02*
X157366915Y-163765285D01*
X174428120Y-152292080D02*
X160692176Y-152292080D01*
X160692176Y-152292080D02*
X159936375Y-153047881D01*
X174917100Y-151930100D02*
X174790100Y-151930100D01*
X174790100Y-151930100D02*
X174428120Y-152292080D01*
X128725208Y-141487400D02*
X129881548Y-141487400D01*
X129881548Y-141487400D02*
X131045710Y-142651562D01*
X143929100Y-162471100D02*
X131483100Y-162471100D01*
X131483100Y-162471100D02*
X128181100Y-159169100D01*
X145742099Y-164284099D02*
X143929100Y-162471100D01*
X147980052Y-164557090D02*
X147707061Y-164284099D01*
X147707061Y-164284099D02*
X145742099Y-164284099D01*
X148555090Y-164557090D02*
X147980052Y-164557090D01*
X157845110Y-164557090D02*
X148555090Y-164557090D01*
X158407100Y-164122100D02*
X158007101Y-164522099D01*
X157880101Y-164522099D02*
X157845110Y-164557090D01*
X158007101Y-164522099D02*
X157880101Y-164522099D01*
X183118110Y-152746090D02*
X161643701Y-152746090D01*
X161643701Y-152746090D02*
X160560914Y-153828877D01*
X183426100Y-152438100D02*
X183118110Y-152746090D01*
X146962408Y-147583400D02*
X148118748Y-147583400D01*
X148118748Y-147583400D02*
X149282910Y-148747562D01*
X159042100Y-165011100D02*
X147358100Y-165011100D01*
X184188100Y-153200100D02*
X162598100Y-153200100D01*
X162598100Y-153200100D02*
X161201100Y-154597100D01*
X188525099Y-148616167D02*
X188353157Y-148788109D01*
X188353157Y-148788109D02*
X188346091Y-148788109D01*
X188346091Y-148788109D02*
X187998100Y-149136100D01*
X188525099Y-148616167D02*
X193466166Y-143675100D01*
X193466166Y-143675100D02*
X203619100Y-143675100D01*
X185966100Y-161034100D02*
X187958100Y-161034100D01*
X187958100Y-161034100D02*
X187998100Y-161074100D01*
X185966100Y-159734100D02*
X185966100Y-159934100D01*
X181394100Y-161034100D02*
X185620100Y-161034100D01*
X185620100Y-161034100D02*
X185966100Y-161034100D01*
X176822100Y-161034100D02*
X181394100Y-161034100D01*
X172250100Y-161034100D02*
X172754100Y-161034100D01*
X172754100Y-161034100D02*
X176822100Y-161034100D01*
X167678100Y-161034100D02*
X168182100Y-161034100D01*
X168182100Y-161034100D02*
X172250100Y-161034100D01*
X163106100Y-161034100D02*
X166778100Y-161034100D01*
X166778100Y-161034100D02*
X167678100Y-161034100D01*
X96865176Y-188360080D02*
X104554214Y-188360080D01*
X115832643Y-191097079D02*
X116283346Y-190646376D01*
X104554214Y-188360080D02*
X107745221Y-191551089D01*
X137105355Y-196015080D02*
X137432049Y-195688386D01*
X107745221Y-191551089D02*
X112585072Y-191551089D01*
X118643442Y-192141110D02*
X123914382Y-197412050D01*
X86398100Y-186855100D02*
X95360196Y-186855100D01*
X112585072Y-191551089D02*
X113039082Y-191097079D01*
X113039082Y-191097079D02*
X115832643Y-191097079D01*
X117755443Y-190646376D02*
X118643442Y-191534375D01*
X79032100Y-179489100D02*
X86398100Y-186855100D01*
X116283346Y-190646376D02*
X117755443Y-190646376D01*
X95360196Y-186855100D02*
X96865176Y-188360080D01*
X118643442Y-191534375D02*
X118643442Y-192141110D01*
X123914382Y-197412050D02*
X134101982Y-197412050D01*
X134101982Y-197412050D02*
X135498952Y-196015080D01*
X135498952Y-196015080D02*
X137105355Y-196015080D01*
X79032100Y-173520100D02*
X79032100Y-173647100D01*
X59789156Y-171669090D02*
X57757157Y-169637090D01*
X52108100Y-168179034D02*
X52108100Y-167792966D01*
X66393157Y-171669090D02*
X59789156Y-171669090D01*
X79032100Y-173647100D02*
X78851110Y-173828090D01*
X78851110Y-173828090D02*
X68552156Y-173828090D01*
X68552156Y-173828090D02*
X66393157Y-171669090D01*
X57757157Y-169637090D02*
X53566156Y-169637090D01*
X53566156Y-169637090D02*
X52108100Y-168179034D01*
X52108100Y-167792966D02*
X52050667Y-167735533D01*
X145932036Y-187319903D02*
X144520903Y-187319903D01*
X144520903Y-187319903D02*
X144183100Y-186982100D01*
X154404157Y-187779070D02*
X146391202Y-187779070D01*
X146391202Y-187779070D02*
X145932036Y-187319903D01*
X158753130Y-187779070D02*
X154404157Y-187779070D01*
X159423100Y-187109100D02*
X158753130Y-187779070D01*
X48105608Y-156930600D02*
X49261948Y-156930600D01*
X49261948Y-156930600D02*
X50426110Y-158094762D01*
X86319148Y-169002090D02*
X70923090Y-169002090D01*
X70923090Y-169002090D02*
X70650100Y-168729100D01*
X88148852Y-168002099D02*
X87319139Y-168002099D01*
X87319139Y-168002099D02*
X86319148Y-169002090D01*
X89700100Y-168548080D02*
X88694831Y-168548080D01*
X88694831Y-168548080D02*
X88148852Y-168002099D01*
X91854214Y-168548080D02*
X89700100Y-168548080D01*
X95610222Y-172304090D02*
X91854214Y-168548080D01*
X110668148Y-172304090D02*
X95610222Y-172304090D01*
X111639061Y-172031099D02*
X110941139Y-172031099D01*
X110941139Y-172031099D02*
X110668148Y-172304090D01*
X121256062Y-175806100D02*
X115414062Y-175806100D01*
X115414062Y-175806100D02*
X111639061Y-172031099D01*
X125501052Y-180051090D02*
X121256062Y-175806100D01*
X127422471Y-180051090D02*
X125501052Y-180051090D01*
X130528157Y-180051090D02*
X127422471Y-180051090D01*
X134827165Y-184350099D02*
X130528157Y-180051090D01*
X136023061Y-184350099D02*
X134827165Y-184350099D01*
X144153287Y-187773913D02*
X139446875Y-187773913D01*
X139446875Y-187773913D02*
X136023061Y-184350099D01*
X154216100Y-188233080D02*
X146203146Y-188233080D01*
X146203146Y-188233080D02*
X145743979Y-187773913D01*
X145743979Y-187773913D02*
X144153287Y-187773913D01*
X160204120Y-188233080D02*
X154216100Y-188233080D01*
X160312100Y-187871100D02*
X160312100Y-188125100D01*
X160312100Y-188125100D02*
X160204120Y-188233080D01*
X66800008Y-160588200D02*
X67956348Y-160588200D01*
X67956348Y-160588200D02*
X69120510Y-161752362D01*
X89227070Y-168094070D02*
X92042271Y-168094070D01*
X121632176Y-174898080D02*
X125877164Y-179143070D01*
X92042271Y-168094070D02*
X92308224Y-168360024D01*
X130904271Y-179143070D02*
X131170224Y-179409023D01*
X110480092Y-171850080D02*
X111414621Y-170915551D01*
X111414621Y-170915551D02*
X112627609Y-170915551D01*
X92308224Y-168360024D02*
X95798280Y-171850080D01*
X112627609Y-170915551D02*
X113322100Y-171610042D01*
X115790174Y-174898080D02*
X121632176Y-174898080D01*
X169256120Y-187163090D02*
X169564110Y-186855100D01*
X131170224Y-179409023D02*
X131170224Y-179409026D01*
X88430100Y-167297100D02*
X89227070Y-168094070D01*
X157943122Y-186871050D02*
X158886082Y-185928090D01*
X125877164Y-179143070D02*
X130904271Y-179143070D01*
X131170224Y-179409026D02*
X135187298Y-183426100D01*
X145330911Y-186411883D02*
X146308152Y-186411883D01*
X135187298Y-183426100D02*
X136383194Y-183426100D01*
X113322100Y-172430006D02*
X115790174Y-174898080D01*
X136383194Y-183426100D02*
X138758183Y-185801089D01*
X138758183Y-185801089D02*
X144720118Y-185801089D01*
X144720118Y-185801089D02*
X145330911Y-186411883D01*
X146308152Y-186411883D02*
X146767318Y-186871050D01*
X146767318Y-186871050D02*
X157943122Y-186871050D01*
X95798280Y-171850080D02*
X110480092Y-171850080D01*
X113322100Y-171610042D02*
X113322100Y-172430006D01*
X158886082Y-185928090D02*
X160087118Y-185928090D01*
X160087118Y-185928090D02*
X161938098Y-187779070D01*
X161938098Y-187779070D02*
X164020101Y-187779070D01*
X164020101Y-187779070D02*
X164636081Y-187163090D01*
X164636081Y-187163090D02*
X169256120Y-187163090D01*
X87780408Y-152409400D02*
X88936748Y-152409400D01*
X88936748Y-152409400D02*
X90100910Y-153573562D01*
X170345100Y-187617100D02*
X164824138Y-187617100D01*
X136211118Y-183896089D02*
X135015221Y-183896089D01*
X164824138Y-187617100D02*
X164208158Y-188233080D01*
X164208158Y-188233080D02*
X161750042Y-188233080D01*
X135015221Y-183896089D02*
X130716214Y-179597080D01*
X161750042Y-188233080D02*
X159899061Y-186382099D01*
X146120095Y-186865893D02*
X145142855Y-186865893D01*
X159899061Y-186382099D02*
X159074139Y-186382099D01*
X144532061Y-186255099D02*
X138570127Y-186255099D01*
X159074139Y-186382099D02*
X158131178Y-187325060D01*
X158131178Y-187325060D02*
X146579262Y-187325060D01*
X146579262Y-187325060D02*
X146120095Y-186865893D01*
X121444119Y-175352090D02*
X115602118Y-175352090D01*
X145142855Y-186865893D02*
X144532061Y-186255099D01*
X138570127Y-186255099D02*
X136211118Y-183896089D01*
X130716214Y-179597080D02*
X125689108Y-179597080D01*
X125689108Y-179597080D02*
X121444119Y-175352090D01*
X115602118Y-175352090D02*
X112678647Y-172428619D01*
X112678647Y-172428619D02*
X112678647Y-172042551D01*
X112678647Y-172042551D02*
X112278648Y-171642552D01*
X107643208Y-150174200D02*
X108799548Y-150174200D01*
X108799548Y-150174200D02*
X109963710Y-151338362D01*
X169027092Y-185674089D02*
X183083111Y-185674089D01*
X183083111Y-185674089D02*
X183426100Y-185331100D01*
X168446112Y-186255070D02*
X169027092Y-185674089D01*
X164259967Y-186255070D02*
X168446112Y-186255070D01*
X162314212Y-186871050D02*
X163643988Y-186871050D01*
X163643988Y-186871050D02*
X164259967Y-186255070D01*
X158509968Y-185020070D02*
X160463232Y-185020070D01*
X160463232Y-185020070D02*
X162314212Y-186871050D01*
X147143432Y-185963030D02*
X157567009Y-185963030D01*
X157567009Y-185963030D02*
X158509968Y-185020070D01*
X146950219Y-185769817D02*
X147143432Y-185963030D01*
X145707024Y-185503863D02*
X146684266Y-185503863D01*
X146684266Y-185503863D02*
X146950219Y-185769817D01*
X144823241Y-184620080D02*
X145707024Y-185503863D01*
X143735061Y-184347088D02*
X144550249Y-184347088D01*
X144550249Y-184347088D02*
X144823241Y-184620080D01*
X137683180Y-184084020D02*
X137946248Y-184347088D01*
X137946248Y-184347088D02*
X143735061Y-184347088D01*
X136837204Y-183238044D02*
X137683180Y-184084020D01*
X135370732Y-182967468D02*
X135375354Y-182972090D01*
X135375354Y-182972090D02*
X136571251Y-182972090D01*
X136571251Y-182972090D02*
X136837204Y-183238044D01*
X133402232Y-180998968D02*
X135370732Y-182967468D01*
X131358281Y-178955017D02*
X133402232Y-180998968D01*
X125133100Y-177756939D02*
X126065221Y-178689060D01*
X126065221Y-178689060D02*
X131092324Y-178689060D01*
X131092324Y-178689060D02*
X131358281Y-178955017D01*
X125098100Y-177286986D02*
X125133100Y-177321986D01*
X125133100Y-177321986D02*
X125133100Y-177756939D01*
X125118408Y-160181800D02*
X126274748Y-160181800D01*
X126274748Y-160181800D02*
X127438910Y-161345962D01*
X143386100Y-185074089D02*
X144635184Y-185074089D01*
X164448024Y-186709080D02*
X168634168Y-186709080D01*
X146496209Y-185957873D02*
X146955376Y-186417040D01*
X158698025Y-185474080D02*
X160275175Y-185474080D01*
X168634168Y-186709080D02*
X169215149Y-186128099D01*
X145518968Y-185957873D02*
X146496209Y-185957873D01*
X163832045Y-187325060D02*
X164448024Y-186709080D01*
X169215149Y-186128099D02*
X184153101Y-186128099D01*
X146955376Y-186417040D02*
X157755066Y-186417040D01*
X157755066Y-186417040D02*
X158698025Y-185474080D01*
X160275175Y-185474080D02*
X162126155Y-187325060D01*
X144635184Y-185074089D02*
X145518968Y-185957873D01*
X162126155Y-187325060D02*
X163832045Y-187325060D01*
X184153101Y-186128099D02*
X184188100Y-186093100D01*
X143304808Y-166277800D02*
X144461148Y-166277800D01*
X144461148Y-166277800D02*
X145625310Y-167441962D01*
X189014100Y-173774100D02*
X188974100Y-173734100D01*
X188974100Y-173734100D02*
X188466100Y-173734100D01*
X176822100Y-173734100D02*
X188466100Y-173734100D01*
X191568232Y-146215100D02*
X189023413Y-148759919D01*
X189023413Y-148759919D02*
X189023413Y-149145987D01*
X203619100Y-146215100D02*
X191568232Y-146215100D01*
X172250100Y-173734100D02*
X172754100Y-173734100D01*
X172754100Y-173734100D02*
X176822100Y-173734100D01*
X167678100Y-173734100D02*
X168182100Y-173734100D01*
X168182100Y-173734100D02*
X172250100Y-173734100D01*
X163106100Y-173734100D02*
X167678100Y-173734100D01*
X135687009Y-196469090D02*
X137744110Y-196469090D01*
X137744110Y-196469090D02*
X138468100Y-195745100D01*
X135687009Y-196469090D02*
X134290038Y-197866060D01*
X113925061Y-191551089D02*
X113227139Y-191551089D01*
X134290038Y-197866060D02*
X123726326Y-197866060D01*
X123726326Y-197866060D02*
X118189432Y-192329166D01*
X118189432Y-192329166D02*
X118189432Y-191722432D01*
X117567386Y-191100386D02*
X116471403Y-191100386D01*
X118189432Y-191722432D02*
X117567386Y-191100386D01*
X108877100Y-192697100D02*
X108249166Y-192697100D01*
X95040167Y-187997101D02*
X95040167Y-187611033D01*
X115474720Y-192097070D02*
X114471042Y-192097070D01*
X116471403Y-191100386D02*
X115474720Y-192097070D01*
X114471042Y-192097070D02*
X113925061Y-191551089D01*
X113227139Y-191551089D02*
X112227148Y-192551080D01*
X112227148Y-192551080D02*
X110788042Y-192551080D01*
X110788042Y-192551080D02*
X110242061Y-192005099D01*
X108249166Y-192697100D02*
X104366157Y-188814090D01*
X110242061Y-192005099D02*
X109544139Y-192005099D01*
X95857156Y-188814090D02*
X95040167Y-187997101D01*
X109544139Y-192005099D02*
X108877100Y-192672138D01*
X108877100Y-192672138D02*
X108877100Y-192697100D01*
X104366157Y-188814090D02*
X95857156Y-188814090D01*
X146015090Y-188687090D02*
X164830110Y-188687090D01*
X164830110Y-188687090D02*
X165138100Y-188379100D01*
X144557877Y-188500914D02*
X144890324Y-188500914D01*
X144890324Y-188500914D02*
X144977139Y-188414099D01*
X144977139Y-188414099D02*
X145742099Y-188414099D01*
X145742099Y-188414099D02*
X146015090Y-188687090D01*
X91234808Y-173034200D02*
X92391148Y-173034200D01*
X92391148Y-173034200D02*
X93555310Y-174198362D01*
X135602074Y-197196090D02*
X138093072Y-197196090D01*
X138093072Y-197196090D02*
X139484100Y-195805062D01*
X139484100Y-195805062D02*
X139484100Y-195745100D01*
X145326100Y-189141100D02*
X165900100Y-189141100D01*
X123538270Y-198320070D02*
X134478095Y-198320070D01*
X134478095Y-198320070D02*
X135602074Y-197196090D01*
X117735422Y-192517222D02*
X123538270Y-198320070D01*
X116659460Y-191554396D02*
X117357382Y-191554396D01*
X117357382Y-191554396D02*
X117735422Y-191932436D01*
X117735422Y-191932436D02*
X117735422Y-192517222D01*
X113938080Y-192551080D02*
X115662776Y-192551080D01*
X115662776Y-192551080D02*
X116659460Y-191554396D01*
X113576100Y-192278090D02*
X113665090Y-192278090D01*
X113665090Y-192278090D02*
X113938080Y-192551080D01*
X109929208Y-176691800D02*
X111085548Y-176691800D01*
X111085548Y-176691800D02*
X112249710Y-177855962D01*
X131105355Y-184439855D02*
X131320398Y-184439855D01*
X131320398Y-184439855D02*
X133045481Y-186164938D01*
X154955084Y-202873050D02*
X142715450Y-202873050D01*
X142715450Y-202873050D02*
X142423780Y-202581380D01*
X155705101Y-202123033D02*
X154955084Y-202873050D01*
X157315159Y-201857079D02*
X155971054Y-201857079D01*
X155971054Y-201857079D02*
X155705101Y-202123033D01*
X159042100Y-201965030D02*
X159042100Y-201908138D01*
X158502061Y-201368099D02*
X157804139Y-201368099D01*
X159042100Y-201908138D02*
X158502061Y-201368099D01*
X157804139Y-201368099D02*
X157315159Y-201857079D01*
X173396170Y-201965030D02*
X159042100Y-201965030D01*
X174028100Y-201333100D02*
X173396170Y-201965030D01*
X174466160Y-202419040D02*
X158477040Y-202419040D01*
X158477040Y-202419040D02*
X158153100Y-202095100D01*
X174917100Y-201968100D02*
X174466160Y-202419040D01*
X153771940Y-194217654D02*
X153771940Y-194958567D01*
X153771940Y-194958567D02*
X155199472Y-196386099D01*
X204344175Y-173536079D02*
X199952079Y-173536079D01*
X199952079Y-173536079D02*
X199936100Y-173520100D01*
X205270100Y-173772070D02*
X204580166Y-173772070D01*
X204580166Y-173772070D02*
X204344175Y-173536079D01*
X232577130Y-173772070D02*
X205270100Y-173772070D01*
X233083100Y-173266100D02*
X232577130Y-173772070D01*
X254546100Y-135634100D02*
X255050100Y-135634100D01*
X255050100Y-135634100D02*
X259118100Y-135634100D01*
X249974100Y-135634100D02*
X250478100Y-135634100D01*
X250478100Y-135634100D02*
X254546100Y-135634100D01*
X245402100Y-135634100D02*
X249974100Y-135634100D01*
X240830100Y-135634100D02*
X241334100Y-135634100D01*
X241334100Y-135634100D02*
X245402100Y-135634100D01*
X236258100Y-135634100D02*
X240830100Y-135634100D01*
X276263100Y-143802100D02*
X279438100Y-143802100D01*
X273088100Y-146977100D02*
X276263100Y-143802100D01*
X262547100Y-146977100D02*
X273088100Y-146977100D01*
X260642100Y-145072100D02*
X262547100Y-146977100D01*
X260642100Y-141262100D02*
X260642100Y-145072100D01*
X259880100Y-140500100D02*
X260642100Y-141262100D01*
X238417100Y-140500100D02*
X259880100Y-140500100D01*
X276613927Y-127934955D02*
X276824044Y-128145072D01*
X276824044Y-128145072D02*
X279201562Y-128145072D01*
X286677101Y-143802099D02*
X292265100Y-138214100D01*
X292265100Y-138214100D02*
X294170100Y-138214100D01*
X286677100Y-143802100D02*
X286677101Y-143802099D01*
X294851127Y-121838955D02*
X295061244Y-122049072D01*
X295061244Y-122049072D02*
X297438762Y-122049072D01*
X280514062Y-143802100D02*
X286677100Y-143802100D01*
X279089139Y-143075099D02*
X279787061Y-143075099D01*
X279787061Y-143075099D02*
X280514062Y-143802100D01*
X276075043Y-143348090D02*
X278816148Y-143348090D01*
X278816148Y-143348090D02*
X279089139Y-143075099D01*
X272900044Y-146523090D02*
X276075043Y-143348090D01*
X262735156Y-146523090D02*
X272900044Y-146523090D01*
X261096110Y-144884044D02*
X262735156Y-146523090D01*
X261096110Y-141074043D02*
X261096110Y-144884044D01*
X239470960Y-140046090D02*
X260068157Y-140046090D01*
X260068157Y-140046090D02*
X261096110Y-141074043D01*
X239144100Y-139719230D02*
X239470960Y-140046090D01*
X298615100Y-128562100D02*
X300012100Y-128562100D01*
X313728100Y-124117100D02*
X315252100Y-122593100D01*
X300012100Y-128562100D02*
X300901100Y-129451100D01*
X300901100Y-129451100D02*
X304584100Y-129451100D01*
X304584100Y-129451100D02*
X309918100Y-124117100D01*
X309918100Y-124117100D02*
X313728100Y-124117100D01*
X293821139Y-137487099D02*
X296040101Y-137487099D01*
X296040101Y-137487099D02*
X296075100Y-137452100D01*
X247942100Y-139319090D02*
X248215090Y-139592080D01*
X261550120Y-140885986D02*
X261550120Y-144695988D01*
X275886986Y-142894080D02*
X278628092Y-142894080D01*
X292077043Y-137760091D02*
X293548147Y-137760091D01*
X260256214Y-139592080D02*
X260522167Y-139858034D01*
X260522167Y-139858034D02*
X261550120Y-140885986D01*
X286489044Y-143348090D02*
X292077043Y-137760091D01*
X262923212Y-146069080D02*
X272711987Y-146069080D01*
X272711987Y-146069080D02*
X275886986Y-142894080D01*
X261550120Y-144695988D02*
X262923212Y-146069080D01*
X278628092Y-142894080D02*
X278901082Y-142621090D01*
X278901082Y-142621090D02*
X279975118Y-142621090D01*
X248215090Y-139592080D02*
X260256214Y-139592080D01*
X279975118Y-142621090D02*
X280702118Y-143348090D01*
X280702118Y-143348090D02*
X286489044Y-143348090D01*
X293548147Y-137760091D02*
X293821139Y-137487099D01*
X312275527Y-111831355D02*
X312485644Y-112041472D01*
X312485644Y-112041472D02*
X314863162Y-112041472D01*
X300713044Y-129905110D02*
X304772157Y-129905110D01*
X300005034Y-129197100D02*
X300713044Y-129905110D01*
X299504100Y-129197100D02*
X300005034Y-129197100D01*
X299250100Y-129451100D02*
X299504100Y-129197100D01*
X315128633Y-123358633D02*
X323757567Y-123358633D01*
X304772157Y-129905110D02*
X305038110Y-129639156D01*
X314182110Y-124305156D02*
X315128633Y-123358633D01*
X323757567Y-123358633D02*
X324904100Y-122212100D01*
X305038110Y-129639156D02*
X310106156Y-124571110D01*
X310106156Y-124571110D02*
X313916157Y-124571110D01*
X313916157Y-124571110D02*
X314182110Y-124305156D01*
X324904100Y-122212100D02*
X331762100Y-122212100D01*
X331762100Y-122212100D02*
X332651100Y-121323100D01*
X296491099Y-136725099D02*
X297218100Y-137452100D01*
X286300987Y-142894080D02*
X286300987Y-142894079D01*
X286300987Y-142894079D02*
X292469967Y-136725099D01*
X292469967Y-136725099D02*
X296491099Y-136725099D01*
X334725962Y-114276672D02*
X332854016Y-114276672D01*
X332854016Y-114276672D02*
X332066923Y-113489579D01*
X280890174Y-142894080D02*
X286300987Y-142894080D01*
X280429128Y-142433034D02*
X280890174Y-142894080D01*
X279295119Y-142167081D02*
X280163175Y-142167080D01*
X280163175Y-142167080D02*
X280429128Y-142433034D01*
X278440036Y-142440070D02*
X278713025Y-142167081D01*
X278713025Y-142167081D02*
X279295119Y-142167081D01*
X275698929Y-142440070D02*
X278440036Y-142440070D01*
X272523930Y-145615070D02*
X275698929Y-142440070D01*
X263111268Y-145615070D02*
X272523930Y-145615070D01*
X262004130Y-144507932D02*
X263111268Y-145615070D01*
X262004130Y-140697929D02*
X262004130Y-144507932D01*
X261023100Y-139716900D02*
X262004130Y-140697929D01*
X249247070Y-139138070D02*
X260068158Y-139138070D01*
X260444272Y-139138072D02*
X261023100Y-139716900D01*
X260068158Y-139138070D02*
X260444272Y-139138072D01*
X249104099Y-138995099D02*
X249247070Y-139138070D01*
X248704100Y-138595100D02*
X249104099Y-138995099D01*
X300412120Y-130359120D02*
X299904120Y-130359120D01*
X299904120Y-130359120D02*
X299885100Y-130340100D01*
X347256100Y-116878100D02*
X343954100Y-120180100D01*
X315316689Y-123812643D02*
X314104215Y-125025118D01*
X343954100Y-120180100D02*
X339890100Y-120180100D01*
X353098100Y-116878100D02*
X347256100Y-116878100D01*
X339890100Y-120180100D02*
X333794100Y-126276100D01*
X333794100Y-126276100D02*
X325412100Y-126276100D01*
X310294213Y-125025120D02*
X304960215Y-130359118D01*
X325412100Y-126276100D02*
X322948643Y-123812643D01*
X322948643Y-123812643D02*
X315316689Y-123812643D01*
X314104215Y-125025118D02*
X313728101Y-125025120D01*
X313728101Y-125025120D02*
X310294213Y-125025120D01*
X304960215Y-130359118D02*
X304584101Y-130359120D01*
X304584101Y-130359120D02*
X300412120Y-130359120D01*
X298167062Y-137325100D02*
X298234100Y-137325100D01*
X298234100Y-137325100D02*
X298361100Y-137452100D01*
X293601043Y-136217070D02*
X297059032Y-136217070D01*
X297059032Y-136217070D02*
X298167062Y-137325100D01*
X286112930Y-142440070D02*
X292335929Y-136217070D01*
X292335929Y-136217070D02*
X293601043Y-136217070D01*
X281078231Y-142440070D02*
X286112930Y-142440070D01*
X278524968Y-141713071D02*
X280351233Y-141713072D01*
X280351233Y-141713072D02*
X281078231Y-142440070D01*
X275510872Y-141986060D02*
X278251980Y-141986060D01*
X278251980Y-141986060D02*
X278524968Y-141713071D01*
X272335873Y-145161060D02*
X275510872Y-141986060D01*
X263299324Y-145161060D02*
X272335873Y-145161060D01*
X262458140Y-144319876D02*
X263299324Y-145161060D01*
X262458140Y-140509872D02*
X262458140Y-144319876D01*
X260632329Y-138684063D02*
X262458140Y-140509872D01*
X257232090Y-138684060D02*
X260632326Y-138684060D01*
X260632326Y-138684060D02*
X260632329Y-138684063D01*
X256959100Y-138411070D02*
X257232090Y-138684060D01*
X353118727Y-122245355D02*
X353328844Y-122455472D01*
X353328844Y-122455472D02*
X355706362Y-122455472D01*
X292147872Y-135763060D02*
X297748022Y-135763060D01*
X297748022Y-135763060D02*
X299437062Y-137452100D01*
X299437062Y-137452100D02*
X299504100Y-137452100D01*
X285924873Y-141986060D02*
X292147872Y-135763060D01*
X281266287Y-141986060D02*
X285924873Y-141986060D01*
X280539290Y-141259063D02*
X281266287Y-141986060D01*
X278336912Y-141259062D02*
X280539290Y-141259063D01*
X278063923Y-141532050D02*
X278336912Y-141259062D01*
X275322815Y-141532050D02*
X278063923Y-141532050D01*
X272147816Y-144707050D02*
X275322815Y-141532050D01*
X263487380Y-144707050D02*
X272147816Y-144707050D01*
X262912150Y-144131820D02*
X263487380Y-144707050D01*
X262912150Y-140321815D02*
X262912150Y-144131820D01*
X261277100Y-138686767D02*
X262912150Y-140321815D01*
X261277100Y-132289100D02*
X261277100Y-138686767D01*
X259118100Y-130634100D02*
X259622100Y-130634100D01*
X259622100Y-130634100D02*
X261277100Y-132289100D01*
X371813127Y-118587755D02*
X372023244Y-118797872D01*
X372023244Y-118797872D02*
X374400762Y-118797872D01*
X301047099Y-130829101D02*
X300920099Y-130829101D01*
X310482269Y-125479130D02*
X305148270Y-130813130D01*
X301063070Y-130813130D02*
X301047099Y-130829101D01*
X322760587Y-124266653D02*
X315504746Y-124266653D01*
X314144070Y-125479130D02*
X310482269Y-125479130D01*
X314144073Y-125479127D02*
X314144070Y-125479130D01*
X357835200Y-120091200D02*
X355349101Y-117605101D01*
X314292272Y-125479127D02*
X314144073Y-125479127D01*
X300920099Y-130829101D02*
X300520100Y-131229100D01*
X315504746Y-124266653D02*
X314292272Y-125479127D01*
X344142157Y-120634110D02*
X340078157Y-120634110D01*
X347444157Y-117332110D02*
X344142157Y-120634110D01*
X361696000Y-120091200D02*
X357835200Y-120091200D01*
X325224043Y-126730110D02*
X322760587Y-124266653D01*
X371640100Y-116497100D02*
X370497100Y-115354100D01*
X371741723Y-118010779D02*
X371640100Y-117909156D01*
X355349101Y-117605101D02*
X352749139Y-117605101D01*
X340078157Y-120634110D02*
X333982157Y-126730110D01*
X371640100Y-117909156D02*
X371640100Y-116497100D01*
X305148270Y-130813130D02*
X301063070Y-130813130D01*
X370497100Y-115354100D02*
X366433100Y-115354100D01*
X366433100Y-115354100D02*
X361696000Y-120091200D01*
X333982157Y-126730110D02*
X325224043Y-126730110D01*
X352476148Y-117332110D02*
X347444157Y-117332110D01*
X352749139Y-117605101D02*
X352476148Y-117332110D01*
X233972100Y-173901100D02*
X233972100Y-174028100D01*
X233972100Y-174028100D02*
X233774120Y-174226080D01*
X204392109Y-174226080D02*
X204156118Y-173990089D01*
X233774120Y-174226080D02*
X204392109Y-174226080D01*
X204156118Y-173990089D02*
X203082082Y-173990089D01*
X203082082Y-173990089D02*
X202628073Y-174444099D01*
X202628073Y-174444099D02*
X200659969Y-174444099D01*
X200659969Y-174444099D02*
X200606100Y-174390230D01*
X254546100Y-148334100D02*
X259118100Y-148334100D01*
X249974100Y-148334100D02*
X250478100Y-148334100D01*
X250478100Y-148334100D02*
X254546100Y-148334100D01*
X245402100Y-148334100D02*
X249974100Y-148334100D01*
X240830100Y-148331100D02*
X245399100Y-148331100D01*
X245399100Y-148331100D02*
X245402100Y-148334100D01*
X236258100Y-148334100D02*
X240827100Y-148334100D01*
X240827100Y-148334100D02*
X240830100Y-148331100D01*
X280073100Y-162344100D02*
X283121100Y-162344100D01*
X275247100Y-167170100D02*
X280073100Y-162344100D01*
X262820300Y-167170100D02*
X275247100Y-167170100D01*
X262239200Y-166589000D02*
X262820300Y-167170100D01*
X259880100Y-153200100D02*
X261277100Y-154597100D01*
X259352062Y-153200100D02*
X259880100Y-153200100D01*
X238417100Y-153200100D02*
X259352062Y-153200100D01*
X280220727Y-146629355D02*
X280430844Y-146839472D01*
X280430844Y-146839472D02*
X282808362Y-146839472D01*
X301045562Y-140743472D02*
X298668044Y-140743472D01*
X298668044Y-140743472D02*
X298457927Y-140533355D01*
X297726100Y-156248100D02*
X301409100Y-156248100D01*
X292357101Y-161617099D02*
X297726100Y-156248100D01*
X282772139Y-161617099D02*
X292357101Y-161617099D01*
X279885043Y-161890090D02*
X282499148Y-161890090D01*
X282499148Y-161890090D02*
X282772139Y-161617099D01*
X275059044Y-166716090D02*
X279885043Y-161890090D01*
X263998090Y-166716090D02*
X275059044Y-166716090D01*
X263055100Y-165773100D02*
X263998090Y-166716090D01*
X239487090Y-152746090D02*
X260950090Y-152746090D01*
X260950090Y-152746090D02*
X262039100Y-153835100D01*
X239179100Y-152438100D02*
X239487090Y-152746090D01*
X318554100Y-146088100D02*
X315633100Y-146088100D01*
X315633100Y-146088100D02*
X306200101Y-155521099D01*
X301060139Y-155521099D02*
X300787148Y-155794090D01*
X279696986Y-161436080D02*
X274870987Y-166262080D01*
X300787148Y-155794090D02*
X297538043Y-155794090D01*
X292169044Y-161163090D02*
X282584082Y-161163090D01*
X282584082Y-161163090D02*
X282311092Y-161436080D01*
X297538043Y-155794090D02*
X292169044Y-161163090D01*
X282311092Y-161436080D02*
X279696986Y-161436080D01*
X306200101Y-155521099D02*
X301060139Y-155521099D01*
X274870987Y-166262080D02*
X265068080Y-166262080D01*
X265068080Y-166262080D02*
X263817100Y-165011100D01*
X318520762Y-130735872D02*
X316648816Y-130735872D01*
X316648816Y-130735872D02*
X315861723Y-129948779D01*
X248050080Y-152292080D02*
X262020080Y-152292080D01*
X262020080Y-152292080D02*
X262801100Y-153073100D01*
X247561100Y-151930100D02*
X247688100Y-151930100D01*
X247688100Y-151930100D02*
X248050080Y-152292080D01*
X338332762Y-132971072D02*
X336918549Y-132971072D01*
X336918549Y-132971072D02*
X336708432Y-132760955D01*
X336708432Y-132760955D02*
X335745127Y-132760955D01*
X332270100Y-151295100D02*
X335064100Y-148501100D01*
X335064100Y-148501100D02*
X338493100Y-148501100D01*
X327190100Y-151295100D02*
X332270100Y-151295100D01*
X321983100Y-146088100D02*
X327190100Y-151295100D01*
X319630062Y-146088100D02*
X321983100Y-146088100D01*
X318205139Y-145361099D02*
X318903061Y-145361099D01*
X318903061Y-145361099D02*
X319630062Y-146088100D01*
X315445043Y-145634090D02*
X317932148Y-145634090D01*
X317932148Y-145634090D02*
X318205139Y-145361099D01*
X306012045Y-155067089D02*
X315445043Y-145634090D01*
X300872082Y-155067089D02*
X306012045Y-155067089D01*
X297349986Y-155340080D02*
X300599092Y-155340080D01*
X300599092Y-155340080D02*
X300872082Y-155067089D01*
X291980987Y-160709080D02*
X297349986Y-155340080D01*
X282396025Y-160709080D02*
X291980987Y-160709080D01*
X279508929Y-160982070D02*
X282123036Y-160982070D01*
X282123036Y-160982070D02*
X282396025Y-160709080D01*
X274682930Y-165808070D02*
X279508929Y-160982070D01*
X266138070Y-165808070D02*
X274682930Y-165808070D01*
X265849100Y-165519100D02*
X266138070Y-165808070D01*
X264579100Y-164249100D02*
X265849100Y-165519100D01*
X248993070Y-151838070D02*
X263090070Y-151838070D01*
X263090070Y-151838070D02*
X263563100Y-152311100D01*
X248850099Y-151695099D02*
X248993070Y-151838070D01*
X248450100Y-151295100D02*
X248850099Y-151695099D01*
X281934979Y-160528060D02*
X282207968Y-160255070D01*
X300411035Y-154886070D02*
X300684025Y-154613079D01*
X334876043Y-148047090D02*
X337871148Y-148047090D01*
X267208060Y-165354060D02*
X274494873Y-165354060D01*
X332082044Y-150841090D02*
X334876043Y-148047090D01*
X342395101Y-147774099D02*
X351955100Y-138214100D01*
X291792930Y-160255070D02*
X297161929Y-154886070D01*
X265341100Y-163487100D02*
X267208060Y-165354060D01*
X282207968Y-160255070D02*
X291792930Y-160255070D01*
X297161929Y-154886070D02*
X300411035Y-154886070D01*
X279320872Y-160528060D02*
X281934979Y-160528060D01*
X300684025Y-154613079D02*
X305823988Y-154613079D01*
X317744092Y-145180080D02*
X318017082Y-144907089D01*
X318017082Y-144907089D02*
X319091118Y-144907089D01*
X274494873Y-165354060D02*
X279320872Y-160528060D01*
X305823988Y-154613079D02*
X315256986Y-145180080D01*
X319091118Y-144907089D02*
X319818118Y-145634090D01*
X322171157Y-145634090D02*
X322437110Y-145900044D01*
X327378156Y-150841090D02*
X332082044Y-150841090D01*
X322437110Y-145900044D02*
X327378156Y-150841090D01*
X337871148Y-148047090D02*
X338144139Y-147774099D01*
X319818118Y-145634090D02*
X322171157Y-145634090D01*
X338144139Y-147774099D02*
X342395101Y-147774099D01*
X315256986Y-145180080D02*
X317744092Y-145180080D01*
X351955100Y-138214100D02*
X355130100Y-138214100D01*
X355130100Y-138214100D02*
X356704923Y-139788923D01*
X356704923Y-139788923D02*
X356704923Y-140362779D01*
X257302060Y-151384060D02*
X264160060Y-151384060D01*
X264160060Y-151384060D02*
X264325100Y-151549100D01*
X256959100Y-151041100D02*
X257302060Y-151384060D01*
X356776327Y-140939755D02*
X356986444Y-141149872D01*
X356986444Y-141149872D02*
X359363962Y-141149872D01*
X279132815Y-160074050D02*
X281746922Y-160074050D01*
X356153167Y-138595100D02*
X367703100Y-138595100D01*
X327566213Y-150387080D02*
X331893987Y-150387080D01*
X291604873Y-159801060D02*
X296973872Y-154432060D01*
X281746922Y-160074050D02*
X282019911Y-159801060D01*
X268262100Y-164884100D02*
X274322766Y-164884100D01*
X282019911Y-159801060D02*
X291604873Y-159801060D01*
X300222978Y-154432060D02*
X300495968Y-154159069D01*
X375399323Y-136131323D02*
X375399323Y-136705179D01*
X300495968Y-154159069D02*
X305635931Y-154159069D01*
X371894100Y-134404100D02*
X373672100Y-134404100D01*
X305635931Y-154159069D02*
X315068929Y-144726070D01*
X266103100Y-162725100D02*
X268262100Y-164884100D01*
X315068929Y-144726070D02*
X317556035Y-144726070D01*
X274322766Y-164884100D02*
X279132815Y-160074050D01*
X317556035Y-144726070D02*
X317829025Y-144453079D01*
X319332079Y-144453079D02*
X320059080Y-145180080D01*
X355318157Y-137760090D02*
X356153167Y-138595100D01*
X320059080Y-145180080D02*
X321983101Y-145180080D01*
X331893987Y-150387080D02*
X334687986Y-147593080D01*
X322359215Y-145180082D02*
X327566213Y-150387080D01*
X373672100Y-134404100D02*
X375399323Y-136131323D01*
X334687986Y-147593080D02*
X337683092Y-147593080D01*
X296973872Y-154432060D02*
X300222978Y-154432060D01*
X337683092Y-147593080D02*
X337956082Y-147320090D01*
X321983101Y-145180080D02*
X322359215Y-145180082D01*
X337956082Y-147320090D02*
X342207044Y-147320090D01*
X317829025Y-144453079D02*
X319332079Y-144453079D01*
X342207044Y-147320090D02*
X351767043Y-137760090D01*
X351767043Y-137760090D02*
X355318157Y-137760090D01*
X367703100Y-138595100D02*
X371894100Y-134404100D01*
X375470727Y-137282155D02*
X375680844Y-137492272D01*
X375680844Y-137492272D02*
X378058362Y-137492272D01*
X236258100Y-174536100D02*
X236114110Y-174680090D01*
X236114110Y-174680090D02*
X204204052Y-174680090D01*
X203968061Y-174444099D02*
X203270139Y-174444099D01*
X204204052Y-174680090D02*
X203968061Y-174444099D01*
X236258100Y-174407100D02*
X236258100Y-174536100D01*
X203270139Y-174444099D02*
X202543138Y-175171100D01*
X202543138Y-175171100D02*
X201333100Y-175171100D01*
X254546100Y-161034100D02*
X259118100Y-161034100D01*
X249974100Y-161034100D02*
X250478100Y-161034100D01*
X250478100Y-161034100D02*
X254546100Y-161034100D01*
X245402100Y-161031100D02*
X249971100Y-161031100D01*
X249971100Y-161031100D02*
X249974100Y-161034100D01*
X245402100Y-161031100D02*
X244898100Y-161031100D01*
X244898100Y-161031100D02*
X240830100Y-161031100D01*
X236258100Y-161034100D02*
X240827100Y-161034100D01*
X240827100Y-161034100D02*
X240830100Y-161031100D01*
X261026111Y-186725089D02*
X238420111Y-186725089D01*
X269717976Y-186648024D02*
X269640911Y-186725089D01*
X269640911Y-186725089D02*
X261026111Y-186725089D01*
X275592015Y-185928089D02*
X275138034Y-186382070D01*
X269983929Y-186382070D02*
X269717976Y-186648024D01*
X275138034Y-186382070D02*
X269983929Y-186382070D01*
X277317111Y-185928089D02*
X275592015Y-185928089D01*
X278298060Y-185712100D02*
X277533100Y-185712100D01*
X277533100Y-185712100D02*
X277317111Y-185928089D01*
X286931100Y-185712100D02*
X278298060Y-185712100D01*
X283878327Y-165323755D02*
X284088444Y-165533872D01*
X284088444Y-165533872D02*
X286465962Y-165533872D01*
X286309148Y-185258090D02*
X277345043Y-185258090D01*
X300520100Y-175933100D02*
X296964100Y-179489100D01*
X296964100Y-179489100D02*
X292078138Y-179489100D01*
X269452854Y-186271079D02*
X239484079Y-186271079D01*
X277345043Y-185258090D02*
X277145033Y-185458100D01*
X274949978Y-185928060D02*
X269795872Y-185928060D01*
X277145033Y-185458100D02*
X276263100Y-185458100D01*
X276263100Y-185458100D02*
X276247121Y-185474079D01*
X275403958Y-185474079D02*
X274949978Y-185928060D01*
X308775100Y-175933100D02*
X300520100Y-175933100D01*
X276247121Y-185474079D02*
X275403958Y-185474079D01*
X292078138Y-179489100D02*
X286309148Y-185258090D01*
X239484079Y-186271079D02*
X239179100Y-185966100D01*
X269795872Y-185928060D02*
X269452854Y-186271079D01*
X302064727Y-159227755D02*
X302274844Y-159437872D01*
X302274844Y-159437872D02*
X304652362Y-159437872D01*
X322745100Y-170091100D02*
X322437110Y-170399090D01*
X275027844Y-184566060D02*
X274573863Y-185020041D01*
X322872100Y-170091100D02*
X322745100Y-170091100D01*
X308400081Y-174590090D02*
X307965091Y-175025081D01*
X276768919Y-184550080D02*
X275886986Y-184550080D01*
X269076740Y-185363059D02*
X262198059Y-185363059D01*
X300143986Y-175025081D02*
X296587988Y-178581080D01*
X322437110Y-170399090D02*
X319382043Y-170399090D01*
X260928139Y-184817078D02*
X259928148Y-185817069D01*
X262198059Y-185363059D02*
X261652078Y-184817078D01*
X307965091Y-175025081D02*
X300143986Y-175025081D01*
X310619044Y-174590090D02*
X308400081Y-174590090D01*
X319382043Y-170399090D02*
X317858044Y-171923090D01*
X296587988Y-178581080D02*
X291702024Y-178581080D01*
X291702024Y-178581080D02*
X285933035Y-184350070D01*
X275871006Y-184566060D02*
X275027844Y-184566060D01*
X313286043Y-171923090D02*
X310619044Y-174590090D01*
X275886986Y-184550080D02*
X275871006Y-184566060D01*
X276968929Y-184350070D02*
X276768919Y-184550080D01*
X274573863Y-185020041D02*
X269419758Y-185020041D01*
X285933035Y-184350070D02*
X276968929Y-184350070D01*
X269419758Y-185020041D02*
X269076740Y-185363059D01*
X261652078Y-184817078D02*
X260928139Y-184817078D01*
X317858044Y-171923090D02*
X313286043Y-171923090D01*
X259928148Y-185817069D02*
X252619069Y-185817069D01*
X252619069Y-185817069D02*
X252260100Y-185458100D01*
X252260100Y-185458100D02*
X252133100Y-185458100D01*
X320799928Y-149430272D02*
X322127562Y-149430272D01*
X319539927Y-149220155D02*
X319750044Y-149430272D01*
X319750044Y-149430272D02*
X320799928Y-149430272D01*
X339402727Y-151455355D02*
X339612844Y-151665472D01*
X339612844Y-151665472D02*
X341990362Y-151665472D01*
X321942158Y-169945080D02*
X322523139Y-169364099D01*
X259740092Y-185363059D02*
X260740082Y-184363068D01*
X253022100Y-184823100D02*
X253562059Y-185363059D01*
X341097599Y-169640533D02*
X341483667Y-169640533D01*
X261840135Y-184363068D02*
X262386116Y-184909049D01*
X274385807Y-184566031D02*
X274855768Y-184096070D01*
X310430987Y-174136080D02*
X313097986Y-171469080D01*
X268888684Y-184909049D02*
X269231701Y-184566031D01*
X269231701Y-184566031D02*
X274385807Y-184566031D01*
X276580862Y-184096070D02*
X276780872Y-183896060D01*
X296399931Y-178127070D02*
X299990901Y-174536100D01*
X274855768Y-184096070D02*
X276580862Y-184096070D01*
X260740082Y-184363068D02*
X261840135Y-184363068D01*
X285744978Y-183896060D02*
X291513967Y-178127070D01*
X253562059Y-185363059D02*
X259740092Y-185363059D01*
X308212024Y-174136080D02*
X310430987Y-174136080D01*
X291513967Y-178127070D02*
X296399931Y-178127070D01*
X299990901Y-174536100D02*
X307812005Y-174536100D01*
X332336043Y-167732091D02*
X339189157Y-167732091D01*
X307812005Y-174536100D02*
X308212024Y-174136080D01*
X313097986Y-171469080D02*
X317669987Y-171469080D01*
X319193986Y-169945080D02*
X321942158Y-169945080D01*
X317669987Y-171469080D02*
X319193986Y-169945080D01*
X276780872Y-183896060D02*
X285744978Y-183896060D01*
X262386116Y-184909049D02*
X268888684Y-184909049D01*
X322523139Y-169364099D02*
X323288099Y-169364099D01*
X323288099Y-169364099D02*
X324323090Y-170399090D01*
X324323090Y-170399090D02*
X329669044Y-170399090D01*
X329669044Y-170399090D02*
X332336043Y-167732091D01*
X339189157Y-167732091D02*
X341097599Y-169640533D01*
X269264796Y-185817069D02*
X269607815Y-185474050D01*
X276956976Y-185004090D02*
X277156986Y-184804080D01*
X339001100Y-168186100D02*
X344224079Y-173409079D01*
X358944986Y-172485080D02*
X362515120Y-172485080D01*
X296776044Y-179035090D02*
X300332043Y-175479091D01*
X362854693Y-172145507D02*
X362854693Y-172126306D01*
X261277100Y-185585100D02*
X261509069Y-185817069D01*
X308153147Y-175479091D02*
X308588138Y-175044100D01*
X261277100Y-185544079D02*
X261277100Y-185585100D01*
X276059064Y-185020069D02*
X276075043Y-185004090D01*
X274761921Y-185474050D02*
X275215901Y-185020069D01*
X275215901Y-185020069D02*
X276059064Y-185020069D01*
X277156986Y-184804080D02*
X286121092Y-184804080D01*
X269607815Y-185474050D02*
X274761921Y-185474050D01*
X261509069Y-185817069D02*
X269264796Y-185817069D01*
X276075043Y-185004090D02*
X276956976Y-185004090D01*
X308588138Y-175044100D02*
X310807100Y-175044100D01*
X286121092Y-184804080D02*
X291890081Y-179035090D01*
X319570100Y-170853100D02*
X329857100Y-170853100D01*
X291890081Y-179035090D02*
X296776044Y-179035090D01*
X300332043Y-175479091D02*
X308153147Y-175479091D01*
X310807100Y-175044100D02*
X313474100Y-172377100D01*
X313474100Y-172377100D02*
X318046100Y-172377100D01*
X318046100Y-172377100D02*
X319570100Y-170853100D01*
X329857100Y-170853100D02*
X332524100Y-168186100D01*
X332524100Y-168186100D02*
X339001100Y-168186100D01*
X344224079Y-173409079D02*
X358020988Y-173409079D01*
X358020988Y-173409079D02*
X358944986Y-172485080D01*
X362515120Y-172485080D02*
X362854693Y-172145507D01*
X362854693Y-172126306D02*
X363254692Y-171726307D01*
X360383127Y-159634155D02*
X360593244Y-159844272D01*
X360593244Y-159844272D02*
X362970762Y-159844272D01*
X213039051Y-184658089D02*
X223596111Y-184658089D01*
X223596111Y-184658089D02*
X223939100Y-184315100D01*
X210096100Y-184658089D02*
X211922147Y-184658089D01*
X211922147Y-184658089D02*
X212131638Y-184448598D01*
X212131638Y-184448598D02*
X212829560Y-184448598D01*
X212829560Y-184448598D02*
X213039051Y-184658089D01*
X184654899Y-184658089D02*
X210096100Y-184658089D01*
X180671740Y-184639071D02*
X182216319Y-184639071D01*
X182216319Y-184639071D02*
X182832300Y-184023089D01*
X182832300Y-184023089D02*
X184019899Y-184023089D01*
X184019899Y-184023089D02*
X184654899Y-184658089D01*
X168598373Y-184639071D02*
X180671740Y-184639071D01*
X167170100Y-185220050D02*
X168017394Y-185220050D01*
X168017394Y-185220050D02*
X168598373Y-184639071D01*
X163831249Y-185220050D02*
X167170100Y-185220050D01*
X162742930Y-185836030D02*
X163215270Y-185836030D01*
X163215270Y-185836030D02*
X163831249Y-185220050D01*
X158081250Y-183985050D02*
X160891950Y-183985050D01*
X160891950Y-183985050D02*
X162742930Y-185836030D01*
X157138291Y-184928010D02*
X158081250Y-183985050D01*
X147590010Y-184928010D02*
X157138291Y-184928010D01*
X145453100Y-183786202D02*
X145972488Y-184305590D01*
X145972488Y-184305590D02*
X146967590Y-184305590D01*
X146967590Y-184305590D02*
X147590010Y-184928010D01*
X138341100Y-183278202D02*
X138374966Y-183312068D01*
X138374966Y-183312068D02*
X144978967Y-183312068D01*
X144978967Y-183312068D02*
X145453100Y-183786202D01*
X135804072Y-181937070D02*
X136999969Y-181937070D01*
X136999969Y-181937070D02*
X138341100Y-183278202D01*
X127485851Y-177654040D02*
X131521042Y-177654040D01*
X131521042Y-177654040D02*
X135804072Y-181937070D01*
X123482100Y-174088363D02*
X123637826Y-174244089D01*
X123637826Y-174244089D02*
X124075900Y-174244089D01*
X124075900Y-174244089D02*
X127485851Y-177654040D01*
X118960552Y-173002590D02*
X122396328Y-173002590D01*
X122396328Y-173002590D02*
X123482100Y-174088363D01*
X115931365Y-171291834D02*
X116289630Y-171650099D01*
X116289630Y-171650099D02*
X117608061Y-171650099D01*
X117608061Y-171650099D02*
X118960552Y-173002590D01*
X113485046Y-168845515D02*
X115931365Y-171291834D01*
X110147100Y-168694100D02*
X113333631Y-168694100D01*
X113333631Y-168694100D02*
X113485046Y-168845515D01*
X120774460Y-132930900D02*
X119087900Y-132930900D01*
X119087900Y-132930900D02*
X119037100Y-132880100D01*
D26*
X239558541Y-185175599D02*
X212480599Y-185175599D01*
X212480599Y-185175599D02*
X184440541Y-185175599D01*
X338787740Y-125310900D02*
X338787740Y-126141480D01*
X322546228Y-124784163D02*
X315719104Y-124784163D01*
X338787740Y-126141480D02*
X337637120Y-127292100D01*
X337637120Y-127292100D02*
X325054165Y-127292100D01*
X314506627Y-125996640D02*
X310696628Y-125996640D01*
X304181570Y-131330640D02*
X302581310Y-132930900D01*
X325054165Y-127292100D02*
X322546228Y-124784163D01*
X310696628Y-125996640D02*
X305362629Y-131330640D01*
X305362629Y-131330640D02*
X304181570Y-131330640D01*
X315719104Y-124784163D02*
X314506627Y-125996640D01*
X302581310Y-132930900D02*
X301449740Y-132930900D01*
X340779100Y-125387100D02*
X338863940Y-125387100D01*
X338863940Y-125387100D02*
X338787740Y-125310900D01*
X358178100Y-132880100D02*
X360149140Y-132880100D01*
X360149140Y-132880100D02*
X360199940Y-132930900D01*
X354241100Y-137242580D02*
X355974620Y-137242580D01*
X355974620Y-137242580D02*
X356019100Y-137198100D01*
X351552684Y-137242580D02*
X354241100Y-137242580D01*
X351021620Y-137242580D02*
X351552684Y-137242580D01*
X347383100Y-140881100D02*
X351021620Y-137242580D01*
X300802601Y-172475599D02*
X309895859Y-172475599D01*
X312454908Y-169916550D02*
X317026909Y-169916550D01*
X317026909Y-169916550D02*
X318550906Y-168392553D01*
X298361100Y-174917100D02*
X300802601Y-172475599D01*
X318550906Y-168392553D02*
X321299077Y-168392553D01*
X309895859Y-172475599D02*
X312454908Y-169916550D01*
X321299077Y-168392553D02*
X321886530Y-167805100D01*
X323924708Y-167805100D02*
X324940706Y-168821100D01*
X321886530Y-167805100D02*
X323924708Y-167805100D01*
X324940706Y-168821100D02*
X329051426Y-168821100D01*
X344348438Y-161763090D02*
X346694110Y-161763090D01*
X329051426Y-168821100D02*
X331692965Y-166179561D01*
X331692965Y-166179561D02*
X339931967Y-166179561D01*
X339931967Y-166179561D02*
X344348438Y-161763090D01*
X346694110Y-161763090D02*
X347383100Y-161074100D01*
X345645740Y-155028900D02*
X347332300Y-155028900D01*
X347332300Y-155028900D02*
X347383100Y-154978100D01*
X180806621Y-185156579D02*
X168812733Y-185156579D01*
X298361100Y-174917100D02*
X295668640Y-177609560D01*
X291299608Y-177609560D02*
X290360100Y-178549070D01*
X180886100Y-185156579D02*
X180806621Y-185156579D01*
X184440541Y-185175599D02*
X183805541Y-184540599D01*
X285530620Y-183378550D02*
X274841419Y-183378550D01*
X250667689Y-185753569D02*
X240136511Y-185753569D01*
X182430679Y-185156579D02*
X180806621Y-185156579D01*
X295668640Y-177609560D02*
X291299608Y-177609560D01*
X183046659Y-184540599D02*
X182430679Y-185156579D01*
X274841419Y-183378550D02*
X274171449Y-184048521D01*
X274171449Y-184048521D02*
X262257457Y-184048521D01*
X262257457Y-184048521D02*
X262054494Y-183845558D01*
X262054494Y-183845558D02*
X260525723Y-183845558D01*
X290360100Y-178549070D02*
X285530620Y-183378550D01*
X260525723Y-183845558D02*
X260525721Y-183845560D01*
X183805541Y-184540599D02*
X183046659Y-184540599D01*
X260525721Y-183845560D02*
X252575698Y-183845560D01*
X252575698Y-183845560D02*
X250667689Y-185753569D01*
X240136511Y-185753569D02*
X239558541Y-185175599D01*
X122181969Y-173520100D02*
X117132100Y-173520100D01*
X138160608Y-183829578D02*
X136785610Y-182454580D01*
X144764608Y-183829578D02*
X138160608Y-183829578D01*
X136785610Y-182454580D02*
X135589713Y-182454580D01*
X146735372Y-184823100D02*
X145758130Y-184823100D01*
X125888601Y-176788659D02*
X123861541Y-174761599D01*
X158295609Y-184502560D02*
X157352649Y-185445520D01*
X168231752Y-185737560D02*
X164045608Y-185737560D01*
X163429628Y-186353540D02*
X162528570Y-186353540D01*
X123861541Y-174761599D02*
X123423468Y-174761599D01*
X168812733Y-185156579D02*
X168231752Y-185737560D01*
X164045608Y-185737560D02*
X163429628Y-186353540D01*
X162528570Y-186353540D02*
X160677591Y-184502560D01*
X160677591Y-184502560D02*
X158295609Y-184502560D01*
X157352649Y-185445520D02*
X147357792Y-185445520D01*
X147357792Y-185445520D02*
X146735372Y-184823100D01*
X145758130Y-184823100D02*
X144764608Y-183829578D01*
X125888601Y-177577601D02*
X125888601Y-176788659D01*
X123423468Y-174761599D02*
X122181969Y-173520100D01*
X135589713Y-182454580D02*
X131306683Y-178171550D01*
X131306683Y-178171550D02*
X126482550Y-178171550D01*
X126482550Y-178171550D02*
X125888601Y-177577601D01*
X301957740Y-177507900D02*
X300443900Y-177507900D01*
X300443900Y-177507900D02*
X300393100Y-177457100D01*
X115775740Y-132930900D02*
X115775740Y-132100320D01*
X115775740Y-132100320D02*
X111094520Y-127419100D01*
X102663610Y-128933590D02*
X89690590Y-128933590D01*
X111094520Y-127419100D02*
X104178100Y-127419100D01*
X104178100Y-127419100D02*
X102663610Y-128933590D01*
X89690590Y-128933590D02*
X84366100Y-123609100D01*
X84366100Y-123609100D02*
X81699100Y-123609100D01*
X81699100Y-123609100D02*
X80048100Y-125260100D01*
X73444100Y-163995100D02*
X73571100Y-163995100D01*
X114293620Y-171951620D02*
X115021534Y-172679534D01*
X115021534Y-172709666D02*
X115831968Y-173520100D01*
X81259438Y-168030570D02*
X85567762Y-168030570D01*
X73571100Y-163995100D02*
X73815590Y-164239590D01*
X89060458Y-166052589D02*
X90130418Y-167122550D01*
X85567762Y-168030570D02*
X87545742Y-166052589D01*
X87545742Y-166052589D02*
X89060458Y-166052589D01*
X92068578Y-167122554D02*
X92444689Y-167122554D01*
X77468459Y-164239590D02*
X81259438Y-168030570D01*
X90130418Y-167122550D02*
X92068574Y-167122550D01*
X92068574Y-167122550D02*
X92068578Y-167122554D01*
X73815590Y-164239590D02*
X77468459Y-164239590D01*
X92444689Y-167122554D02*
X96200695Y-170878560D01*
X96200695Y-170878560D02*
X110077676Y-170878560D01*
X110077676Y-170878560D02*
X111012205Y-169944031D01*
X111012205Y-169944031D02*
X113030025Y-169944032D01*
X113030025Y-169944032D02*
X114293620Y-171207626D01*
X114293620Y-171207626D02*
X114293620Y-171951620D01*
X115021534Y-172679534D02*
X115021534Y-172709666D01*
X115831968Y-173520100D02*
X117132100Y-173520100D01*
X71706740Y-155028900D02*
X73393300Y-155028900D01*
X73393300Y-155028900D02*
X73444100Y-154978100D01*
X115318540Y-177507900D02*
X116192300Y-177507900D01*
X116192300Y-177507900D02*
X117132100Y-176568100D01*
X79540100Y-134658100D02*
X60490100Y-134658100D01*
X60490100Y-134658100D02*
X58712100Y-132880100D01*
X78437740Y-125310900D02*
X79997300Y-125310900D01*
X79997300Y-125310900D02*
X80048100Y-125260100D01*
X71706740Y-155028900D02*
X58889900Y-155028900D01*
X58889900Y-155028900D02*
X58712100Y-154851100D01*
X71405750Y-155028900D02*
X71706740Y-155028900D01*
X57101740Y-132930900D02*
X58661300Y-132930900D01*
X58661300Y-132930900D02*
X58712100Y-132880100D01*
X215871530Y-201901530D02*
X177106398Y-201901530D01*
X218224100Y-199682100D02*
X216004670Y-201901530D01*
X216004670Y-201901530D02*
X215871530Y-201901530D01*
X222734260Y-199682100D02*
X218224100Y-199682100D01*
X212890100Y-133515100D02*
X218859100Y-133515100D01*
X210350100Y-130975100D02*
X212890100Y-133515100D01*
X203619100Y-130975100D02*
X210350100Y-130975100D01*
X306489100Y-137579100D02*
X306489100Y-136171940D01*
X306489100Y-136171940D02*
X306448460Y-136131300D01*
X314109100Y-144954032D02*
X313356032Y-145707100D01*
X313356032Y-145707100D02*
X306489100Y-145707100D01*
X317341675Y-144208560D02*
X314854570Y-144208560D01*
X314854570Y-144208560D02*
X314109100Y-144954032D01*
X318928631Y-143935569D02*
X317614666Y-143935569D01*
X317614666Y-143935569D02*
X317341675Y-144208560D01*
X321221100Y-139103100D02*
X321221100Y-141643100D01*
X321221100Y-141643100D02*
X318928631Y-143935569D01*
X323380100Y-136944100D02*
X321221100Y-139103100D01*
X324269100Y-136944100D02*
X323380100Y-136944100D01*
X331254100Y-129959100D02*
X324269100Y-136944100D01*
X334556100Y-129959100D02*
X331254100Y-129959100D01*
X334810100Y-130213100D02*
X334556100Y-129959100D01*
X343827100Y-130213100D02*
X334810100Y-130213100D01*
X347383100Y-139738100D02*
X350459630Y-136661570D01*
X350459630Y-136661570D02*
X355158630Y-136661570D01*
X356300042Y-136309100D02*
X358068532Y-138077590D01*
X365198660Y-136961880D02*
X365198660Y-136131300D01*
X355158630Y-136661570D02*
X355511100Y-136309100D01*
X355511100Y-136309100D02*
X356300042Y-136309100D01*
X358068532Y-138077590D02*
X364082950Y-138077590D01*
X364082950Y-138077590D02*
X365198660Y-136961880D01*
X343786460Y-128511300D02*
X343786460Y-130172460D01*
X343786460Y-130172460D02*
X343827100Y-130213100D01*
X360083100Y-155486100D02*
X360273600Y-155295600D01*
X360273600Y-155295600D02*
X365163100Y-150406100D01*
X354901500Y-156375100D02*
X359194100Y-156375100D01*
X359194100Y-156375100D02*
X360273600Y-155295600D01*
X353047300Y-158229300D02*
X354901500Y-156375100D01*
X350644460Y-158229300D02*
X353047300Y-158229300D01*
X365198660Y-136131300D02*
X367017300Y-136131300D01*
X367017300Y-136131300D02*
X367068100Y-136182100D01*
X350644460Y-158229300D02*
X350945450Y-158229300D01*
X324748570Y-169427570D02*
X324650100Y-169329100D01*
X318791569Y-168973562D02*
X317267571Y-170497560D01*
X305447640Y-173164560D02*
X305346100Y-173266100D01*
X350644460Y-159059880D02*
X347360240Y-162344100D01*
X347360240Y-162344100D02*
X344589100Y-162344100D01*
X324627034Y-169329100D02*
X323690515Y-168392579D01*
X323690515Y-168392579D02*
X322120723Y-168392579D01*
X344589100Y-162344100D02*
X340172629Y-166760571D01*
X350644460Y-158229300D02*
X350644460Y-159059880D01*
X340172629Y-166760571D02*
X331933627Y-166760571D01*
X331933627Y-166760571D02*
X329266629Y-169427570D01*
X329266629Y-169427570D02*
X324748570Y-169427570D01*
X324650100Y-169329100D02*
X324627034Y-169329100D01*
X322120723Y-168392579D02*
X321539740Y-168973562D01*
X321539740Y-168973562D02*
X318791569Y-168973562D01*
X317267571Y-170497560D02*
X312695570Y-170497560D01*
X312695570Y-170497560D02*
X310028571Y-173164560D01*
X310028571Y-173164560D02*
X305447640Y-173164560D01*
X305346100Y-191427100D02*
X305199763Y-191427100D01*
X133699568Y-196440530D02*
X124316796Y-196440530D01*
X277507611Y-195770589D02*
X272072100Y-201206100D01*
X158904477Y-200396579D02*
X157401723Y-200396579D01*
X298235324Y-194516510D02*
X296261285Y-194516510D01*
X135696222Y-194443875D02*
X133699568Y-196440530D01*
X245962790Y-201885580D02*
X224937740Y-201885580D01*
X303885971Y-192740892D02*
X300010941Y-192740892D01*
X296261285Y-194516510D02*
X294991286Y-195786510D01*
X177106398Y-201901530D02*
X175293457Y-200088589D01*
X300010941Y-192740892D02*
X298235324Y-194516510D01*
X224937740Y-201885580D02*
X222734260Y-199682100D01*
X293830510Y-195786510D02*
X293814589Y-195770589D01*
X155568638Y-200885559D02*
X154552668Y-201901530D01*
X272072100Y-201206100D02*
X268722396Y-201206100D01*
X268236815Y-200720519D02*
X264477381Y-200720519D01*
X159501407Y-200993510D02*
X158904477Y-200396579D01*
X147572459Y-198148590D02*
X146937458Y-198148590D01*
X268722396Y-201206100D02*
X268236815Y-200720519D01*
X293814589Y-195770589D02*
X277507611Y-195770589D01*
X305199763Y-191427100D02*
X303885971Y-192740892D01*
X172051662Y-200088589D02*
X171146742Y-200993510D01*
X264220340Y-200977560D02*
X249775390Y-200977560D01*
X264477381Y-200720519D02*
X264220340Y-200977560D01*
X247632780Y-200215589D02*
X245962790Y-201885580D01*
X294991286Y-195786510D02*
X293830510Y-195786510D01*
X249013419Y-200215589D02*
X247632780Y-200215589D01*
X249775390Y-200977560D02*
X249013419Y-200215589D01*
X141428741Y-193957590D02*
X140942457Y-194443875D01*
X175293457Y-200088589D02*
X172051662Y-200088589D01*
X171146742Y-200993510D02*
X159501407Y-200993510D01*
X157401723Y-200396579D02*
X156912743Y-200885559D01*
X124316796Y-196440530D02*
X119614961Y-191738695D01*
X156912743Y-200885559D02*
X155568638Y-200885559D01*
X154552668Y-201901530D02*
X151355530Y-201901530D01*
X142746459Y-193957590D02*
X141428741Y-193957590D01*
X151355530Y-201901530D02*
X147905741Y-198451741D01*
X147905741Y-198451741D02*
X147875610Y-198451741D01*
X147875610Y-198451741D02*
X147572459Y-198148590D01*
X146937458Y-198148590D02*
X142746459Y-193957590D01*
X140942457Y-194443875D02*
X135696222Y-194443875D01*
X119614961Y-191738695D02*
X119614961Y-190988961D01*
X119614961Y-190988961D02*
X117767100Y-189141100D01*
X306956460Y-180708300D02*
X305422300Y-180708300D01*
X305422300Y-180708300D02*
X305346100Y-180632100D01*
X203619100Y-130975100D02*
X201027100Y-130975100D01*
X201027100Y-130975100D02*
X198106100Y-128054100D01*
X76746100Y-163449090D02*
X77499631Y-163449090D01*
X85327099Y-167449560D02*
X87305079Y-165471580D01*
X92685352Y-166541545D02*
X96441357Y-170297550D01*
X81500100Y-167449560D02*
X85327099Y-167449560D01*
X89301120Y-165471579D02*
X90371083Y-166541545D01*
X77499631Y-163449090D02*
X81500100Y-167449560D01*
X90371083Y-166541545D02*
X92685352Y-166541545D01*
X96441357Y-170297550D02*
X109837014Y-170297550D01*
X87305079Y-165471580D02*
X89301120Y-165471579D01*
X109837014Y-170297550D02*
X110771542Y-169363022D01*
X110771542Y-169363022D02*
X113270686Y-169363023D01*
X113270686Y-169363023D02*
X116284764Y-172377100D01*
X116284764Y-172377100D02*
X117259100Y-172377100D01*
X120596660Y-136309100D02*
X120774460Y-136131300D01*
X89818169Y-146850100D02*
X82080100Y-146850100D01*
X91469166Y-148501100D02*
X90412732Y-147444666D01*
X90412732Y-147444666D02*
X90412732Y-147444663D01*
X90412732Y-147444663D02*
X89818169Y-146850100D01*
X95210518Y-148834550D02*
X92243582Y-148834550D01*
X92243582Y-148834550D02*
X91910132Y-148501100D01*
X91910132Y-148501100D02*
X91469166Y-148501100D01*
X98253580Y-145791488D02*
X95210518Y-148834550D01*
X98932572Y-143549730D02*
X98253580Y-144228722D01*
X98253580Y-144228722D02*
X98253580Y-145791488D01*
X100992448Y-143500550D02*
X100738477Y-143246579D01*
X99235723Y-143246579D02*
X98932572Y-143549730D01*
X100738477Y-143246579D02*
X99235723Y-143246579D01*
X101598459Y-143500550D02*
X100992448Y-143500550D01*
X108877100Y-143500550D02*
X101598459Y-143500550D01*
X110658688Y-143500550D02*
X108877100Y-143500550D01*
X113830100Y-140329138D02*
X110658688Y-143500550D01*
X116404553Y-139601590D02*
X114557647Y-139601590D01*
X114557647Y-139601590D02*
X113830100Y-140329138D01*
X118893574Y-139890560D02*
X116693523Y-139890560D01*
X116693523Y-139890560D02*
X116404553Y-139601590D01*
X119182544Y-139601590D02*
X118893574Y-139890560D01*
X120774460Y-138009674D02*
X119182544Y-139601590D01*
X120774460Y-136131300D02*
X120774460Y-138009674D01*
X120317260Y-180708300D02*
X118579900Y-180708300D01*
X118579900Y-180708300D02*
X118529100Y-180759100D01*
X76705460Y-158229300D02*
X76705460Y-159763460D01*
X76705460Y-159763460D02*
X76746100Y-159804100D01*
X80429100Y-135293100D02*
X79590900Y-136131300D01*
X79590900Y-136131300D02*
X62100460Y-136131300D01*
X83436460Y-128511300D02*
X81876900Y-128511300D01*
X81876900Y-128511300D02*
X81826100Y-128562100D01*
X59728100Y-156502100D02*
X60293785Y-156502100D01*
X60293785Y-156502100D02*
X60430295Y-156638610D01*
X73983200Y-156638610D02*
X75573890Y-158229300D01*
X60430295Y-156638610D02*
X73983200Y-156638610D01*
X75573890Y-158229300D02*
X76705460Y-158229300D01*
X62100460Y-136131300D02*
X59651900Y-136131300D01*
X59651900Y-136131300D02*
X59601100Y-136182100D01*
D25*
X281157127Y-164426500D02*
X278058246Y-167525381D01*
X278058246Y-167525381D02*
X278058246Y-168451749D01*
X223742785Y-205143100D02*
X266357100Y-205143100D01*
X223177100Y-205143100D02*
X223742785Y-205143100D01*
X269420552Y-191470113D02*
X269420552Y-193903947D01*
X269420552Y-193903947D02*
X268780290Y-194544209D01*
X277499527Y-145732100D02*
X274400646Y-148830981D01*
X274400646Y-148830981D02*
X274400646Y-149757349D01*
X273892727Y-127037700D02*
X270793846Y-130136581D01*
X270793846Y-130136581D02*
X270793846Y-131062949D01*
X53183073Y-117690500D02*
X51754537Y-117690500D01*
X51754537Y-117690500D02*
X49183252Y-120261785D01*
X49183252Y-120261785D02*
X48801955Y-120261785D01*
X49529618Y-136404815D02*
X48101082Y-136404815D01*
X48101082Y-136404815D02*
X46713013Y-137792884D01*
X94780100Y-189268100D02*
X104178100Y-189268100D01*
X141389100Y-205143100D02*
X210096100Y-205143100D01*
X116751100Y-193459100D02*
X122974100Y-199682100D01*
X135928100Y-199682100D02*
X141389100Y-205143100D01*
X122974100Y-199682100D02*
X135928100Y-199682100D01*
X104178100Y-189268100D02*
X108369100Y-193459100D01*
X108369100Y-193459100D02*
X116751100Y-193459100D01*
X210096100Y-205143100D02*
X219494100Y-205143100D01*
X219494100Y-205143100D02*
X219748100Y-205143100D01*
X223177100Y-205143100D02*
X222611415Y-205143100D01*
X222611415Y-205143100D02*
X219494100Y-205143100D01*
X88791185Y-173754185D02*
X91224100Y-176187100D01*
X84666755Y-173754185D02*
X88791185Y-173754185D01*
X89047873Y-171182900D02*
X87619337Y-171182900D01*
X87619337Y-171182900D02*
X86231268Y-172570969D01*
X43904718Y-155664718D02*
X43904718Y-155791718D01*
X47917100Y-164630100D02*
X53378100Y-170091100D01*
X59601100Y-172123100D02*
X66205100Y-172123100D01*
X43904718Y-155791718D02*
X47917100Y-159804100D01*
X47917100Y-159804100D02*
X47917100Y-164630100D01*
X53378100Y-170091100D02*
X57569100Y-170091100D01*
X57569100Y-170091100D02*
X59601100Y-172123100D01*
X84138840Y-174282100D02*
X84666755Y-173754185D01*
X66205100Y-172123100D02*
X68364100Y-174282100D01*
X68364100Y-174282100D02*
X84138840Y-174282100D01*
X43904718Y-155664718D02*
X43102068Y-156467369D01*
X299343527Y-158330500D02*
X297251996Y-160422031D01*
X297251996Y-160422031D02*
X297251996Y-160672614D01*
X292129927Y-120941700D02*
X289031046Y-124040581D01*
X289031046Y-124040581D02*
X289031046Y-124966949D01*
X295736727Y-139636100D02*
X293645196Y-141727631D01*
X293645196Y-141727631D02*
X293645196Y-141978214D01*
X294874667Y-200663100D02*
X294466165Y-200663100D01*
X281054101Y-204416099D02*
X280327100Y-205143100D01*
X294466165Y-200663100D02*
X293577136Y-201552130D01*
X286980204Y-201552130D02*
X286691234Y-201841100D01*
X286691234Y-201841100D02*
X286677100Y-201841100D01*
X266008139Y-204416099D02*
X265735148Y-204689090D01*
X286677100Y-201841100D02*
X284102101Y-204416099D01*
X284102101Y-204416099D02*
X281054101Y-204416099D01*
X277025100Y-205143100D02*
X274993100Y-207175100D01*
X293577136Y-201552130D02*
X286980204Y-201552130D01*
X280327100Y-205143100D02*
X277025100Y-205143100D01*
X274993100Y-207175100D02*
X269465062Y-207175100D01*
X223799052Y-204689090D02*
X223364062Y-204254100D01*
X269465062Y-207175100D02*
X266706061Y-204416099D01*
X266706061Y-204416099D02*
X266008139Y-204416099D01*
X265735148Y-204689090D02*
X223799052Y-204689090D01*
X223364062Y-204254100D02*
X222288100Y-204254100D01*
X292853710Y-182085615D02*
X291439630Y-183499695D01*
X291439630Y-183499695D02*
X291439630Y-184889252D01*
X71877473Y-121297300D02*
X70448937Y-121297300D01*
X70448937Y-121297300D02*
X67877652Y-123868585D01*
X67877652Y-123868585D02*
X67496355Y-123868585D01*
X68270673Y-140042500D02*
X66842137Y-140042500D01*
X66842137Y-140042500D02*
X65454068Y-141430569D01*
X109893100Y-192732100D02*
X110166090Y-193005090D01*
X110166090Y-193005090D02*
X116939157Y-193005090D01*
X116939157Y-193005090D02*
X123162156Y-199228090D01*
X123162156Y-199228090D02*
X136116157Y-199228090D01*
X136116157Y-199228090D02*
X141577156Y-204689090D01*
X141577156Y-204689090D02*
X221853110Y-204689090D01*
X221853110Y-204689090D02*
X222288100Y-204254100D01*
X109639100Y-179362100D02*
X107688785Y-177411785D01*
X107688785Y-177411785D02*
X103361155Y-177411785D01*
X107742273Y-174840500D02*
X106313737Y-174840500D01*
X106313737Y-174840500D02*
X104925668Y-176228569D01*
X69253100Y-169456100D02*
X91478100Y-169456100D01*
X64280185Y-161308185D02*
X66459100Y-163487100D01*
X66459100Y-163487100D02*
X66459100Y-166662100D01*
X60231955Y-161308185D02*
X64280185Y-161308185D01*
X66459100Y-166662100D02*
X69253100Y-169456100D01*
X91478100Y-169456100D02*
X99433785Y-177411785D01*
X99433785Y-177411785D02*
X103361155Y-177411785D01*
X64613073Y-158736900D02*
X63184537Y-158736900D01*
X63184537Y-158736900D02*
X61796468Y-160124969D01*
X132615962Y-187998100D02*
X133134100Y-187998100D01*
X133134100Y-187998100D02*
X134150100Y-189014100D01*
X124574757Y-183435369D02*
X127130172Y-183435369D01*
X129406903Y-185712100D02*
X129406903Y-186302903D01*
X131102100Y-187998100D02*
X132615962Y-187998100D01*
X127130172Y-183435369D02*
X129406903Y-185712100D01*
X129406903Y-186302903D02*
X131102100Y-187998100D01*
X316818727Y-148322900D02*
X313719846Y-151421781D01*
X313719846Y-151421781D02*
X313719846Y-152348149D01*
X309554327Y-110934100D02*
X307462796Y-113025631D01*
X307462796Y-113025631D02*
X307462796Y-113276214D01*
X313211927Y-129628500D02*
X310113046Y-132727381D01*
X310113046Y-132727381D02*
X310113046Y-133653749D01*
X221526100Y-203492100D02*
X223244129Y-203492101D01*
X223244129Y-203492101D02*
X223987108Y-204235080D01*
X300774100Y-198666100D02*
X302679100Y-196761100D01*
X274805044Y-206721090D02*
X276837043Y-204689090D01*
X280866044Y-203962089D02*
X283914045Y-203962089D01*
X310172100Y-194094100D02*
X313093100Y-194094100D01*
X276837043Y-204689090D02*
X280139044Y-204689090D01*
X266894118Y-203962089D02*
X267160071Y-204228043D01*
X267160071Y-204228043D02*
X269653118Y-206721090D01*
X265820082Y-203962089D02*
X266894118Y-203962089D01*
X265547092Y-204235080D02*
X265820082Y-203962089D01*
X306489100Y-195364100D02*
X308902100Y-195364100D01*
X269653118Y-206721090D02*
X274805044Y-206721090D01*
X280139044Y-204689090D02*
X280866044Y-203962089D01*
X296710100Y-199936100D02*
X297980100Y-198666100D01*
X283914045Y-203962089D02*
X286489043Y-201387090D01*
X293389079Y-201098120D02*
X294551100Y-199936100D01*
X223987108Y-204235080D02*
X265547092Y-204235080D01*
X286489043Y-201387090D02*
X286503177Y-201387090D01*
X286503177Y-201387090D02*
X286792147Y-201098120D01*
X286792147Y-201098120D02*
X293389079Y-201098120D01*
X294551100Y-199936100D02*
X296710100Y-199936100D01*
X297980100Y-198666100D02*
X300774100Y-198666100D01*
X302679100Y-196761100D02*
X305092100Y-196761100D01*
X305092100Y-196761100D02*
X306489100Y-195364100D01*
X308902100Y-195364100D02*
X310172100Y-194094100D01*
X314532727Y-174789700D02*
X311433846Y-177888581D01*
X311433846Y-177888581D02*
X311433846Y-178814949D01*
X92857873Y-113169300D02*
X91429337Y-113169300D01*
X91429337Y-113169300D02*
X88858052Y-115740585D01*
X88858052Y-115740585D02*
X88476755Y-115740585D01*
X89251073Y-131863700D02*
X87822537Y-131863700D01*
X87822537Y-131863700D02*
X86434468Y-133251769D01*
X88233785Y-168729100D02*
X88506775Y-169002090D01*
X91666157Y-169002090D02*
X91932110Y-169268044D01*
X95422166Y-172758100D02*
X111290100Y-172758100D01*
X88506775Y-169002090D02*
X91666157Y-169002090D01*
X87668100Y-168729100D02*
X88233785Y-168729100D01*
X91932110Y-169268044D02*
X95422166Y-172758100D01*
X221526100Y-203492100D02*
X220783120Y-204235080D01*
X220783120Y-204235080D02*
X141765212Y-204235080D01*
X141765212Y-204235080D02*
X136304215Y-198774082D01*
X136304215Y-198774082D02*
X136288093Y-198774080D01*
X136288093Y-198774080D02*
X136015103Y-198501090D01*
X129472090Y-182085615D02*
X127003980Y-182085615D01*
X127003980Y-182085615D02*
X126392199Y-182697396D01*
X116624100Y-182537100D02*
X123676488Y-182537100D01*
X123676488Y-182537100D02*
X124574757Y-183435369D01*
X81212355Y-153129385D02*
X85438385Y-153129385D01*
X85593473Y-150558100D02*
X84164937Y-150558100D01*
X84164937Y-150558100D02*
X82776868Y-151946169D01*
X333582646Y-154583349D02*
X333582646Y-153656981D01*
X333582646Y-153656981D02*
X336681527Y-150558100D01*
X329417127Y-113169300D02*
X326318246Y-116268181D01*
X326318246Y-116268181D02*
X326318246Y-117194549D01*
X333023927Y-131863700D02*
X329925046Y-134962581D01*
X329925046Y-134962581D02*
X329925046Y-135888949D01*
X223124193Y-202730100D02*
X224175164Y-203781070D01*
X267082176Y-203508081D02*
X267754100Y-204180006D01*
X269841174Y-206267080D02*
X274616987Y-206267080D01*
X293277566Y-200567566D02*
X294363043Y-199482090D01*
X220764100Y-202730100D02*
X223124193Y-202730100D01*
X266706062Y-203508079D02*
X267082176Y-203508081D01*
X224175164Y-203781070D02*
X265359035Y-203781070D01*
X265359035Y-203781070D02*
X265632025Y-203508079D01*
X280677987Y-203508079D02*
X283725988Y-203508079D01*
X265632025Y-203508079D02*
X266706062Y-203508079D01*
X283725988Y-203508079D02*
X286300986Y-200933080D01*
X286315120Y-200933080D02*
X286604090Y-200644110D01*
X293201022Y-200644110D02*
X293277566Y-200567566D01*
X267754100Y-204180006D02*
X269841174Y-206267080D01*
X274616987Y-206267080D02*
X276648986Y-204235080D01*
X276648986Y-204235080D02*
X279950987Y-204235080D01*
X286604090Y-200644110D02*
X293201022Y-200644110D01*
X279950987Y-204235080D02*
X280677987Y-203508079D01*
X286300986Y-200933080D02*
X286315120Y-200933080D01*
X330179046Y-175208149D02*
X330179046Y-174281781D01*
X330179046Y-174281781D02*
X333277927Y-171182900D01*
X325158100Y-190919100D02*
X327698100Y-188379100D01*
X327698100Y-188379100D02*
X331508100Y-188379100D01*
X320078100Y-190919100D02*
X325158100Y-190919100D01*
X317665100Y-193332100D02*
X320078100Y-190919100D01*
X312779138Y-193332100D02*
X317665100Y-193332100D01*
X309984043Y-193640090D02*
X312471148Y-193640090D01*
X312471148Y-193640090D02*
X312779138Y-193332100D01*
X306301043Y-194910090D02*
X308714044Y-194910090D01*
X308714044Y-194910090D02*
X309984043Y-193640090D01*
X302491043Y-196307090D02*
X304904044Y-196307090D01*
X304904044Y-196307090D02*
X306301043Y-194910090D01*
X300586044Y-198212090D02*
X302491043Y-196307090D01*
X294363043Y-199482090D02*
X296522044Y-199482090D01*
X296522044Y-199482090D02*
X297792043Y-198212090D01*
X297792043Y-198212090D02*
X300586044Y-198212090D01*
X138595100Y-197650100D02*
X142786100Y-197650100D01*
X135790131Y-197650100D02*
X138595100Y-197650100D01*
X112720673Y-110934100D02*
X111292137Y-110934100D01*
X111292137Y-110934100D02*
X108720852Y-113505385D01*
X108720852Y-113505385D02*
X108339555Y-113505385D01*
X109063073Y-129628500D02*
X107634537Y-129628500D01*
X107634537Y-129628500D02*
X106246468Y-131016569D01*
X220764100Y-202730100D02*
X219713130Y-203781070D01*
X157045070Y-203781070D02*
X156756100Y-203492100D01*
X219713130Y-203781070D02*
X157045070Y-203781070D01*
X117008421Y-192281397D02*
X117008421Y-192432287D01*
X117008421Y-192432287D02*
X117513100Y-192936967D01*
X117513100Y-192936967D02*
X123350213Y-198774080D01*
X123350213Y-198774080D02*
X134666151Y-198774080D01*
X134666151Y-198774080D02*
X135790131Y-197650100D01*
X105456273Y-148322900D02*
X104027737Y-148322900D01*
X104027737Y-148322900D02*
X102639668Y-149710969D01*
X152803648Y-191520913D02*
X149876561Y-191520913D01*
X149876561Y-191520913D02*
X149670362Y-191314714D01*
X347298646Y-125373349D02*
X347298646Y-124446981D01*
X347298646Y-124446981D02*
X350397527Y-121348100D01*
X354055127Y-140042500D02*
X351963596Y-142134031D01*
X351963596Y-142134031D02*
X351963596Y-142384614D01*
X354563046Y-162762149D02*
X354563046Y-161835781D01*
X354563046Y-161835781D02*
X357661927Y-158736900D01*
X345605100Y-175044100D02*
X355130100Y-175044100D01*
X355638100Y-175044100D02*
X355130100Y-175044100D01*
X355130100Y-175044100D02*
X355257100Y-175044100D01*
X342684100Y-179362100D02*
X342684100Y-177965100D01*
X342684100Y-177965100D02*
X345605100Y-175044100D01*
X342684100Y-179616100D02*
X342684100Y-179362100D01*
X302302986Y-195853080D02*
X304715987Y-195853080D01*
X274428930Y-205813070D02*
X276460929Y-203781070D01*
X220002100Y-201841100D02*
X222877260Y-201841100D01*
X286401900Y-200190100D02*
X293012967Y-200190100D01*
X304715987Y-195853080D02*
X306112986Y-194456080D01*
X306112986Y-194456080D02*
X308525987Y-194456080D01*
X265443968Y-203054069D02*
X267270231Y-203054069D01*
X276460929Y-203781070D02*
X279762930Y-203781070D01*
X279762930Y-203781070D02*
X280489930Y-203054069D01*
X222877260Y-201841100D02*
X224363220Y-203327060D01*
X280489930Y-203054069D02*
X283537931Y-203054069D01*
X265170978Y-203327060D02*
X265443968Y-203054069D01*
X294174986Y-199028080D02*
X296333987Y-199028080D01*
X335826100Y-187617100D02*
X337858100Y-185585100D01*
X283537931Y-203054069D02*
X286401900Y-200190100D01*
X293012967Y-200190100D02*
X294174986Y-199028080D01*
X327818034Y-187617100D02*
X335826100Y-187617100D01*
X296333987Y-199028080D02*
X297603986Y-197758080D01*
X224363220Y-203327060D02*
X265170978Y-203327060D01*
X297603986Y-197758080D02*
X300397987Y-197758080D01*
X270029231Y-205813070D02*
X274428930Y-205813070D01*
X267270231Y-203054069D02*
X270029231Y-205813070D01*
X319890043Y-190465090D02*
X324970044Y-190465090D01*
X300397987Y-197758080D02*
X302302986Y-195853080D01*
X308525987Y-194456080D02*
X310103977Y-192878090D01*
X310103977Y-192878090D02*
X317477044Y-192878090D01*
X317477044Y-192878090D02*
X319890043Y-190465090D01*
X324970044Y-190465090D02*
X327818034Y-187617100D01*
X337858100Y-185585100D02*
X340652100Y-185585100D01*
X342684100Y-183553100D02*
X342684100Y-179362100D01*
X340652100Y-185585100D02*
X342684100Y-183553100D01*
X137198100Y-199025901D02*
X137198100Y-198639832D01*
X137198100Y-198639832D02*
X137084234Y-198525966D01*
X130195873Y-120941700D02*
X128767337Y-120941700D01*
X128767337Y-120941700D02*
X127379268Y-122329769D01*
X126538273Y-139636100D02*
X125109737Y-139636100D01*
X125109737Y-139636100D02*
X123721668Y-141024169D01*
X124879100Y-180505100D02*
X130340100Y-180505100D01*
X130340100Y-180505100D02*
X134912100Y-185077100D01*
X134912100Y-185077100D02*
X135674100Y-185077100D01*
X220002100Y-201841100D02*
X218516140Y-203327060D01*
X155705130Y-203781070D02*
X141953269Y-203781070D01*
X141953269Y-203781070D02*
X137198100Y-199025901D01*
X218516140Y-203327060D02*
X157667022Y-203327060D01*
X157667022Y-203327060D02*
X157105061Y-202765099D01*
X156407139Y-202765099D02*
X156029099Y-203143139D01*
X157105061Y-202765099D02*
X156407139Y-202765099D01*
X156029099Y-203457101D02*
X155705130Y-203781070D01*
X156029099Y-203143139D02*
X156029099Y-203457101D01*
X122931473Y-158330500D02*
X121502937Y-158330500D01*
X121502937Y-158330500D02*
X120114868Y-159718569D01*
X365993046Y-121715749D02*
X365993046Y-120789381D01*
X365993046Y-120789381D02*
X369091927Y-117690500D01*
X369650646Y-140410149D02*
X369650646Y-139483781D01*
X369650646Y-139483781D02*
X372749527Y-136384900D01*
X373257446Y-159104549D02*
X373257446Y-158178181D01*
X373257446Y-158178181D02*
X376356327Y-155079300D01*
X367957100Y-172377100D02*
X369989100Y-170345100D01*
X369989100Y-170345100D02*
X374307100Y-170345100D01*
X364274100Y-172377100D02*
X367957100Y-172377100D01*
X363258100Y-173393100D02*
X364274100Y-172377100D01*
X359321100Y-173393100D02*
X363258100Y-173393100D01*
X358397101Y-174317099D02*
X359321100Y-173393100D01*
X345417043Y-174590090D02*
X345690034Y-174317099D01*
X345690034Y-174317099D02*
X358397101Y-174317099D01*
X342496044Y-177511090D02*
X345417043Y-174590090D01*
X340464044Y-185131090D02*
X342230090Y-183365044D01*
X342230090Y-183365044D02*
X342230090Y-177777043D01*
X342230090Y-177777043D02*
X342496044Y-177511090D01*
X337670043Y-185131090D02*
X340464044Y-185131090D01*
X327629977Y-187163090D02*
X335638044Y-187163090D01*
X335638044Y-187163090D02*
X337670043Y-185131090D01*
X325793100Y-188999968D02*
X327629977Y-187163090D01*
X319701986Y-190011080D02*
X324781988Y-190011080D01*
X324781988Y-190011080D02*
X325793100Y-188999968D01*
X309915920Y-192424080D02*
X317288987Y-192424080D01*
X317288987Y-192424080D02*
X319701986Y-190011080D01*
X305924929Y-194002070D02*
X308337931Y-194002070D01*
X308337931Y-194002070D02*
X309915920Y-192424080D01*
X302114929Y-195399070D02*
X304527930Y-195399070D01*
X304527930Y-195399070D02*
X305924929Y-194002070D01*
X297415929Y-197304070D02*
X300209930Y-197304070D01*
X300209930Y-197304070D02*
X302114929Y-195399070D01*
X293986929Y-198574070D02*
X296145930Y-198574070D01*
X296145930Y-198574070D02*
X297415929Y-197304070D01*
X286213843Y-199736090D02*
X292824910Y-199736090D01*
X292824910Y-199736090D02*
X293986929Y-198574070D01*
X280301873Y-202600059D02*
X283349875Y-202600059D01*
X283349875Y-202600059D02*
X286213843Y-199736090D01*
X276272872Y-203327060D02*
X279574873Y-203327060D01*
X279574873Y-203327060D02*
X280301873Y-202600059D01*
X274240873Y-205359060D02*
X276272872Y-203327060D01*
X270217287Y-205359060D02*
X274240873Y-205359060D01*
X269639713Y-204781486D02*
X270217287Y-205359060D01*
X268858329Y-204000100D02*
X269639713Y-204781486D01*
X265255911Y-202600059D02*
X267458288Y-202600059D01*
X267458288Y-202600059D02*
X268858329Y-204000100D01*
X224535326Y-202857100D02*
X264998870Y-202857100D01*
X264998870Y-202857100D02*
X265255911Y-202600059D01*
X223065317Y-201387091D02*
X224535326Y-202857100D01*
X219240100Y-200952100D02*
X222630326Y-200952100D01*
X222630326Y-200952100D02*
X223065317Y-201387091D01*
X138214100Y-199399835D02*
X138214100Y-198539100D01*
X148386418Y-127006815D02*
X146957882Y-127006815D01*
X146957882Y-127006815D02*
X144386597Y-129578100D01*
X144386597Y-129578100D02*
X144005300Y-129578100D01*
X144775473Y-145732100D02*
X143346937Y-145732100D01*
X143346937Y-145732100D02*
X140775652Y-148303385D01*
X140775652Y-148303385D02*
X140394355Y-148303385D01*
X219240100Y-200952100D02*
X217319150Y-202873050D01*
X157293118Y-202311089D02*
X156159111Y-202311089D01*
X217319150Y-202873050D02*
X157855078Y-202873050D01*
X157855078Y-202873050D02*
X157293118Y-202311089D01*
X142141325Y-203327060D02*
X138214100Y-199399835D01*
X156159111Y-202311089D02*
X155143140Y-203327060D01*
X155143140Y-203327060D02*
X142141325Y-203327060D01*
X141117873Y-164426500D02*
X139689337Y-164426500D01*
X139689337Y-164426500D02*
X138301268Y-165814569D01*
X195652887Y-133515100D02*
X203619100Y-133515100D01*
X191606100Y-128054100D02*
X191606100Y-129468313D01*
X191606100Y-129468313D02*
X195652887Y-133515100D01*
X83436460Y-125310900D02*
X83737450Y-125310900D01*
X91732100Y-129451100D02*
X98971100Y-136690100D01*
X98971100Y-136690100D02*
X104432100Y-136690100D01*
X83737450Y-125310900D02*
X87877650Y-129451100D01*
X115775740Y-136834880D02*
X115775740Y-136131300D01*
X87877650Y-129451100D02*
X91732100Y-129451100D01*
X104432100Y-136690100D02*
X106083100Y-138341100D01*
X106083100Y-138341100D02*
X114269520Y-138341100D01*
X114269520Y-138341100D02*
X115775740Y-136834880D01*
X78437740Y-128511300D02*
X78437740Y-129410460D01*
X78437740Y-129410460D02*
X77635100Y-130213100D01*
X67602100Y-130213100D02*
X64884300Y-132930900D01*
X77635100Y-130213100D02*
X67602100Y-130213100D01*
X64884300Y-132930900D02*
X62100460Y-132930900D01*
X57950100Y-155613100D02*
X69761100Y-155613100D01*
X69761100Y-155613100D02*
X70269100Y-156121100D01*
X70269100Y-156121100D02*
X74608690Y-156121100D01*
X75700890Y-155028900D02*
X76705460Y-155028900D01*
X74608690Y-156121100D02*
X75700890Y-155028900D01*
X57101740Y-136131300D02*
X57101740Y-137665460D01*
X57101740Y-137665460D02*
X57061100Y-137706100D01*
X81045080Y-168548080D02*
X85782120Y-168548080D01*
X91854215Y-167640060D02*
X92230329Y-167640062D01*
X85782120Y-168548080D02*
X87760101Y-166570099D01*
X113776110Y-172196110D02*
X115989100Y-174409100D01*
X95986336Y-171396070D02*
X110292036Y-171396070D01*
X87760101Y-166570099D02*
X88846099Y-166570099D01*
X110292036Y-171396070D02*
X111226564Y-170461541D01*
X88846099Y-166570099D02*
X89916060Y-167640060D01*
X71666100Y-164757100D02*
X77254100Y-164757100D01*
X89916060Y-167640060D02*
X91854215Y-167640060D01*
X77254100Y-164757100D02*
X81045080Y-168548080D01*
X92230329Y-167640062D02*
X95986336Y-171396070D01*
X111226564Y-170461541D02*
X112815665Y-170461541D01*
X112815665Y-170461541D02*
X113776110Y-171421985D01*
X121785261Y-174409100D02*
X122528262Y-175152101D01*
X122528262Y-175152101D02*
X123082101Y-175152101D01*
X113776110Y-171421985D02*
X113776110Y-172196110D01*
X115989100Y-174409100D02*
X121785261Y-174409100D01*
X123082101Y-175152101D02*
X123482100Y-175552100D01*
X71706740Y-158229300D02*
X71706740Y-159763460D01*
X71706740Y-159763460D02*
X71666100Y-159804100D01*
X120317260Y-177507900D02*
X121754900Y-177507900D01*
X121754900Y-177507900D02*
X122085100Y-177838100D01*
X119097451Y-191346318D02*
X119097451Y-191953053D01*
X141643100Y-194475100D02*
X142532100Y-194475100D01*
X279198759Y-202419040D02*
X279925759Y-201692039D01*
X142532100Y-194475100D02*
X146723100Y-198666100D01*
X124102438Y-196958040D02*
X133913926Y-196958040D01*
X172266021Y-200606099D02*
X175079099Y-200606099D01*
X147358100Y-198666100D02*
X151111040Y-202419040D01*
X151111040Y-202419040D02*
X154767028Y-202419040D01*
X249561032Y-201495070D02*
X264434699Y-201495070D01*
X171361100Y-201511020D02*
X172266021Y-200606099D01*
X146723100Y-198666100D02*
X147358100Y-198666100D01*
X154767028Y-202419040D02*
X155782997Y-201403069D01*
X157127103Y-201403069D02*
X157616082Y-200914089D01*
X117908234Y-190157100D02*
X119097451Y-191346318D01*
X155782997Y-201403069D02*
X157127103Y-201403069D01*
X133913926Y-196958040D02*
X135910581Y-194961385D01*
X248799061Y-200733099D02*
X249561032Y-201495070D01*
X135910581Y-194961385D02*
X141156815Y-194961385D01*
X282829199Y-201692039D02*
X288233139Y-196288099D01*
X157616082Y-200914089D02*
X158690118Y-200914089D01*
X158690118Y-200914089D02*
X159287049Y-201511020D01*
X175079099Y-200606099D02*
X176892040Y-202419040D01*
X159287049Y-201511020D02*
X171361100Y-201511020D01*
X271434159Y-203419090D02*
X271700112Y-203685044D01*
X216697198Y-202419040D02*
X218891139Y-200225099D01*
X279925759Y-201692039D02*
X282829199Y-201692039D01*
X218891139Y-200225099D02*
X222545391Y-200225099D01*
X176892040Y-202419040D02*
X216697198Y-202419040D01*
X246177148Y-202403090D02*
X247847139Y-200733099D01*
X247847139Y-200733099D02*
X248799061Y-200733099D01*
X224723382Y-202403090D02*
X246177148Y-202403090D01*
X264691740Y-201238029D02*
X268022456Y-201238029D01*
X270203516Y-203419090D02*
X271434159Y-203419090D01*
X268022456Y-201238029D02*
X268288409Y-201503983D01*
X268288409Y-201503983D02*
X270203516Y-203419090D01*
X271700112Y-203685044D02*
X272466108Y-204451040D01*
X141156815Y-194961385D02*
X141643100Y-194475100D01*
X272466108Y-204451040D02*
X273864759Y-204451040D01*
X273864759Y-204451040D02*
X275896758Y-202419040D01*
X222545391Y-200225099D02*
X224723382Y-202403090D01*
X115354100Y-190157100D02*
X117908234Y-190157100D01*
X119097451Y-191953053D02*
X124102438Y-196958040D01*
X295205645Y-196304020D02*
X296475644Y-195034020D01*
X275896758Y-202419040D02*
X279198759Y-202419040D01*
X288233139Y-196288099D02*
X288931061Y-196288099D01*
X264434699Y-201495070D02*
X264691740Y-201238029D01*
X288931061Y-196288099D02*
X290109002Y-197466040D01*
X290109002Y-197466040D02*
X291884625Y-197466040D01*
X291884625Y-197466040D02*
X293046644Y-196304020D01*
X293046644Y-196304020D02*
X295205645Y-196304020D01*
X296475644Y-195034020D02*
X298449682Y-195034020D01*
X298449682Y-195034020D02*
X300225300Y-193258402D01*
X300225300Y-193258402D02*
X304100330Y-193258402D01*
X304100330Y-193258402D02*
X305172701Y-192186030D01*
X305172701Y-192186030D02*
X307199634Y-192186030D01*
X307199634Y-192186030D02*
X307477832Y-191907832D01*
X308648100Y-177584100D02*
X307032660Y-177584100D01*
X307032660Y-177584100D02*
X306956460Y-177507900D01*
X115318540Y-180708300D02*
X115318540Y-182501540D01*
X115318540Y-182501540D02*
X115354100Y-182537100D01*
X348907100Y-162090100D02*
X348135590Y-162861610D01*
X348135590Y-162861610D02*
X344803458Y-162861610D01*
X344803458Y-162861610D02*
X340386987Y-167278081D01*
X340386987Y-167278081D02*
X339377214Y-167278081D01*
X350644460Y-155028900D02*
X348957900Y-155028900D01*
X348957900Y-155028900D02*
X348907100Y-154978100D01*
X338112100Y-167278081D02*
X339377214Y-167278081D01*
X332147986Y-167278081D02*
X338112100Y-167278081D01*
X329480988Y-169945080D02*
X332147986Y-167278081D01*
X324511146Y-169945080D02*
X329480988Y-169945080D01*
X323742109Y-169176043D02*
X324511146Y-169945080D01*
X321754102Y-169491070D02*
X322335082Y-168910089D01*
X323476156Y-168910089D02*
X323742109Y-169176043D01*
X322335082Y-168910089D02*
X323476156Y-168910089D01*
X319005929Y-169491070D02*
X321754102Y-169491070D01*
X317481930Y-171015070D02*
X319005929Y-169491070D01*
X312909929Y-171015070D02*
X317481930Y-171015070D01*
X310242930Y-173682070D02*
X312909929Y-171015070D01*
X308023967Y-173682070D02*
X310242930Y-173682070D01*
X304511090Y-174082090D02*
X307623948Y-174082090D01*
X307623948Y-174082090D02*
X308023967Y-173682070D01*
X304076100Y-173647100D02*
X304511090Y-174082090D01*
X301957740Y-180708300D02*
X303237900Y-180708300D01*
X303237900Y-180708300D02*
X304076100Y-179870100D01*
X365198660Y-132930900D02*
X365198660Y-134495540D01*
X365198660Y-134495540D02*
X365163100Y-134531100D01*
X364020100Y-150406100D02*
X364020100Y-150817232D01*
X364020100Y-150817232D02*
X358979742Y-155857590D01*
X358979742Y-155857590D02*
X354687141Y-155857590D01*
X354687141Y-155857590D02*
X353407632Y-157137100D01*
X348195900Y-158229300D02*
X345645740Y-158229300D01*
X353407632Y-157137100D02*
X349288100Y-157137100D01*
X349288100Y-157137100D02*
X348195900Y-158229300D01*
X342176100Y-134277100D02*
X343690590Y-135791590D01*
X343690590Y-135791590D02*
X356514401Y-135791590D01*
X356514401Y-135791590D02*
X356854110Y-136131300D01*
X356854110Y-136131300D02*
X360199940Y-136131300D01*
X343786460Y-125310900D02*
X343268300Y-125310900D01*
X343268300Y-125310900D02*
X342176100Y-126403100D01*
X306448460Y-132930900D02*
X304888900Y-132930900D01*
X304888900Y-132930900D02*
X304838100Y-132880100D01*
X312458100Y-138976100D02*
X304838100Y-138976100D01*
X312966100Y-138468100D02*
X312458100Y-138976100D01*
X315760100Y-138468100D02*
X312966100Y-138468100D01*
X316395100Y-137833100D02*
X315760100Y-138468100D01*
X321759231Y-137833100D02*
X316395100Y-137833100D01*
X324054742Y-136426590D02*
X323165741Y-136426590D01*
X323165741Y-136426590D02*
X321759231Y-137833100D01*
X330365100Y-130116232D02*
X324054742Y-136426590D01*
X334770459Y-129441590D02*
X331039741Y-129441590D01*
X331039741Y-129441590D02*
X330365100Y-130116232D01*
X338787740Y-128511300D02*
X337783170Y-128511300D01*
X337783170Y-128511300D02*
X336852880Y-129441590D01*
X336852880Y-129441590D02*
X334770459Y-129441590D01*
X275273158Y-186829042D02*
X275266120Y-186836080D01*
X275780072Y-186382099D02*
X275333129Y-186829042D01*
X275266120Y-186836080D02*
X270171986Y-186836080D01*
X275333129Y-186829042D02*
X275273158Y-186829042D01*
X277822099Y-186382099D02*
X275780072Y-186382099D01*
X277914100Y-186474100D02*
X277822099Y-186382099D01*
X270171986Y-186836080D02*
X269282987Y-187725080D01*
X269282987Y-187725080D02*
X262331110Y-187725080D01*
X262331110Y-187725080D02*
X262058120Y-187452090D01*
X292072681Y-197920050D02*
X289487050Y-197920050D01*
X289487050Y-197920050D02*
X288582100Y-197015100D01*
X293234701Y-196758030D02*
X292072681Y-197920050D01*
X295393701Y-196758030D02*
X293234701Y-196758030D01*
X296663701Y-195488030D02*
X295393701Y-196758030D01*
X298637739Y-195488030D02*
X296663701Y-195488030D01*
X300147404Y-193978364D02*
X298637739Y-195488030D01*
X304288387Y-193712411D02*
X300413357Y-193712411D01*
X300413357Y-193712411D02*
X300147404Y-193978364D01*
X305360758Y-192640040D02*
X304288387Y-193712411D01*
X307773759Y-192640040D02*
X305360758Y-192640040D01*
X309351749Y-191062050D02*
X307773759Y-192640040D01*
X314490100Y-191062050D02*
X309351749Y-191062050D01*
X316724818Y-191062050D02*
X314490100Y-191062050D01*
X319699778Y-188087089D02*
X316724818Y-191062050D01*
X320742118Y-188087089D02*
X319699778Y-188087089D01*
X321758088Y-189103060D02*
X320742118Y-188087089D01*
X323888100Y-189103060D02*
X321758088Y-189103060D01*
X324405875Y-189103060D02*
X323888100Y-189103060D01*
X326987910Y-186521023D02*
X324405875Y-189103060D01*
X335261931Y-186255070D02*
X327253863Y-186255070D01*
X327253863Y-186255070D02*
X326987910Y-186521023D01*
X337655910Y-183861091D02*
X335261931Y-186255070D01*
X337928896Y-183588099D02*
X337928896Y-183588105D01*
X337928896Y-183588105D02*
X337655910Y-183861091D01*
X341776080Y-182283100D02*
X340471081Y-183588099D01*
X340471081Y-183588099D02*
X337928896Y-183588099D01*
X341776080Y-177588986D02*
X341776080Y-182283100D01*
X345501977Y-173863089D02*
X341776080Y-177588986D01*
X358209044Y-173863089D02*
X345501977Y-173863089D01*
X359133043Y-172939090D02*
X358209044Y-173863089D01*
X363070043Y-172939090D02*
X359133043Y-172939090D01*
X364086043Y-171923090D02*
X363070043Y-172939090D01*
X367769043Y-171923090D02*
X364086043Y-171923090D01*
X373685148Y-169891090D02*
X369801043Y-169891090D01*
X369801043Y-169891090D02*
X367769043Y-171923090D01*
X373958139Y-169618099D02*
X373685148Y-169891090D01*
X380853415Y-169583100D02*
X373993138Y-169583100D01*
X373993138Y-169583100D02*
X373958139Y-169618099D01*
X382181100Y-168821100D02*
X381615415Y-168821100D01*
X381615415Y-168821100D02*
X380853415Y-169583100D01*
X379077527Y-155976555D02*
X379287644Y-156186672D01*
X379287644Y-156186672D02*
X381665162Y-156186672D01*
X245402100Y-175134100D02*
X203656100Y-175134100D01*
X203656100Y-175134100D02*
X203619100Y-175171100D01*
X254546100Y-173734100D02*
X255050100Y-173734100D01*
X255050100Y-173734100D02*
X259118100Y-173734100D01*
X249974100Y-173734100D02*
X250478100Y-173734100D01*
X250478100Y-173734100D02*
X254546100Y-173734100D01*
X245402100Y-173734100D02*
X245906100Y-173734100D01*
X245906100Y-173734100D02*
X249974100Y-173734100D01*
X267646342Y-202146049D02*
X270132353Y-204632060D01*
X270132353Y-204632060D02*
X270929100Y-204632060D01*
X247742090Y-202403090D02*
X264810813Y-202403090D01*
X264810813Y-202403090D02*
X265067854Y-202146049D01*
X265067854Y-202146049D02*
X267646342Y-202146049D01*
X247561100Y-202095100D02*
X247561100Y-202222100D01*
X247561100Y-202222100D02*
X247742090Y-202403090D01*
X274571824Y-189774708D02*
X273157611Y-189774708D01*
X273157611Y-189774708D02*
X272225808Y-190706511D01*
X272225808Y-190706511D02*
X272225808Y-190886559D01*
X301138432Y-195347432D02*
X299635804Y-196850060D01*
X299635804Y-196850060D02*
X297227872Y-196850060D01*
X267834399Y-201692039D02*
X264879797Y-201692039D01*
X297227872Y-196850060D02*
X295957873Y-198120060D01*
X292636853Y-199282080D02*
X286025786Y-199282080D01*
X286025786Y-199282080D02*
X283161818Y-202146049D01*
X276084815Y-202873050D02*
X274052816Y-204905050D01*
X295957873Y-198120060D02*
X293798872Y-198120060D01*
X293798872Y-198120060D02*
X292636853Y-199282080D01*
X283161818Y-202146049D02*
X280113816Y-202146049D01*
X274052816Y-204905050D02*
X272278052Y-204905050D01*
X280113816Y-202146049D02*
X279386816Y-202873050D01*
X279386816Y-202873050D02*
X276084815Y-202873050D01*
X272278052Y-204905050D02*
X271246102Y-203873100D01*
X264622756Y-201949080D02*
X248939080Y-201949080D01*
X271246102Y-203873100D02*
X270015460Y-203873100D01*
X270015460Y-203873100D02*
X267834399Y-201692039D01*
X264879797Y-201692039D02*
X264622756Y-201949080D01*
X248939080Y-201949080D02*
X248450100Y-201460100D01*
X295714415Y-182247999D02*
X296181187Y-181781227D01*
X296181187Y-181781227D02*
X298268260Y-181781227D01*
X287058100Y-198555080D02*
X287201080Y-198555080D01*
X299013852Y-196396050D02*
X300789471Y-194620431D01*
X287201080Y-198555080D02*
X287474070Y-198828070D01*
X287474070Y-198828070D02*
X292448796Y-198828070D01*
X292448796Y-198828070D02*
X293610815Y-197666050D01*
X295769816Y-197666050D02*
X297039815Y-196396050D01*
X293610815Y-197666050D02*
X295769816Y-197666050D01*
X300789471Y-194620431D02*
X304664502Y-194620431D01*
X297039815Y-196396050D02*
X299013852Y-196396050D01*
X304664502Y-194620431D02*
X305736872Y-193548060D01*
X305736872Y-193548060D02*
X308149874Y-193548060D01*
X308149874Y-193548060D02*
X309727863Y-191970070D01*
X319802900Y-189268100D02*
X320205100Y-189268100D01*
X309727863Y-191970070D02*
X317100930Y-191970070D01*
X317100930Y-191970070D02*
X319802900Y-189268100D01*
X270548100Y-187744100D02*
X276136100Y-187744100D01*
X269659100Y-188633100D02*
X270548100Y-187744100D01*
X268897100Y-188633100D02*
X269659100Y-188633100D01*
X256578100Y-188633100D02*
X268897100Y-188633100D01*
X317253927Y-175686955D02*
X317464044Y-175897072D01*
X317464044Y-175897072D02*
X319841562Y-175897072D01*
X335449987Y-186709080D02*
X337843967Y-184315100D01*
X337843967Y-184315100D02*
X338493100Y-184315100D01*
X327441920Y-186709080D02*
X335449987Y-186709080D01*
X324593932Y-189557070D02*
X327441920Y-186709080D01*
X321570032Y-189557070D02*
X324593932Y-189557070D01*
X320554061Y-188541099D02*
X321570032Y-189557070D01*
X316912874Y-191516060D02*
X319887835Y-188541099D01*
X319887835Y-188541099D02*
X320554061Y-188541099D01*
X309539806Y-191516060D02*
X316912874Y-191516060D01*
X305548815Y-193094050D02*
X307961817Y-193094050D01*
X307961817Y-193094050D02*
X309539806Y-191516060D01*
X304476445Y-194166421D02*
X305548815Y-193094050D01*
X300601414Y-194166421D02*
X304476445Y-194166421D01*
X296851758Y-195942040D02*
X298825796Y-195942040D01*
X298825796Y-195942040D02*
X300601414Y-194166421D01*
X293422758Y-197212040D02*
X295581759Y-197212040D01*
X295581759Y-197212040D02*
X296851758Y-195942040D01*
X288417060Y-198374060D02*
X292260739Y-198374060D01*
X292260739Y-198374060D02*
X293422758Y-197212040D01*
X287820100Y-197777100D02*
X288417060Y-198374060D01*
X275514148Y-187290090D02*
X275787139Y-187017099D01*
X275787139Y-187017099D02*
X276933099Y-187017099D01*
X276933099Y-187017099D02*
X277025100Y-187109100D01*
X270360043Y-187290090D02*
X275514148Y-187290090D01*
X257648090Y-188179090D02*
X269471044Y-188179090D01*
X269471044Y-188179090D02*
X270360043Y-187290090D01*
X257340100Y-187871100D02*
X257648090Y-188179090D01*
X335999127Y-172080155D02*
X336209244Y-172290272D01*
X336209244Y-172290272D02*
X338586762Y-172290272D01*
X207429100Y-161074100D02*
X207429100Y-150025100D01*
X207429100Y-150025100D02*
X218859100Y-138595100D01*
X213334600Y-156692600D02*
X213334600Y-146659600D01*
X213334600Y-146659600D02*
X218859100Y-141135100D01*
X209969100Y-160058100D02*
X213334600Y-156692600D01*
X209969100Y-161074100D02*
X209969100Y-160058100D01*
M02*
