M48
INCH,TZ
T1C0.0315
T2C0.0669
T3C0.0689
T4C0.1570
%
G90
G05
T1
X33782Y-48066
X32282Y-70906
X25522Y-51266
X30922Y-62786
X52782Y-68246
X120613Y-47970
X18162Y-49846
X55644Y-53514
X54222Y-60886
X136693Y-52070
X48482Y-51126
X55999Y-77055
X129953Y-71690
X122573Y-73110
X107129Y-79731
X41602Y-47186
X106573Y-54310
X144053Y-50630
X129853Y-56210
X116593Y-66630
X123473Y-62690
X47383Y-74360
X107993Y-61670
X38742Y-61906
X22662Y-66006
X131293Y-63570
X145493Y-57990
X115193Y-76162
X45622Y-65846
X24102Y-58646
X16724Y-57214
X32362Y-55426
X40162Y-54546
X146913Y-65350
X139553Y-66790
X15302Y-64566
X138133Y-59430
X39642Y-72346
X113753Y-51910
X47042Y-58486
X109433Y-69030
X122053Y-55330
X128433Y-48850
X115173Y-59270
T2
X15509Y-62922
X19761Y-63748
X137709Y-57828
X141961Y-57002
X114749Y-57668
X119001Y-56842
X31129Y-61142
X120189Y-46368
X124441Y-45542
X35381Y-61968
X52989Y-66602
X57241Y-67428
X38241Y-47248
X18369Y-48202
X22621Y-49028
X55851Y-51870
X60102Y-52696
X32489Y-69262
X36741Y-70088
X54429Y-59242
X58681Y-60068
X33989Y-46422
X106149Y-52708
X110401Y-51882
X29981Y-50448
X25729Y-49622
X129429Y-54608
X133681Y-53782
X128009Y-47248
X132261Y-46422
X136269Y-50468
X105961Y-78556
X57001Y-75734
X60269Y-78576
X109229Y-75714
X41809Y-45542
X46061Y-46368
X116169Y-65028
X120421Y-64202
X123049Y-61088
X127301Y-60262
X140521Y-49642
X48689Y-49482
X52941Y-50308
X48009Y-72826
X143629Y-49028
X147881Y-48202
X51901Y-74724
X107569Y-60068
X111821Y-59242
X38949Y-60262
X113329Y-50308
X130869Y-61968
X135121Y-61142
X24309Y-57002
X28561Y-57828
X129529Y-70088
X16931Y-55570
X21182Y-56396
X22869Y-64362
X27121Y-65188
X32569Y-53782
X36821Y-54608
X146489Y-63748
X39849Y-70702
X117581Y-49482
X149321Y-55562
X45829Y-64202
X50081Y-65028
X43201Y-61088
X145069Y-56388
X133781Y-69262
X122149Y-71508
X126401Y-70682
X114369Y-74724
X118261Y-72826
X150741Y-62922
X44101Y-71528
X139129Y-65188
X143381Y-64362
X121629Y-53728
X125881Y-52902
X40369Y-52902
X44621Y-53728
X109009Y-67428
X51501Y-57668
X113261Y-66602
X47249Y-56842
T3
X18532Y-48233
X22458Y-48997
X56013Y-51901
X59940Y-52664
X32652Y-69293
X36578Y-70057
X106312Y-52677
X110238Y-51913
X129592Y-54577
X133518Y-53813
X123212Y-61057
X127138Y-60293
X57126Y-75843
X60144Y-78467
X143792Y-48997
X147718Y-48233
X116332Y-64997
X120258Y-64233
X122312Y-71477
X45992Y-64233
X49918Y-64997
X126238Y-70713
X106086Y-78447
X109104Y-75823
X48852Y-49513
X52778Y-50277
X48157Y-72898
X51753Y-74652
X107732Y-60037
X39112Y-60293
X43038Y-61057
X23032Y-64393
X26958Y-65157
X133618Y-69293
X131032Y-61937
X129692Y-70057
X111658Y-59273
X17093Y-55601
X21020Y-56364
X134958Y-61173
X145232Y-56357
X149158Y-55593
X118113Y-72898
X24472Y-57033
X28398Y-57797
X114517Y-74652
X32732Y-53813
X117418Y-49513
X36658Y-54577
X113492Y-50277
X40532Y-52933
X44458Y-53697
X137872Y-57797
X114912Y-57637
X118838Y-56873
X121792Y-53697
X125718Y-52933
X15672Y-62953
X19598Y-63717
X109172Y-67397
X113098Y-66633
X146652Y-63717
X150578Y-62953
X40012Y-70733
X141798Y-57033
X43938Y-71497
X139292Y-65157
X143218Y-64393
X31292Y-61173
X35218Y-61937
X53152Y-66633
X47412Y-56873
X51338Y-57637
X57078Y-67397
X54592Y-59273
X58518Y-60037
X25892Y-49653
X136432Y-50437
X140358Y-49673
X34152Y-46453
X38078Y-47217
X128172Y-47217
X132098Y-46453
X120352Y-46337
X124278Y-45573
X29818Y-50417
X41972Y-45573
X45898Y-46337
T4
X118295Y-64615
X125175Y-60675
X107595Y-77135
X50815Y-49895
X58635Y-77155
X49955Y-73775
X111135Y-67015
X36115Y-46835
X34615Y-69675
X145755Y-48615
X131555Y-54195
X130135Y-46835
X55115Y-67015
X122315Y-45955
X56555Y-59655
X141255Y-64775
X27855Y-50035
X33255Y-61555
X49375Y-57255
X123755Y-53315
X20495Y-48615
X43935Y-45955
X57977Y-52283
X138395Y-50055
X108275Y-52295
X132995Y-61555
X131655Y-69675
X124275Y-71095
X41075Y-60675
X115455Y-49895
X116315Y-73775
X47955Y-64615
X109695Y-59655
X24995Y-64775
X19057Y-55983
X147195Y-55975
X26435Y-57415
X148615Y-63335
X42495Y-53315
X17635Y-63335
X139835Y-57415
X116875Y-57255
X41975Y-71115
X34695Y-54195
T0
M30
