M48
INCH,TZ
T1C0.0157
T2C0.0320
T3C0.0390
T4C0.0394
T5C0.0430
T6C0.0472
T7C0.0512
T8C0.0579
T9C0.1614
%
G90
G05
T1
X20265Y-59365
X20492Y-66038
X21965Y-59065
X22465Y-54215
X22815Y-61265
X23115Y-52315
X23115Y-60965
X23465Y-53615
X23515Y-61615
X27565Y-58965
X27815Y-66429
X28215Y-62915
X28215Y-64865
X28915Y-61015
X28915Y-64565
X29365Y-58465
X30215Y-62915
X30215Y-64350
X31115Y-68315
X31115Y-70665
X31315Y-53015
X31515Y-49315
X31665Y-53265
X32215Y-50615
X32315Y-57815
X33637Y-60287
X34515Y-66429
X34815Y-65865
X35765Y-59515
X35915Y-69365
X37315Y-74515
X37417Y-73863
X39365Y-57065
X43165Y-70615
X43265Y-75879
X43365Y-66415
X43815Y-68015
X44204Y-67576
X44215Y-59715
X44715Y-75700
X45415Y-71865
X45415Y-74865
X45465Y-55815
X45915Y-71865
X46066Y-75701
X46115Y-68315
X46115Y-69515
X46165Y-67865
X46365Y-74465
X46665Y-71165
X46865Y-52315
X48065Y-70015
X48615Y-69115
X49165Y-71065
X49251Y-69798
X50465Y-62665
X52115Y-55365
X52815Y-74415
X53415Y-72865
X53549Y-78150
X53970Y-78160
X54107Y-77043
X54415Y-78165
X54515Y-77065
X54915Y-77065
X56072Y-79756
X56215Y-77815
X56451Y-72864
X56765Y-73615
X56913Y-74213
X57215Y-74465
X58015Y-64965
X59215Y-57765
X61315Y-63315
X61565Y-63665
X61715Y-80115
X61865Y-63965
X62113Y-64313
X62265Y-79565
X62365Y-64615
X62415Y-59615
X62615Y-64965
X62709Y-59958
X62765Y-73665
X62967Y-60255
X63115Y-73965
X63213Y-60563
X63465Y-60865
X65015Y-74165
X65215Y-54465
X65315Y-59465
X65315Y-74465
X66758Y-73565
X67065Y-73865
X68515Y-79265
X68565Y-59515
X68615Y-54565
X68865Y-59815
X68865Y-79515
X68915Y-54850
X72215Y-60015
X72215Y-72965
X72229Y-55029
X72515Y-55315
X72515Y-60315
X72515Y-73265
X74015Y-58715
X74015Y-63415
X74415Y-68415
X74419Y-58719
X78715Y-68315
X78979Y-68658
X79265Y-68965
X80165Y-68965
X83654Y-72904
X85915Y-78615
X86315Y-79115
X86615Y-79465
X86915Y-79815
X87215Y-80115
X87515Y-80415
X87865Y-80765
X88165Y-72565
X91765Y-68215
X92115Y-68465
X93015Y-68664
X93865Y-55315
X93865Y-60315
X93866Y-73514
X94151Y-55008
X94165Y-60015
X94165Y-73215
X97465Y-59815
X97465Y-79565
X97615Y-54850
X97815Y-59565
X97815Y-79315
X97915Y-54565
X99265Y-73015
X99615Y-72765
X101015Y-74265
X101165Y-54493
X101165Y-59465
X101315Y-73965
X102865Y-60865
X102865Y-73049
X103165Y-60565
X103172Y-73800
X103244Y-65586
X103465Y-60265
X103565Y-65265
X103765Y-59965
X103865Y-64965
X104065Y-59665
X104165Y-64665
X104465Y-64365
X104765Y-64065
X104865Y-80765
X106665Y-80564
X108715Y-73915
X109065Y-73665
X109415Y-73415
X110015Y-56615
X111465Y-63915
X112965Y-73115
X113015Y-78171
X113315Y-77865
X113615Y-77565
X115815Y-54415
X116092Y-79001
X116565Y-54115
X117015Y-54115
X117465Y-54115
X117465Y-68865
X117565Y-50615
X117815Y-50965
X117915Y-54115
X118065Y-51315
X118265Y-69865
X118315Y-51665
X118558Y-76908
X118665Y-61515
X119715Y-68365
X119715Y-70815
X120015Y-52315
X120015Y-54715
X120215Y-68215
X120215Y-71115
X120215Y-75365
X120665Y-54165
X120665Y-57365
X121054Y-75554
X121515Y-69915
X121565Y-69265
X123265Y-76415
X124115Y-48265
X125415Y-57515
X126065Y-74515
X127115Y-66965
X130515Y-74165
X130965Y-47765
X133265Y-58465
X133265Y-72565
X134165Y-49365
X134442Y-66788
X134715Y-49765
X134715Y-52865
X135365Y-51265
X136765Y-55015
X136765Y-55465
X136765Y-61015
X136765Y-63415
X137365Y-61015
X137365Y-63815
X139015Y-46015
X140015Y-68915
X140165Y-54015
X141015Y-52315
X143014Y-67609
X143315Y-59215
X143765Y-52965
X143765Y-59215
X144515Y-53615
X147365Y-67065
X150465Y-66465
T2
X81665Y-63415
X82665Y-63415
X83665Y-63415
X84665Y-63415
T3
X24123Y-66643
X25104Y-66834
X132886Y-63614
X116327Y-51763
X133867Y-63423
X147086Y-58034
X148067Y-57843
X116742Y-75792
X117641Y-75353
X25563Y-59283
X26544Y-59474
X148506Y-65394
X149487Y-65203
X42084Y-73174
X33823Y-56063
X34804Y-56254
X41103Y-72983
X115346Y-51954
X55683Y-61523
X41623Y-55183
X42604Y-55374
X16763Y-65203
X17744Y-65394
X56664Y-61714
X130026Y-48894
X131007Y-48703
X122206Y-48014
X123187Y-47823
X141146Y-66834
X142127Y-66643
X54243Y-68883
X55224Y-69074
X48503Y-59123
X49484Y-59314
X111026Y-69074
X112007Y-68883
X139726Y-59474
X140707Y-59283
X123646Y-55374
X124627Y-55183
X116766Y-59314
X117747Y-59123
X26983Y-51903
X27964Y-52094
X138286Y-52114
X139267Y-51923
X32383Y-63423
X33364Y-63614
X35243Y-48703
X36224Y-48894
X19623Y-50483
X20604Y-50674
X57104Y-54151
X58086Y-54341
X33743Y-71543
X34724Y-71734
X108166Y-54354
X109147Y-54163
X131446Y-56254
X132427Y-56063
X119167Y-66483
X43063Y-47823
X118186Y-66674
X48629Y-75353
X49528Y-75792
X145646Y-50674
X44044Y-48014
X126047Y-62543
X109284Y-78316
X49943Y-51763
X50924Y-51954
X56946Y-78336
X146627Y-50483
X125066Y-62734
X108530Y-78972
X57700Y-78992
X109586Y-61714
X110567Y-61523
X40203Y-62543
X41184Y-62734
X125147Y-72963
X47083Y-66483
X132527Y-71543
X48064Y-66674
X131546Y-71734
X18184Y-57851
X19166Y-58041
X124166Y-73154
T4
X64215Y-65880
X64215Y-68950
X66015Y-60880
X66015Y-63950
X94815Y-60878
X94815Y-63949
X69615Y-50880
X69615Y-53950
X67815Y-55881
X67815Y-58952
X98415Y-65880
X98415Y-68950
X96615Y-65880
X100215Y-55880
X100215Y-58950
X96615Y-68950
X94815Y-53950
X66015Y-55880
X66015Y-58950
X98415Y-53950
X102015Y-50880
X102015Y-53950
X64215Y-60880
X98415Y-50880
X69615Y-60880
X69615Y-63950
X64215Y-63950
X102015Y-65880
X100215Y-60880
X100215Y-63950
X66015Y-65880
X66015Y-68950
X98415Y-55880
X98415Y-58950
X66015Y-50880
X66015Y-53950
X94815Y-58949
X102015Y-68950
X94815Y-55878
X102015Y-60880
X73215Y-50880
X73215Y-53950
X71415Y-50880
X71415Y-53950
X64215Y-55880
X64215Y-58950
X73215Y-60880
X73215Y-63950
X102015Y-55880
X102015Y-58950
X73215Y-55880
X73215Y-58950
X71415Y-55880
X71415Y-58950
X102015Y-63950
X96615Y-53950
X64215Y-50880
X64215Y-53950
X67815Y-65880
X67815Y-68950
X71415Y-60880
X100215Y-53950
X98415Y-63950
X100215Y-50880
X93015Y-50880
X93015Y-53950
X96615Y-55880
X67815Y-60880
X93015Y-63950
X96615Y-60878
X98415Y-60880
X100215Y-65880
X100215Y-68950
X71415Y-63950
X93015Y-58950
X69615Y-55880
X69615Y-58950
X69615Y-65880
X69615Y-68950
X93015Y-55880
X67815Y-63950
X93015Y-60880
X96615Y-50880
X96615Y-58950
X96615Y-63949
X94815Y-50880
X67815Y-50880
X67815Y-53950
T5
X80165Y-50565
X80165Y-51565
X80165Y-52565
X80165Y-53565
X80165Y-54565
X80165Y-55565
X80165Y-56565
X80165Y-57565
X80165Y-58565
X80165Y-59565
X80165Y-60565
X80165Y-61565
X86165Y-50565
X86165Y-51565
X86165Y-52565
X86165Y-53565
X86165Y-54565
X86165Y-55565
X86165Y-56565
X86165Y-57565
X86165Y-58565
X86165Y-59565
X86165Y-60565
X86165Y-61565
T6
X25438Y-62495
X27213Y-63682
X132552Y-59275
X134642Y-59711
X146752Y-53695
X26878Y-55135
X28653Y-56322
X115297Y-71687
X117428Y-71567
X42938Y-51035
X44713Y-52222
X116432Y-54975
X118522Y-55411
X42418Y-68835
X44193Y-70022
X142902Y-62931
X123312Y-51035
X125402Y-51471
X140812Y-62495
X18078Y-61055
X19853Y-62242
X148172Y-61055
X150262Y-61491
X36913Y-53102
X139392Y-55135
X141482Y-55571
X110692Y-64735
X112782Y-65171
X115012Y-47615
X117102Y-48051
X35138Y-51915
X121872Y-43675
X123962Y-44111
X49818Y-54975
X55558Y-64735
X57333Y-65922
X51593Y-56162
X56998Y-57375
X58773Y-58562
X28298Y-47755
X30073Y-48942
X33698Y-59275
X35473Y-60462
X41518Y-58395
X43293Y-59582
X36558Y-44555
X38333Y-45742
X20938Y-46335
X22713Y-47522
X58420Y-50003
X60194Y-51190
X35058Y-67395
X148842Y-54131
X19500Y-53703
X21274Y-54890
X46153Y-44862
X107832Y-50015
X109922Y-50451
X131112Y-51915
X133202Y-52351
X129692Y-44555
X131782Y-44991
X119942Y-62771
X137952Y-47775
X140042Y-48211
X36833Y-68582
X44378Y-43675
X117852Y-62335
X124732Y-58395
X126822Y-58831
X147402Y-46771
X145312Y-46335
X60159Y-75402
X51258Y-47615
X53033Y-48802
X123832Y-68815
X50973Y-71687
X52380Y-73293
X61102Y-77317
X106071Y-75382
X108099Y-74714
X131212Y-67395
X133302Y-67831
X48398Y-62335
X50173Y-63522
X109252Y-57375
X111342Y-57811
X125922Y-69251
T7
X75435Y-50415
X77995Y-50415
T8
X23713Y-63507
X24329Y-63041
X26299Y-63224
X26358Y-63003
X116423Y-71751
X131332Y-60860
X131728Y-60197
X133595Y-59401
X133623Y-59628
X145532Y-55280
X145928Y-54617
X147795Y-53821
X147823Y-54048
X25153Y-56147
X25769Y-55681
X27739Y-55864
X27798Y-55643
X33413Y-52927
X34029Y-52461
X35999Y-52644
X116055Y-47741
X116083Y-47968
X36058Y-52423
X114528Y-73534
X114740Y-72791
X116337Y-71539
X18939Y-61784
X18998Y-61563
X114188Y-48537
X43799Y-51764
X43858Y-51543
X16353Y-62067
X16969Y-61601
X113792Y-49200
X41213Y-52047
X41829Y-51581
X138172Y-56720
X138568Y-56057
X140435Y-55261
X140463Y-55488
X115212Y-56560
X146952Y-62640
X147348Y-61977
X149215Y-61181
X122915Y-43801
X115608Y-55897
X121048Y-44597
X48093Y-55987
X48709Y-55521
X111735Y-64861
X111763Y-65088
X117475Y-55101
X117503Y-55328
X109472Y-66320
X109868Y-65657
X122943Y-44028
X149243Y-61408
X40693Y-69847
X41309Y-69381
X43279Y-69564
X43338Y-69343
X122488Y-51957
X124355Y-51161
X124383Y-51388
X50679Y-55704
X53833Y-65747
X54449Y-65281
X56419Y-65464
X56478Y-65243
X50738Y-55483
X122092Y-52620
X120652Y-45260
X55273Y-58387
X55889Y-57921
X139592Y-64080
X141855Y-62621
X141883Y-62848
X57859Y-58104
X139988Y-63417
X57918Y-57883
X26573Y-48767
X27189Y-48301
X31973Y-60287
X32589Y-59821
X34559Y-60004
X34618Y-59783
X34833Y-45567
X35449Y-45101
X37419Y-45284
X37478Y-45063
X19213Y-47347
X19829Y-46881
X21799Y-47064
X21858Y-46843
X56695Y-51015
X57311Y-50549
X59281Y-50732
X59340Y-50510
X33333Y-68407
X33949Y-67941
X35919Y-68124
X35978Y-67903
X106612Y-51600
X107008Y-50937
X108875Y-50141
X108903Y-50368
X129892Y-53500
X130288Y-52837
X132155Y-52041
X132183Y-52268
X128472Y-46140
X128868Y-45477
X130735Y-44681
X130763Y-44908
X29159Y-48484
X29218Y-48263
X116632Y-63920
X117028Y-63257
X118895Y-62461
X118923Y-62688
X123512Y-59980
X137128Y-48697
X125775Y-58521
X136732Y-49360
X123908Y-59317
X138995Y-47901
X139023Y-48128
X42653Y-44687
X43269Y-44221
X45239Y-44404
X45298Y-44183
X125803Y-58748
X107038Y-74970
X107176Y-75152
X60540Y-76464
X105807Y-77364
X105819Y-76592
X58159Y-75416
X60702Y-76302
X144092Y-47920
X144488Y-47257
X146355Y-46461
X146383Y-46688
X49045Y-72219
X49761Y-71928
X51616Y-72614
X51731Y-72416
X58925Y-75321
X49533Y-48627
X50149Y-48161
X52119Y-48344
X52178Y-48123
X108032Y-58960
X108428Y-58297
X110295Y-57501
X110323Y-57728
X122612Y-70400
X123008Y-69737
X132255Y-67521
X39793Y-59407
X42379Y-59124
X42438Y-58903
X46673Y-63347
X47289Y-62881
X49259Y-63064
X49318Y-62843
X129992Y-68980
X130388Y-68317
X132283Y-67748
X40409Y-58941
X18391Y-54249
X124875Y-68941
X124903Y-69168
X17775Y-54715
X20361Y-54432
X20420Y-54210
T9
X25025Y-45690
X50810Y-68720
X53635Y-54065
X21590Y-62570
X141230Y-45690
X144660Y-62570
X115440Y-68720
X112615Y-54065
X54515Y-75000
X111780Y-75000
X83165Y-66495
T0
M30
