G04 #@! TF.GenerationSoftware,KiCad,Pcbnew,(5.1.4-0-10_14)*
G04 #@! TF.CreationDate,2021-05-16T21:06:51-06:00*
G04 #@! TF.ProjectId,avlo44,61766c6f-3434-42e6-9b69-6361645f7063,0.1*
G04 #@! TF.SameCoordinates,Original*
G04 #@! TF.FileFunction,Legend,Bot*
G04 #@! TF.FilePolarity,Positive*
%FSLAX46Y46*%
G04 Gerber Fmt 4.6, Leading zero omitted, Abs format (unit mm)*
G04 Created by KiCad (PCBNEW (5.1.4-0-10_14)) date 2021-05-16 21:06:51*
%MOMM*%
%LPD*%
G04 APERTURE LIST*
%ADD10C,0.010000*%
%ADD11C,0.381000*%
%ADD12C,0.150000*%
G04 APERTURE END LIST*
D10*
G36*
X185339567Y-195535550D02*
G01*
X185350150Y-195546133D01*
X185360733Y-195535550D01*
X185350150Y-195524967D01*
X185339567Y-195535550D01*
X185339567Y-195535550D01*
G37*
X185339567Y-195535550D02*
X185350150Y-195546133D01*
X185360733Y-195535550D01*
X185350150Y-195524967D01*
X185339567Y-195535550D01*
G36*
X185384112Y-195948300D02*
G01*
X185380700Y-196064092D01*
X185374775Y-196208995D01*
X185366966Y-196369900D01*
X185357904Y-196533702D01*
X185349517Y-196667967D01*
X185337644Y-196838834D01*
X185326653Y-196976765D01*
X185315482Y-197091112D01*
X185303070Y-197191227D01*
X185288356Y-197286463D01*
X185270279Y-197386171D01*
X185264876Y-197414092D01*
X185260507Y-197470445D01*
X185273109Y-197494246D01*
X185299383Y-197481798D01*
X185312102Y-197467008D01*
X185336175Y-197413019D01*
X185357313Y-197321067D01*
X185375241Y-197195438D01*
X185389682Y-197040418D01*
X185400362Y-196860293D01*
X185407006Y-196659350D01*
X185409337Y-196441876D01*
X185407080Y-196212156D01*
X185402885Y-196054133D01*
X185389849Y-195662550D01*
X185384112Y-195948300D01*
X185384112Y-195948300D01*
G37*
X185384112Y-195948300D02*
X185380700Y-196064092D01*
X185374775Y-196208995D01*
X185366966Y-196369900D01*
X185357904Y-196533702D01*
X185349517Y-196667967D01*
X185337644Y-196838834D01*
X185326653Y-196976765D01*
X185315482Y-197091112D01*
X185303070Y-197191227D01*
X185288356Y-197286463D01*
X185270279Y-197386171D01*
X185264876Y-197414092D01*
X185260507Y-197470445D01*
X185273109Y-197494246D01*
X185299383Y-197481798D01*
X185312102Y-197467008D01*
X185336175Y-197413019D01*
X185357313Y-197321067D01*
X185375241Y-197195438D01*
X185389682Y-197040418D01*
X185400362Y-196860293D01*
X185407006Y-196659350D01*
X185409337Y-196441876D01*
X185407080Y-196212156D01*
X185402885Y-196054133D01*
X185389849Y-195662550D01*
X185384112Y-195948300D01*
G36*
X185167438Y-196570994D02*
G01*
X185157234Y-196616920D01*
X185147928Y-196702453D01*
X185147310Y-196710300D01*
X185126821Y-196946101D01*
X185104554Y-197142329D01*
X185080087Y-197301724D01*
X185052994Y-197427025D01*
X185022852Y-197520972D01*
X185021125Y-197525217D01*
X185005522Y-197566608D01*
X184981868Y-197633229D01*
X184957165Y-197705133D01*
X184926497Y-197789978D01*
X184893950Y-197871004D01*
X184871109Y-197921248D01*
X184846451Y-197972730D01*
X184832638Y-198006441D01*
X184831567Y-198011207D01*
X184845444Y-198022903D01*
X184882612Y-198007374D01*
X184931322Y-197971582D01*
X184974677Y-197915691D01*
X185018378Y-197824306D01*
X185060809Y-197704221D01*
X185100350Y-197562232D01*
X185135383Y-197405131D01*
X185164289Y-197239713D01*
X185185451Y-197072773D01*
X185197249Y-196911104D01*
X185199004Y-196847883D01*
X185198418Y-196733309D01*
X185194028Y-196645832D01*
X185186774Y-196587952D01*
X185177598Y-196562172D01*
X185167438Y-196570994D01*
X185167438Y-196570994D01*
G37*
X185167438Y-196570994D02*
X185157234Y-196616920D01*
X185147928Y-196702453D01*
X185147310Y-196710300D01*
X185126821Y-196946101D01*
X185104554Y-197142329D01*
X185080087Y-197301724D01*
X185052994Y-197427025D01*
X185022852Y-197520972D01*
X185021125Y-197525217D01*
X185005522Y-197566608D01*
X184981868Y-197633229D01*
X184957165Y-197705133D01*
X184926497Y-197789978D01*
X184893950Y-197871004D01*
X184871109Y-197921248D01*
X184846451Y-197972730D01*
X184832638Y-198006441D01*
X184831567Y-198011207D01*
X184845444Y-198022903D01*
X184882612Y-198007374D01*
X184931322Y-197971582D01*
X184974677Y-197915691D01*
X185018378Y-197824306D01*
X185060809Y-197704221D01*
X185100350Y-197562232D01*
X185135383Y-197405131D01*
X185164289Y-197239713D01*
X185185451Y-197072773D01*
X185197249Y-196911104D01*
X185199004Y-196847883D01*
X185198418Y-196733309D01*
X185194028Y-196645832D01*
X185186774Y-196587952D01*
X185177598Y-196562172D01*
X185167438Y-196570994D01*
G36*
X184893007Y-196117633D02*
G01*
X184882332Y-196357360D01*
X184870273Y-196572659D01*
X184857113Y-196759997D01*
X184843133Y-196915842D01*
X184828615Y-197036661D01*
X184813840Y-197118920D01*
X184812827Y-197123050D01*
X184795851Y-197192257D01*
X184775089Y-197279127D01*
X184762051Y-197334717D01*
X184696199Y-197535756D01*
X184595713Y-197730870D01*
X184529801Y-197828195D01*
X184449420Y-197937801D01*
X184394727Y-198015811D01*
X184364827Y-198063574D01*
X184358825Y-198082443D01*
X184361246Y-198082746D01*
X184390844Y-198078156D01*
X184443099Y-198071408D01*
X184450567Y-198070508D01*
X184511307Y-198056144D01*
X184564503Y-198025995D01*
X184612312Y-197976094D01*
X184656892Y-197902477D01*
X184700398Y-197801175D01*
X184744989Y-197668225D01*
X184792822Y-197499658D01*
X184821979Y-197387633D01*
X184848922Y-197255101D01*
X184870541Y-197089410D01*
X184886982Y-196888542D01*
X184898396Y-196650482D01*
X184904930Y-196373210D01*
X184906255Y-196244633D01*
X184910121Y-195683717D01*
X184893007Y-196117633D01*
X184893007Y-196117633D01*
G37*
X184893007Y-196117633D02*
X184882332Y-196357360D01*
X184870273Y-196572659D01*
X184857113Y-196759997D01*
X184843133Y-196915842D01*
X184828615Y-197036661D01*
X184813840Y-197118920D01*
X184812827Y-197123050D01*
X184795851Y-197192257D01*
X184775089Y-197279127D01*
X184762051Y-197334717D01*
X184696199Y-197535756D01*
X184595713Y-197730870D01*
X184529801Y-197828195D01*
X184449420Y-197937801D01*
X184394727Y-198015811D01*
X184364827Y-198063574D01*
X184358825Y-198082443D01*
X184361246Y-198082746D01*
X184390844Y-198078156D01*
X184443099Y-198071408D01*
X184450567Y-198070508D01*
X184511307Y-198056144D01*
X184564503Y-198025995D01*
X184612312Y-197976094D01*
X184656892Y-197902477D01*
X184700398Y-197801175D01*
X184744989Y-197668225D01*
X184792822Y-197499658D01*
X184821979Y-197387633D01*
X184848922Y-197255101D01*
X184870541Y-197089410D01*
X184886982Y-196888542D01*
X184898396Y-196650482D01*
X184904930Y-196373210D01*
X184906255Y-196244633D01*
X184910121Y-195683717D01*
X184893007Y-196117633D01*
G36*
X184180692Y-186448868D02*
G01*
X184016650Y-186455050D01*
X183999450Y-186783133D01*
X183995035Y-186912502D01*
X183993243Y-187076228D01*
X183994023Y-187266420D01*
X183997324Y-187475187D01*
X184003094Y-187694637D01*
X184005881Y-187777967D01*
X184011277Y-187955309D01*
X184016186Y-188165210D01*
X184020468Y-188397895D01*
X184023982Y-188643592D01*
X184026587Y-188892526D01*
X184028145Y-189134925D01*
X184028520Y-189354883D01*
X184028945Y-189573433D01*
X184030586Y-189801033D01*
X184033301Y-190029274D01*
X184036949Y-190249747D01*
X184041389Y-190454041D01*
X184046479Y-190633748D01*
X184052078Y-190780457D01*
X184052719Y-190794217D01*
X184059764Y-190944645D01*
X184066142Y-191085417D01*
X184071555Y-191209603D01*
X184075706Y-191310274D01*
X184078298Y-191380501D01*
X184079029Y-191408050D01*
X184080150Y-191492717D01*
X183963733Y-191503376D01*
X183842405Y-191529219D01*
X183721329Y-191580064D01*
X183620014Y-191647463D01*
X183609570Y-191656761D01*
X183562322Y-191700469D01*
X183518075Y-191644218D01*
X183460720Y-191599735D01*
X183393677Y-191590558D01*
X183325620Y-191613849D01*
X183265220Y-191666767D01*
X183223284Y-191740707D01*
X183195722Y-191810649D01*
X183169704Y-191873717D01*
X183144867Y-191933363D01*
X183111228Y-192015832D01*
X183075486Y-192104550D01*
X183044337Y-192182946D01*
X183032851Y-192212383D01*
X183001139Y-192292940D01*
X182979930Y-192340291D01*
X182965049Y-192360939D01*
X182952324Y-192361387D01*
X182942487Y-192353186D01*
X182909230Y-192339958D01*
X182848607Y-192331101D01*
X182793705Y-192328800D01*
X182718819Y-192331507D01*
X182669613Y-192343323D01*
X182629587Y-192369793D01*
X182606386Y-192391724D01*
X182566947Y-192443460D01*
X182562668Y-192488971D01*
X182595484Y-192532834D01*
X182667333Y-192579622D01*
X182691199Y-192592099D01*
X182755695Y-192630876D01*
X182807213Y-192672527D01*
X182824329Y-192692612D01*
X182853523Y-192752088D01*
X182878417Y-192826510D01*
X182895144Y-192900608D01*
X182899833Y-192959112D01*
X182896524Y-192977567D01*
X182884325Y-192992997D01*
X182862752Y-192985714D01*
X182824990Y-192951842D01*
X182793436Y-192918969D01*
X182677191Y-192805748D01*
X182553778Y-192709030D01*
X182412706Y-192621769D01*
X182243479Y-192536919D01*
X182185733Y-192510917D01*
X182007199Y-192450187D01*
X181803986Y-192411416D01*
X181587866Y-192395035D01*
X181370614Y-192401474D01*
X181164001Y-192431164D01*
X181024701Y-192468416D01*
X180803087Y-192561267D01*
X180599328Y-192684329D01*
X180418551Y-192833006D01*
X180265879Y-193002705D01*
X180146440Y-193188829D01*
X180094423Y-193302467D01*
X180014359Y-193562458D01*
X179973867Y-193828299D01*
X179971799Y-194095419D01*
X180007008Y-194359245D01*
X180078348Y-194615205D01*
X180184672Y-194858726D01*
X180324831Y-195085237D01*
X180497680Y-195290166D01*
X180622010Y-195405431D01*
X180821359Y-195555093D01*
X181019234Y-195665439D01*
X181221688Y-195738810D01*
X181434775Y-195777550D01*
X181603650Y-195785294D01*
X181799117Y-195775037D01*
X181976582Y-195743926D01*
X182148580Y-195688378D01*
X182327646Y-195604810D01*
X182425443Y-195550414D01*
X182488052Y-195515440D01*
X182534266Y-195492297D01*
X182554201Y-195485931D01*
X182554244Y-195485982D01*
X182565055Y-195506315D01*
X182591696Y-195558339D01*
X182631040Y-195635890D01*
X182679960Y-195732809D01*
X182729783Y-195831883D01*
X182789261Y-195949939D01*
X182846449Y-196062704D01*
X182896906Y-196161475D01*
X182936189Y-196237549D01*
X182955524Y-196274244D01*
X182987098Y-196342341D01*
X183007288Y-196403803D01*
X183011233Y-196430538D01*
X183016690Y-196487464D01*
X183029953Y-196554728D01*
X183031218Y-196559677D01*
X183044416Y-196611795D01*
X183064480Y-196692880D01*
X183088405Y-196790734D01*
X183107380Y-196869050D01*
X183140419Y-196999364D01*
X183174486Y-197122172D01*
X183207171Y-197229673D01*
X183236062Y-197314065D01*
X183258746Y-197367547D01*
X183264435Y-197377050D01*
X183278215Y-197407393D01*
X183298906Y-197464949D01*
X183318277Y-197525217D01*
X183344140Y-197597227D01*
X183381510Y-197685731D01*
X183425491Y-197780759D01*
X183471183Y-197872342D01*
X183513689Y-197950512D01*
X183548111Y-198005297D01*
X183562664Y-198022633D01*
X183580273Y-198042852D01*
X183617686Y-198088173D01*
X183668327Y-198150589D01*
X183696204Y-198185270D01*
X183829805Y-198330287D01*
X183969327Y-198436084D01*
X184121156Y-198505769D01*
X184291678Y-198542451D01*
X184445502Y-198550129D01*
X184542437Y-198547340D01*
X184630063Y-198541261D01*
X184695171Y-198532962D01*
X184715150Y-198528314D01*
X184851474Y-198483694D01*
X184955976Y-198445504D01*
X185037788Y-198409467D01*
X185106047Y-198371309D01*
X185169887Y-198326754D01*
X185205227Y-198298944D01*
X185282322Y-198225257D01*
X185367135Y-198125969D01*
X185449628Y-198013909D01*
X185519762Y-197901907D01*
X185529057Y-197885050D01*
X185565910Y-197817626D01*
X185595958Y-197764193D01*
X185612338Y-197736883D01*
X185632547Y-197693444D01*
X185658484Y-197616025D01*
X185688036Y-197512246D01*
X185719091Y-197389727D01*
X185749535Y-197256089D01*
X185761672Y-197198278D01*
X185771505Y-197133288D01*
X185781537Y-197038060D01*
X185790678Y-196924672D01*
X185797841Y-196805201D01*
X185798670Y-196787671D01*
X185804771Y-196667794D01*
X185811148Y-196583031D01*
X185819000Y-196526172D01*
X185829525Y-196490007D01*
X185843919Y-196467327D01*
X185853365Y-196458443D01*
X185895330Y-196423306D01*
X185918721Y-196403046D01*
X185924769Y-196397898D01*
X185538480Y-196397898D01*
X185538366Y-196576751D01*
X185537709Y-196722114D01*
X185536318Y-196838407D01*
X185534000Y-196930053D01*
X185530564Y-197001471D01*
X185525818Y-197057085D01*
X185519569Y-197101314D01*
X185511627Y-197138580D01*
X185501798Y-197173304D01*
X185494133Y-197197133D01*
X185468016Y-197282518D01*
X185446058Y-197365261D01*
X185434816Y-197417871D01*
X185402453Y-197531059D01*
X185343553Y-197660369D01*
X185264392Y-197795172D01*
X185171243Y-197924842D01*
X185070382Y-198038749D01*
X185065289Y-198043800D01*
X184947004Y-198136330D01*
X184801801Y-198212764D01*
X184643848Y-198267210D01*
X184487311Y-198293774D01*
X184461150Y-198295116D01*
X184397413Y-198289733D01*
X184312742Y-198273060D01*
X184228317Y-198249568D01*
X184052307Y-198182814D01*
X183913341Y-198107673D01*
X183806373Y-198020286D01*
X183726357Y-197916794D01*
X183683896Y-197833209D01*
X183652843Y-197762048D01*
X183613080Y-197673551D01*
X183578966Y-197599300D01*
X183524671Y-197466948D01*
X183465868Y-197293747D01*
X183402957Y-197080896D01*
X183388314Y-197027800D01*
X183365273Y-196941224D01*
X183356608Y-196892604D01*
X183366125Y-196879867D01*
X183397633Y-196900938D01*
X183454940Y-196953742D01*
X183480158Y-196977774D01*
X183635188Y-197113447D01*
X183782489Y-197218439D01*
X183919354Y-197291584D01*
X184043080Y-197331717D01*
X184150960Y-197337673D01*
X184240290Y-197308286D01*
X184243233Y-197306488D01*
X184301506Y-197262793D01*
X184341068Y-197211099D01*
X184367020Y-197140930D01*
X184384465Y-197041811D01*
X184388418Y-197008363D01*
X184401076Y-196903484D01*
X184416340Y-196790750D01*
X184429027Y-196706533D01*
X184434123Y-196648481D01*
X184437212Y-196554511D01*
X184438446Y-196430985D01*
X184438079Y-196315633D01*
X184274727Y-196315633D01*
X184257706Y-196327025D01*
X184222988Y-196321307D01*
X184165881Y-196310481D01*
X184091426Y-196298605D01*
X184063224Y-196294607D01*
X183956775Y-196262989D01*
X183901167Y-196224339D01*
X183838141Y-196179287D01*
X183765705Y-196145294D01*
X183759343Y-196143261D01*
X183672658Y-196095576D01*
X183591492Y-196007358D01*
X183535719Y-195916550D01*
X183513156Y-195853223D01*
X183490946Y-195750590D01*
X183469604Y-195611679D01*
X183455658Y-195491378D01*
X183256624Y-195491378D01*
X183240718Y-195500598D01*
X183206142Y-195472771D01*
X183195854Y-195461225D01*
X183164010Y-195413872D01*
X183167348Y-195383609D01*
X183190472Y-195369406D01*
X183216312Y-195364656D01*
X183233098Y-195381562D01*
X183248099Y-195429105D01*
X183252127Y-195445592D01*
X183256624Y-195491378D01*
X183455658Y-195491378D01*
X183449646Y-195439518D01*
X183443352Y-195374843D01*
X183430349Y-195235303D01*
X183507444Y-195189816D01*
X183579943Y-195141995D01*
X183673401Y-195073062D01*
X183777911Y-194990878D01*
X183883569Y-194903307D01*
X183980468Y-194818209D01*
X184009787Y-194791115D01*
X184022365Y-194779791D01*
X183213902Y-194779791D01*
X183207942Y-194823218D01*
X183182244Y-194868589D01*
X183146714Y-194904999D01*
X183111257Y-194921544D01*
X183091189Y-194914889D01*
X183080185Y-194882750D01*
X183088574Y-194822760D01*
X183095729Y-194795329D01*
X183115349Y-194735775D01*
X183134119Y-194695406D01*
X183141137Y-194687089D01*
X183155239Y-194659442D01*
X183159400Y-194624134D01*
X183165697Y-194581189D01*
X183179832Y-194573340D01*
X183194670Y-194596083D01*
X183203077Y-194644918D01*
X183203306Y-194651842D01*
X183206819Y-194719116D01*
X183213252Y-194776114D01*
X183213902Y-194779791D01*
X184022365Y-194779791D01*
X184069230Y-194737600D01*
X184118094Y-194697820D01*
X184147456Y-194678939D01*
X184150306Y-194678300D01*
X184167820Y-194699119D01*
X184184373Y-194760198D01*
X184199770Y-194859473D01*
X184213814Y-194994877D01*
X184226311Y-195164344D01*
X184237065Y-195365809D01*
X184245881Y-195597205D01*
X184249604Y-195727494D01*
X184253602Y-195870187D01*
X184257929Y-196001706D01*
X184262307Y-196115107D01*
X184266456Y-196203448D01*
X184270096Y-196259789D01*
X184271599Y-196273552D01*
X184274727Y-196315633D01*
X184438079Y-196315633D01*
X184437979Y-196284263D01*
X184435965Y-196120705D01*
X184432558Y-195946672D01*
X184427912Y-195768525D01*
X184422180Y-195592624D01*
X184415516Y-195425331D01*
X184408074Y-195273005D01*
X184400008Y-195142008D01*
X184391470Y-195038699D01*
X184387937Y-195006383D01*
X184375025Y-194900533D01*
X184359789Y-194777092D01*
X184345243Y-194660466D01*
X184343406Y-194645856D01*
X184319336Y-194454663D01*
X184486192Y-194180883D01*
X184095581Y-194180883D01*
X183918532Y-194347617D01*
X183844985Y-194414037D01*
X183760407Y-194485933D01*
X183671713Y-194557957D01*
X183585816Y-194624758D01*
X183509628Y-194680986D01*
X183450063Y-194721293D01*
X183414034Y-194740328D01*
X183410009Y-194741127D01*
X183402102Y-194721932D01*
X183392946Y-194670095D01*
X183384085Y-194595215D01*
X183380917Y-194560328D01*
X183373298Y-194403120D01*
X183374274Y-194230197D01*
X183377927Y-194154468D01*
X182832773Y-194154468D01*
X182819762Y-194301277D01*
X182791991Y-194425961D01*
X182783831Y-194449176D01*
X182678465Y-194675252D01*
X182547547Y-194868049D01*
X182389483Y-195029192D01*
X182202680Y-195160304D01*
X181985544Y-195263009D01*
X181984650Y-195263351D01*
X181923923Y-195281072D01*
X181837697Y-195299818D01*
X181742613Y-195316565D01*
X181655312Y-195328286D01*
X181607705Y-195331882D01*
X181544893Y-195330058D01*
X181459436Y-195322765D01*
X181374871Y-195312265D01*
X181293190Y-195298906D01*
X181223686Y-195284972D01*
X181181040Y-195273416D01*
X181180317Y-195273132D01*
X180972711Y-195173095D01*
X180799712Y-195051338D01*
X180657851Y-194904139D01*
X180543658Y-194727776D01*
X180453662Y-194518527D01*
X180440645Y-194479806D01*
X180413900Y-194388396D01*
X180397446Y-194304587D01*
X180389074Y-194212224D01*
X180386579Y-194095152D01*
X180386567Y-194083964D01*
X180403651Y-193841605D01*
X180453659Y-193619744D01*
X180534728Y-193420798D01*
X180644993Y-193247186D01*
X180782591Y-193101324D01*
X180945657Y-192985632D01*
X181132326Y-192902527D01*
X181333782Y-192855395D01*
X181452372Y-192844827D01*
X181588811Y-192842506D01*
X181728394Y-192847844D01*
X181856413Y-192860253D01*
X181958163Y-192879144D01*
X181963483Y-192880573D01*
X182145813Y-192952088D01*
X182316794Y-193060935D01*
X182472147Y-193202706D01*
X182607591Y-193372994D01*
X182718849Y-193567392D01*
X182783346Y-193724914D01*
X182814556Y-193851924D01*
X182831035Y-193999896D01*
X182832773Y-194154468D01*
X183377927Y-194154468D01*
X183382970Y-194049925D01*
X183398508Y-193870670D01*
X183420014Y-193700800D01*
X183446611Y-193548681D01*
X183477424Y-193422679D01*
X183509065Y-193336331D01*
X183545536Y-193259475D01*
X183640316Y-193346841D01*
X183696582Y-193395715D01*
X183737628Y-193419992D01*
X183777456Y-193425705D01*
X183813894Y-193421606D01*
X183892692Y-193409006D01*
X183938011Y-193562111D01*
X183965788Y-193657448D01*
X183989345Y-193742626D01*
X184012294Y-193831496D01*
X184038245Y-193937907D01*
X184060712Y-194032717D01*
X184095581Y-194180883D01*
X184486192Y-194180883D01*
X184525315Y-194116690D01*
X184610753Y-193976386D01*
X184677150Y-193866651D01*
X184727495Y-193781908D01*
X184764780Y-193716577D01*
X184791996Y-193665082D01*
X184812135Y-193621844D01*
X184828187Y-193581285D01*
X184843145Y-193537827D01*
X184854558Y-193502720D01*
X184885475Y-193419536D01*
X184916408Y-193367713D01*
X184953826Y-193336770D01*
X184958655Y-193334171D01*
X185006831Y-193300077D01*
X185060017Y-193249233D01*
X185108041Y-193193202D01*
X185140731Y-193143546D01*
X185149067Y-193117727D01*
X185165886Y-193093305D01*
X185178066Y-193090800D01*
X185200751Y-193109950D01*
X185224035Y-193160318D01*
X185233414Y-193191342D01*
X185253219Y-193266380D01*
X185271707Y-193335589D01*
X185277064Y-193355383D01*
X185308183Y-193472397D01*
X185331305Y-193567696D01*
X185350717Y-193660077D01*
X185368790Y-193757550D01*
X185407355Y-193985627D01*
X185440010Y-194206392D01*
X185467169Y-194425761D01*
X185489245Y-194649650D01*
X185506651Y-194883978D01*
X185519802Y-195134659D01*
X185529111Y-195407612D01*
X185534992Y-195708752D01*
X185537859Y-196043997D01*
X185538244Y-196181133D01*
X185538480Y-196397898D01*
X185924769Y-196397898D01*
X185983289Y-196348089D01*
X186072654Y-196275591D01*
X186177355Y-196192884D01*
X186287933Y-196107301D01*
X186394930Y-196026174D01*
X186488884Y-195956837D01*
X186550999Y-195912937D01*
X186711500Y-195811950D01*
X186877550Y-195722746D01*
X187037491Y-195651036D01*
X187179660Y-195602532D01*
X187190806Y-195599597D01*
X187286007Y-195582494D01*
X187403081Y-195571994D01*
X187527047Y-195568427D01*
X187642924Y-195572124D01*
X187735731Y-195583415D01*
X187752567Y-195587205D01*
X187883289Y-195620381D01*
X187980217Y-195646316D01*
X188050282Y-195669331D01*
X188100413Y-195693750D01*
X188137540Y-195723894D01*
X188168592Y-195764088D01*
X188200500Y-195818653D01*
X188239760Y-195891123D01*
X188274678Y-195945113D01*
X188312147Y-195978466D01*
X188355669Y-195989591D01*
X188408745Y-195976899D01*
X188474878Y-195938798D01*
X188557571Y-195873698D01*
X188660325Y-195780010D01*
X188786644Y-195656142D01*
X188810900Y-195631781D01*
X188917439Y-195523202D01*
X188997571Y-195436445D01*
X189055470Y-195364065D01*
X189095312Y-195298614D01*
X189121274Y-195232643D01*
X189137530Y-195158706D01*
X189148255Y-195069355D01*
X189152335Y-195022798D01*
X189172027Y-194755248D01*
X189183271Y-194527948D01*
X189186033Y-194339660D01*
X189180282Y-194189145D01*
X189165982Y-194075163D01*
X189143101Y-193996478D01*
X189123819Y-193963925D01*
X189077631Y-193936274D01*
X189017626Y-193948092D01*
X188944406Y-193999046D01*
X188858575Y-194088802D01*
X188826730Y-194127967D01*
X188707871Y-194295928D01*
X188624829Y-194454294D01*
X188574634Y-194610427D01*
X188554314Y-194771689D01*
X188553576Y-194804841D01*
X188552446Y-194977137D01*
X188443548Y-195025427D01*
X188372306Y-195066205D01*
X188297915Y-195123241D01*
X188231775Y-195186216D01*
X188185285Y-195244810D01*
X188172395Y-195270900D01*
X188156232Y-195286705D01*
X188117669Y-195283119D01*
X188090257Y-195275377D01*
X188019095Y-195253615D01*
X187941470Y-195230220D01*
X187932483Y-195227538D01*
X187872904Y-195216439D01*
X187779843Y-195207041D01*
X187662128Y-195199540D01*
X187528584Y-195194128D01*
X187388037Y-195191000D01*
X187249312Y-195190351D01*
X187121236Y-195192374D01*
X187012634Y-195197264D01*
X186932332Y-195205215D01*
X186930521Y-195205492D01*
X186837475Y-195223858D01*
X186725146Y-195251728D01*
X186613954Y-195283916D01*
X186585100Y-195293230D01*
X186499758Y-195320171D01*
X186428890Y-195339923D01*
X186382438Y-195349846D01*
X186370755Y-195350113D01*
X186373412Y-195334641D01*
X186404019Y-195301141D01*
X186455455Y-195255293D01*
X186520597Y-195202775D01*
X186592324Y-195149268D01*
X186663514Y-195100451D01*
X186727045Y-195062004D01*
X186741735Y-195054253D01*
X186929760Y-194979674D01*
X187143459Y-194931583D01*
X187374060Y-194911855D01*
X187409654Y-194911458D01*
X187627657Y-194911133D01*
X187758904Y-195037947D01*
X187821388Y-195095519D01*
X187874626Y-195139486D01*
X187909968Y-195162892D01*
X187916801Y-195164947D01*
X187955650Y-195147161D01*
X188009026Y-195097457D01*
X188072863Y-195021953D01*
X188143099Y-194926765D01*
X188215671Y-194818008D01*
X188286514Y-194701801D01*
X188351565Y-194584258D01*
X188406760Y-194471497D01*
X188448036Y-194369633D01*
X188451075Y-194360775D01*
X188470470Y-194298284D01*
X188479832Y-194246918D01*
X188479676Y-194191931D01*
X188470514Y-194118572D01*
X188461453Y-194062845D01*
X188430617Y-193882374D01*
X188404087Y-193735826D01*
X188380084Y-193615229D01*
X188356827Y-193512611D01*
X188332538Y-193420001D01*
X188305436Y-193329428D01*
X188280926Y-193254251D01*
X188230811Y-193122731D01*
X188181718Y-193029774D01*
X188134464Y-192976688D01*
X188099204Y-192963800D01*
X188059997Y-192983324D01*
X188014558Y-193037399D01*
X187965956Y-193119275D01*
X187917264Y-193222205D01*
X187871553Y-193339440D01*
X187831894Y-193464233D01*
X187801358Y-193589834D01*
X187792601Y-193637485D01*
X187781598Y-193717602D01*
X187780232Y-193783018D01*
X187789690Y-193851572D01*
X187811160Y-193941104D01*
X187813352Y-193949403D01*
X187857874Y-194117383D01*
X187764505Y-194202050D01*
X187691153Y-194277460D01*
X187632067Y-194355142D01*
X187594033Y-194425076D01*
X187583313Y-194469660D01*
X187577316Y-194494778D01*
X187555270Y-194512004D01*
X187510890Y-194522715D01*
X187437888Y-194528288D01*
X187329980Y-194530100D01*
X187307332Y-194530133D01*
X187212134Y-194532011D01*
X187128506Y-194537053D01*
X187068481Y-194544373D01*
X187049771Y-194549096D01*
X187025185Y-194558231D01*
X186995091Y-194568151D01*
X186952937Y-194580723D01*
X186892169Y-194597816D01*
X186806235Y-194621298D01*
X186688582Y-194653039D01*
X186630733Y-194668584D01*
X186483507Y-194712015D01*
X186356733Y-194759603D01*
X186236655Y-194817828D01*
X186109515Y-194893171D01*
X185999669Y-194965891D01*
X185920424Y-195019708D01*
X185855225Y-195063433D01*
X185811236Y-195092298D01*
X185795676Y-195101633D01*
X185792063Y-195081807D01*
X185785730Y-195027397D01*
X185777476Y-194946005D01*
X185768103Y-194845234D01*
X185765038Y-194810592D01*
X185737727Y-194515186D01*
X185710382Y-194256385D01*
X185682112Y-194028472D01*
X185652026Y-193825726D01*
X185619234Y-193642428D01*
X185582845Y-193472860D01*
X185541968Y-193311302D01*
X185518591Y-193228383D01*
X185485926Y-193116506D01*
X185464332Y-193038487D01*
X185453778Y-192987330D01*
X185454233Y-192956043D01*
X185465667Y-192937630D01*
X185488049Y-192925097D01*
X185517201Y-192913201D01*
X185588046Y-192868000D01*
X185625145Y-192809394D01*
X185624902Y-192744432D01*
X185615180Y-192721218D01*
X185568483Y-192674015D01*
X185490482Y-192650903D01*
X185396781Y-192649674D01*
X185339377Y-192651425D01*
X185309893Y-192640458D01*
X185294084Y-192607821D01*
X185286861Y-192580593D01*
X185283051Y-192541844D01*
X185302302Y-192515207D01*
X185347623Y-192490168D01*
X185450817Y-192430703D01*
X185517399Y-192368906D01*
X185546052Y-192307335D01*
X185535458Y-192248545D01*
X185495462Y-192203336D01*
X185417799Y-192166070D01*
X185326662Y-192167010D01*
X185219933Y-192206224D01*
X185207979Y-192212435D01*
X185108479Y-192265403D01*
X185067424Y-192221336D01*
X185038142Y-192172299D01*
X185031394Y-192151589D01*
X184662212Y-192151589D01*
X184606671Y-192266653D01*
X184543616Y-192399079D01*
X184492497Y-192510111D01*
X184455270Y-192595320D01*
X184433891Y-192650276D01*
X184429400Y-192668281D01*
X184412401Y-192674464D01*
X184369322Y-192663628D01*
X184352732Y-192657167D01*
X184247591Y-192627951D01*
X184158073Y-192635830D01*
X184126384Y-192648945D01*
X184076566Y-192680691D01*
X184028258Y-192720629D01*
X183993944Y-192757520D01*
X183984900Y-192776322D01*
X184000751Y-192796238D01*
X184042479Y-192832898D01*
X184101346Y-192878675D01*
X184106608Y-192882557D01*
X184182979Y-192940368D01*
X184232832Y-192985281D01*
X184264605Y-193028282D01*
X184286734Y-193080359D01*
X184304261Y-193139968D01*
X184327524Y-193208085D01*
X184356776Y-193248080D01*
X184400884Y-193273432D01*
X184457603Y-193306228D01*
X184499616Y-193345709D01*
X184500077Y-193346360D01*
X184515693Y-193375083D01*
X184517197Y-193406446D01*
X184502951Y-193453012D01*
X184478648Y-193510709D01*
X184419403Y-193642283D01*
X184366064Y-193754168D01*
X184320973Y-193841889D01*
X184286471Y-193900967D01*
X184264897Y-193926925D01*
X184260845Y-193927364D01*
X184247250Y-193901723D01*
X184234085Y-193850843D01*
X184231482Y-193836073D01*
X184213139Y-193753816D01*
X184181640Y-193645022D01*
X184141120Y-193521797D01*
X184095712Y-193396246D01*
X184049552Y-193280473D01*
X184016267Y-193205963D01*
X183953721Y-193096082D01*
X183876950Y-192991361D01*
X183852883Y-192964590D01*
X183403907Y-192964590D01*
X183394391Y-193098960D01*
X183370258Y-193175774D01*
X183341229Y-193256655D01*
X183311201Y-193353921D01*
X183283377Y-193455423D01*
X183260961Y-193549011D01*
X183247155Y-193622536D01*
X183244317Y-193653480D01*
X183239332Y-193699824D01*
X183225367Y-193705274D01*
X183202767Y-193670228D01*
X183171880Y-193595085D01*
X183156897Y-193552767D01*
X183123209Y-193442335D01*
X183107648Y-193356647D01*
X183107971Y-193283339D01*
X183108005Y-193283023D01*
X183128032Y-193120619D01*
X183152019Y-192968161D01*
X183178680Y-192830951D01*
X183206729Y-192714288D01*
X183234881Y-192623473D01*
X183261851Y-192563807D01*
X183286353Y-192540591D01*
X183288097Y-192540467D01*
X183300708Y-192559398D01*
X183316617Y-192608485D01*
X183329192Y-192662175D01*
X183345784Y-192737095D01*
X183362312Y-192800729D01*
X183371332Y-192828750D01*
X183403907Y-192964590D01*
X183852883Y-192964590D01*
X183837452Y-192947427D01*
X183776001Y-192877346D01*
X183722029Y-192802554D01*
X183690134Y-192745205D01*
X183664902Y-192668115D01*
X183644948Y-192573560D01*
X183632151Y-192475943D01*
X183628392Y-192389663D01*
X183635551Y-192329121D01*
X183635740Y-192328517D01*
X183647044Y-192302753D01*
X183667127Y-192290306D01*
X183706894Y-192288730D01*
X183777246Y-192295581D01*
X183780819Y-192295992D01*
X183877452Y-192306859D01*
X183940097Y-192312666D01*
X183976788Y-192313450D01*
X183995560Y-192309248D01*
X184004450Y-192300098D01*
X184006067Y-192297050D01*
X183992429Y-192281216D01*
X183946927Y-192257191D01*
X183878158Y-192229238D01*
X183847317Y-192218338D01*
X183754260Y-192182652D01*
X183700146Y-192150226D01*
X183685416Y-192118436D01*
X183710510Y-192084657D01*
X183775872Y-192046264D01*
X183881943Y-192000632D01*
X183884086Y-191999784D01*
X184059353Y-191948750D01*
X184224167Y-191938520D01*
X184379355Y-191969093D01*
X184455001Y-192000368D01*
X184526787Y-192039500D01*
X184588307Y-192079813D01*
X184619032Y-192105626D01*
X184662212Y-192151589D01*
X185031394Y-192151589D01*
X185016203Y-192104967D01*
X185012703Y-192086139D01*
X184986905Y-192000031D01*
X184937084Y-191945538D01*
X184870949Y-191919077D01*
X184819112Y-191888142D01*
X184801935Y-191853452D01*
X184775630Y-191802175D01*
X184724229Y-191737503D01*
X184657935Y-191669405D01*
X184586951Y-191607852D01*
X184521482Y-191562816D01*
X184489258Y-191547924D01*
X184435558Y-191522863D01*
X184401701Y-191493578D01*
X184398779Y-191488027D01*
X184396345Y-191461470D01*
X184393631Y-191395904D01*
X184390681Y-191294650D01*
X184387537Y-191161029D01*
X184384240Y-190998364D01*
X184380833Y-190809976D01*
X184377359Y-190599188D01*
X184373860Y-190369321D01*
X184370377Y-190123697D01*
X184366955Y-189865639D01*
X184363633Y-189598468D01*
X184360456Y-189325506D01*
X184357465Y-189050075D01*
X184354703Y-188775497D01*
X184352212Y-188505093D01*
X184350033Y-188242187D01*
X184348211Y-187990099D01*
X184346786Y-187752152D01*
X184345801Y-187531667D01*
X184345299Y-187331967D01*
X184345253Y-187284951D01*
X184344733Y-186442687D01*
X184180692Y-186448868D01*
X184180692Y-186448868D01*
G37*
X184180692Y-186448868D02*
X184016650Y-186455050D01*
X183999450Y-186783133D01*
X183995035Y-186912502D01*
X183993243Y-187076228D01*
X183994023Y-187266420D01*
X183997324Y-187475187D01*
X184003094Y-187694637D01*
X184005881Y-187777967D01*
X184011277Y-187955309D01*
X184016186Y-188165210D01*
X184020468Y-188397895D01*
X184023982Y-188643592D01*
X184026587Y-188892526D01*
X184028145Y-189134925D01*
X184028520Y-189354883D01*
X184028945Y-189573433D01*
X184030586Y-189801033D01*
X184033301Y-190029274D01*
X184036949Y-190249747D01*
X184041389Y-190454041D01*
X184046479Y-190633748D01*
X184052078Y-190780457D01*
X184052719Y-190794217D01*
X184059764Y-190944645D01*
X184066142Y-191085417D01*
X184071555Y-191209603D01*
X184075706Y-191310274D01*
X184078298Y-191380501D01*
X184079029Y-191408050D01*
X184080150Y-191492717D01*
X183963733Y-191503376D01*
X183842405Y-191529219D01*
X183721329Y-191580064D01*
X183620014Y-191647463D01*
X183609570Y-191656761D01*
X183562322Y-191700469D01*
X183518075Y-191644218D01*
X183460720Y-191599735D01*
X183393677Y-191590558D01*
X183325620Y-191613849D01*
X183265220Y-191666767D01*
X183223284Y-191740707D01*
X183195722Y-191810649D01*
X183169704Y-191873717D01*
X183144867Y-191933363D01*
X183111228Y-192015832D01*
X183075486Y-192104550D01*
X183044337Y-192182946D01*
X183032851Y-192212383D01*
X183001139Y-192292940D01*
X182979930Y-192340291D01*
X182965049Y-192360939D01*
X182952324Y-192361387D01*
X182942487Y-192353186D01*
X182909230Y-192339958D01*
X182848607Y-192331101D01*
X182793705Y-192328800D01*
X182718819Y-192331507D01*
X182669613Y-192343323D01*
X182629587Y-192369793D01*
X182606386Y-192391724D01*
X182566947Y-192443460D01*
X182562668Y-192488971D01*
X182595484Y-192532834D01*
X182667333Y-192579622D01*
X182691199Y-192592099D01*
X182755695Y-192630876D01*
X182807213Y-192672527D01*
X182824329Y-192692612D01*
X182853523Y-192752088D01*
X182878417Y-192826510D01*
X182895144Y-192900608D01*
X182899833Y-192959112D01*
X182896524Y-192977567D01*
X182884325Y-192992997D01*
X182862752Y-192985714D01*
X182824990Y-192951842D01*
X182793436Y-192918969D01*
X182677191Y-192805748D01*
X182553778Y-192709030D01*
X182412706Y-192621769D01*
X182243479Y-192536919D01*
X182185733Y-192510917D01*
X182007199Y-192450187D01*
X181803986Y-192411416D01*
X181587866Y-192395035D01*
X181370614Y-192401474D01*
X181164001Y-192431164D01*
X181024701Y-192468416D01*
X180803087Y-192561267D01*
X180599328Y-192684329D01*
X180418551Y-192833006D01*
X180265879Y-193002705D01*
X180146440Y-193188829D01*
X180094423Y-193302467D01*
X180014359Y-193562458D01*
X179973867Y-193828299D01*
X179971799Y-194095419D01*
X180007008Y-194359245D01*
X180078348Y-194615205D01*
X180184672Y-194858726D01*
X180324831Y-195085237D01*
X180497680Y-195290166D01*
X180622010Y-195405431D01*
X180821359Y-195555093D01*
X181019234Y-195665439D01*
X181221688Y-195738810D01*
X181434775Y-195777550D01*
X181603650Y-195785294D01*
X181799117Y-195775037D01*
X181976582Y-195743926D01*
X182148580Y-195688378D01*
X182327646Y-195604810D01*
X182425443Y-195550414D01*
X182488052Y-195515440D01*
X182534266Y-195492297D01*
X182554201Y-195485931D01*
X182554244Y-195485982D01*
X182565055Y-195506315D01*
X182591696Y-195558339D01*
X182631040Y-195635890D01*
X182679960Y-195732809D01*
X182729783Y-195831883D01*
X182789261Y-195949939D01*
X182846449Y-196062704D01*
X182896906Y-196161475D01*
X182936189Y-196237549D01*
X182955524Y-196274244D01*
X182987098Y-196342341D01*
X183007288Y-196403803D01*
X183011233Y-196430538D01*
X183016690Y-196487464D01*
X183029953Y-196554728D01*
X183031218Y-196559677D01*
X183044416Y-196611795D01*
X183064480Y-196692880D01*
X183088405Y-196790734D01*
X183107380Y-196869050D01*
X183140419Y-196999364D01*
X183174486Y-197122172D01*
X183207171Y-197229673D01*
X183236062Y-197314065D01*
X183258746Y-197367547D01*
X183264435Y-197377050D01*
X183278215Y-197407393D01*
X183298906Y-197464949D01*
X183318277Y-197525217D01*
X183344140Y-197597227D01*
X183381510Y-197685731D01*
X183425491Y-197780759D01*
X183471183Y-197872342D01*
X183513689Y-197950512D01*
X183548111Y-198005297D01*
X183562664Y-198022633D01*
X183580273Y-198042852D01*
X183617686Y-198088173D01*
X183668327Y-198150589D01*
X183696204Y-198185270D01*
X183829805Y-198330287D01*
X183969327Y-198436084D01*
X184121156Y-198505769D01*
X184291678Y-198542451D01*
X184445502Y-198550129D01*
X184542437Y-198547340D01*
X184630063Y-198541261D01*
X184695171Y-198532962D01*
X184715150Y-198528314D01*
X184851474Y-198483694D01*
X184955976Y-198445504D01*
X185037788Y-198409467D01*
X185106047Y-198371309D01*
X185169887Y-198326754D01*
X185205227Y-198298944D01*
X185282322Y-198225257D01*
X185367135Y-198125969D01*
X185449628Y-198013909D01*
X185519762Y-197901907D01*
X185529057Y-197885050D01*
X185565910Y-197817626D01*
X185595958Y-197764193D01*
X185612338Y-197736883D01*
X185632547Y-197693444D01*
X185658484Y-197616025D01*
X185688036Y-197512246D01*
X185719091Y-197389727D01*
X185749535Y-197256089D01*
X185761672Y-197198278D01*
X185771505Y-197133288D01*
X185781537Y-197038060D01*
X185790678Y-196924672D01*
X185797841Y-196805201D01*
X185798670Y-196787671D01*
X185804771Y-196667794D01*
X185811148Y-196583031D01*
X185819000Y-196526172D01*
X185829525Y-196490007D01*
X185843919Y-196467327D01*
X185853365Y-196458443D01*
X185895330Y-196423306D01*
X185918721Y-196403046D01*
X185924769Y-196397898D01*
X185538480Y-196397898D01*
X185538366Y-196576751D01*
X185537709Y-196722114D01*
X185536318Y-196838407D01*
X185534000Y-196930053D01*
X185530564Y-197001471D01*
X185525818Y-197057085D01*
X185519569Y-197101314D01*
X185511627Y-197138580D01*
X185501798Y-197173304D01*
X185494133Y-197197133D01*
X185468016Y-197282518D01*
X185446058Y-197365261D01*
X185434816Y-197417871D01*
X185402453Y-197531059D01*
X185343553Y-197660369D01*
X185264392Y-197795172D01*
X185171243Y-197924842D01*
X185070382Y-198038749D01*
X185065289Y-198043800D01*
X184947004Y-198136330D01*
X184801801Y-198212764D01*
X184643848Y-198267210D01*
X184487311Y-198293774D01*
X184461150Y-198295116D01*
X184397413Y-198289733D01*
X184312742Y-198273060D01*
X184228317Y-198249568D01*
X184052307Y-198182814D01*
X183913341Y-198107673D01*
X183806373Y-198020286D01*
X183726357Y-197916794D01*
X183683896Y-197833209D01*
X183652843Y-197762048D01*
X183613080Y-197673551D01*
X183578966Y-197599300D01*
X183524671Y-197466948D01*
X183465868Y-197293747D01*
X183402957Y-197080896D01*
X183388314Y-197027800D01*
X183365273Y-196941224D01*
X183356608Y-196892604D01*
X183366125Y-196879867D01*
X183397633Y-196900938D01*
X183454940Y-196953742D01*
X183480158Y-196977774D01*
X183635188Y-197113447D01*
X183782489Y-197218439D01*
X183919354Y-197291584D01*
X184043080Y-197331717D01*
X184150960Y-197337673D01*
X184240290Y-197308286D01*
X184243233Y-197306488D01*
X184301506Y-197262793D01*
X184341068Y-197211099D01*
X184367020Y-197140930D01*
X184384465Y-197041811D01*
X184388418Y-197008363D01*
X184401076Y-196903484D01*
X184416340Y-196790750D01*
X184429027Y-196706533D01*
X184434123Y-196648481D01*
X184437212Y-196554511D01*
X184438446Y-196430985D01*
X184438079Y-196315633D01*
X184274727Y-196315633D01*
X184257706Y-196327025D01*
X184222988Y-196321307D01*
X184165881Y-196310481D01*
X184091426Y-196298605D01*
X184063224Y-196294607D01*
X183956775Y-196262989D01*
X183901167Y-196224339D01*
X183838141Y-196179287D01*
X183765705Y-196145294D01*
X183759343Y-196143261D01*
X183672658Y-196095576D01*
X183591492Y-196007358D01*
X183535719Y-195916550D01*
X183513156Y-195853223D01*
X183490946Y-195750590D01*
X183469604Y-195611679D01*
X183455658Y-195491378D01*
X183256624Y-195491378D01*
X183240718Y-195500598D01*
X183206142Y-195472771D01*
X183195854Y-195461225D01*
X183164010Y-195413872D01*
X183167348Y-195383609D01*
X183190472Y-195369406D01*
X183216312Y-195364656D01*
X183233098Y-195381562D01*
X183248099Y-195429105D01*
X183252127Y-195445592D01*
X183256624Y-195491378D01*
X183455658Y-195491378D01*
X183449646Y-195439518D01*
X183443352Y-195374843D01*
X183430349Y-195235303D01*
X183507444Y-195189816D01*
X183579943Y-195141995D01*
X183673401Y-195073062D01*
X183777911Y-194990878D01*
X183883569Y-194903307D01*
X183980468Y-194818209D01*
X184009787Y-194791115D01*
X184022365Y-194779791D01*
X183213902Y-194779791D01*
X183207942Y-194823218D01*
X183182244Y-194868589D01*
X183146714Y-194904999D01*
X183111257Y-194921544D01*
X183091189Y-194914889D01*
X183080185Y-194882750D01*
X183088574Y-194822760D01*
X183095729Y-194795329D01*
X183115349Y-194735775D01*
X183134119Y-194695406D01*
X183141137Y-194687089D01*
X183155239Y-194659442D01*
X183159400Y-194624134D01*
X183165697Y-194581189D01*
X183179832Y-194573340D01*
X183194670Y-194596083D01*
X183203077Y-194644918D01*
X183203306Y-194651842D01*
X183206819Y-194719116D01*
X183213252Y-194776114D01*
X183213902Y-194779791D01*
X184022365Y-194779791D01*
X184069230Y-194737600D01*
X184118094Y-194697820D01*
X184147456Y-194678939D01*
X184150306Y-194678300D01*
X184167820Y-194699119D01*
X184184373Y-194760198D01*
X184199770Y-194859473D01*
X184213814Y-194994877D01*
X184226311Y-195164344D01*
X184237065Y-195365809D01*
X184245881Y-195597205D01*
X184249604Y-195727494D01*
X184253602Y-195870187D01*
X184257929Y-196001706D01*
X184262307Y-196115107D01*
X184266456Y-196203448D01*
X184270096Y-196259789D01*
X184271599Y-196273552D01*
X184274727Y-196315633D01*
X184438079Y-196315633D01*
X184437979Y-196284263D01*
X184435965Y-196120705D01*
X184432558Y-195946672D01*
X184427912Y-195768525D01*
X184422180Y-195592624D01*
X184415516Y-195425331D01*
X184408074Y-195273005D01*
X184400008Y-195142008D01*
X184391470Y-195038699D01*
X184387937Y-195006383D01*
X184375025Y-194900533D01*
X184359789Y-194777092D01*
X184345243Y-194660466D01*
X184343406Y-194645856D01*
X184319336Y-194454663D01*
X184486192Y-194180883D01*
X184095581Y-194180883D01*
X183918532Y-194347617D01*
X183844985Y-194414037D01*
X183760407Y-194485933D01*
X183671713Y-194557957D01*
X183585816Y-194624758D01*
X183509628Y-194680986D01*
X183450063Y-194721293D01*
X183414034Y-194740328D01*
X183410009Y-194741127D01*
X183402102Y-194721932D01*
X183392946Y-194670095D01*
X183384085Y-194595215D01*
X183380917Y-194560328D01*
X183373298Y-194403120D01*
X183374274Y-194230197D01*
X183377927Y-194154468D01*
X182832773Y-194154468D01*
X182819762Y-194301277D01*
X182791991Y-194425961D01*
X182783831Y-194449176D01*
X182678465Y-194675252D01*
X182547547Y-194868049D01*
X182389483Y-195029192D01*
X182202680Y-195160304D01*
X181985544Y-195263009D01*
X181984650Y-195263351D01*
X181923923Y-195281072D01*
X181837697Y-195299818D01*
X181742613Y-195316565D01*
X181655312Y-195328286D01*
X181607705Y-195331882D01*
X181544893Y-195330058D01*
X181459436Y-195322765D01*
X181374871Y-195312265D01*
X181293190Y-195298906D01*
X181223686Y-195284972D01*
X181181040Y-195273416D01*
X181180317Y-195273132D01*
X180972711Y-195173095D01*
X180799712Y-195051338D01*
X180657851Y-194904139D01*
X180543658Y-194727776D01*
X180453662Y-194518527D01*
X180440645Y-194479806D01*
X180413900Y-194388396D01*
X180397446Y-194304587D01*
X180389074Y-194212224D01*
X180386579Y-194095152D01*
X180386567Y-194083964D01*
X180403651Y-193841605D01*
X180453659Y-193619744D01*
X180534728Y-193420798D01*
X180644993Y-193247186D01*
X180782591Y-193101324D01*
X180945657Y-192985632D01*
X181132326Y-192902527D01*
X181333782Y-192855395D01*
X181452372Y-192844827D01*
X181588811Y-192842506D01*
X181728394Y-192847844D01*
X181856413Y-192860253D01*
X181958163Y-192879144D01*
X181963483Y-192880573D01*
X182145813Y-192952088D01*
X182316794Y-193060935D01*
X182472147Y-193202706D01*
X182607591Y-193372994D01*
X182718849Y-193567392D01*
X182783346Y-193724914D01*
X182814556Y-193851924D01*
X182831035Y-193999896D01*
X182832773Y-194154468D01*
X183377927Y-194154468D01*
X183382970Y-194049925D01*
X183398508Y-193870670D01*
X183420014Y-193700800D01*
X183446611Y-193548681D01*
X183477424Y-193422679D01*
X183509065Y-193336331D01*
X183545536Y-193259475D01*
X183640316Y-193346841D01*
X183696582Y-193395715D01*
X183737628Y-193419992D01*
X183777456Y-193425705D01*
X183813894Y-193421606D01*
X183892692Y-193409006D01*
X183938011Y-193562111D01*
X183965788Y-193657448D01*
X183989345Y-193742626D01*
X184012294Y-193831496D01*
X184038245Y-193937907D01*
X184060712Y-194032717D01*
X184095581Y-194180883D01*
X184486192Y-194180883D01*
X184525315Y-194116690D01*
X184610753Y-193976386D01*
X184677150Y-193866651D01*
X184727495Y-193781908D01*
X184764780Y-193716577D01*
X184791996Y-193665082D01*
X184812135Y-193621844D01*
X184828187Y-193581285D01*
X184843145Y-193537827D01*
X184854558Y-193502720D01*
X184885475Y-193419536D01*
X184916408Y-193367713D01*
X184953826Y-193336770D01*
X184958655Y-193334171D01*
X185006831Y-193300077D01*
X185060017Y-193249233D01*
X185108041Y-193193202D01*
X185140731Y-193143546D01*
X185149067Y-193117727D01*
X185165886Y-193093305D01*
X185178066Y-193090800D01*
X185200751Y-193109950D01*
X185224035Y-193160318D01*
X185233414Y-193191342D01*
X185253219Y-193266380D01*
X185271707Y-193335589D01*
X185277064Y-193355383D01*
X185308183Y-193472397D01*
X185331305Y-193567696D01*
X185350717Y-193660077D01*
X185368790Y-193757550D01*
X185407355Y-193985627D01*
X185440010Y-194206392D01*
X185467169Y-194425761D01*
X185489245Y-194649650D01*
X185506651Y-194883978D01*
X185519802Y-195134659D01*
X185529111Y-195407612D01*
X185534992Y-195708752D01*
X185537859Y-196043997D01*
X185538244Y-196181133D01*
X185538480Y-196397898D01*
X185924769Y-196397898D01*
X185983289Y-196348089D01*
X186072654Y-196275591D01*
X186177355Y-196192884D01*
X186287933Y-196107301D01*
X186394930Y-196026174D01*
X186488884Y-195956837D01*
X186550999Y-195912937D01*
X186711500Y-195811950D01*
X186877550Y-195722746D01*
X187037491Y-195651036D01*
X187179660Y-195602532D01*
X187190806Y-195599597D01*
X187286007Y-195582494D01*
X187403081Y-195571994D01*
X187527047Y-195568427D01*
X187642924Y-195572124D01*
X187735731Y-195583415D01*
X187752567Y-195587205D01*
X187883289Y-195620381D01*
X187980217Y-195646316D01*
X188050282Y-195669331D01*
X188100413Y-195693750D01*
X188137540Y-195723894D01*
X188168592Y-195764088D01*
X188200500Y-195818653D01*
X188239760Y-195891123D01*
X188274678Y-195945113D01*
X188312147Y-195978466D01*
X188355669Y-195989591D01*
X188408745Y-195976899D01*
X188474878Y-195938798D01*
X188557571Y-195873698D01*
X188660325Y-195780010D01*
X188786644Y-195656142D01*
X188810900Y-195631781D01*
X188917439Y-195523202D01*
X188997571Y-195436445D01*
X189055470Y-195364065D01*
X189095312Y-195298614D01*
X189121274Y-195232643D01*
X189137530Y-195158706D01*
X189148255Y-195069355D01*
X189152335Y-195022798D01*
X189172027Y-194755248D01*
X189183271Y-194527948D01*
X189186033Y-194339660D01*
X189180282Y-194189145D01*
X189165982Y-194075163D01*
X189143101Y-193996478D01*
X189123819Y-193963925D01*
X189077631Y-193936274D01*
X189017626Y-193948092D01*
X188944406Y-193999046D01*
X188858575Y-194088802D01*
X188826730Y-194127967D01*
X188707871Y-194295928D01*
X188624829Y-194454294D01*
X188574634Y-194610427D01*
X188554314Y-194771689D01*
X188553576Y-194804841D01*
X188552446Y-194977137D01*
X188443548Y-195025427D01*
X188372306Y-195066205D01*
X188297915Y-195123241D01*
X188231775Y-195186216D01*
X188185285Y-195244810D01*
X188172395Y-195270900D01*
X188156232Y-195286705D01*
X188117669Y-195283119D01*
X188090257Y-195275377D01*
X188019095Y-195253615D01*
X187941470Y-195230220D01*
X187932483Y-195227538D01*
X187872904Y-195216439D01*
X187779843Y-195207041D01*
X187662128Y-195199540D01*
X187528584Y-195194128D01*
X187388037Y-195191000D01*
X187249312Y-195190351D01*
X187121236Y-195192374D01*
X187012634Y-195197264D01*
X186932332Y-195205215D01*
X186930521Y-195205492D01*
X186837475Y-195223858D01*
X186725146Y-195251728D01*
X186613954Y-195283916D01*
X186585100Y-195293230D01*
X186499758Y-195320171D01*
X186428890Y-195339923D01*
X186382438Y-195349846D01*
X186370755Y-195350113D01*
X186373412Y-195334641D01*
X186404019Y-195301141D01*
X186455455Y-195255293D01*
X186520597Y-195202775D01*
X186592324Y-195149268D01*
X186663514Y-195100451D01*
X186727045Y-195062004D01*
X186741735Y-195054253D01*
X186929760Y-194979674D01*
X187143459Y-194931583D01*
X187374060Y-194911855D01*
X187409654Y-194911458D01*
X187627657Y-194911133D01*
X187758904Y-195037947D01*
X187821388Y-195095519D01*
X187874626Y-195139486D01*
X187909968Y-195162892D01*
X187916801Y-195164947D01*
X187955650Y-195147161D01*
X188009026Y-195097457D01*
X188072863Y-195021953D01*
X188143099Y-194926765D01*
X188215671Y-194818008D01*
X188286514Y-194701801D01*
X188351565Y-194584258D01*
X188406760Y-194471497D01*
X188448036Y-194369633D01*
X188451075Y-194360775D01*
X188470470Y-194298284D01*
X188479832Y-194246918D01*
X188479676Y-194191931D01*
X188470514Y-194118572D01*
X188461453Y-194062845D01*
X188430617Y-193882374D01*
X188404087Y-193735826D01*
X188380084Y-193615229D01*
X188356827Y-193512611D01*
X188332538Y-193420001D01*
X188305436Y-193329428D01*
X188280926Y-193254251D01*
X188230811Y-193122731D01*
X188181718Y-193029774D01*
X188134464Y-192976688D01*
X188099204Y-192963800D01*
X188059997Y-192983324D01*
X188014558Y-193037399D01*
X187965956Y-193119275D01*
X187917264Y-193222205D01*
X187871553Y-193339440D01*
X187831894Y-193464233D01*
X187801358Y-193589834D01*
X187792601Y-193637485D01*
X187781598Y-193717602D01*
X187780232Y-193783018D01*
X187789690Y-193851572D01*
X187811160Y-193941104D01*
X187813352Y-193949403D01*
X187857874Y-194117383D01*
X187764505Y-194202050D01*
X187691153Y-194277460D01*
X187632067Y-194355142D01*
X187594033Y-194425076D01*
X187583313Y-194469660D01*
X187577316Y-194494778D01*
X187555270Y-194512004D01*
X187510890Y-194522715D01*
X187437888Y-194528288D01*
X187329980Y-194530100D01*
X187307332Y-194530133D01*
X187212134Y-194532011D01*
X187128506Y-194537053D01*
X187068481Y-194544373D01*
X187049771Y-194549096D01*
X187025185Y-194558231D01*
X186995091Y-194568151D01*
X186952937Y-194580723D01*
X186892169Y-194597816D01*
X186806235Y-194621298D01*
X186688582Y-194653039D01*
X186630733Y-194668584D01*
X186483507Y-194712015D01*
X186356733Y-194759603D01*
X186236655Y-194817828D01*
X186109515Y-194893171D01*
X185999669Y-194965891D01*
X185920424Y-195019708D01*
X185855225Y-195063433D01*
X185811236Y-195092298D01*
X185795676Y-195101633D01*
X185792063Y-195081807D01*
X185785730Y-195027397D01*
X185777476Y-194946005D01*
X185768103Y-194845234D01*
X185765038Y-194810592D01*
X185737727Y-194515186D01*
X185710382Y-194256385D01*
X185682112Y-194028472D01*
X185652026Y-193825726D01*
X185619234Y-193642428D01*
X185582845Y-193472860D01*
X185541968Y-193311302D01*
X185518591Y-193228383D01*
X185485926Y-193116506D01*
X185464332Y-193038487D01*
X185453778Y-192987330D01*
X185454233Y-192956043D01*
X185465667Y-192937630D01*
X185488049Y-192925097D01*
X185517201Y-192913201D01*
X185588046Y-192868000D01*
X185625145Y-192809394D01*
X185624902Y-192744432D01*
X185615180Y-192721218D01*
X185568483Y-192674015D01*
X185490482Y-192650903D01*
X185396781Y-192649674D01*
X185339377Y-192651425D01*
X185309893Y-192640458D01*
X185294084Y-192607821D01*
X185286861Y-192580593D01*
X185283051Y-192541844D01*
X185302302Y-192515207D01*
X185347623Y-192490168D01*
X185450817Y-192430703D01*
X185517399Y-192368906D01*
X185546052Y-192307335D01*
X185535458Y-192248545D01*
X185495462Y-192203336D01*
X185417799Y-192166070D01*
X185326662Y-192167010D01*
X185219933Y-192206224D01*
X185207979Y-192212435D01*
X185108479Y-192265403D01*
X185067424Y-192221336D01*
X185038142Y-192172299D01*
X185031394Y-192151589D01*
X184662212Y-192151589D01*
X184606671Y-192266653D01*
X184543616Y-192399079D01*
X184492497Y-192510111D01*
X184455270Y-192595320D01*
X184433891Y-192650276D01*
X184429400Y-192668281D01*
X184412401Y-192674464D01*
X184369322Y-192663628D01*
X184352732Y-192657167D01*
X184247591Y-192627951D01*
X184158073Y-192635830D01*
X184126384Y-192648945D01*
X184076566Y-192680691D01*
X184028258Y-192720629D01*
X183993944Y-192757520D01*
X183984900Y-192776322D01*
X184000751Y-192796238D01*
X184042479Y-192832898D01*
X184101346Y-192878675D01*
X184106608Y-192882557D01*
X184182979Y-192940368D01*
X184232832Y-192985281D01*
X184264605Y-193028282D01*
X184286734Y-193080359D01*
X184304261Y-193139968D01*
X184327524Y-193208085D01*
X184356776Y-193248080D01*
X184400884Y-193273432D01*
X184457603Y-193306228D01*
X184499616Y-193345709D01*
X184500077Y-193346360D01*
X184515693Y-193375083D01*
X184517197Y-193406446D01*
X184502951Y-193453012D01*
X184478648Y-193510709D01*
X184419403Y-193642283D01*
X184366064Y-193754168D01*
X184320973Y-193841889D01*
X184286471Y-193900967D01*
X184264897Y-193926925D01*
X184260845Y-193927364D01*
X184247250Y-193901723D01*
X184234085Y-193850843D01*
X184231482Y-193836073D01*
X184213139Y-193753816D01*
X184181640Y-193645022D01*
X184141120Y-193521797D01*
X184095712Y-193396246D01*
X184049552Y-193280473D01*
X184016267Y-193205963D01*
X183953721Y-193096082D01*
X183876950Y-192991361D01*
X183852883Y-192964590D01*
X183403907Y-192964590D01*
X183394391Y-193098960D01*
X183370258Y-193175774D01*
X183341229Y-193256655D01*
X183311201Y-193353921D01*
X183283377Y-193455423D01*
X183260961Y-193549011D01*
X183247155Y-193622536D01*
X183244317Y-193653480D01*
X183239332Y-193699824D01*
X183225367Y-193705274D01*
X183202767Y-193670228D01*
X183171880Y-193595085D01*
X183156897Y-193552767D01*
X183123209Y-193442335D01*
X183107648Y-193356647D01*
X183107971Y-193283339D01*
X183108005Y-193283023D01*
X183128032Y-193120619D01*
X183152019Y-192968161D01*
X183178680Y-192830951D01*
X183206729Y-192714288D01*
X183234881Y-192623473D01*
X183261851Y-192563807D01*
X183286353Y-192540591D01*
X183288097Y-192540467D01*
X183300708Y-192559398D01*
X183316617Y-192608485D01*
X183329192Y-192662175D01*
X183345784Y-192737095D01*
X183362312Y-192800729D01*
X183371332Y-192828750D01*
X183403907Y-192964590D01*
X183852883Y-192964590D01*
X183837452Y-192947427D01*
X183776001Y-192877346D01*
X183722029Y-192802554D01*
X183690134Y-192745205D01*
X183664902Y-192668115D01*
X183644948Y-192573560D01*
X183632151Y-192475943D01*
X183628392Y-192389663D01*
X183635551Y-192329121D01*
X183635740Y-192328517D01*
X183647044Y-192302753D01*
X183667127Y-192290306D01*
X183706894Y-192288730D01*
X183777246Y-192295581D01*
X183780819Y-192295992D01*
X183877452Y-192306859D01*
X183940097Y-192312666D01*
X183976788Y-192313450D01*
X183995560Y-192309248D01*
X184004450Y-192300098D01*
X184006067Y-192297050D01*
X183992429Y-192281216D01*
X183946927Y-192257191D01*
X183878158Y-192229238D01*
X183847317Y-192218338D01*
X183754260Y-192182652D01*
X183700146Y-192150226D01*
X183685416Y-192118436D01*
X183710510Y-192084657D01*
X183775872Y-192046264D01*
X183881943Y-192000632D01*
X183884086Y-191999784D01*
X184059353Y-191948750D01*
X184224167Y-191938520D01*
X184379355Y-191969093D01*
X184455001Y-192000368D01*
X184526787Y-192039500D01*
X184588307Y-192079813D01*
X184619032Y-192105626D01*
X184662212Y-192151589D01*
X185031394Y-192151589D01*
X185016203Y-192104967D01*
X185012703Y-192086139D01*
X184986905Y-192000031D01*
X184937084Y-191945538D01*
X184870949Y-191919077D01*
X184819112Y-191888142D01*
X184801935Y-191853452D01*
X184775630Y-191802175D01*
X184724229Y-191737503D01*
X184657935Y-191669405D01*
X184586951Y-191607852D01*
X184521482Y-191562816D01*
X184489258Y-191547924D01*
X184435558Y-191522863D01*
X184401701Y-191493578D01*
X184398779Y-191488027D01*
X184396345Y-191461470D01*
X184393631Y-191395904D01*
X184390681Y-191294650D01*
X184387537Y-191161029D01*
X184384240Y-190998364D01*
X184380833Y-190809976D01*
X184377359Y-190599188D01*
X184373860Y-190369321D01*
X184370377Y-190123697D01*
X184366955Y-189865639D01*
X184363633Y-189598468D01*
X184360456Y-189325506D01*
X184357465Y-189050075D01*
X184354703Y-188775497D01*
X184352212Y-188505093D01*
X184350033Y-188242187D01*
X184348211Y-187990099D01*
X184346786Y-187752152D01*
X184345801Y-187531667D01*
X184345299Y-187331967D01*
X184345253Y-187284951D01*
X184344733Y-186442687D01*
X184180692Y-186448868D01*
D11*
X220129100Y-127165100D02*
X220129100Y-157645100D01*
X220129100Y-157645100D02*
X202349100Y-157645100D01*
X202349100Y-157645100D02*
X202349100Y-127165100D01*
X217589100Y-127165100D02*
X217589100Y-129705100D01*
X217589100Y-129705100D02*
X220129100Y-129705100D01*
D12*
G36*
X206307532Y-133044460D02*
G01*
X206307532Y-133344460D01*
X206407532Y-133344460D01*
X206407532Y-133044460D01*
X206307532Y-133044460D01*
G37*
X206307532Y-133044460D02*
X206307532Y-133344460D01*
X206407532Y-133344460D01*
X206407532Y-133044460D01*
X206307532Y-133044460D01*
G36*
X206507532Y-133444460D02*
G01*
X206507532Y-133544460D01*
X206607532Y-133544460D01*
X206607532Y-133444460D01*
X206507532Y-133444460D01*
G37*
X206507532Y-133444460D02*
X206507532Y-133544460D01*
X206607532Y-133544460D01*
X206607532Y-133444460D01*
X206507532Y-133444460D01*
G36*
X206307532Y-133044460D02*
G01*
X206307532Y-133144460D01*
X206807532Y-133144460D01*
X206807532Y-133044460D01*
X206307532Y-133044460D01*
G37*
X206307532Y-133044460D02*
X206307532Y-133144460D01*
X206807532Y-133144460D01*
X206807532Y-133044460D01*
X206307532Y-133044460D01*
G36*
X206707532Y-133044460D02*
G01*
X206707532Y-133844460D01*
X206807532Y-133844460D01*
X206807532Y-133044460D01*
X206707532Y-133044460D01*
G37*
X206707532Y-133044460D02*
X206707532Y-133844460D01*
X206807532Y-133844460D01*
X206807532Y-133044460D01*
X206707532Y-133044460D01*
G36*
X206307532Y-133644460D02*
G01*
X206307532Y-133844460D01*
X206407532Y-133844460D01*
X206407532Y-133644460D01*
X206307532Y-133644460D01*
G37*
X206307532Y-133644460D02*
X206307532Y-133844460D01*
X206407532Y-133844460D01*
X206407532Y-133644460D01*
X206307532Y-133644460D01*
D11*
X202349100Y-127165100D02*
X202349100Y-124625100D01*
X202349100Y-124625100D02*
X220129100Y-124625100D01*
X220129100Y-124625100D02*
X220129100Y-127165100D01*
X217589100Y-127165100D02*
X220129100Y-127165100D01*
D12*
X206159100Y-162344100D02*
X206159100Y-159804100D01*
X216319100Y-162344100D02*
X206159100Y-162344100D01*
X216319100Y-159804100D02*
X216319100Y-162344100D01*
X206159100Y-159804100D02*
X216319100Y-159804100D01*
X191856100Y-126254100D02*
X197756100Y-126254100D01*
X191856100Y-126254100D02*
X197856100Y-126254100D01*
X197856100Y-129754100D02*
X191856100Y-129754100D01*
X197856100Y-126254100D02*
X197856100Y-126954100D01*
X197856100Y-129754100D02*
X197856100Y-129154100D01*
X191856100Y-129754100D02*
X191856100Y-129154100D01*
X191856100Y-126254100D02*
X191856100Y-126954100D01*
X298489576Y-189874749D02*
X297804781Y-190208746D01*
X296206640Y-190988212D02*
X295521845Y-191322209D01*
X296031241Y-191497608D02*
X295697244Y-190812812D01*
X372936141Y-145997328D02*
X373684047Y-145851950D01*
X373382783Y-146298592D02*
X373237405Y-145550686D01*
X375429474Y-145512673D02*
X376177380Y-145367295D01*
X350584141Y-130960528D02*
X351332047Y-130815150D01*
X351030783Y-131261792D02*
X350885405Y-130513886D01*
X353077474Y-130475873D02*
X353825380Y-130330495D01*
X371771874Y-126818273D02*
X372519780Y-126672895D01*
X369278541Y-127302928D02*
X370026447Y-127157550D01*
X369725183Y-127604192D02*
X369579805Y-126856286D01*
X106807752Y-184307550D02*
X107555658Y-184452928D01*
X104314419Y-183822895D02*
X105062325Y-183968273D01*
X104615683Y-184269537D02*
X104761061Y-183521631D01*
X277686141Y-155344528D02*
X278434047Y-155199150D01*
X278132783Y-155645792D02*
X277987405Y-154897886D01*
X280179474Y-154859873D02*
X280927380Y-154714495D01*
X274079341Y-136650128D02*
X274827247Y-136504750D01*
X274525983Y-136951392D02*
X274380605Y-136203486D01*
X276572674Y-136165473D02*
X277320580Y-136020095D01*
X126119159Y-190988212D02*
X126803954Y-191322209D01*
X123836223Y-189874749D02*
X124521018Y-190208746D01*
X124011622Y-190384145D02*
X124345619Y-189699349D01*
X295923341Y-149248528D02*
X296671247Y-149103150D01*
X296369983Y-149549792D02*
X296224605Y-148801886D01*
X298416674Y-148763873D02*
X299164580Y-148618495D01*
X315891874Y-138756273D02*
X316639780Y-138610895D01*
X313398541Y-139240928D02*
X314146447Y-139095550D01*
X313845183Y-139542192D02*
X313699805Y-138794286D01*
X333210541Y-141476128D02*
X333958447Y-141330750D01*
X333657183Y-141777392D02*
X333511805Y-141029486D01*
X335703874Y-140991473D02*
X336451780Y-140846095D01*
X354241741Y-149654928D02*
X354989647Y-149509550D01*
X354688383Y-149956192D02*
X354543005Y-149208286D01*
X356735074Y-149170273D02*
X357482980Y-149024895D01*
X281343741Y-174038928D02*
X282091647Y-173893550D01*
X281790383Y-174340192D02*
X281645005Y-173592286D01*
X283837074Y-173554273D02*
X284584980Y-173408895D01*
X299530141Y-167942928D02*
X300278047Y-167797550D01*
X299976783Y-168244192D02*
X299831405Y-167496286D01*
X302023474Y-167458273D02*
X302771380Y-167312895D01*
X319498674Y-157450673D02*
X320246580Y-157305295D01*
X317005341Y-157935328D02*
X317753247Y-157789950D01*
X317451983Y-158236592D02*
X317306605Y-157488686D01*
X339361474Y-159685873D02*
X340109380Y-159540495D01*
X336868141Y-160170528D02*
X337616047Y-160025150D01*
X337314783Y-160471792D02*
X337169405Y-159723886D01*
X137690019Y-173408895D02*
X138437925Y-173554273D01*
X137991283Y-173855537D02*
X138136661Y-173107631D01*
X140183352Y-173893550D02*
X140931258Y-174038928D01*
X292316541Y-130554128D02*
X293064447Y-130408750D01*
X292763183Y-130855392D02*
X292617805Y-130107486D01*
X294809874Y-130069473D02*
X295557780Y-129924095D01*
X312234274Y-120061873D02*
X312982180Y-119916495D01*
X309740941Y-120546528D02*
X310488847Y-120401150D01*
X310187583Y-120847792D02*
X310042205Y-120099886D01*
X332097074Y-122297073D02*
X332844980Y-122151695D01*
X329603741Y-122781728D02*
X330351647Y-122636350D01*
X330050383Y-123082992D02*
X329905005Y-122335086D01*
X141347619Y-154714495D02*
X142095525Y-154859873D01*
X141648883Y-155161137D02*
X141794261Y-154413231D01*
X143840952Y-155199150D02*
X144588858Y-155344528D01*
X109292819Y-119916495D02*
X110040725Y-120061873D01*
X109594083Y-120363137D02*
X109739461Y-119615231D01*
X111786152Y-120401150D02*
X112534058Y-120546528D01*
X129261352Y-130408750D02*
X130009258Y-130554128D01*
X126768019Y-129924095D02*
X127515925Y-130069473D01*
X127069283Y-130370737D02*
X127214661Y-129622831D01*
X144958564Y-135989210D02*
X145706470Y-136134588D01*
X145259828Y-136435852D02*
X145405206Y-135687946D01*
X147451897Y-136473865D02*
X148199803Y-136619243D01*
X104521752Y-157789950D02*
X105269658Y-157935328D01*
X102028419Y-157305295D02*
X102776325Y-157450673D01*
X102329683Y-157751937D02*
X102475061Y-157004031D01*
X119503619Y-167312895D02*
X120251525Y-167458273D01*
X119804883Y-167759537D02*
X119950261Y-167011631D01*
X121996952Y-167797550D02*
X122744858Y-167942928D01*
X63678552Y-168203950D02*
X64426458Y-168349328D01*
X61185219Y-167719295D02*
X61933125Y-167864673D01*
X61486483Y-168165937D02*
X61631861Y-167418031D01*
X48595097Y-145871865D02*
X49343003Y-146017243D01*
X46101764Y-145387210D02*
X46849670Y-145532588D01*
X46403028Y-145833852D02*
X46548406Y-145085946D01*
X67336152Y-149509550D02*
X68084058Y-149654928D01*
X64842819Y-149024895D02*
X65590725Y-149170273D01*
X65144083Y-149471537D02*
X65289461Y-148723631D01*
X88316552Y-141330750D02*
X89064458Y-141476128D01*
X85823219Y-140846095D02*
X86571125Y-140991473D01*
X86124483Y-141292737D02*
X86269861Y-140544831D01*
X108128552Y-139095550D02*
X108876458Y-139240928D01*
X105635219Y-138610895D02*
X106383125Y-138756273D01*
X105936483Y-139057537D02*
X106081861Y-138309631D01*
X44984152Y-164546350D02*
X45732058Y-164691728D01*
X42490819Y-164061695D02*
X43238725Y-164207073D01*
X42792083Y-164508337D02*
X42937461Y-163760431D01*
X123110419Y-148618495D02*
X123858325Y-148763873D01*
X123411683Y-149065137D02*
X123557061Y-148317231D01*
X125603752Y-149103150D02*
X126351658Y-149248528D01*
X84658952Y-160025150D02*
X85406858Y-160170528D01*
X82165619Y-159540495D02*
X82913525Y-159685873D01*
X82466883Y-159987137D02*
X82612261Y-159239231D01*
X52248552Y-127157550D02*
X52996458Y-127302928D01*
X49755219Y-126672895D02*
X50503125Y-126818273D01*
X50056483Y-127119537D02*
X50201861Y-126371631D01*
X68449619Y-130279695D02*
X69197525Y-130425073D01*
X68750883Y-130726337D02*
X68896261Y-129978431D01*
X70942952Y-130764350D02*
X71690858Y-130909728D01*
X89430019Y-122151695D02*
X90177925Y-122297073D01*
X89731283Y-122598337D02*
X89876661Y-121850431D01*
X91923352Y-122636350D02*
X92671258Y-122781728D01*
X88113352Y-180649950D02*
X88861258Y-180795328D01*
X85620019Y-180165295D02*
X86367925Y-180310673D01*
X85921283Y-180611937D02*
X86066661Y-179864031D01*
X379784180Y-164061695D02*
X379036274Y-164207073D01*
X377290847Y-164546350D02*
X376542941Y-164691728D01*
X376989583Y-164992992D02*
X376844205Y-164245086D01*
X361089780Y-167719295D02*
X360341874Y-167864673D01*
X358596447Y-168203950D02*
X357848541Y-168349328D01*
X358295183Y-168650592D02*
X358149805Y-167902686D01*
X276880357Y-197535169D02*
X276305340Y-198035024D01*
X274963394Y-199201558D02*
X274388377Y-199701413D01*
X274925813Y-199738994D02*
X274425959Y-199163977D01*
X317960580Y-183772095D02*
X317212674Y-183917473D01*
X315467247Y-184256750D02*
X314719341Y-184402128D01*
X315165983Y-184703392D02*
X315020605Y-183955486D01*
X206101909Y-153777957D02*
X205987623Y-153816052D01*
X205949528Y-153854147D01*
X205911433Y-153930338D01*
X205911433Y-154044623D01*
X205949528Y-154120814D01*
X205987623Y-154158909D01*
X206063814Y-154197004D01*
X206368576Y-154197004D01*
X206368576Y-153397004D01*
X206101909Y-153397004D01*
X206025719Y-153435100D01*
X205987623Y-153473195D01*
X205949528Y-153549385D01*
X205949528Y-153625576D01*
X205987623Y-153701766D01*
X206025719Y-153739861D01*
X206101909Y-153777957D01*
X206368576Y-153777957D01*
X205606671Y-153473195D02*
X205568576Y-153435100D01*
X205492385Y-153397004D01*
X205301909Y-153397004D01*
X205225719Y-153435100D01*
X205187623Y-153473195D01*
X205149528Y-153549385D01*
X205149528Y-153625576D01*
X205187623Y-153739861D01*
X205644766Y-154197004D01*
X205149528Y-154197004D01*
X206044766Y-146157957D02*
X206311433Y-146157957D01*
X206311433Y-146577004D02*
X206311433Y-145777004D01*
X205930480Y-145777004D01*
X205701909Y-145777004D02*
X205168576Y-145777004D01*
X205511433Y-146577004D01*
X206044766Y-143617957D02*
X206311433Y-143617957D01*
X206311433Y-144037004D02*
X206311433Y-143237004D01*
X205930480Y-143237004D01*
X205282861Y-143237004D02*
X205435242Y-143237004D01*
X205511433Y-143275100D01*
X205549528Y-143313195D01*
X205625719Y-143427480D01*
X205663814Y-143579861D01*
X205663814Y-143884623D01*
X205625719Y-143960814D01*
X205587623Y-143998909D01*
X205511433Y-144037004D01*
X205359052Y-144037004D01*
X205282861Y-143998909D01*
X205244766Y-143960814D01*
X205206671Y-143884623D01*
X205206671Y-143694147D01*
X205244766Y-143617957D01*
X205282861Y-143579861D01*
X205359052Y-143541766D01*
X205511433Y-143541766D01*
X205587623Y-143579861D01*
X205625719Y-143617957D01*
X205663814Y-143694147D01*
X206044766Y-141077957D02*
X206311433Y-141077957D01*
X206311433Y-141497004D02*
X206311433Y-140697004D01*
X205930480Y-140697004D01*
X205244766Y-140697004D02*
X205625719Y-140697004D01*
X205663814Y-141077957D01*
X205625719Y-141039861D01*
X205549528Y-141001766D01*
X205359052Y-141001766D01*
X205282861Y-141039861D01*
X205244766Y-141077957D01*
X205206671Y-141154147D01*
X205206671Y-141344623D01*
X205244766Y-141420814D01*
X205282861Y-141458909D01*
X205359052Y-141497004D01*
X205549528Y-141497004D01*
X205625719Y-141458909D01*
X205663814Y-141420814D01*
X206330480Y-128797004D02*
X206597147Y-128416052D01*
X206787623Y-128797004D02*
X206787623Y-127997004D01*
X206482861Y-127997004D01*
X206406671Y-128035100D01*
X206368576Y-128073195D01*
X206330480Y-128149385D01*
X206330480Y-128263671D01*
X206368576Y-128339861D01*
X206406671Y-128377957D01*
X206482861Y-128416052D01*
X206787623Y-128416052D01*
X206025719Y-128568433D02*
X205644766Y-128568433D01*
X206101909Y-128797004D02*
X205835242Y-127997004D01*
X205568576Y-128797004D01*
X205378100Y-127997004D02*
X205187623Y-128797004D01*
X205035242Y-128225576D01*
X204882861Y-128797004D01*
X204692385Y-127997004D01*
X206387623Y-130575100D02*
X206463814Y-130537004D01*
X206578100Y-130537004D01*
X206692385Y-130575100D01*
X206768576Y-130651290D01*
X206806671Y-130727480D01*
X206844766Y-130879861D01*
X206844766Y-130994147D01*
X206806671Y-131146528D01*
X206768576Y-131222719D01*
X206692385Y-131298909D01*
X206578100Y-131337004D01*
X206501909Y-131337004D01*
X206387623Y-131298909D01*
X206349528Y-131260814D01*
X206349528Y-130994147D01*
X206501909Y-130994147D01*
X206006671Y-131337004D02*
X206006671Y-130537004D01*
X205549528Y-131337004D01*
X205549528Y-130537004D01*
X205168576Y-131337004D02*
X205168576Y-130537004D01*
X204978100Y-130537004D01*
X204863814Y-130575100D01*
X204787623Y-130651290D01*
X204749528Y-130727480D01*
X204711433Y-130879861D01*
X204711433Y-130994147D01*
X204749528Y-131146528D01*
X204787623Y-131222719D01*
X204863814Y-131298909D01*
X204978100Y-131337004D01*
X205168576Y-131337004D01*
X206039313Y-133808909D02*
X205925027Y-133847004D01*
X205734551Y-133847004D01*
X205658360Y-133808909D01*
X205620265Y-133770814D01*
X205582170Y-133694623D01*
X205582170Y-133618433D01*
X205620265Y-133542242D01*
X205658360Y-133504147D01*
X205734551Y-133466052D01*
X205886932Y-133427957D01*
X205963122Y-133389861D01*
X206001218Y-133351766D01*
X206039313Y-133275576D01*
X206039313Y-133199385D01*
X206001218Y-133123195D01*
X205963122Y-133085100D01*
X205886932Y-133047004D01*
X205696456Y-133047004D01*
X205582170Y-133085100D01*
X205353599Y-133047004D02*
X204896456Y-133047004D01*
X205125027Y-133847004D02*
X205125027Y-133047004D01*
X206844766Y-135617004D02*
X206578100Y-136417004D01*
X206311433Y-135617004D01*
X205587623Y-136340814D02*
X205625719Y-136378909D01*
X205740004Y-136417004D01*
X205816195Y-136417004D01*
X205930480Y-136378909D01*
X206006671Y-136302719D01*
X206044766Y-136226528D01*
X206082861Y-136074147D01*
X206082861Y-135959861D01*
X206044766Y-135807480D01*
X206006671Y-135731290D01*
X205930480Y-135655100D01*
X205816195Y-135617004D01*
X205740004Y-135617004D01*
X205625719Y-135655100D01*
X205587623Y-135693195D01*
X204787623Y-136340814D02*
X204825719Y-136378909D01*
X204940004Y-136417004D01*
X205016195Y-136417004D01*
X205130480Y-136378909D01*
X205206671Y-136302719D01*
X205244766Y-136226528D01*
X205282861Y-136074147D01*
X205282861Y-135959861D01*
X205244766Y-135807480D01*
X205206671Y-135731290D01*
X205130480Y-135655100D01*
X205016195Y-135617004D01*
X204940004Y-135617004D01*
X204825719Y-135655100D01*
X204787623Y-135693195D01*
X206044766Y-138537957D02*
X206311433Y-138537957D01*
X206311433Y-138957004D02*
X206311433Y-138157004D01*
X205930480Y-138157004D01*
X205282861Y-138423671D02*
X205282861Y-138957004D01*
X205473338Y-138118909D02*
X205663814Y-138690338D01*
X205168576Y-138690338D01*
X206101909Y-148697957D02*
X205987623Y-148736052D01*
X205949528Y-148774147D01*
X205911433Y-148850338D01*
X205911433Y-148964623D01*
X205949528Y-149040814D01*
X205987623Y-149078909D01*
X206063814Y-149117004D01*
X206368576Y-149117004D01*
X206368576Y-148317004D01*
X206101909Y-148317004D01*
X206025719Y-148355100D01*
X205987623Y-148393195D01*
X205949528Y-148469385D01*
X205949528Y-148545576D01*
X205987623Y-148621766D01*
X206025719Y-148659861D01*
X206101909Y-148697957D01*
X206368576Y-148697957D01*
X205149528Y-149117004D02*
X205606671Y-149117004D01*
X205378100Y-149117004D02*
X205378100Y-148317004D01*
X205454290Y-148431290D01*
X205530480Y-148507480D01*
X205606671Y-148545576D01*
X206101909Y-151237957D02*
X205987623Y-151276052D01*
X205949528Y-151314147D01*
X205911433Y-151390338D01*
X205911433Y-151504623D01*
X205949528Y-151580814D01*
X205987623Y-151618909D01*
X206063814Y-151657004D01*
X206368576Y-151657004D01*
X206368576Y-150857004D01*
X206101909Y-150857004D01*
X206025719Y-150895100D01*
X205987623Y-150933195D01*
X205949528Y-151009385D01*
X205949528Y-151085576D01*
X205987623Y-151161766D01*
X206025719Y-151199861D01*
X206101909Y-151237957D01*
X206368576Y-151237957D01*
X205644766Y-150857004D02*
X205149528Y-150857004D01*
X205416195Y-151161766D01*
X205301909Y-151161766D01*
X205225719Y-151199861D01*
X205187623Y-151237957D01*
X205149528Y-151314147D01*
X205149528Y-151504623D01*
X205187623Y-151580814D01*
X205225719Y-151618909D01*
X205301909Y-151657004D01*
X205530480Y-151657004D01*
X205606671Y-151618909D01*
X205644766Y-151580814D01*
X206101909Y-156317957D02*
X205987623Y-156356052D01*
X205949528Y-156394147D01*
X205911433Y-156470338D01*
X205911433Y-156584623D01*
X205949528Y-156660814D01*
X205987623Y-156698909D01*
X206063814Y-156737004D01*
X206368576Y-156737004D01*
X206368576Y-155937004D01*
X206101909Y-155937004D01*
X206025719Y-155975100D01*
X205987623Y-156013195D01*
X205949528Y-156089385D01*
X205949528Y-156165576D01*
X205987623Y-156241766D01*
X206025719Y-156279861D01*
X206101909Y-156317957D01*
X206368576Y-156317957D01*
X205225719Y-155937004D02*
X205378100Y-155937004D01*
X205454290Y-155975100D01*
X205492385Y-156013195D01*
X205568576Y-156127480D01*
X205606671Y-156279861D01*
X205606671Y-156584623D01*
X205568576Y-156660814D01*
X205530480Y-156698909D01*
X205454290Y-156737004D01*
X205301909Y-156737004D01*
X205225719Y-156698909D01*
X205187623Y-156660814D01*
X205149528Y-156584623D01*
X205149528Y-156394147D01*
X205187623Y-156317957D01*
X205225719Y-156279861D01*
X205301909Y-156241766D01*
X205454290Y-156241766D01*
X205530480Y-156279861D01*
X205568576Y-156317957D01*
X205606671Y-156394147D01*
X217023909Y-156317957D02*
X216909623Y-156356052D01*
X216871528Y-156394147D01*
X216833433Y-156470338D01*
X216833433Y-156584623D01*
X216871528Y-156660814D01*
X216909623Y-156698909D01*
X216985814Y-156737004D01*
X217290576Y-156737004D01*
X217290576Y-155937004D01*
X217023909Y-155937004D01*
X216947719Y-155975100D01*
X216909623Y-156013195D01*
X216871528Y-156089385D01*
X216871528Y-156165576D01*
X216909623Y-156241766D01*
X216947719Y-156279861D01*
X217023909Y-156317957D01*
X217290576Y-156317957D01*
X216109623Y-155937004D02*
X216490576Y-155937004D01*
X216528671Y-156317957D01*
X216490576Y-156279861D01*
X216414385Y-156241766D01*
X216223909Y-156241766D01*
X216147719Y-156279861D01*
X216109623Y-156317957D01*
X216071528Y-156394147D01*
X216071528Y-156584623D01*
X216109623Y-156660814D01*
X216147719Y-156698909D01*
X216223909Y-156737004D01*
X216414385Y-156737004D01*
X216490576Y-156698909D01*
X216528671Y-156660814D01*
X217023909Y-153777957D02*
X216909623Y-153816052D01*
X216871528Y-153854147D01*
X216833433Y-153930338D01*
X216833433Y-154044623D01*
X216871528Y-154120814D01*
X216909623Y-154158909D01*
X216985814Y-154197004D01*
X217290576Y-154197004D01*
X217290576Y-153397004D01*
X217023909Y-153397004D01*
X216947719Y-153435100D01*
X216909623Y-153473195D01*
X216871528Y-153549385D01*
X216871528Y-153625576D01*
X216909623Y-153701766D01*
X216947719Y-153739861D01*
X217023909Y-153777957D01*
X217290576Y-153777957D01*
X216147719Y-153663671D02*
X216147719Y-154197004D01*
X216338195Y-153358909D02*
X216528671Y-153930338D01*
X216033433Y-153930338D01*
X217252480Y-151237957D02*
X216985814Y-151237957D01*
X216871528Y-151657004D02*
X217252480Y-151657004D01*
X217252480Y-150857004D01*
X216871528Y-150857004D01*
X216185814Y-150857004D02*
X216338195Y-150857004D01*
X216414385Y-150895100D01*
X216452480Y-150933195D01*
X216528671Y-151047480D01*
X216566766Y-151199861D01*
X216566766Y-151504623D01*
X216528671Y-151580814D01*
X216490576Y-151618909D01*
X216414385Y-151657004D01*
X216262004Y-151657004D01*
X216185814Y-151618909D01*
X216147719Y-151580814D01*
X216109623Y-151504623D01*
X216109623Y-151314147D01*
X216147719Y-151237957D01*
X216185814Y-151199861D01*
X216262004Y-151161766D01*
X216414385Y-151161766D01*
X216490576Y-151199861D01*
X216528671Y-151237957D01*
X216566766Y-151314147D01*
X217290576Y-149117004D02*
X217290576Y-148317004D01*
X217100100Y-148317004D01*
X216985814Y-148355100D01*
X216909623Y-148431290D01*
X216871528Y-148507480D01*
X216833433Y-148659861D01*
X216833433Y-148774147D01*
X216871528Y-148926528D01*
X216909623Y-149002719D01*
X216985814Y-149078909D01*
X217100100Y-149117004D01*
X217290576Y-149117004D01*
X216566766Y-148317004D02*
X216033433Y-148317004D01*
X216376290Y-149117004D01*
X216833433Y-146500814D02*
X216871528Y-146538909D01*
X216985814Y-146577004D01*
X217062004Y-146577004D01*
X217176290Y-146538909D01*
X217252480Y-146462719D01*
X217290576Y-146386528D01*
X217328671Y-146234147D01*
X217328671Y-146119861D01*
X217290576Y-145967480D01*
X217252480Y-145891290D01*
X217176290Y-145815100D01*
X217062004Y-145777004D01*
X216985814Y-145777004D01*
X216871528Y-145815100D01*
X216833433Y-145853195D01*
X216147719Y-145777004D02*
X216300100Y-145777004D01*
X216376290Y-145815100D01*
X216414385Y-145853195D01*
X216490576Y-145967480D01*
X216528671Y-146119861D01*
X216528671Y-146424623D01*
X216490576Y-146500814D01*
X216452480Y-146538909D01*
X216376290Y-146577004D01*
X216223909Y-146577004D01*
X216147719Y-146538909D01*
X216109623Y-146500814D01*
X216071528Y-146424623D01*
X216071528Y-146234147D01*
X216109623Y-146157957D01*
X216147719Y-146119861D01*
X216223909Y-146081766D01*
X216376290Y-146081766D01*
X216452480Y-146119861D01*
X216490576Y-146157957D01*
X216528671Y-146234147D01*
X217290576Y-144037004D02*
X217290576Y-143237004D01*
X217100100Y-143237004D01*
X216985814Y-143275100D01*
X216909623Y-143351290D01*
X216871528Y-143427480D01*
X216833433Y-143579861D01*
X216833433Y-143694147D01*
X216871528Y-143846528D01*
X216909623Y-143922719D01*
X216985814Y-143998909D01*
X217100100Y-144037004D01*
X217290576Y-144037004D01*
X216147719Y-143503671D02*
X216147719Y-144037004D01*
X216338195Y-143198909D02*
X216528671Y-143770338D01*
X216033433Y-143770338D01*
X217309623Y-133115100D02*
X217385814Y-133077004D01*
X217500100Y-133077004D01*
X217614385Y-133115100D01*
X217690576Y-133191290D01*
X217728671Y-133267480D01*
X217766766Y-133419861D01*
X217766766Y-133534147D01*
X217728671Y-133686528D01*
X217690576Y-133762719D01*
X217614385Y-133838909D01*
X217500100Y-133877004D01*
X217423909Y-133877004D01*
X217309623Y-133838909D01*
X217271528Y-133800814D01*
X217271528Y-133534147D01*
X217423909Y-133534147D01*
X216928671Y-133877004D02*
X216928671Y-133077004D01*
X216471528Y-133877004D01*
X216471528Y-133077004D01*
X216090576Y-133877004D02*
X216090576Y-133077004D01*
X215900100Y-133077004D01*
X215785814Y-133115100D01*
X215709623Y-133191290D01*
X215671528Y-133267480D01*
X215633433Y-133419861D01*
X215633433Y-133534147D01*
X215671528Y-133686528D01*
X215709623Y-133762719D01*
X215785814Y-133838909D01*
X215900100Y-133877004D01*
X216090576Y-133877004D01*
X217309623Y-135655100D02*
X217385814Y-135617004D01*
X217500100Y-135617004D01*
X217614385Y-135655100D01*
X217690576Y-135731290D01*
X217728671Y-135807480D01*
X217766766Y-135959861D01*
X217766766Y-136074147D01*
X217728671Y-136226528D01*
X217690576Y-136302719D01*
X217614385Y-136378909D01*
X217500100Y-136417004D01*
X217423909Y-136417004D01*
X217309623Y-136378909D01*
X217271528Y-136340814D01*
X217271528Y-136074147D01*
X217423909Y-136074147D01*
X216928671Y-136417004D02*
X216928671Y-135617004D01*
X216471528Y-136417004D01*
X216471528Y-135617004D01*
X216090576Y-136417004D02*
X216090576Y-135617004D01*
X215900100Y-135617004D01*
X215785814Y-135655100D01*
X215709623Y-135731290D01*
X215671528Y-135807480D01*
X215633433Y-135959861D01*
X215633433Y-136074147D01*
X215671528Y-136226528D01*
X215709623Y-136302719D01*
X215785814Y-136378909D01*
X215900100Y-136417004D01*
X216090576Y-136417004D01*
X217290576Y-138957004D02*
X217290576Y-138157004D01*
X217100100Y-138157004D01*
X216985814Y-138195100D01*
X216909623Y-138271290D01*
X216871528Y-138347480D01*
X216833433Y-138499861D01*
X216833433Y-138614147D01*
X216871528Y-138766528D01*
X216909623Y-138842719D01*
X216985814Y-138918909D01*
X217100100Y-138957004D01*
X217290576Y-138957004D01*
X216071528Y-138957004D02*
X216528671Y-138957004D01*
X216300100Y-138957004D02*
X216300100Y-138157004D01*
X216376290Y-138271290D01*
X216452480Y-138347480D01*
X216528671Y-138385576D01*
X217290576Y-141497004D02*
X217290576Y-140697004D01*
X217100100Y-140697004D01*
X216985814Y-140735100D01*
X216909623Y-140811290D01*
X216871528Y-140887480D01*
X216833433Y-141039861D01*
X216833433Y-141154147D01*
X216871528Y-141306528D01*
X216909623Y-141382719D01*
X216985814Y-141458909D01*
X217100100Y-141497004D01*
X217290576Y-141497004D01*
X216338195Y-140697004D02*
X216262004Y-140697004D01*
X216185814Y-140735100D01*
X216147719Y-140773195D01*
X216109623Y-140849385D01*
X216071528Y-141001766D01*
X216071528Y-141192242D01*
X216109623Y-141344623D01*
X216147719Y-141420814D01*
X216185814Y-141458909D01*
X216262004Y-141497004D01*
X216338195Y-141497004D01*
X216414385Y-141458909D01*
X216452480Y-141420814D01*
X216490576Y-141344623D01*
X216528671Y-141192242D01*
X216528671Y-141001766D01*
X216490576Y-140849385D01*
X216452480Y-140773195D01*
X216414385Y-140735100D01*
X216338195Y-140697004D01*
X217290576Y-131337004D02*
X217290576Y-130537004D01*
X217100100Y-130537004D01*
X216985814Y-130575100D01*
X216909623Y-130651290D01*
X216871528Y-130727480D01*
X216833433Y-130879861D01*
X216833433Y-130994147D01*
X216871528Y-131146528D01*
X216909623Y-131222719D01*
X216985814Y-131298909D01*
X217100100Y-131337004D01*
X217290576Y-131337004D01*
X216528671Y-130613195D02*
X216490576Y-130575100D01*
X216414385Y-130537004D01*
X216223909Y-130537004D01*
X216147719Y-130575100D01*
X216109623Y-130613195D01*
X216071528Y-130689385D01*
X216071528Y-130765576D01*
X216109623Y-130879861D01*
X216566766Y-131337004D01*
X216071528Y-131337004D01*
X217001448Y-127997004D02*
X216544305Y-127997004D01*
X216772876Y-128797004D02*
X216772876Y-127997004D01*
X216353829Y-127997004D02*
X215820495Y-128797004D01*
X215820495Y-127997004D02*
X216353829Y-128797004D01*
X215363352Y-127997004D02*
X215287162Y-127997004D01*
X215210972Y-128035100D01*
X215172876Y-128073195D01*
X215134781Y-128149385D01*
X215096686Y-128301766D01*
X215096686Y-128492242D01*
X215134781Y-128644623D01*
X215172876Y-128720814D01*
X215210972Y-128758909D01*
X215287162Y-128797004D01*
X215363352Y-128797004D01*
X215439543Y-128758909D01*
X215477638Y-128720814D01*
X215515733Y-128644623D01*
X215553829Y-128492242D01*
X215553829Y-128301766D01*
X215515733Y-128149385D01*
X215477638Y-128073195D01*
X215439543Y-128035100D01*
X215363352Y-127997004D01*
X214182400Y-127958909D02*
X214868114Y-128987480D01*
X213915733Y-128797004D02*
X213915733Y-127997004D01*
X213725257Y-127997004D01*
X213610972Y-128035100D01*
X213534781Y-128111290D01*
X213496686Y-128187480D01*
X213458591Y-128339861D01*
X213458591Y-128454147D01*
X213496686Y-128606528D01*
X213534781Y-128682719D01*
X213610972Y-128758909D01*
X213725257Y-128797004D01*
X213915733Y-128797004D01*
X213191924Y-127997004D02*
X212696686Y-127997004D01*
X212963352Y-128301766D01*
X212849067Y-128301766D01*
X212772876Y-128339861D01*
X212734781Y-128377957D01*
X212696686Y-128454147D01*
X212696686Y-128644623D01*
X212734781Y-128720814D01*
X212772876Y-128758909D01*
X212849067Y-128797004D01*
X213077638Y-128797004D01*
X213153829Y-128758909D01*
X213191924Y-128720814D01*
X147260805Y-199252358D02*
X147835822Y-199752213D01*
X145343842Y-197585969D02*
X145918859Y-198085824D01*
X145381423Y-198123405D02*
X145881277Y-197548388D01*
X336705780Y-180165295D02*
X335957874Y-180310673D01*
X334212447Y-180649950D02*
X333464541Y-180795328D01*
X333911183Y-181096592D02*
X333765805Y-180348686D01*
X196018004Y-128416004D02*
X196284671Y-128035052D01*
X196475147Y-128416004D02*
X196475147Y-127616004D01*
X196170385Y-127616004D01*
X196094195Y-127654100D01*
X196056100Y-127692195D01*
X196018004Y-127768385D01*
X196018004Y-127882671D01*
X196056100Y-127958861D01*
X196094195Y-127996957D01*
X196170385Y-128035052D01*
X196475147Y-128035052D01*
X195675147Y-127996957D02*
X195408480Y-127996957D01*
X195294195Y-128416004D02*
X195675147Y-128416004D01*
X195675147Y-127616004D01*
X195294195Y-127616004D01*
X194989433Y-128377909D02*
X194875147Y-128416004D01*
X194684671Y-128416004D01*
X194608480Y-128377909D01*
X194570385Y-128339814D01*
X194532290Y-128263623D01*
X194532290Y-128187433D01*
X194570385Y-128111242D01*
X194608480Y-128073147D01*
X194684671Y-128035052D01*
X194837052Y-127996957D01*
X194913242Y-127958861D01*
X194951338Y-127920766D01*
X194989433Y-127844576D01*
X194989433Y-127768385D01*
X194951338Y-127692195D01*
X194913242Y-127654100D01*
X194837052Y-127616004D01*
X194646576Y-127616004D01*
X194532290Y-127654100D01*
X194189433Y-127996957D02*
X193922766Y-127996957D01*
X193808480Y-128416004D02*
X194189433Y-128416004D01*
X194189433Y-127616004D01*
X193808480Y-127616004D01*
X193579909Y-127616004D02*
X193122766Y-127616004D01*
X193351338Y-128416004D02*
X193351338Y-127616004D01*
M02*
