G04 #@! TF.GenerationSoftware,KiCad,Pcbnew,(5.1.4-0-10_14)*
G04 #@! TF.CreationDate,2021-05-16T21:06:51-06:00*
G04 #@! TF.ProjectId,avlo44,61766c6f-3434-42e6-9b69-6361645f7063,0.1*
G04 #@! TF.SameCoordinates,Original*
G04 #@! TF.FileFunction,Copper,L2,Bot*
G04 #@! TF.FilePolarity,Positive*
%FSLAX46Y46*%
G04 Gerber Fmt 4.6, Leading zero omitted, Abs format (unit mm)*
G04 Created by KiCad (PCBNEW (5.1.4-0-10_14)) date 2021-05-16 21:06:51*
%MOMM*%
%LPD*%
G04 APERTURE LIST*
%ADD10C,4.700000*%
%ADD11C,1.905000*%
%ADD12C,0.020000*%
%ADD13C,2.000000*%
%ADD14C,2.250000*%
%ADD15C,2.250000*%
%ADD16R,1.752600X1.752600*%
%ADD17C,1.752600*%
%ADD18C,1.397000*%
%ADD19R,1.600000X1.600000*%
%ADD20C,1.600000*%
%ADD21R,0.500000X2.900000*%
%ADD22R,1.200000X1.600000*%
%ADD23C,0.800000*%
%ADD24C,0.254000*%
%ADD25C,0.381000*%
G04 APERTURE END LIST*
D10*
X211239100Y-168897300D03*
X283921200Y-190500000D03*
X138468100Y-190500000D03*
X286042100Y-137325100D03*
X293217600Y-174548800D03*
X367436400Y-158927800D03*
X358724200Y-116052600D03*
X136232900Y-137325100D03*
X129057400Y-174548800D03*
X54838600Y-158927800D03*
X63563500Y-116052600D03*
D11*
X298808494Y-191397642D03*
D12*
G36*
X298369941Y-192671292D02*
G01*
X297534844Y-190959089D01*
X299247047Y-190123992D01*
X300082144Y-191836195D01*
X298369941Y-192671292D01*
X298369941Y-192671292D01*
G37*
D11*
X296525557Y-192511105D03*
D13*
X292853710Y-182085615D03*
X298268260Y-181781227D03*
D14*
X291439630Y-184889252D03*
X291170925Y-185832502D03*
D15*
X290902232Y-186775757D02*
X291439618Y-184889247D01*
D14*
X295496111Y-181709164D03*
X295605051Y-181978667D03*
D15*
X295714415Y-182247999D02*
X295495687Y-181709335D01*
D14*
X375434797Y-136993695D03*
D15*
X375470727Y-137282155D02*
X375398867Y-136705235D01*
D14*
X375399323Y-136705179D03*
X370154316Y-139568578D03*
D15*
X369650646Y-140410149D02*
X370657986Y-138727007D01*
D14*
X370657996Y-138727014D03*
D13*
X378058362Y-137492272D03*
X372749527Y-136384900D03*
D11*
X373597943Y-147405494D03*
X376091276Y-146920839D03*
D12*
G36*
X375338022Y-148037584D02*
G01*
X374974531Y-146167585D01*
X376844530Y-145804094D01*
X377208021Y-147674093D01*
X375338022Y-148037584D01*
X375338022Y-148037584D01*
G37*
D14*
X353082797Y-121956895D03*
D15*
X353118727Y-122245355D02*
X353046867Y-121668435D01*
D14*
X353047323Y-121668379D03*
X347802316Y-124531778D03*
D15*
X347298646Y-125373349D02*
X348305986Y-123690207D01*
D14*
X348305996Y-123690214D03*
D13*
X355706362Y-122455472D03*
X350397527Y-121348100D03*
D11*
X351245943Y-132368694D03*
X353739276Y-131884039D03*
D12*
G36*
X352986022Y-133000784D02*
G01*
X352622531Y-131130785D01*
X354492530Y-130767294D01*
X354856021Y-132637293D01*
X352986022Y-133000784D01*
X352986022Y-133000784D01*
G37*
D11*
X372433676Y-128226439D03*
D12*
G36*
X371680422Y-129343184D02*
G01*
X371316931Y-127473185D01*
X373186930Y-127109694D01*
X373550421Y-128979693D01*
X371680422Y-129343184D01*
X371680422Y-129343184D01*
G37*
D11*
X369940343Y-128711094D03*
D13*
X369091927Y-117690500D03*
X374400762Y-118797872D03*
D14*
X367000396Y-120032614D03*
X366496716Y-120874178D03*
D15*
X365993046Y-121715749D02*
X367000386Y-120032607D01*
D14*
X371741723Y-118010779D03*
X371777197Y-118299295D03*
D15*
X371813127Y-118587755D02*
X371741267Y-118010835D01*
D11*
X106893857Y-185861094D03*
D12*
G36*
X105777112Y-186614348D02*
G01*
X106140603Y-184744349D01*
X108010602Y-185107840D01*
X107647111Y-186977839D01*
X105777112Y-186614348D01*
X105777112Y-186614348D01*
G37*
D11*
X104400524Y-185376439D03*
D13*
X107742273Y-174840500D03*
X112249710Y-177855962D03*
D14*
X104925668Y-176228569D03*
X104143408Y-176820172D03*
D15*
X103361155Y-177411785D02*
X104925661Y-176228559D01*
D14*
X110079143Y-176130089D03*
X110003954Y-176410885D03*
D15*
X109929208Y-176691800D02*
X110078700Y-176129970D01*
D14*
X280184797Y-146340895D03*
D15*
X280220727Y-146629355D02*
X280148867Y-146052435D01*
D14*
X280149323Y-146052379D03*
X274904316Y-148915778D03*
D15*
X274400646Y-149757349D02*
X275407986Y-148074207D01*
D14*
X275407996Y-148074214D03*
D13*
X282808362Y-146839472D03*
X277499527Y-145732100D03*
D11*
X278347943Y-156752694D03*
X280841276Y-156268039D03*
D12*
G36*
X280088022Y-157384784D02*
G01*
X279724531Y-155514785D01*
X281594530Y-155151294D01*
X281958021Y-157021293D01*
X280088022Y-157384784D01*
X280088022Y-157384784D01*
G37*
D14*
X276577997Y-127646495D03*
D15*
X276613927Y-127934955D02*
X276542067Y-127358035D01*
D14*
X276542523Y-127357979D03*
X271297516Y-130221378D03*
D15*
X270793846Y-131062949D02*
X271801186Y-129379807D01*
D14*
X271801196Y-129379814D03*
D13*
X279201562Y-128145072D03*
X273892727Y-127037700D03*
D11*
X274741143Y-138058294D03*
X277234476Y-137573639D03*
D12*
G36*
X276481222Y-138690384D02*
G01*
X276117731Y-136820385D01*
X277987730Y-136456894D01*
X278351221Y-138326893D01*
X276481222Y-138690384D01*
X276481222Y-138690384D01*
G37*
D11*
X125800243Y-192511105D03*
D12*
G36*
X124526593Y-192949658D02*
G01*
X125361690Y-191237455D01*
X127073893Y-192072552D01*
X126238796Y-193784755D01*
X124526593Y-192949658D01*
X124526593Y-192949658D01*
G37*
D11*
X123517306Y-191397642D03*
D13*
X129472090Y-182085615D03*
X133045481Y-186164938D03*
D14*
X126392199Y-182697396D03*
X125483476Y-183066377D03*
D15*
X124574757Y-183435369D02*
X126392195Y-182697385D01*
D14*
X131395562Y-183936089D03*
X131250260Y-184187858D03*
D15*
X131105355Y-184439855D02*
X131395165Y-183935861D01*
D14*
X298421997Y-140244895D03*
D15*
X298457927Y-140533355D02*
X298386067Y-139956435D01*
D14*
X298386523Y-139956379D03*
X293141516Y-142819778D03*
D15*
X292637846Y-143661349D02*
X293645186Y-141978207D01*
D14*
X293645196Y-141978214D03*
D13*
X301045562Y-140743472D03*
X295736727Y-139636100D03*
D11*
X296585143Y-150656694D03*
X299078476Y-150172039D03*
D12*
G36*
X298325222Y-151288784D02*
G01*
X297961731Y-149418785D01*
X299831730Y-149055294D01*
X300195221Y-150925293D01*
X298325222Y-151288784D01*
X298325222Y-151288784D01*
G37*
D11*
X316553676Y-140164439D03*
D12*
G36*
X315800422Y-141281184D02*
G01*
X315436931Y-139411185D01*
X317306930Y-139047694D01*
X317670421Y-140917693D01*
X315800422Y-141281184D01*
X315800422Y-141281184D01*
G37*
D11*
X314060343Y-140649094D03*
D13*
X313211927Y-129628500D03*
X318520762Y-130735872D03*
D14*
X311120396Y-131970614D03*
X310616716Y-132812178D03*
D15*
X310113046Y-133653749D02*
X311120386Y-131970607D01*
D14*
X315861723Y-129948779D03*
X315897197Y-130237295D03*
D15*
X315933127Y-130525755D02*
X315861267Y-129948835D01*
D14*
X335709197Y-132472495D03*
D15*
X335745127Y-132760955D02*
X335673267Y-132184035D01*
D14*
X335673723Y-132183979D03*
X330428716Y-135047378D03*
D15*
X329925046Y-135888949D02*
X330932386Y-134205807D01*
D14*
X330932396Y-134205814D03*
D13*
X338332762Y-132971072D03*
X333023927Y-131863700D03*
D11*
X333872343Y-142884294D03*
X336365676Y-142399639D03*
D12*
G36*
X335612422Y-143516384D02*
G01*
X335248931Y-141646385D01*
X337118930Y-141282894D01*
X337482421Y-143152893D01*
X335612422Y-143516384D01*
X335612422Y-143516384D01*
G37*
D14*
X356740397Y-140651295D03*
D15*
X356776327Y-140939755D02*
X356704467Y-140362835D01*
D14*
X356704923Y-140362779D03*
X351459916Y-143226178D03*
D15*
X350956246Y-144067749D02*
X351963586Y-142384607D01*
D14*
X351963596Y-142384614D03*
D13*
X359363962Y-141149872D03*
X354055127Y-140042500D03*
D11*
X354903543Y-151063094D03*
X357396876Y-150578439D03*
D12*
G36*
X356643622Y-151695184D02*
G01*
X356280131Y-149825185D01*
X358150130Y-149461694D01*
X358513621Y-151331693D01*
X356643622Y-151695184D01*
X356643622Y-151695184D01*
G37*
D14*
X283842397Y-165035295D03*
D15*
X283878327Y-165323755D02*
X283806467Y-164746835D01*
D14*
X283806923Y-164746779D03*
X278561916Y-167610178D03*
D15*
X278058246Y-168451749D02*
X279065586Y-166768607D01*
D14*
X279065596Y-166768614D03*
D13*
X286465962Y-165533872D03*
X281157127Y-164426500D03*
D11*
X282005543Y-175447094D03*
X284498876Y-174962439D03*
D12*
G36*
X283745622Y-176079184D02*
G01*
X283382131Y-174209185D01*
X285252130Y-173845694D01*
X285615621Y-175715693D01*
X283745622Y-176079184D01*
X283745622Y-176079184D01*
G37*
D14*
X302028797Y-158939295D03*
D15*
X302064727Y-159227755D02*
X301992867Y-158650835D01*
D14*
X301993323Y-158650779D03*
X296748316Y-161514178D03*
D15*
X296244646Y-162355749D02*
X297251986Y-160672607D01*
D14*
X297251996Y-160672614D03*
D13*
X304652362Y-159437872D03*
X299343527Y-158330500D03*
D11*
X300191943Y-169351094D03*
X302685276Y-168866439D03*
D12*
G36*
X301932022Y-169983184D02*
G01*
X301568531Y-168113185D01*
X303438530Y-167749694D01*
X303802021Y-169619693D01*
X301932022Y-169983184D01*
X301932022Y-169983184D01*
G37*
D11*
X320160476Y-158858839D03*
D12*
G36*
X319407222Y-159975584D02*
G01*
X319043731Y-158105585D01*
X320913730Y-157742094D01*
X321277221Y-159612093D01*
X319407222Y-159975584D01*
X319407222Y-159975584D01*
G37*
D11*
X317667143Y-159343494D03*
D13*
X316818727Y-148322900D03*
X322127562Y-149430272D03*
D14*
X314727196Y-150665014D03*
X314223516Y-151506578D03*
D15*
X313719846Y-152348149D02*
X314727186Y-150665007D01*
D14*
X319468523Y-148643179D03*
X319503997Y-148931695D03*
D15*
X319539927Y-149220155D02*
X319468067Y-148643235D01*
D11*
X340023276Y-161094039D03*
D12*
G36*
X339270022Y-162210784D02*
G01*
X338906531Y-160340785D01*
X340776530Y-159977294D01*
X341140021Y-161847293D01*
X339270022Y-162210784D01*
X339270022Y-162210784D01*
G37*
D11*
X337529943Y-161578694D03*
D13*
X336681527Y-150558100D03*
X341990362Y-151665472D03*
D14*
X334589996Y-152900214D03*
X334086316Y-153741778D03*
D15*
X333582646Y-154583349D02*
X334589986Y-152900207D01*
D14*
X339331323Y-150878379D03*
X339366797Y-151166895D03*
D15*
X339402727Y-151455355D02*
X339330867Y-150878435D01*
D14*
X143379554Y-165996885D03*
D15*
X143304808Y-166277800D02*
X143454300Y-165715970D01*
D14*
X143454743Y-165716089D03*
X137519008Y-166406172D03*
D15*
X136736755Y-166997785D02*
X138301261Y-165814559D01*
D14*
X138301268Y-165814569D03*
D13*
X145625310Y-167441962D03*
X141117873Y-164426500D03*
D11*
X137776124Y-174962439D03*
X140269457Y-175447094D03*
D12*
G36*
X139152712Y-176200348D02*
G01*
X139516203Y-174330349D01*
X141386202Y-174693840D01*
X141022711Y-176563839D01*
X139152712Y-176200348D01*
X139152712Y-176200348D01*
G37*
D14*
X294815197Y-121550495D03*
D15*
X294851127Y-121838955D02*
X294779267Y-121262035D01*
D14*
X294779723Y-121261979D03*
X289534716Y-124125378D03*
D15*
X289031046Y-124966949D02*
X290038386Y-123283807D01*
D14*
X290038396Y-123283814D03*
D13*
X297438762Y-122049072D03*
X292129927Y-120941700D03*
D11*
X292978343Y-131962294D03*
X295471676Y-131477639D03*
D12*
G36*
X294718422Y-132594384D02*
G01*
X294354931Y-130724385D01*
X296224930Y-130360894D01*
X296588421Y-132230893D01*
X294718422Y-132594384D01*
X294718422Y-132594384D01*
G37*
D11*
X312896076Y-121470039D03*
D12*
G36*
X312142822Y-122586784D02*
G01*
X311779331Y-120716785D01*
X313649330Y-120353294D01*
X314012821Y-122223293D01*
X312142822Y-122586784D01*
X312142822Y-122586784D01*
G37*
D11*
X310402743Y-121954694D03*
D13*
X309554327Y-110934100D03*
X314863162Y-112041472D03*
D14*
X307462796Y-113276214D03*
X306959116Y-114117778D03*
D15*
X306455446Y-114959349D02*
X307462786Y-113276207D01*
D14*
X312204123Y-111254379D03*
X312239597Y-111542895D03*
D15*
X312275527Y-111831355D02*
X312203667Y-111254435D01*
D11*
X332758876Y-123705239D03*
D12*
G36*
X332005622Y-124821984D02*
G01*
X331642131Y-122951985D01*
X333512130Y-122588494D01*
X333875621Y-124458493D01*
X332005622Y-124821984D01*
X332005622Y-124821984D01*
G37*
D11*
X330265543Y-124189894D03*
D13*
X329417127Y-113169300D03*
X334725962Y-114276672D03*
D14*
X327325596Y-115511414D03*
X326821916Y-116352978D03*
D15*
X326318246Y-117194549D02*
X327325586Y-115511407D01*
D14*
X332066923Y-113489579D03*
X332102397Y-113778095D03*
D15*
X332138327Y-114066555D02*
X332066467Y-113489635D01*
D14*
X147037154Y-147302485D03*
D15*
X146962408Y-147583400D02*
X147111900Y-147021570D01*
D14*
X147112343Y-147021689D03*
X141176608Y-147711772D03*
D15*
X140394355Y-148303385D02*
X141958861Y-147120159D01*
D14*
X141958868Y-147120169D03*
D13*
X149282910Y-148747562D03*
X144775473Y-145732100D03*
D11*
X141433724Y-156268039D03*
X143927057Y-156752694D03*
D12*
G36*
X142810312Y-157505948D02*
G01*
X143173803Y-155635949D01*
X145043802Y-155999440D01*
X144680311Y-157869439D01*
X142810312Y-157505948D01*
X142810312Y-157505948D01*
G37*
D14*
X114982354Y-112504485D03*
D15*
X114907608Y-112785400D02*
X115057100Y-112223570D01*
D14*
X115057543Y-112223689D03*
X109121808Y-112913772D03*
D15*
X108339555Y-113505385D02*
X109904061Y-112322159D01*
D14*
X109904068Y-112322169D03*
D13*
X117228110Y-113949562D03*
X112720673Y-110934100D03*
D11*
X109378924Y-121470039D03*
X111872257Y-121954694D03*
D12*
G36*
X110755512Y-122707948D02*
G01*
X111119003Y-120837949D01*
X112989002Y-121201440D01*
X112625511Y-123071439D01*
X110755512Y-122707948D01*
X110755512Y-122707948D01*
G37*
D11*
X129347457Y-131962294D03*
D12*
G36*
X128230712Y-132715548D02*
G01*
X128594203Y-130845549D01*
X130464202Y-131209040D01*
X130100711Y-133079039D01*
X128230712Y-132715548D01*
X128230712Y-132715548D01*
G37*
D11*
X126854124Y-131477639D03*
D13*
X130195873Y-120941700D03*
X134703310Y-123957162D03*
D14*
X127379268Y-122329769D03*
X126597008Y-122921372D03*
D15*
X125814755Y-123512985D02*
X127379261Y-122329759D01*
D14*
X132532743Y-122231289D03*
X132457554Y-122512085D03*
D15*
X132382808Y-122793000D02*
X132532300Y-122231170D01*
D14*
X150648099Y-128577200D03*
D15*
X150573353Y-128858115D02*
X150722845Y-128296285D01*
D14*
X150723288Y-128296404D03*
X144787553Y-128986487D03*
D15*
X144005300Y-129578100D02*
X145569806Y-128394874D01*
D14*
X145569813Y-128394884D03*
D13*
X152893855Y-130022277D03*
X148386418Y-127006815D03*
D11*
X145044669Y-137542754D03*
X147538002Y-138027409D03*
D12*
G36*
X146421257Y-138780663D02*
G01*
X146784748Y-136910664D01*
X148654747Y-137274155D01*
X148291256Y-139144154D01*
X146421257Y-138780663D01*
X146421257Y-138780663D01*
G37*
D11*
X104607857Y-159343494D03*
D12*
G36*
X103491112Y-160096748D02*
G01*
X103854603Y-158226749D01*
X105724602Y-158590240D01*
X105361111Y-160460239D01*
X103491112Y-160096748D01*
X103491112Y-160096748D01*
G37*
D11*
X102114524Y-158858839D03*
D13*
X105456273Y-148322900D03*
X109963710Y-151338362D03*
D14*
X102639668Y-149710969D03*
X101857408Y-150302572D03*
D15*
X101075155Y-150894185D02*
X102639661Y-149710959D01*
D14*
X107793143Y-149612489D03*
X107717954Y-149893285D03*
D15*
X107643208Y-150174200D02*
X107792700Y-149612370D01*
D14*
X125193154Y-159900885D03*
D15*
X125118408Y-160181800D02*
X125267900Y-159619970D01*
D14*
X125268343Y-159620089D03*
X119332608Y-160310172D03*
D15*
X118550355Y-160901785D02*
X120114861Y-159718559D01*
D14*
X120114868Y-159718569D03*
D13*
X127438910Y-161345962D03*
X122931473Y-158330500D03*
D11*
X119589724Y-168866439D03*
X122083057Y-169351094D03*
D12*
G36*
X120966312Y-170104348D02*
G01*
X121329803Y-168234349D01*
X123199802Y-168597840D01*
X122836311Y-170467839D01*
X120966312Y-170104348D01*
X120966312Y-170104348D01*
G37*
D11*
X63764657Y-169757494D03*
D12*
G36*
X62647912Y-170510748D02*
G01*
X63011403Y-168640749D01*
X64881402Y-169004240D01*
X64517911Y-170874239D01*
X62647912Y-170510748D01*
X62647912Y-170510748D01*
G37*
D11*
X61271324Y-169272839D03*
D13*
X64613073Y-158736900D03*
X69120510Y-161752362D03*
D14*
X61796468Y-160124969D03*
X61014208Y-160716572D03*
D15*
X60231955Y-161308185D02*
X61796461Y-160124959D01*
D14*
X66949943Y-160026489D03*
X66874754Y-160307285D03*
D15*
X66800008Y-160588200D02*
X66949500Y-160026370D01*
D11*
X48681202Y-147425409D03*
D12*
G36*
X47564457Y-148178663D02*
G01*
X47927948Y-146308664D01*
X49797947Y-146672155D01*
X49434456Y-148542154D01*
X47564457Y-148178663D01*
X47564457Y-148178663D01*
G37*
D11*
X46187869Y-146940754D03*
D13*
X49529618Y-136404815D03*
X54037055Y-139420277D03*
D14*
X46713013Y-137792884D03*
X45930753Y-138384487D03*
D15*
X45148500Y-138976100D02*
X46713006Y-137792874D01*
D14*
X51866488Y-137694404D03*
X51791299Y-137975200D03*
D15*
X51716553Y-138256115D02*
X51866045Y-137694285D01*
D11*
X67422257Y-151063094D03*
D12*
G36*
X66305512Y-151816348D02*
G01*
X66669003Y-149946349D01*
X68539002Y-150309840D01*
X68175511Y-152179839D01*
X66305512Y-151816348D01*
X66305512Y-151816348D01*
G37*
D11*
X64928924Y-150578439D03*
D13*
X68270673Y-140042500D03*
X72778110Y-143057962D03*
D14*
X65454068Y-141430569D03*
X64671808Y-142022172D03*
D15*
X63889555Y-142613785D02*
X65454061Y-141430559D01*
D14*
X70607543Y-141332089D03*
X70532354Y-141612885D03*
D15*
X70457608Y-141893800D02*
X70607100Y-141331970D01*
D11*
X88402657Y-142884294D03*
D12*
G36*
X87285912Y-143637548D02*
G01*
X87649403Y-141767549D01*
X89519402Y-142131040D01*
X89155911Y-144001039D01*
X87285912Y-143637548D01*
X87285912Y-143637548D01*
G37*
D11*
X85909324Y-142399639D03*
D13*
X89251073Y-131863700D03*
X93758510Y-134879162D03*
D14*
X86434468Y-133251769D03*
X85652208Y-133843372D03*
D15*
X84869955Y-134434985D02*
X86434461Y-133251759D01*
D14*
X91587943Y-133153289D03*
X91512754Y-133434085D03*
D15*
X91438008Y-133715000D02*
X91587500Y-133153170D01*
D11*
X108214657Y-140649094D03*
D12*
G36*
X107097912Y-141402348D02*
G01*
X107461403Y-139532349D01*
X109331402Y-139895840D01*
X108967911Y-141765839D01*
X107097912Y-141402348D01*
X107097912Y-141402348D01*
G37*
D11*
X105721324Y-140164439D03*
D13*
X109063073Y-129628500D03*
X113570510Y-132643962D03*
D14*
X106246468Y-131016569D03*
X105464208Y-131608172D03*
D15*
X104681955Y-132199785D02*
X106246461Y-131016559D01*
D14*
X111399943Y-130918089D03*
X111324754Y-131198885D03*
D15*
X111250008Y-131479800D02*
X111399500Y-130917970D01*
D11*
X45070257Y-166099894D03*
D12*
G36*
X43953512Y-166853148D02*
G01*
X44317003Y-164983149D01*
X46187002Y-165346640D01*
X45823511Y-167216639D01*
X43953512Y-166853148D01*
X43953512Y-166853148D01*
G37*
D11*
X42576924Y-165615239D03*
D13*
X45918673Y-155079300D03*
X50426110Y-158094762D03*
D14*
X43102068Y-156467369D03*
X42319808Y-157058972D03*
D15*
X41537555Y-157650585D02*
X43102061Y-156467359D01*
D14*
X48255543Y-156368889D03*
X48180354Y-156649685D03*
D15*
X48105608Y-156930600D02*
X48255100Y-156368770D01*
D14*
X128799954Y-141206485D03*
D15*
X128725208Y-141487400D02*
X128874700Y-140925570D01*
D14*
X128875143Y-140925689D03*
X122939408Y-141615772D03*
D15*
X122157155Y-142207385D02*
X123721661Y-141024159D01*
D14*
X123721668Y-141024169D03*
D13*
X131045710Y-142651562D03*
X126538273Y-139636100D03*
D11*
X123196524Y-150172039D03*
X125689857Y-150656694D03*
D12*
G36*
X124573112Y-151409948D02*
G01*
X124936603Y-149539949D01*
X126806602Y-149903440D01*
X126443111Y-151773439D01*
X124573112Y-151409948D01*
X124573112Y-151409948D01*
G37*
D11*
X84745057Y-161578694D03*
D12*
G36*
X83628312Y-162331948D02*
G01*
X83991803Y-160461949D01*
X85861802Y-160825440D01*
X85498311Y-162695439D01*
X83628312Y-162331948D01*
X83628312Y-162331948D01*
G37*
D11*
X82251724Y-161094039D03*
D13*
X85593473Y-150558100D03*
X90100910Y-153573562D03*
D14*
X82776868Y-151946169D03*
X81994608Y-152537772D03*
D15*
X81212355Y-153129385D02*
X82776861Y-151946159D01*
D14*
X87930343Y-151847689D03*
X87855154Y-152128485D03*
D15*
X87780408Y-152409400D02*
X87929900Y-151847570D01*
D11*
X52334657Y-128711094D03*
D12*
G36*
X51217912Y-129464348D02*
G01*
X51581403Y-127594349D01*
X53451402Y-127957840D01*
X53087911Y-129827839D01*
X51217912Y-129464348D01*
X51217912Y-129464348D01*
G37*
D11*
X49841324Y-128226439D03*
D13*
X53183073Y-117690500D03*
X57690510Y-120705962D03*
D14*
X50366468Y-119078569D03*
X49584208Y-119670172D03*
D15*
X48801955Y-120261785D02*
X50366461Y-119078559D01*
D14*
X55519943Y-118980089D03*
X55444754Y-119260885D03*
D15*
X55370008Y-119541800D02*
X55519500Y-118979970D01*
D14*
X74139154Y-122867685D03*
D15*
X74064408Y-123148600D02*
X74213900Y-122586770D01*
D14*
X74214343Y-122586889D03*
X68278608Y-123276972D03*
D15*
X67496355Y-123868585D02*
X69060861Y-122685359D01*
D14*
X69060868Y-122685369D03*
D13*
X76384910Y-124312762D03*
X71877473Y-121297300D03*
D11*
X68535724Y-131833239D03*
X71029057Y-132317894D03*
D12*
G36*
X69912312Y-133071148D02*
G01*
X70275803Y-131201149D01*
X72145802Y-131564640D01*
X71782311Y-133434639D01*
X69912312Y-133071148D01*
X69912312Y-133071148D01*
G37*
D14*
X95119554Y-114739685D03*
D15*
X95044808Y-115020600D02*
X95194300Y-114458770D01*
D14*
X95194743Y-114458889D03*
X89259008Y-115148972D03*
D15*
X88476755Y-115740585D02*
X90041261Y-114557359D01*
D14*
X90041268Y-114557369D03*
D13*
X97365310Y-116184762D03*
X92857873Y-113169300D03*
D11*
X89516124Y-123705239D03*
X92009457Y-124189894D03*
D12*
G36*
X90892712Y-124943148D02*
G01*
X91256203Y-123073149D01*
X93126202Y-123436640D01*
X92762711Y-125306639D01*
X90892712Y-124943148D01*
X90892712Y-124943148D01*
G37*
D11*
X88199457Y-182203494D03*
D12*
G36*
X87082712Y-182956748D02*
G01*
X87446203Y-181086749D01*
X89316202Y-181450240D01*
X88952711Y-183320239D01*
X87082712Y-182956748D01*
X87082712Y-182956748D01*
G37*
D11*
X85706124Y-181718839D03*
D13*
X89047873Y-171182900D03*
X93555310Y-174198362D03*
D14*
X86231268Y-172570969D03*
X85449008Y-173162572D03*
D15*
X84666755Y-173754185D02*
X86231261Y-172570959D01*
D14*
X91384743Y-172472489D03*
X91309554Y-172753285D03*
D15*
X91234808Y-173034200D02*
X91384300Y-172472370D01*
D11*
X379698076Y-165615239D03*
D12*
G36*
X378944822Y-166731984D02*
G01*
X378581331Y-164861985D01*
X380451330Y-164498494D01*
X380814821Y-166368493D01*
X378944822Y-166731984D01*
X378944822Y-166731984D01*
G37*
D11*
X377204743Y-166099894D03*
D13*
X376356327Y-155079300D03*
X381665162Y-156186672D03*
D14*
X374264796Y-157421414D03*
X373761116Y-158262978D03*
D15*
X373257446Y-159104549D02*
X374264786Y-157421407D01*
D14*
X379006123Y-155399579D03*
X379041597Y-155688095D03*
D15*
X379077527Y-155976555D02*
X379005667Y-155399635D01*
D11*
X361003676Y-169272839D03*
D12*
G36*
X360250422Y-170389584D02*
G01*
X359886931Y-168519585D01*
X361756930Y-168156094D01*
X362120421Y-170026093D01*
X360250422Y-170389584D01*
X360250422Y-170389584D01*
G37*
D11*
X358510343Y-169757494D03*
D13*
X357661927Y-158736900D03*
X362970762Y-159844272D03*
D14*
X355570396Y-161079014D03*
X355066716Y-161920578D03*
D15*
X354563046Y-162762149D02*
X355570386Y-161079007D01*
D14*
X360311723Y-159057179D03*
X360347197Y-159345695D03*
D15*
X360383127Y-159634155D02*
X360311267Y-159057235D01*
D11*
X277582561Y-198923630D03*
D12*
G36*
X277488596Y-200267387D02*
G01*
X276238804Y-198829665D01*
X277676526Y-197579873D01*
X278926318Y-199017595D01*
X277488596Y-200267387D01*
X277488596Y-200267387D01*
G37*
D11*
X275665599Y-200590020D03*
D13*
X269420552Y-191470113D03*
X274571824Y-189774708D03*
D14*
X268780290Y-194544209D03*
X268764872Y-195524866D03*
D15*
X268749467Y-196505523D02*
X268780277Y-194544209D01*
D14*
X271875482Y-190422585D03*
X272050462Y-190654710D03*
D15*
X272225808Y-190886559D02*
X271875116Y-190422861D01*
D11*
X317874476Y-185325639D03*
D12*
G36*
X317121222Y-186442384D02*
G01*
X316757731Y-184572385D01*
X318627730Y-184208894D01*
X318991221Y-186078893D01*
X317121222Y-186442384D01*
X317121222Y-186442384D01*
G37*
D11*
X315381143Y-185810294D03*
D13*
X314532727Y-174789700D03*
X319841562Y-175897072D03*
D14*
X312441196Y-177131814D03*
X311937516Y-177973378D03*
D15*
X311433846Y-178814949D02*
X312441186Y-177131807D01*
D14*
X317182523Y-175109979D03*
X317217997Y-175398495D03*
D15*
X317253927Y-175686955D02*
X317182067Y-175110035D01*
D16*
X218859100Y-128435100D03*
D17*
X218859100Y-130975100D03*
X218859100Y-133515100D03*
X218859100Y-136055100D03*
X218859100Y-138595100D03*
X218859100Y-141135100D03*
X218859100Y-143675100D03*
X218859100Y-146215100D03*
X218859100Y-148755100D03*
X218859100Y-151295100D03*
X218859100Y-153835100D03*
X203619100Y-156375100D03*
X203619100Y-153835100D03*
X203619100Y-151295100D03*
X203619100Y-148755100D03*
X203619100Y-146215100D03*
X203619100Y-143675100D03*
X203619100Y-141135100D03*
X203619100Y-138595100D03*
X203619100Y-136055100D03*
X203619100Y-133515100D03*
X203619100Y-130975100D03*
X218859100Y-156375100D03*
X203619100Y-128435100D03*
D11*
X146558601Y-200640820D03*
D12*
G36*
X145214844Y-200734785D02*
G01*
X146464636Y-199297063D01*
X147902358Y-200546855D01*
X146652566Y-201984577D01*
X145214844Y-200734785D01*
X145214844Y-200734785D01*
G37*
D11*
X144641639Y-198974430D03*
D13*
X152803648Y-191520913D03*
X155199472Y-196386099D03*
D14*
X149670362Y-191314714D03*
X148697103Y-191435927D03*
D15*
X147723846Y-191557153D02*
X149670360Y-191314701D01*
D14*
X154182642Y-193806165D03*
X153977129Y-194011747D03*
D15*
X153771940Y-194217654D02*
X154182318Y-193805840D01*
D11*
X336619676Y-181718839D03*
D12*
G36*
X335866422Y-182835584D02*
G01*
X335502931Y-180965585D01*
X337372930Y-180602094D01*
X337736421Y-182472093D01*
X335866422Y-182835584D01*
X335866422Y-182835584D01*
G37*
D11*
X334126343Y-182203494D03*
D13*
X333277927Y-171182900D03*
X338586762Y-172290272D03*
D14*
X331186396Y-173525014D03*
X330682716Y-174366578D03*
D15*
X330179046Y-175208149D02*
X331186386Y-173525007D01*
D14*
X335927723Y-171503179D03*
X335963197Y-171791695D03*
D15*
X335999127Y-172080155D02*
X335927267Y-171503235D01*
D18*
X215049100Y-161074100D03*
X212509100Y-161074100D03*
X209969100Y-161074100D03*
X207429100Y-161074100D03*
D19*
X259118100Y-175134100D03*
D20*
X259118100Y-167334100D03*
D21*
X259118100Y-173734100D03*
D22*
X259118100Y-172634100D03*
X259118100Y-169834100D03*
D21*
X259118100Y-168734100D03*
D19*
X254546100Y-175134100D03*
D20*
X254546100Y-167334100D03*
D21*
X254546100Y-173734100D03*
D22*
X254546100Y-172634100D03*
X254546100Y-169834100D03*
D21*
X254546100Y-168734100D03*
D19*
X249974100Y-175134100D03*
D20*
X249974100Y-167334100D03*
D21*
X249974100Y-173734100D03*
D22*
X249974100Y-172634100D03*
X249974100Y-169834100D03*
D21*
X249974100Y-168734100D03*
D19*
X245402100Y-175134100D03*
D20*
X245402100Y-167334100D03*
D21*
X245402100Y-173734100D03*
D22*
X245402100Y-172634100D03*
X245402100Y-169834100D03*
D21*
X245402100Y-168734100D03*
D19*
X259118100Y-162434100D03*
D20*
X259118100Y-154634100D03*
D21*
X259118100Y-161034100D03*
D22*
X259118100Y-159934100D03*
X259118100Y-157134100D03*
D21*
X259118100Y-156034100D03*
D19*
X254546100Y-162434100D03*
D20*
X254546100Y-154634100D03*
D21*
X254546100Y-161034100D03*
D22*
X254546100Y-159934100D03*
X254546100Y-157134100D03*
D21*
X254546100Y-156034100D03*
D19*
X163106100Y-137034100D03*
D20*
X163106100Y-129234100D03*
D21*
X163106100Y-135634100D03*
D22*
X163106100Y-134534100D03*
X163106100Y-131734100D03*
D21*
X163106100Y-130634100D03*
D19*
X167678100Y-137034100D03*
D20*
X167678100Y-129234100D03*
D21*
X167678100Y-135634100D03*
D22*
X167678100Y-134534100D03*
X167678100Y-131734100D03*
D21*
X167678100Y-130634100D03*
D19*
X172250100Y-137034100D03*
D20*
X172250100Y-129234100D03*
D21*
X172250100Y-135634100D03*
D22*
X172250100Y-134534100D03*
X172250100Y-131734100D03*
D21*
X172250100Y-130634100D03*
D19*
X176822100Y-137034100D03*
D20*
X176822100Y-129234100D03*
D21*
X176822100Y-135634100D03*
D22*
X176822100Y-134534100D03*
X176822100Y-131734100D03*
D21*
X176822100Y-130634100D03*
X181394100Y-130634100D03*
D22*
X181394100Y-131734100D03*
X181394100Y-134534100D03*
D21*
X181394100Y-135634100D03*
D20*
X181394100Y-129234100D03*
D19*
X181394100Y-137034100D03*
D21*
X185966100Y-130634100D03*
D22*
X185966100Y-131734100D03*
X185966100Y-134534100D03*
D21*
X185966100Y-135634100D03*
D20*
X185966100Y-129234100D03*
D19*
X185966100Y-137034100D03*
D21*
X163106100Y-143334100D03*
D22*
X163106100Y-144434100D03*
X163106100Y-147234100D03*
D21*
X163106100Y-148334100D03*
D20*
X163106100Y-141934100D03*
D19*
X163106100Y-149734100D03*
D21*
X167678100Y-143334100D03*
D22*
X167678100Y-144434100D03*
X167678100Y-147234100D03*
D21*
X167678100Y-148334100D03*
D20*
X167678100Y-141934100D03*
D19*
X167678100Y-149734100D03*
D21*
X172250100Y-143337100D03*
D22*
X172250100Y-144437100D03*
X172250100Y-147237100D03*
D21*
X172250100Y-148337100D03*
D20*
X172250100Y-141937100D03*
D19*
X172250100Y-149737100D03*
D21*
X176822100Y-143334100D03*
D22*
X176822100Y-144434100D03*
X176822100Y-147234100D03*
D21*
X176822100Y-148334100D03*
D20*
X176822100Y-141934100D03*
D19*
X176822100Y-149734100D03*
D21*
X181394100Y-143334100D03*
D22*
X181394100Y-144434100D03*
X181394100Y-147234100D03*
D21*
X181394100Y-148334100D03*
D20*
X181394100Y-141934100D03*
D19*
X181394100Y-149734100D03*
X185966100Y-149734100D03*
D20*
X185966100Y-141934100D03*
D21*
X185966100Y-148334100D03*
D22*
X185966100Y-147234100D03*
X185966100Y-144434100D03*
D21*
X185966100Y-143334100D03*
X163106100Y-156034100D03*
D22*
X163106100Y-157134100D03*
X163106100Y-159934100D03*
D21*
X163106100Y-161034100D03*
D20*
X163106100Y-154634100D03*
D19*
X163106100Y-162434100D03*
D21*
X167678100Y-156034100D03*
D22*
X167678100Y-157134100D03*
X167678100Y-159934100D03*
D21*
X167678100Y-161034100D03*
D20*
X167678100Y-154634100D03*
D19*
X167678100Y-162434100D03*
X172250100Y-162434100D03*
D20*
X172250100Y-154634100D03*
D21*
X172250100Y-161034100D03*
D22*
X172250100Y-159934100D03*
X172250100Y-157134100D03*
D21*
X172250100Y-156034100D03*
D19*
X176822100Y-162434100D03*
D20*
X176822100Y-154634100D03*
D21*
X176822100Y-161034100D03*
D22*
X176822100Y-159934100D03*
X176822100Y-157134100D03*
D21*
X176822100Y-156034100D03*
X181394100Y-156034100D03*
D22*
X181394100Y-157134100D03*
X181394100Y-159934100D03*
D21*
X181394100Y-161034100D03*
D20*
X181394100Y-154634100D03*
D19*
X181394100Y-162434100D03*
D21*
X185966100Y-156034100D03*
D22*
X185966100Y-157134100D03*
X185966100Y-159934100D03*
D21*
X185966100Y-161034100D03*
D20*
X185966100Y-154634100D03*
D19*
X185966100Y-162434100D03*
D21*
X163106100Y-168734100D03*
D22*
X163106100Y-169834100D03*
X163106100Y-172634100D03*
D21*
X163106100Y-173734100D03*
D20*
X163106100Y-167334100D03*
D19*
X163106100Y-175134100D03*
D21*
X167678100Y-168734100D03*
D22*
X167678100Y-169834100D03*
X167678100Y-172634100D03*
D21*
X167678100Y-173734100D03*
D20*
X167678100Y-167334100D03*
D19*
X167678100Y-175134100D03*
X172250100Y-175134100D03*
D20*
X172250100Y-167334100D03*
D21*
X172250100Y-173734100D03*
D22*
X172250100Y-172634100D03*
X172250100Y-169834100D03*
D21*
X172250100Y-168734100D03*
D19*
X176822100Y-175134100D03*
D20*
X176822100Y-167334100D03*
D21*
X176822100Y-173734100D03*
D22*
X176822100Y-172634100D03*
X176822100Y-169834100D03*
D21*
X176822100Y-168734100D03*
D19*
X236258100Y-137034100D03*
D20*
X236258100Y-129234100D03*
D21*
X236258100Y-135634100D03*
D22*
X236258100Y-134534100D03*
X236258100Y-131734100D03*
D21*
X236258100Y-130634100D03*
X240830100Y-130634100D03*
D22*
X240830100Y-131734100D03*
X240830100Y-134534100D03*
D21*
X240830100Y-135634100D03*
D20*
X240830100Y-129234100D03*
D19*
X240830100Y-137034100D03*
D21*
X245402100Y-130634100D03*
D22*
X245402100Y-131734100D03*
X245402100Y-134534100D03*
D21*
X245402100Y-135634100D03*
D20*
X245402100Y-129234100D03*
D19*
X245402100Y-137034100D03*
X249974100Y-137034100D03*
D20*
X249974100Y-129234100D03*
D21*
X249974100Y-135634100D03*
D22*
X249974100Y-134534100D03*
X249974100Y-131734100D03*
D21*
X249974100Y-130634100D03*
X254546100Y-130634100D03*
D22*
X254546100Y-131734100D03*
X254546100Y-134534100D03*
D21*
X254546100Y-135634100D03*
D20*
X254546100Y-129234100D03*
D19*
X254546100Y-137034100D03*
D21*
X259118100Y-130634100D03*
D22*
X259118100Y-131734100D03*
X259118100Y-134534100D03*
D21*
X259118100Y-135634100D03*
D20*
X259118100Y-129234100D03*
D19*
X259118100Y-137034100D03*
X236258100Y-149734100D03*
D20*
X236258100Y-141934100D03*
D21*
X236258100Y-148334100D03*
D22*
X236258100Y-147234100D03*
X236258100Y-144434100D03*
D21*
X236258100Y-143334100D03*
D19*
X240830100Y-149731100D03*
D20*
X240830100Y-141931100D03*
D21*
X240830100Y-148331100D03*
D22*
X240830100Y-147231100D03*
X240830100Y-144431100D03*
D21*
X240830100Y-143331100D03*
D19*
X245402100Y-149734100D03*
D20*
X245402100Y-141934100D03*
D21*
X245402100Y-148334100D03*
D22*
X245402100Y-147234100D03*
X245402100Y-144434100D03*
D21*
X245402100Y-143334100D03*
D19*
X249974100Y-149734100D03*
D20*
X249974100Y-141934100D03*
D21*
X249974100Y-148334100D03*
D22*
X249974100Y-147234100D03*
X249974100Y-144434100D03*
D21*
X249974100Y-143334100D03*
X254546100Y-143334100D03*
D22*
X254546100Y-144434100D03*
X254546100Y-147234100D03*
D21*
X254546100Y-148334100D03*
D20*
X254546100Y-141934100D03*
D19*
X254546100Y-149734100D03*
D21*
X259118100Y-143334100D03*
D22*
X259118100Y-144434100D03*
X259118100Y-147234100D03*
D21*
X259118100Y-148334100D03*
D20*
X259118100Y-141934100D03*
D19*
X259118100Y-149734100D03*
X236258100Y-162434100D03*
D20*
X236258100Y-154634100D03*
D21*
X236258100Y-161034100D03*
D22*
X236258100Y-159934100D03*
X236258100Y-157134100D03*
D21*
X236258100Y-156034100D03*
D19*
X240830100Y-162431100D03*
D20*
X240830100Y-154631100D03*
D21*
X240830100Y-161031100D03*
D22*
X240830100Y-159931100D03*
X240830100Y-157131100D03*
D21*
X240830100Y-156031100D03*
D19*
X245402100Y-162431100D03*
D20*
X245402100Y-154631100D03*
D21*
X245402100Y-161031100D03*
D22*
X245402100Y-159931100D03*
X245402100Y-157131100D03*
D21*
X245402100Y-156031100D03*
D19*
X249974100Y-162434100D03*
D20*
X249974100Y-154634100D03*
D21*
X249974100Y-161034100D03*
D22*
X249974100Y-159934100D03*
X249974100Y-157134100D03*
D21*
X249974100Y-156034100D03*
D13*
X191606100Y-128054100D03*
X198106100Y-128054100D03*
D23*
X55791100Y-150025100D03*
X165646100Y-138341100D03*
X74587100Y-148501100D03*
X99987100Y-144945100D03*
X174282100Y-138595100D03*
X115481100Y-141770100D03*
X175044100Y-139319090D03*
X132372100Y-140627100D03*
X183461100Y-139773100D03*
X150406100Y-146723100D03*
X184188100Y-140500100D03*
X51473100Y-150787100D03*
X155740100Y-160820100D03*
X158534100Y-151422100D03*
X165900100Y-151041100D03*
X156375100Y-161709100D03*
X70015100Y-149771100D03*
X90843100Y-151168100D03*
X157137100Y-162471100D03*
X159280431Y-152293069D03*
X174155100Y-151168100D03*
X112306100Y-151676100D03*
X157766914Y-163353877D03*
X159936375Y-153047881D03*
X174917100Y-151930100D03*
X128181100Y-159169100D03*
X158407100Y-164122100D03*
X160560914Y-153828877D03*
X183426100Y-152438100D03*
X147358100Y-165011100D03*
X159042100Y-165011100D03*
X161201100Y-154597100D03*
X184188100Y-153200100D03*
X187998100Y-149136100D03*
X187998100Y-161074100D03*
X137432049Y-195688386D03*
X79032100Y-173520100D03*
X79032100Y-179489100D03*
X144183100Y-186982100D03*
X159423100Y-187109100D03*
X52050667Y-167735533D03*
X70650100Y-168729100D03*
X160312100Y-187871100D03*
X88430100Y-167297100D03*
X169564110Y-186855100D03*
X170345100Y-187617100D03*
X112278648Y-171642552D03*
X183426100Y-185331100D03*
X125098100Y-177286986D03*
X184188100Y-186093100D03*
X143386100Y-185074089D03*
X189014100Y-173774100D03*
X189023413Y-149145987D03*
X138468100Y-195745100D03*
X165138100Y-188379100D03*
X144557877Y-188500914D03*
X95040167Y-187611033D03*
X139484100Y-195745100D03*
X165900100Y-189141100D03*
X145326100Y-189141100D03*
X113576100Y-192278090D03*
X142423780Y-202581380D03*
X174028100Y-201333100D03*
X158153100Y-202095100D03*
X174917100Y-201968100D03*
X199936100Y-173520100D03*
X233083100Y-173266100D03*
X279438100Y-143802100D03*
X238417100Y-140500100D03*
X294170100Y-138214100D03*
X239144100Y-139719230D03*
X298615100Y-128562100D03*
X296075100Y-137452100D03*
X315252100Y-122593100D03*
X247942100Y-139319090D03*
X299250100Y-129451100D03*
X297218100Y-137452100D03*
X332651100Y-121323100D03*
X248704100Y-138595100D03*
X299885100Y-130340100D03*
X353098100Y-116878100D03*
X298361100Y-137452100D03*
X256959100Y-138411070D03*
X300520100Y-131229100D03*
X299504100Y-137452100D03*
X233972100Y-173901100D03*
X200606100Y-174390230D03*
X283121100Y-162344100D03*
X262239200Y-166589000D03*
X261277100Y-154597100D03*
X238417100Y-153200100D03*
X301409100Y-156248100D03*
X263055100Y-165773100D03*
X262039100Y-153835100D03*
X239179100Y-152438100D03*
X318554100Y-146088100D03*
X263817100Y-165011100D03*
X262801100Y-153073100D03*
X247561100Y-151930100D03*
X338493100Y-148501100D03*
X264579100Y-164249100D03*
X263563100Y-152311100D03*
X248450100Y-151295100D03*
X265341100Y-163487100D03*
X264325100Y-151549100D03*
X256959100Y-151041100D03*
X266103100Y-162725100D03*
X201333100Y-175171100D03*
X236258100Y-174407100D03*
X238420111Y-186725089D03*
X286931100Y-185712100D03*
X308775100Y-175933100D03*
X239179100Y-185966100D03*
X322872100Y-170091100D03*
X252133100Y-185458100D03*
X341483667Y-169640533D03*
X253022100Y-184823100D03*
X261277100Y-185544079D03*
X363254692Y-171726307D03*
X223939100Y-184315100D03*
X110147100Y-168694100D03*
X119037100Y-132880100D03*
X212480599Y-185175599D03*
X340779100Y-125387100D03*
X358178100Y-132880100D03*
X356019100Y-137198100D03*
X347383100Y-140881100D03*
X347383100Y-161074100D03*
X347383100Y-154978100D03*
X298361100Y-174917100D03*
X300393100Y-177457100D03*
X73444100Y-163995100D03*
X73444100Y-154978100D03*
X117132100Y-173520100D03*
X117132100Y-176568100D03*
X79540100Y-134658100D03*
X80048100Y-125260100D03*
X58712100Y-154851100D03*
X58712100Y-132880100D03*
X218224100Y-199682100D03*
X306489100Y-137579100D03*
X306489100Y-145707100D03*
X347383100Y-139738100D03*
X343827100Y-130213100D03*
X367068100Y-136182100D03*
X365163100Y-150406100D03*
X305346100Y-173266100D03*
X305346100Y-191427100D03*
X305346100Y-180632100D03*
X76746100Y-163449090D03*
X117259100Y-172377100D03*
X82080100Y-146850100D03*
X117767100Y-189141100D03*
X118529100Y-180759100D03*
X76746100Y-159804100D03*
X80429100Y-135293100D03*
X81826100Y-128562100D03*
X59728100Y-156502100D03*
X59601100Y-136182100D03*
X266357100Y-205143100D03*
X94780100Y-189268100D03*
X91224100Y-176187100D03*
X223177100Y-205143100D03*
X294874667Y-200663100D03*
X109893100Y-192732100D03*
X109639100Y-179362100D03*
X222288100Y-204254100D03*
X134150100Y-189014100D03*
X313093100Y-194094100D03*
X85438385Y-153129385D03*
X87668100Y-168729100D03*
X221526100Y-203492100D03*
X136015103Y-198501090D03*
X116624100Y-182537100D03*
X111290100Y-172758100D03*
X331508100Y-188379100D03*
X142786100Y-197650100D03*
X220764100Y-202730100D03*
X156756100Y-203492100D03*
X117008421Y-192281397D03*
X355638100Y-175044100D03*
X137084234Y-198525966D03*
X124879100Y-180505100D03*
X220002100Y-201841100D03*
X135674100Y-185077100D03*
X374307100Y-170345100D03*
X138214100Y-198539100D03*
X219240100Y-200952100D03*
X57950100Y-155613100D03*
X57061100Y-137706100D03*
X71666100Y-164757100D03*
X71666100Y-159804100D03*
X123482100Y-175552100D03*
X122085100Y-177838100D03*
X308648100Y-177584100D03*
X307477832Y-191907832D03*
X115354100Y-190157100D03*
X115354100Y-182537100D03*
X348907100Y-162090100D03*
X348907100Y-154978100D03*
X304076100Y-173647100D03*
X304076100Y-179870100D03*
X365163100Y-134531100D03*
X364020100Y-150406100D03*
X342176100Y-134277100D03*
X342176100Y-126403100D03*
X304838100Y-138976100D03*
X304838100Y-132880100D03*
X262058120Y-187452090D03*
X277914100Y-186474100D03*
X288582100Y-197015100D03*
X382181100Y-168821100D03*
X203619100Y-175171100D03*
X270929100Y-204632060D03*
X247561100Y-202095100D03*
X301138432Y-195347432D03*
X248450100Y-201460100D03*
X320205100Y-189268100D03*
X287058100Y-198555080D03*
X276136100Y-187744100D03*
X256578100Y-188633100D03*
X338493100Y-184315100D03*
X287820100Y-197777100D03*
X277025100Y-187109100D03*
X257340100Y-187871100D03*
D24*
X54775100Y-136817100D02*
X54775100Y-120136708D01*
X54775100Y-120136708D02*
X55370008Y-119541800D01*
X55791100Y-137833100D02*
X54775100Y-136817100D01*
X55791100Y-150025100D02*
X55791100Y-137833100D01*
X165646100Y-134370100D02*
X165646100Y-138341100D01*
X167678100Y-132338100D02*
X165646100Y-134370100D01*
X73825100Y-140881100D02*
X73825100Y-123387908D01*
X73825100Y-123387908D02*
X74064408Y-123148600D01*
X74587100Y-141643100D02*
X73825100Y-140881100D01*
X74587100Y-148501100D02*
X74587100Y-141643100D01*
X167678100Y-130634100D02*
X167678100Y-132338100D01*
X99987100Y-144945100D02*
X99987100Y-138849100D01*
X99987100Y-138849100D02*
X95796100Y-134658100D01*
X95796100Y-134658100D02*
X95796100Y-134023100D01*
X95796100Y-134023100D02*
X95194743Y-133421743D01*
X95194743Y-115170535D02*
X95044808Y-115020600D01*
X95194743Y-133421743D02*
X95194743Y-115170535D01*
X174590090Y-132470090D02*
X174590090Y-138287110D01*
X174590090Y-138287110D02*
X174282100Y-138595100D01*
X172250100Y-130634100D02*
X172754100Y-130634100D01*
X172754100Y-130634100D02*
X174590090Y-132470090D01*
X115481100Y-141770100D02*
X115481100Y-131102100D01*
X115481100Y-131102100D02*
X114719100Y-130340100D01*
X114719100Y-130340100D02*
X114719100Y-112973908D01*
X114719100Y-112973908D02*
X114907608Y-112785400D01*
X175044100Y-131908100D02*
X175044100Y-139319090D01*
X176822100Y-130634100D02*
X176318100Y-130634100D01*
X176318100Y-130634100D02*
X175044100Y-131908100D01*
X132372100Y-140627100D02*
X132372100Y-122391932D01*
X132372100Y-122391932D02*
X132532743Y-122231289D01*
X183734090Y-132470090D02*
X183734090Y-139500110D01*
X183734090Y-139500110D02*
X183461100Y-139773100D01*
X181394100Y-130634100D02*
X181898100Y-130634100D01*
X181898100Y-130634100D02*
X183734090Y-132470090D01*
X150406100Y-146723100D02*
X150406100Y-129025368D01*
X150406100Y-129025368D02*
X150573353Y-128858115D01*
X184188100Y-140119100D02*
X184188100Y-140500100D01*
X184188100Y-131908100D02*
X184188100Y-140119100D01*
X185966100Y-130634100D02*
X185462100Y-130634100D01*
X185462100Y-130634100D02*
X184188100Y-131908100D01*
X51473100Y-150787100D02*
X51473100Y-138499568D01*
X51473100Y-138499568D02*
X51716553Y-138256115D01*
X157134030Y-157649768D02*
X157134030Y-159426170D01*
X157134030Y-159426170D02*
X155740100Y-160820100D01*
X157680091Y-157103708D02*
X157134030Y-157649768D01*
X163106100Y-143334100D02*
X162602100Y-143334100D01*
X162602100Y-143334100D02*
X157680091Y-148256109D01*
X157680091Y-148256109D02*
X157680091Y-157103708D01*
X158534100Y-151422100D02*
X158134101Y-151822099D01*
X158134101Y-151822099D02*
X158134101Y-157291764D01*
X158134101Y-157291764D02*
X157588040Y-157837825D01*
X157588040Y-160496160D02*
X156375100Y-161709100D01*
X157588040Y-157837825D02*
X157588040Y-160496160D01*
X167678100Y-143334100D02*
X167678100Y-145038100D01*
X167678100Y-145038100D02*
X165900100Y-146816100D01*
X165900100Y-146816100D02*
X165900100Y-151041100D01*
X70015100Y-146850100D02*
X70015100Y-149771100D01*
X70457608Y-146407592D02*
X70015100Y-146850100D01*
X70457608Y-141893800D02*
X70457608Y-146407592D01*
X90843100Y-146342100D02*
X90843100Y-151168100D01*
X91438008Y-137746192D02*
X90843100Y-138341100D01*
X90843100Y-138341100D02*
X90843100Y-146342100D01*
X91438008Y-133715000D02*
X91438008Y-137746192D01*
X158042050Y-158025882D02*
X158042050Y-161566150D01*
X158042050Y-161566150D02*
X157137100Y-162471100D01*
X158880432Y-157187502D02*
X158042050Y-158025882D01*
X159280431Y-152293069D02*
X158880432Y-152693068D01*
X158880432Y-152693068D02*
X158880432Y-157187502D01*
X174463090Y-150533100D02*
X174463090Y-150860110D01*
X174463090Y-150860110D02*
X174155100Y-151168100D01*
X174463090Y-145046090D02*
X174463090Y-150533100D01*
X172250100Y-143337100D02*
X172754100Y-143337100D01*
X172754100Y-143337100D02*
X174463090Y-145046090D01*
X112306100Y-151676100D02*
X112306100Y-149644100D01*
X110782100Y-131947708D02*
X111250008Y-131479800D01*
X112306100Y-149644100D02*
X110782100Y-148120100D01*
X110782100Y-148120100D02*
X110782100Y-131947708D01*
X158496060Y-158213939D02*
X158496060Y-162624731D01*
X158496060Y-162624731D02*
X157766914Y-163353877D01*
X159936375Y-153047881D02*
X159536376Y-153447880D01*
X159536376Y-153447880D02*
X159536376Y-157173626D01*
X159536376Y-157173626D02*
X158496060Y-158213939D01*
X174917100Y-144735100D02*
X174917100Y-151930100D01*
X176822100Y-143334100D02*
X176318100Y-143334100D01*
X176318100Y-143334100D02*
X174917100Y-144735100D01*
X128181100Y-159169100D02*
X128181100Y-142031508D01*
X128181100Y-142031508D02*
X128725208Y-141487400D01*
X158950070Y-158401996D02*
X158950070Y-163579130D01*
X158950070Y-163579130D02*
X158407100Y-164122100D01*
X160560914Y-153828877D02*
X160160915Y-154228876D01*
X160160915Y-154228876D02*
X160160915Y-157191153D01*
X160160915Y-157191153D02*
X158950070Y-158401996D01*
X183734090Y-145170090D02*
X183734090Y-152130110D01*
X183734090Y-152130110D02*
X183426100Y-152438100D01*
X181394100Y-143334100D02*
X181898100Y-143334100D01*
X181898100Y-143334100D02*
X183734090Y-145170090D01*
X147358100Y-165011100D02*
X146469100Y-164122100D01*
X146469100Y-164122100D02*
X146469100Y-148076708D01*
X146469100Y-148076708D02*
X146962408Y-147583400D01*
X159404080Y-158590053D02*
X159404080Y-164649120D01*
X159404080Y-164649120D02*
X159042100Y-165011100D01*
X161201100Y-156793034D02*
X159404080Y-158590053D01*
X161201100Y-154597100D02*
X161201100Y-156793034D01*
X184188100Y-144608100D02*
X184188100Y-153200100D01*
X185966100Y-143334100D02*
X185462100Y-143334100D01*
X185462100Y-143334100D02*
X184188100Y-144608100D01*
X187998100Y-161074100D02*
X187998100Y-150025100D01*
X187998100Y-150025100D02*
X187998100Y-149644100D01*
X187998100Y-149136100D02*
X187998100Y-150025100D01*
X144183100Y-186982100D02*
X143783101Y-187382099D01*
X143783101Y-187382099D02*
X143783101Y-189337334D01*
X143783101Y-189337334D02*
X137432049Y-195688386D01*
X79032100Y-179489100D02*
X79032100Y-173520100D01*
X159858090Y-167871043D02*
X159858090Y-186674110D01*
X159858090Y-186674110D02*
X159423100Y-187109100D01*
X163106100Y-156034100D02*
X162602100Y-156034100D01*
X162602100Y-156034100D02*
X159858090Y-158778110D01*
X159858090Y-158778110D02*
X159858090Y-167871043D01*
X51981100Y-159677100D02*
X51981100Y-167665966D01*
X51981100Y-167665966D02*
X52050667Y-167735533D01*
X50426110Y-158122110D02*
X51981100Y-159677100D01*
X50426110Y-158094762D02*
X50426110Y-158122110D01*
X70269100Y-168313100D02*
X70269100Y-162900952D01*
X70269100Y-162900952D02*
X69120510Y-161752362D01*
X70650100Y-168694100D02*
X70269100Y-168313100D01*
X70650100Y-168729100D02*
X70650100Y-168694100D01*
X160312100Y-168059100D02*
X160312100Y-187871100D01*
X165773100Y-162598100D02*
X160312100Y-168059100D01*
X165773100Y-159139100D02*
X165773100Y-162598100D01*
X167678100Y-156034100D02*
X167678100Y-157234100D01*
X167678100Y-157234100D02*
X165773100Y-159139100D01*
X87614110Y-156060362D02*
X87614110Y-166481110D01*
X87614110Y-166481110D02*
X88430100Y-167297100D01*
X90100910Y-153573562D02*
X87614110Y-156060362D01*
X169837100Y-183553100D02*
X169837100Y-186582110D01*
X169837100Y-186582110D02*
X169564110Y-186855100D01*
X169837100Y-157943100D02*
X169837100Y-183553100D01*
X172250100Y-156034100D02*
X171746100Y-156034100D01*
X171746100Y-156034100D02*
X169837100Y-157943100D01*
X170291110Y-166970090D02*
X170291110Y-187563110D01*
X170291110Y-187563110D02*
X170345100Y-187617100D01*
X174282100Y-162979100D02*
X170291110Y-166970090D01*
X174282100Y-159774100D02*
X174282100Y-162979100D01*
X176822100Y-156034100D02*
X176822100Y-157234100D01*
X176822100Y-157234100D02*
X174282100Y-159774100D01*
X107426110Y-167176082D02*
X111892580Y-171642552D01*
X111892580Y-171642552D02*
X112278648Y-171642552D01*
X107426110Y-153889090D02*
X107426110Y-167176082D01*
X108963711Y-152351489D02*
X107426110Y-153889090D01*
X109963710Y-151338362D02*
X108963711Y-152338361D01*
X108963711Y-152338361D02*
X108963711Y-152351489D01*
X183734090Y-157191090D02*
X183734090Y-166227110D01*
X183734090Y-166227110D02*
X183734090Y-166789100D01*
X183734090Y-185023110D02*
X183734090Y-166227110D01*
X183426100Y-185331100D02*
X183734090Y-185023110D01*
X124825110Y-163959762D02*
X124825110Y-177013996D01*
X124825110Y-177013996D02*
X125098100Y-177286986D01*
X127438910Y-161345962D02*
X124825110Y-163959762D01*
X181394100Y-156034100D02*
X182577100Y-156034100D01*
X182577100Y-156034100D02*
X183734090Y-157191090D01*
X184188100Y-179616100D02*
X184188100Y-186093100D01*
X143113110Y-168539949D02*
X143113110Y-184801099D01*
X143113110Y-184801099D02*
X143386100Y-185074089D01*
X145625310Y-167441962D02*
X144211097Y-167441962D01*
X144211097Y-167441962D02*
X143113110Y-168539949D01*
X184188100Y-157308100D02*
X184188100Y-179616100D01*
X185966100Y-156034100D02*
X185462100Y-156034100D01*
X185462100Y-156034100D02*
X184188100Y-157308100D01*
X189023413Y-149145987D02*
X189023413Y-173764787D01*
X189023413Y-173764787D02*
X189014100Y-173774100D01*
X138522090Y-195303043D02*
X138522090Y-195691110D01*
X138522090Y-195691110D02*
X138468100Y-195745100D01*
X139477034Y-194348100D02*
X138522090Y-195303043D01*
X165138100Y-188379100D02*
X165138100Y-188306090D01*
X165446090Y-187998100D02*
X165446090Y-169964100D01*
X165138100Y-188306090D02*
X165446090Y-187998100D01*
X165446090Y-169964100D02*
X164216090Y-168734100D01*
X164216090Y-168734100D02*
X163106100Y-168734100D01*
X139477034Y-194348100D02*
X144557877Y-189267257D01*
X144557877Y-189267257D02*
X144557877Y-188500914D01*
X94555309Y-175200309D02*
X95040167Y-175685167D01*
X95040167Y-175685167D02*
X95040167Y-187611033D01*
X93555310Y-174198362D02*
X94555309Y-175198361D01*
X94555309Y-175198361D02*
X94555309Y-175200309D01*
X139484100Y-195745100D02*
X139484100Y-194983099D01*
X139484100Y-194983099D02*
X144926101Y-189541099D01*
X144926101Y-189541099D02*
X145326100Y-189141100D01*
X165900100Y-170008100D02*
X165900100Y-189141100D01*
X113576100Y-179108100D02*
X113576100Y-192278090D01*
X112323962Y-177855962D02*
X113576100Y-179108100D01*
X112249710Y-177855962D02*
X112323962Y-177855962D01*
X167678100Y-168734100D02*
X167174100Y-168734100D01*
X167174100Y-168734100D02*
X165900100Y-170008100D01*
X133045481Y-186164938D02*
X133045481Y-189052481D01*
X133045481Y-189052481D02*
X133442090Y-189449090D01*
X135288102Y-198416155D02*
X135288102Y-198850051D01*
X133442090Y-189449090D02*
X133442090Y-196570143D01*
X133442090Y-196570143D02*
X135288102Y-198416155D01*
X139019431Y-202581380D02*
X142423780Y-202581380D01*
X135288102Y-198850051D02*
X139019431Y-202581380D01*
X174463090Y-170443090D02*
X174463090Y-200898110D01*
X174463090Y-200898110D02*
X174028100Y-201333100D01*
X172250100Y-168734100D02*
X172754100Y-168734100D01*
X172754100Y-168734100D02*
X174463090Y-170443090D01*
X155813110Y-199113043D02*
X155199472Y-198499405D01*
X155199472Y-198499405D02*
X155199472Y-196386099D01*
X156067110Y-202095100D02*
X155813110Y-201841100D01*
X155813110Y-201841100D02*
X155813110Y-199113043D01*
X158153100Y-202095100D02*
X156067110Y-202095100D01*
X174917100Y-170135100D02*
X174917100Y-201968100D01*
X176822100Y-168734100D02*
X176318100Y-168734100D01*
X176318100Y-168734100D02*
X174917100Y-170135100D01*
X200425080Y-173031120D02*
X200425080Y-151949120D01*
X200425080Y-151949120D02*
X203619100Y-148755100D01*
X199936100Y-173520100D02*
X200425080Y-173031120D01*
X236258100Y-135634100D02*
X236258100Y-137338100D01*
X236258100Y-137338100D02*
X233518090Y-140078110D01*
X233518090Y-140078110D02*
X233518090Y-172831110D01*
X233518090Y-172831110D02*
X233083100Y-173266100D01*
X278168100Y-134277100D02*
X278168100Y-129178534D01*
X278168100Y-129178534D02*
X279201562Y-128145072D01*
X279438100Y-135547100D02*
X278168100Y-134277100D01*
X279438100Y-143802100D02*
X279438100Y-135547100D01*
X238417100Y-132289100D02*
X238417100Y-140500100D01*
X236258100Y-130634100D02*
X236762100Y-130634100D01*
X236762100Y-130634100D02*
X238417100Y-132289100D01*
X297726100Y-134658100D02*
X297726100Y-128943100D01*
X294170100Y-138214100D02*
X294570099Y-137814101D01*
X294570099Y-137814101D02*
X297726100Y-134658100D01*
X296202100Y-127419100D02*
X296202100Y-123285734D01*
X296202100Y-123285734D02*
X297438762Y-122049072D01*
X297726100Y-128943100D02*
X296202100Y-127419100D01*
X238871110Y-132101043D02*
X238871110Y-139446240D01*
X238871110Y-139446240D02*
X239144100Y-139719230D01*
X240830100Y-130634100D02*
X240326100Y-130634100D01*
X240326100Y-130634100D02*
X238865133Y-132095066D01*
X238865133Y-132095066D02*
X238871110Y-132101043D01*
X298180110Y-129886090D02*
X298180110Y-128997090D01*
X298180110Y-128997090D02*
X298615100Y-128562100D01*
X296075100Y-137452100D02*
X296202100Y-137325100D01*
X296202100Y-137325100D02*
X296202100Y-136824166D01*
X296202100Y-136824166D02*
X298180110Y-134846157D01*
X298180110Y-134846157D02*
X298180110Y-129886090D01*
X315252100Y-122593100D02*
X315252100Y-118783100D01*
X315252100Y-118783100D02*
X313601100Y-117132100D01*
X313601100Y-113303534D02*
X314863162Y-112041472D01*
X313601100Y-117132100D02*
X313601100Y-113303534D01*
X247688100Y-132416100D02*
X247688100Y-139065090D01*
X247688100Y-139065090D02*
X247942100Y-139319090D01*
X245402100Y-130634100D02*
X245906100Y-130634100D01*
X245906100Y-130634100D02*
X247688100Y-132416100D01*
X298634120Y-130956080D02*
X298634120Y-130067080D01*
X298634120Y-130067080D02*
X299250100Y-129451100D01*
X298634120Y-135034214D02*
X298634120Y-130956080D01*
X297218100Y-136450232D02*
X298634120Y-135034214D01*
X297218100Y-137452100D02*
X297218100Y-136450232D01*
X332651100Y-121323100D02*
X333413100Y-120561100D01*
X333413100Y-120561100D02*
X333413100Y-115589534D01*
X333413100Y-115589534D02*
X334725962Y-114276672D01*
X248142110Y-132228043D02*
X248142110Y-138033110D01*
X248142110Y-138033110D02*
X248704100Y-138595100D01*
X249974100Y-130634100D02*
X249470100Y-130634100D01*
X249470100Y-130634100D02*
X248142110Y-131962090D01*
X248142110Y-131962090D02*
X248142110Y-132228043D01*
X299885100Y-130340100D02*
X299123100Y-131102100D01*
X299123100Y-131102100D02*
X299123100Y-135187299D01*
X299123100Y-135187299D02*
X298361100Y-135949299D01*
X298361100Y-135949299D02*
X298361100Y-137452100D01*
X353098100Y-116878100D02*
X353098100Y-121617602D01*
X353098100Y-121617602D02*
X353047323Y-121668379D01*
X256832100Y-132416100D02*
X256832100Y-138284070D01*
X256832100Y-138284070D02*
X256959100Y-138411070D01*
X254546100Y-130634100D02*
X255050100Y-130634100D01*
X255050100Y-130634100D02*
X256832100Y-132416100D01*
X299577110Y-135375356D02*
X299577110Y-132172090D01*
X299577110Y-132172090D02*
X300520100Y-131229100D01*
X299504100Y-137452100D02*
X299504100Y-135448366D01*
X299504100Y-135448366D02*
X299577110Y-135375356D01*
X233972100Y-150966100D02*
X233972100Y-173901100D01*
X236258100Y-149734100D02*
X235204100Y-149734100D01*
X235204100Y-149734100D02*
X233972100Y-150966100D01*
X200879090Y-155933043D02*
X200879090Y-174117240D01*
X200879090Y-174117240D02*
X200606100Y-174390230D01*
X203619100Y-151295100D02*
X200879091Y-154035109D01*
X200879091Y-154035109D02*
X200879090Y-155933043D01*
X283121100Y-162344100D02*
X283121100Y-154343100D01*
X283121100Y-154343100D02*
X281597100Y-152819100D01*
X281597100Y-152819100D02*
X281597100Y-148050734D01*
X281597100Y-148050734D02*
X282808362Y-146839472D01*
X261731110Y-157501043D02*
X261731110Y-166080910D01*
X261731110Y-166080910D02*
X262239200Y-166589000D01*
X261731110Y-157501043D02*
X261731110Y-155051110D01*
X261731110Y-155051110D02*
X261277100Y-154597100D01*
X238417100Y-144989100D02*
X238417100Y-153200100D01*
X236258100Y-143334100D02*
X236762100Y-143334100D01*
X236762100Y-143334100D02*
X238417100Y-144989100D01*
X263055100Y-165773100D02*
X262185120Y-164903120D01*
X262185120Y-164903120D02*
X262185120Y-153981120D01*
X262185120Y-153981120D02*
X262039100Y-153835100D01*
X262166100Y-153962100D02*
X262039100Y-153835100D01*
X299885100Y-146723100D02*
X299885100Y-141903934D01*
X299885100Y-141903934D02*
X301045562Y-140743472D01*
X301409100Y-148247100D02*
X299885100Y-146723100D01*
X301409100Y-156248100D02*
X301409100Y-148247100D01*
X238871110Y-144801043D02*
X238871110Y-152130110D01*
X238871110Y-152130110D02*
X239179100Y-152438100D01*
X240830100Y-143331100D02*
X240326100Y-143331100D01*
X240326100Y-143331100D02*
X238863633Y-144793566D01*
X238863633Y-144793566D02*
X238871110Y-144801043D01*
X318554100Y-146088100D02*
X318554100Y-137198100D01*
X317411100Y-131845534D02*
X318520762Y-130735872D01*
X318554100Y-137198100D02*
X317411100Y-136055100D01*
X317411100Y-136055100D02*
X317411100Y-131845534D01*
X262801100Y-154149062D02*
X262801100Y-163995100D01*
X262801100Y-163995100D02*
X263817100Y-165011100D01*
X262801100Y-153073100D02*
X262801100Y-154149062D01*
X247561100Y-144989100D02*
X247561100Y-151930100D01*
X245402100Y-143334100D02*
X245906100Y-143334100D01*
X245906100Y-143334100D02*
X247561100Y-144989100D01*
X338493100Y-148501100D02*
X338493100Y-140246100D01*
X338493100Y-140246100D02*
X337223100Y-138976100D01*
X337223100Y-138976100D02*
X337223100Y-134080734D01*
X337223100Y-134080734D02*
X338332762Y-132971072D01*
X263563100Y-162852100D02*
X263563100Y-163233100D01*
X263563100Y-163233100D02*
X264579100Y-164249100D01*
X263563100Y-152311100D02*
X263563100Y-162852100D01*
X248015110Y-144801043D02*
X248015110Y-150860110D01*
X248015110Y-150860110D02*
X248450100Y-151295100D01*
X249974100Y-143334100D02*
X249470100Y-143334100D01*
X249470100Y-143334100D02*
X248009133Y-144795066D01*
X248009133Y-144795066D02*
X248015110Y-144801043D01*
X356214445Y-140939755D02*
X356776327Y-140939755D01*
X264325100Y-151549100D02*
X264325100Y-162471100D01*
X264325100Y-162471100D02*
X265341100Y-163487100D01*
X256705100Y-144989100D02*
X256705100Y-150787100D01*
X256705100Y-150787100D02*
X256959100Y-151041100D01*
X254546100Y-143334100D02*
X255050100Y-143334100D01*
X255050100Y-143334100D02*
X256705100Y-144989100D01*
X265087100Y-148799100D02*
X265087100Y-161709100D01*
X265087100Y-161709100D02*
X266103100Y-162725100D01*
X259118100Y-143334100D02*
X259622100Y-143334100D01*
X259622100Y-143334100D02*
X265087100Y-148799100D01*
X201333100Y-175171100D02*
X201333100Y-156121100D01*
X201333100Y-156121100D02*
X203619100Y-153835100D01*
X236258100Y-162434100D02*
X236258100Y-174407100D01*
X238417100Y-181521100D02*
X238420111Y-181524111D01*
X238420111Y-181524111D02*
X238420111Y-186725089D01*
X286931100Y-173139100D02*
X286931100Y-185712100D01*
X285534100Y-171742100D02*
X286931100Y-173139100D01*
X285534100Y-168313100D02*
X285534100Y-171742100D01*
X283878327Y-166657327D02*
X285534100Y-168313100D01*
X283878327Y-165323755D02*
X283878327Y-166657327D01*
X238417100Y-157689100D02*
X238417100Y-181521100D01*
X236258100Y-156034100D02*
X236762100Y-156034100D01*
X236762100Y-156034100D02*
X238417100Y-157689100D01*
X308775100Y-170218100D02*
X308775100Y-175933100D01*
X303568100Y-165011100D02*
X308775100Y-170218100D01*
X303568100Y-162344100D02*
X303568100Y-165011100D01*
X302064727Y-160840727D02*
X303568100Y-162344100D01*
X302064727Y-159227755D02*
X302064727Y-160840727D01*
X238874121Y-181336054D02*
X238874121Y-185661121D01*
X238874121Y-185661121D02*
X239179100Y-185966100D01*
X238871110Y-157501043D02*
X238871110Y-181333043D01*
X238871110Y-181333043D02*
X238874121Y-181336054D01*
X240830100Y-156031100D02*
X240326100Y-156031100D01*
X240326100Y-156031100D02*
X238863633Y-157493566D01*
X238863633Y-157493566D02*
X238871110Y-157501043D01*
X322872100Y-157645100D02*
X322872100Y-170091100D01*
X321221100Y-155994100D02*
X322872100Y-157645100D01*
X321221100Y-152819100D02*
X321221100Y-155994100D01*
X319539927Y-151137927D02*
X321221100Y-152819100D01*
X319539927Y-149220155D02*
X319539927Y-151137927D01*
X252133100Y-167297100D02*
X252133100Y-185458100D01*
X247307100Y-162471100D02*
X252133100Y-167297100D01*
X247307100Y-159640100D02*
X247307100Y-162471100D01*
X245402100Y-156031100D02*
X245402100Y-157735100D01*
X245402100Y-157735100D02*
X247307100Y-159640100D01*
X342303100Y-159550100D02*
X342303100Y-168821100D01*
X342303100Y-168821100D02*
X341483667Y-169640533D01*
X340779100Y-158026100D02*
X342303100Y-159550100D01*
X340779100Y-152876734D02*
X340779100Y-158026100D01*
X341990362Y-151665472D02*
X340779100Y-152876734D01*
X252587110Y-167109043D02*
X252587110Y-184388110D01*
X252587110Y-184388110D02*
X253022100Y-184823100D01*
X249974100Y-157738100D02*
X252587110Y-160351110D01*
X252587110Y-160351110D02*
X252587110Y-167109043D01*
X249974100Y-156034100D02*
X249974100Y-157738100D01*
X261277100Y-167297100D02*
X261277100Y-185544079D01*
X260769100Y-166789100D02*
X261277100Y-167297100D01*
X260261100Y-166281100D02*
X260769100Y-166789100D01*
X256832100Y-162852100D02*
X260261100Y-166281100D01*
X256832100Y-157816100D02*
X256832100Y-162852100D01*
X254546100Y-156034100D02*
X255050100Y-156034100D01*
X255050100Y-156034100D02*
X256832100Y-157816100D01*
X361970763Y-166263763D02*
X363254692Y-167547692D01*
X363254692Y-167547692D02*
X363254692Y-171726307D01*
X361970763Y-163342763D02*
X361970763Y-166263763D01*
X362970762Y-159844272D02*
X361970763Y-160844271D01*
X361970763Y-160844271D02*
X361970763Y-163342763D01*
X223939100Y-184315100D02*
X223939100Y-183749415D01*
X223939100Y-183749415D02*
X223615160Y-183425475D01*
X223615160Y-183425475D02*
X223615160Y-132060860D01*
X223615160Y-132060860D02*
X219989400Y-128435100D01*
X219989400Y-128435100D02*
X218859100Y-128435100D01*
X107880120Y-166988026D02*
X109586194Y-168694100D01*
X109586194Y-168694100D02*
X110147100Y-168694100D01*
X107880120Y-159785080D02*
X107880120Y-166988026D01*
X113068100Y-154597100D02*
X107880120Y-159785080D01*
X113068100Y-147993100D02*
X113068100Y-154597100D01*
X119037100Y-142024100D02*
X113068100Y-147993100D01*
X119037100Y-132880100D02*
X119037100Y-142024100D01*
D25*
X212509100Y-185147098D02*
X212480599Y-185175599D01*
X212509100Y-161074100D02*
X212509100Y-141643100D01*
X212509100Y-141643100D02*
X206921100Y-136055100D01*
X206921100Y-136055100D02*
X203619100Y-136055100D01*
X346983101Y-140481101D02*
X340779100Y-134277100D01*
X340779100Y-134277100D02*
X340779100Y-125387100D01*
X347383100Y-140881100D02*
X346983101Y-140481101D01*
X356019100Y-137198100D02*
X358178100Y-135039100D01*
X358178100Y-135039100D02*
X358178100Y-132880100D01*
X347383100Y-154978100D02*
X347383100Y-140881100D01*
X347383100Y-154978100D02*
X347383100Y-161074100D01*
X300393100Y-177457100D02*
X300393100Y-176949100D01*
X300393100Y-176949100D02*
X298361100Y-174917100D01*
X73444100Y-154978100D02*
X73444100Y-163995100D01*
X117132100Y-176568100D02*
X117132100Y-173520100D01*
X80048100Y-125260100D02*
X79540100Y-125768100D01*
X79540100Y-125768100D02*
X79540100Y-134658100D01*
X58712100Y-154851100D02*
X58712100Y-152468231D01*
X58712100Y-152468231D02*
X57578610Y-151334742D01*
X57578610Y-151334742D02*
X57578610Y-138976100D01*
X57578610Y-138976100D02*
X58712100Y-137842610D01*
X58712100Y-137842610D02*
X58712100Y-132880100D01*
X212509100Y-162061928D02*
X215519000Y-165071828D01*
X212509100Y-161074100D02*
X212509100Y-162061928D01*
X215519000Y-182137198D02*
X212480599Y-185175599D01*
X215519000Y-165071828D02*
X215519000Y-182137198D01*
X215684100Y-156883100D02*
X215684100Y-139230100D01*
X215684100Y-139230100D02*
X218859100Y-136055100D01*
X220373590Y-161572590D02*
X215684100Y-156883100D01*
X220373590Y-197532610D02*
X220373590Y-161572590D01*
X218224100Y-199682100D02*
X220373590Y-197532610D01*
X218859100Y-133515100D02*
X218859100Y-136055100D01*
X306489100Y-145707100D02*
X306489100Y-137579100D01*
X344957568Y-137337632D02*
X344982632Y-137337632D01*
X344982632Y-137337632D02*
X347383100Y-139738100D01*
X343827100Y-130213100D02*
X343827100Y-136207164D01*
X343827100Y-136207164D02*
X344957568Y-137337632D01*
X367068100Y-136182100D02*
X367068100Y-141135100D01*
X367068100Y-141135100D02*
X365163100Y-143040100D01*
X365163100Y-143040100D02*
X365163100Y-150406100D01*
X305346100Y-180632100D02*
X305346100Y-173266100D01*
X305346100Y-180632100D02*
X305346100Y-191427100D01*
X76746100Y-162941090D02*
X76746100Y-163449090D01*
X118529100Y-180759100D02*
X118529100Y-173647100D01*
X118529100Y-173647100D02*
X117259100Y-172377100D01*
X80429100Y-145199100D02*
X81572100Y-146342100D01*
X81572100Y-146342100D02*
X81826100Y-146596100D01*
X82080100Y-146850100D02*
X81572100Y-146342100D01*
X80429100Y-135293100D02*
X80429100Y-145199100D01*
X117525931Y-183510138D02*
X117525931Y-188899931D01*
X117525931Y-188899931D02*
X117767100Y-189141100D01*
X118529100Y-180759100D02*
X117868611Y-181419589D01*
X117868611Y-181419589D02*
X117868611Y-183167458D01*
X117868611Y-183167458D02*
X117525931Y-183510138D01*
X76746100Y-159804100D02*
X76746100Y-162941090D01*
X81826100Y-128562100D02*
X80429100Y-129959100D01*
X80429100Y-129959100D02*
X80429100Y-135293100D01*
X59728100Y-152662560D02*
X59728100Y-156502100D01*
X58159620Y-151094080D02*
X59728100Y-152662560D01*
X58159620Y-139216762D02*
X58159620Y-151094080D01*
X59293109Y-138083273D02*
X58159620Y-139216762D01*
X59601100Y-137579100D02*
X59601100Y-137775282D01*
X59601100Y-137775282D02*
X59293109Y-138083273D01*
X59601100Y-136182100D02*
X59601100Y-137579100D01*
D24*
X271945100Y-140627100D02*
X271945100Y-132214203D01*
X271945100Y-132214203D02*
X270793846Y-131062949D01*
X274400646Y-143082646D02*
X271945100Y-140627100D01*
X274400646Y-149757349D02*
X274400646Y-143082646D01*
X275628100Y-160947100D02*
X275628100Y-150984803D01*
X275628100Y-150984803D02*
X274400646Y-149757349D01*
X278058246Y-163377246D02*
X275628100Y-160947100D01*
X278058246Y-168451749D02*
X278058246Y-163377246D01*
X269420552Y-191470113D02*
X269420552Y-185569648D01*
X269420552Y-185569648D02*
X274358100Y-180632100D01*
X274358100Y-180632100D02*
X274358100Y-170091100D01*
X274358100Y-170091100D02*
X275997451Y-168451749D01*
X275997451Y-168451749D02*
X278058246Y-168451749D01*
X266357100Y-205143100D02*
X266357100Y-198897890D01*
X266357100Y-198897890D02*
X268749467Y-196505523D01*
X47663100Y-126911100D02*
X47663100Y-134538297D01*
X47663100Y-134538297D02*
X49529618Y-136404815D01*
X48801955Y-125772245D02*
X47663100Y-126911100D01*
X48801955Y-120261785D02*
X48801955Y-125772245D01*
X44490137Y-155079300D02*
X44031718Y-155537718D01*
X44107100Y-144945100D02*
X44107100Y-155462336D01*
X44031718Y-155537718D02*
X43102068Y-156467369D01*
X45148500Y-143903700D02*
X44107100Y-144945100D01*
X45148500Y-138976100D02*
X45148500Y-143903700D01*
X44107100Y-155462336D02*
X44031718Y-155537718D01*
X45918673Y-155079300D02*
X44490137Y-155079300D01*
X91224100Y-176187100D02*
X91224100Y-185712100D01*
X91224100Y-185712100D02*
X94780100Y-189268100D01*
X223161150Y-199793150D02*
X223161150Y-205127150D01*
X223161150Y-205127150D02*
X223177100Y-205143100D01*
X223161150Y-159280150D02*
X223161150Y-199793150D01*
X218859100Y-143675100D02*
X223161150Y-147977150D01*
X223161150Y-147977150D02*
X223161150Y-159280150D01*
X290233100Y-136944100D02*
X290233100Y-126169003D01*
X290233100Y-126169003D02*
X289031046Y-124966949D01*
X292637846Y-139348846D02*
X290233100Y-136944100D01*
X292637846Y-143661349D02*
X292637846Y-139348846D01*
X293916100Y-152819100D02*
X293916100Y-144939603D01*
X293916100Y-144939603D02*
X292637846Y-143661349D01*
X296244646Y-155147646D02*
X293916100Y-152819100D01*
X296244646Y-162355749D02*
X296244646Y-155147646D01*
X294874667Y-193147667D02*
X294874667Y-200663100D01*
X293154100Y-191427100D02*
X294874667Y-193147667D01*
X293154100Y-189141100D02*
X293154100Y-191427100D01*
X290902232Y-186889232D02*
X293154100Y-189141100D01*
X290902232Y-186775757D02*
X290902232Y-186889232D01*
X290902232Y-186775757D02*
X290820443Y-186775757D01*
X66332100Y-130213100D02*
X66332100Y-138103927D01*
X66332100Y-138103927D02*
X68270673Y-140042500D01*
X67496355Y-129048845D02*
X66332100Y-130213100D01*
X67496355Y-123868585D02*
X67496355Y-129048845D01*
X62776100Y-149136100D02*
X62776100Y-156899927D01*
X62776100Y-156899927D02*
X64613073Y-158736900D01*
X63889555Y-148022645D02*
X62776100Y-149136100D01*
X63889555Y-142613785D02*
X63889555Y-148022645D01*
X109639100Y-179362100D02*
X109639100Y-192478100D01*
X109639100Y-192478100D02*
X109893100Y-192732100D01*
X222707140Y-197015100D02*
X222707140Y-203835060D01*
X222707140Y-203835060D02*
X222288100Y-204254100D01*
X222707140Y-159423100D02*
X222707140Y-197015100D01*
X222707140Y-157654872D02*
X222707140Y-159423100D01*
X218859100Y-146215100D02*
X222707139Y-150063139D01*
X222707139Y-150063139D02*
X222707140Y-157654872D01*
X297472100Y-163583203D02*
X297472100Y-174244000D01*
X297472100Y-174244000D02*
X296494200Y-175221900D01*
X296494200Y-177685700D02*
X293865300Y-180314600D01*
X293865300Y-180314600D02*
X293293800Y-180314600D01*
X296494200Y-175221900D02*
X296494200Y-177685700D01*
X292785800Y-182017705D02*
X292853710Y-182085615D01*
X292785800Y-180822600D02*
X292785800Y-182017705D01*
X293293800Y-180314600D02*
X292785800Y-180822600D01*
X296244646Y-162355749D02*
X297472100Y-163583203D01*
X133896100Y-196380100D02*
X133896100Y-189268100D01*
X133896100Y-189268100D02*
X134150100Y-189014100D01*
X310113046Y-133653749D02*
X310113046Y-131932046D01*
X307632100Y-116136003D02*
X306455446Y-114959349D01*
X310113046Y-131932046D02*
X307632100Y-129451100D01*
X307632100Y-129451100D02*
X307632100Y-116136003D01*
X313719846Y-152348149D02*
X313719846Y-147349846D01*
X311442100Y-145072100D02*
X311442100Y-134982803D01*
X311442100Y-134982803D02*
X310113046Y-133653749D01*
X313719846Y-147349846D02*
X311442100Y-145072100D01*
X314871100Y-156375100D02*
X314871100Y-153499403D01*
X314871100Y-153499403D02*
X313719846Y-152348149D01*
X315252100Y-156756100D02*
X314871100Y-156375100D01*
X315252100Y-166535100D02*
X315252100Y-156756100D01*
X314532727Y-167254473D02*
X315252100Y-166535100D01*
X314532727Y-174789700D02*
X314532727Y-167254473D01*
X313093100Y-194094100D02*
X313093100Y-183807100D01*
X312441196Y-179822299D02*
X311433846Y-178814949D01*
X313093100Y-183807100D02*
X312441196Y-183155196D01*
X312441196Y-183155196D02*
X312441196Y-179822299D01*
X87414100Y-122085100D02*
X87414100Y-130026727D01*
X87414100Y-130026727D02*
X89251073Y-131863700D01*
X88476755Y-121022445D02*
X87414100Y-122085100D01*
X88476755Y-115740585D02*
X88476755Y-121022445D01*
X83858100Y-140119100D02*
X83858100Y-148822727D01*
X83858100Y-148822727D02*
X85593473Y-150558100D01*
X84869955Y-139107245D02*
X83858100Y-140119100D01*
X84869955Y-134434985D02*
X84869955Y-139107245D01*
X85438385Y-153129385D02*
X87160100Y-154851100D01*
X87160100Y-154851100D02*
X87160100Y-168221100D01*
X87160100Y-168221100D02*
X87668100Y-168729100D01*
X222253130Y-195618100D02*
X222253130Y-202765070D01*
X222253130Y-202765070D02*
X221526100Y-203492100D01*
X135420100Y-197904100D02*
X135420100Y-197906087D01*
X135420100Y-197906087D02*
X136015103Y-198501090D01*
X133896100Y-196380100D02*
X135420100Y-197904100D01*
X116624100Y-178092100D02*
X116624100Y-182537100D01*
X111290100Y-172758100D02*
X116624100Y-178092100D01*
X222253130Y-159550100D02*
X222253130Y-195618100D01*
X222253130Y-157842929D02*
X222253130Y-159550100D01*
X218859100Y-148755100D02*
X222253130Y-152149130D01*
X222253130Y-152149130D02*
X222253130Y-157842929D01*
X334937100Y-165900100D02*
X334937100Y-155937803D01*
X334937100Y-155937803D02*
X333582646Y-154583349D01*
X334277926Y-166559274D02*
X334937100Y-165900100D01*
X333277927Y-171182900D02*
X334277926Y-170182901D01*
X334277926Y-170182901D02*
X334277926Y-166559274D01*
X327571100Y-118910100D02*
X326318246Y-117657246D01*
X326318246Y-117657246D02*
X326318246Y-117194549D01*
X327571100Y-130467100D02*
X327571100Y-118910100D01*
X329925046Y-132821046D02*
X327571100Y-130467100D01*
X329925046Y-135888949D02*
X329925046Y-132821046D01*
X331381100Y-146977100D02*
X331381100Y-137345003D01*
X331381100Y-137345003D02*
X329925046Y-135888949D01*
X333582646Y-149178646D02*
X331381100Y-146977100D01*
X333582646Y-154583349D02*
X333582646Y-149178646D01*
X331508100Y-188379100D02*
X331508100Y-176537203D01*
X331508100Y-176537203D02*
X330179046Y-175208149D01*
X142786100Y-197650100D02*
X147723846Y-192712354D01*
X147723846Y-192712354D02*
X147723846Y-191557153D01*
X103543100Y-137325100D02*
X103543100Y-146409727D01*
X103543100Y-146409727D02*
X105456273Y-148322900D01*
X104681955Y-136186245D02*
X103543100Y-137325100D01*
X104681955Y-132199785D02*
X104681955Y-136186245D01*
X107353100Y-118656100D02*
X107353100Y-127918527D01*
X107353100Y-127918527D02*
X109063073Y-129628500D01*
X108339555Y-117669645D02*
X107353100Y-118656100D01*
X108339555Y-113505385D02*
X108339555Y-117669645D01*
X101075155Y-150894185D02*
X104793185Y-150894185D01*
X104793185Y-150894185D02*
X106972100Y-153073100D01*
X117351101Y-182188139D02*
X117351101Y-182953099D01*
X117351101Y-182953099D02*
X117008421Y-183295779D01*
X112052100Y-172444138D02*
X112052100Y-172878034D01*
X106972100Y-153073100D02*
X106972100Y-167364138D01*
X117078110Y-181915148D02*
X117351101Y-182188139D01*
X106972100Y-167364138D02*
X112052100Y-172444138D01*
X112052100Y-172878034D02*
X117078110Y-177904043D01*
X117008421Y-183295779D02*
X117008421Y-192281397D01*
X117078110Y-177904043D02*
X117078110Y-181915148D01*
X221799120Y-194602100D02*
X221799120Y-201695080D01*
X221799120Y-201695080D02*
X220764100Y-202730100D01*
X155359100Y-199301100D02*
X155359100Y-202095100D01*
X155359100Y-202095100D02*
X156756100Y-203492100D01*
X152057100Y-195999100D02*
X155359100Y-199301100D01*
X152057100Y-195110100D02*
X152057100Y-195999100D01*
X148504153Y-191557153D02*
X152057100Y-195110100D01*
X147723846Y-191557153D02*
X148504153Y-191557153D01*
X221799120Y-159804100D02*
X221799120Y-194602100D01*
X221799120Y-158030986D02*
X221799120Y-159804100D01*
X218859100Y-151295100D02*
X221799118Y-154235118D01*
X221799118Y-154235118D02*
X221799118Y-158030984D01*
X221799118Y-158030984D02*
X221799120Y-158030986D01*
X357661927Y-158736900D02*
X356661928Y-157736901D01*
X356661928Y-157736901D02*
X356661928Y-155874928D01*
X356661928Y-155874928D02*
X351963596Y-151176596D01*
X351963596Y-151176596D02*
X351963596Y-142384614D01*
X348399100Y-137579100D02*
X348399100Y-126473803D01*
X348399100Y-126473803D02*
X347298646Y-125373349D01*
X350956246Y-140136246D02*
X348399100Y-137579100D01*
X350956246Y-144067749D02*
X350956246Y-140136246D01*
X355511100Y-165519100D02*
X355638100Y-165646100D01*
X355638100Y-165646100D02*
X355638100Y-175044100D01*
X355384100Y-165392100D02*
X355511100Y-165519100D01*
X355384100Y-165392100D02*
X355384100Y-163583203D01*
X355384100Y-163583203D02*
X354563046Y-162762149D01*
X135874109Y-197716043D02*
X136274311Y-197716043D01*
X136274311Y-197716043D02*
X137084234Y-198525966D01*
X121196100Y-147866100D02*
X121196100Y-156595127D01*
X121196100Y-156595127D02*
X122931473Y-158330500D01*
X122157155Y-146905045D02*
X121196100Y-147866100D01*
X122157155Y-142207385D02*
X122157155Y-146905045D01*
X124879100Y-130213100D02*
X124879100Y-137976927D01*
X124879100Y-137976927D02*
X126538273Y-139636100D01*
X125814755Y-129277445D02*
X124879100Y-130213100D01*
X125814755Y-123512985D02*
X125814755Y-129277445D01*
X118550355Y-160901785D02*
X122928785Y-160901785D01*
X122928785Y-160901785D02*
X124371100Y-162344100D01*
X124371100Y-162344100D02*
X124371100Y-179997100D01*
X124371100Y-179997100D02*
X124879100Y-180505100D01*
X221345110Y-193586100D02*
X221345110Y-200498090D01*
X221345110Y-200498090D02*
X220002100Y-201841100D01*
X134350110Y-189957090D02*
X134350110Y-196192044D01*
X134350110Y-196192044D02*
X135874109Y-197716043D01*
X135674100Y-188633100D02*
X134350110Y-189957090D01*
X135674100Y-185077100D02*
X135674100Y-188633100D01*
X221345110Y-159804100D02*
X221345110Y-193586100D01*
X221345110Y-158219043D02*
X221345110Y-159804100D01*
X218859100Y-153835100D02*
X221345109Y-156321109D01*
X221345109Y-156321109D02*
X221345110Y-158219043D01*
X367195100Y-129197100D02*
X367195100Y-122917803D01*
X367195100Y-122917803D02*
X365993046Y-121715749D01*
X369650646Y-131652646D02*
X367195100Y-129197100D01*
X369650646Y-140410149D02*
X369650646Y-131652646D01*
X373257446Y-159104549D02*
X373257446Y-159008446D01*
X373257446Y-159008446D02*
X370657996Y-156408996D01*
X370657996Y-156408996D02*
X370657996Y-141417499D01*
X370657996Y-141417499D02*
X369650646Y-140410149D01*
X374307100Y-170345100D02*
X374307100Y-160154203D01*
X374307100Y-160154203D02*
X373257446Y-159104549D01*
X136401101Y-185426061D02*
X136401101Y-169548101D01*
X136401101Y-169548101D02*
X136736755Y-169212447D01*
X136736755Y-169212447D02*
X136736755Y-166997785D01*
X136128110Y-188821157D02*
X136128110Y-185699052D01*
X136128110Y-185699052D02*
X136401101Y-185426061D01*
X134804120Y-196003988D02*
X134804120Y-190145146D01*
X134804120Y-190145146D02*
X136128110Y-188821157D01*
X136062166Y-197262034D02*
X134804120Y-196003988D01*
X138214100Y-198539100D02*
X136937034Y-197262034D01*
X136937034Y-197262034D02*
X136062166Y-197262034D01*
X143040100Y-134277100D02*
X143040100Y-143996727D01*
X143040100Y-143996727D02*
X144775473Y-145732100D01*
X144005300Y-133311900D02*
X143040100Y-134277100D01*
X144005300Y-129578100D02*
X144005300Y-133311900D01*
X139230100Y-153581100D02*
X139230100Y-162538727D01*
X139230100Y-162538727D02*
X141117873Y-164426500D01*
X140394355Y-152416845D02*
X139230100Y-153581100D01*
X140394355Y-148303385D02*
X140394355Y-152416845D01*
X220891100Y-192443100D02*
X220891100Y-199301100D01*
X220891100Y-199301100D02*
X219240100Y-200952100D01*
X220891100Y-159931100D02*
X220891100Y-192443100D01*
X220891100Y-158407100D02*
X220891100Y-159931100D01*
X218859100Y-156375100D02*
X220891100Y-158407100D01*
X58194590Y-154292648D02*
X57985099Y-154502139D01*
X57985099Y-154502139D02*
X57985099Y-155578101D01*
X57985099Y-155578101D02*
X57950100Y-155613100D01*
X58194590Y-152682590D02*
X58194590Y-154292648D01*
X57569101Y-152057100D02*
X58194590Y-152682590D01*
X57061100Y-151549100D02*
X57061100Y-151549101D01*
X57061100Y-151549101D02*
X57569101Y-152057100D01*
X57061100Y-137706100D02*
X57061100Y-151549100D01*
X71666100Y-159804100D02*
X71666100Y-164757100D01*
X122085100Y-177838100D02*
X123482100Y-176441100D01*
X123482100Y-176441100D02*
X123482100Y-175552100D01*
X308521100Y-190864564D02*
X308521100Y-177711100D01*
X308521100Y-177711100D02*
X308648100Y-177584100D01*
X307477832Y-191907832D02*
X308521100Y-190864564D01*
X115354100Y-190030100D02*
X115354100Y-190157100D01*
X115354100Y-182537100D02*
X115354100Y-190030100D01*
X348907100Y-154978100D02*
X348907100Y-162090100D01*
X304076100Y-179870100D02*
X304076100Y-173647100D01*
X365163100Y-134531100D02*
X364645590Y-135048610D01*
X364645590Y-135048610D02*
X364645590Y-149780610D01*
X364020100Y-150406100D02*
X364645590Y-149780610D01*
X342176100Y-126403100D02*
X342176100Y-134277100D01*
X304838100Y-132880100D02*
X304838100Y-138976100D01*
X259118100Y-156034100D02*
X259622100Y-156034100D01*
X259622100Y-156034100D02*
X261277100Y-157689100D01*
X261277100Y-157689100D02*
X261277100Y-166655034D01*
X261277100Y-166655034D02*
X262039100Y-167417033D01*
X262039100Y-167417033D02*
X262039100Y-187433070D01*
X262039100Y-187433070D02*
X262058120Y-187452090D01*
X288582100Y-197015100D02*
X286691232Y-197015100D01*
X380657100Y-162852100D02*
X382181100Y-164376100D01*
X382181100Y-164376100D02*
X382181100Y-168821100D01*
X380657100Y-162598100D02*
X380657100Y-162852100D01*
X380657100Y-158661100D02*
X380657100Y-162598100D01*
X381665162Y-157653038D02*
X380657100Y-158661100D01*
X381665162Y-156186672D02*
X381665162Y-157653038D01*
X277914100Y-186474100D02*
X277914100Y-189368268D01*
X285560932Y-197015100D02*
X286691232Y-197015100D01*
X277914100Y-189368268D02*
X285560932Y-197015100D01*
X203619100Y-175171100D02*
X203619100Y-156375100D01*
X270548100Y-194221100D02*
X271875482Y-192893718D01*
X271875482Y-192893718D02*
X271875482Y-191236885D01*
X271875482Y-191236885D02*
X272225808Y-190886559D01*
X270548100Y-197523100D02*
X270548100Y-194221100D01*
X271183100Y-198158100D02*
X270548100Y-197523100D01*
X271183100Y-200571100D02*
X271183100Y-198158100D01*
X270929100Y-200825100D02*
X271183100Y-200571100D01*
X270929100Y-204632060D02*
X270929100Y-200825100D01*
X247561100Y-170389100D02*
X247561100Y-202095100D01*
X245402100Y-168734100D02*
X245906100Y-168734100D01*
X245906100Y-168734100D02*
X247561100Y-170389100D01*
X301155100Y-189522100D02*
X301155100Y-195330764D01*
X301155100Y-195330764D02*
X301138432Y-195347432D01*
X298361100Y-186728100D02*
X301155100Y-189522100D01*
X298361100Y-185839100D02*
X298361100Y-186728100D01*
X295714415Y-183192415D02*
X298361100Y-185839100D01*
X295714415Y-182247999D02*
X295714415Y-183192415D01*
X295714415Y-182897785D02*
X295714415Y-182247999D01*
X248015110Y-170201043D02*
X248015110Y-201025110D01*
X248015110Y-201025110D02*
X248450100Y-201460100D01*
X249974100Y-168734100D02*
X249470100Y-168734100D01*
X249470100Y-168734100D02*
X248009133Y-170195066D01*
X248009133Y-170195066D02*
X248015110Y-170201043D01*
X318808100Y-182283100D02*
X318808100Y-176735556D01*
X318808100Y-176735556D02*
X319646584Y-175897072D01*
X319646584Y-175897072D02*
X319841562Y-175897072D01*
X320205100Y-183680100D02*
X318808100Y-182283100D01*
X320205100Y-189268100D02*
X320205100Y-183680100D01*
X286947080Y-198555080D02*
X287058100Y-198555080D01*
X256578100Y-170262100D02*
X256578100Y-188633100D01*
X254546100Y-168734100D02*
X255050100Y-168734100D01*
X255050100Y-168734100D02*
X256578100Y-170262100D01*
X276136100Y-188309785D02*
X276745700Y-188919385D01*
X276136100Y-187744100D02*
X276136100Y-188309785D01*
X276745700Y-188919385D02*
X276745700Y-189484000D01*
X285816780Y-198555080D02*
X287058100Y-198555080D01*
X276745700Y-189484000D02*
X285816780Y-198555080D01*
X337477100Y-177838100D02*
X337477100Y-173399934D01*
X337477100Y-173399934D02*
X338586762Y-172290272D01*
X338493100Y-178854100D02*
X337477100Y-177838100D01*
X338493100Y-184315100D02*
X338493100Y-178854100D01*
X257032110Y-170316090D02*
X257032110Y-187563110D01*
X257032110Y-187563110D02*
X257340100Y-187871100D01*
X259118100Y-168734100D02*
X258614100Y-168734100D01*
X258614100Y-168734100D02*
X257032110Y-170316090D01*
X277199710Y-187849395D02*
X277025100Y-187674785D01*
X277199710Y-189295944D02*
X277199710Y-187849395D01*
X285680866Y-197777100D02*
X277199710Y-189295944D01*
X277025100Y-187674785D02*
X277025100Y-187109100D01*
X287820100Y-197777100D02*
X285680866Y-197777100D01*
M02*
